<?xml version="1.0" standalone="no"?>
<!DOCTYPE svg PUBLIC "-//W3C//DTD SVG 1.1//EN" "http://www.w3.org/Graphics/SVG/1.1/DTD/svg11.dtd" >
<svg>
<metadata>
Created by FontForge 20090622 at Sun Oct 18 20:49:40 2015
 By deploy user
&#194;&#169; 1985, 1987, 1990, 1994, 2001, 2002 Adobe Systems Incorporated. All rights reserved.
</metadata>
<defs>
<font id="NewBaskervilleStd-Roman" horiz-adv-x="556" >
  <font-face 
    font-family="ITC New Baskerville Std"
    font-weight="400"
    font-stretch="normal"
    units-per-em="1000"
    panose-1="2 2 6 2 6 5 6 2 3 4"
    ascent="682"
    descent="-318"
    x-height="427"
    cap-height="660"
    bbox="-205 -272 1207 906"
    underline-thickness="50"
    underline-position="-50"
    unicode-range="U+0020-U+FB02"
  />
<missing-glyph horiz-adv-x="500" 
d="M0 0v700h500v-700h-500zM250 395l170 255h-340zM280 350l170 -255v510zM80 50h340l-170 255zM50 605v-510l170 255z" />
    <glyph glyph-name="f_i" unicode="fi" horiz-adv-x="600" 
d="M499 424v-306v-25.5t0.5 -22.5t3 -16.5t6.5 -15t12 -9.5t19.5 -8t28.5 -3v-20q-19 0 -55.5 2t-54.5 2q-20 -1 -58.5 -2t-57.5 -2v20q11 1 20 2.5t16 2.5t12 5.5t8.5 6t6 8.5t4 9t2.5 12.5t1 13t0.5 16.5t0.5 18v194v20v16.5t-0.5 12.5t-1.5 10.5t-3.5 7t-6 5t-9.5 2.5
t-13 2h-18h-176v-264v-22.5t0.5 -20.5t1.5 -15.5t4 -14.5t8 -10t12.5 -9t18 -4.5t25.5 -3.5v-20q-18 0 -54.5 2t-55.5 2t-57 -2t-57 -2v20q48 3 58.5 18.5t10.5 61.5v14v270h-72v27h72v52q0 109 51.5 160t161.5 51q25 0 48.5 -3t52 -10.5t45.5 -25t17 -43.5q0 -17 -13 -28.5
t-31 -11.5q-19 0 -27.5 10t-12 25t-9 29.5t-24 24.5t-52.5 10q-41 0 -67 -13t-37.5 -40t-14.5 -53t-3 -68v-66h172q72 0 141 15z" />
    <glyph glyph-name="f_l" unicode="fl" horiz-adv-x="620" 
d="M516 672v-553q0 -7 -0.5 -23t0 -21t1.5 -16t3.5 -14.5l7.5 -10t12.5 -8.5t18 -4.5t25.5 -3.5v-20q-15 0 -53 1.5t-58 2.5q-18 0 -55.5 -2t-56.5 -2v20q13 1 22.5 2t16.5 4.5t12 5t8.5 8.5t5.5 9.5t3 13t1 13.5t0.5 18t0.5 20v398q0 74 -22.5 106.5t-94.5 32.5
q-77 0 -101 -41t-24 -125v-74h128v-27h-128v-263v-26.5t0.5 -22.5t2.5 -18t6.5 -14t12 -10t19 -6.5t28.5 -3.5v-20q-19 0 -55.5 2t-54.5 2q-19 0 -57 -2t-57 -2v20q26 2 40.5 6t21 16.5t7.5 23t1 37.5v11v270h-74v27h74v65q9 198 202 198q40 0 87 -13z" />
    <glyph glyph-name=".notdef" horiz-adv-x="500" 
d="M0 0v700h500v-700h-500zM250 395l170 255h-340zM280 350l170 -255v510zM80 50h340l-170 255zM50 605v-510l170 255z" />
    <glyph glyph-name=".null" horiz-adv-x="0" 
 />
    <glyph glyph-name="nonmarkingreturn" horiz-adv-x="333" 
 />
    <glyph glyph-name="space" unicode=" " horiz-adv-x="260" 
 />
    <glyph glyph-name="exclam" unicode="!" horiz-adv-x="320" 
d="M171 157h-24q5 189 -26 341q-16 69 -16 108q0 26 14.5 46t39.5 20q27 0 40.5 -21t13.5 -49q0 -36 -15 -104q-30 -149 -27 -341zM160 -13q-23 0 -40 16.5t-17 39.5t15.5 40.5t38.5 17.5q24 0 42 -15.5t18 -39.5t-16.5 -41.5t-40.5 -17.5z" />
    <glyph glyph-name="quotedbl" unicode="&#x22;" horiz-adv-x="380" 
d="M89 442l-33 196q-3 16 11 30t32 14t32 -14t11 -30l-33 -196h-20zM270 442l-33 196q-3 16 11 30t32 14t32 -14t11 -30l-33 -196h-20z" />
    <glyph glyph-name="numbersign" unicode="#" horiz-adv-x="520" 
d="M493 269l-7 -46h-123l-31 -223h-56l31 223h-126l-33 -223h-56l33 223h-123l7 46h125l21 147h-126l7 46h127l31 214h56l-31 -214h125l30 214h56l-30 -214h118l-7 -46h-119l-20 -147h121zM336 416h-125l-21 -147h126z" />
    <glyph glyph-name="dollar" unicode="$" horiz-adv-x="520" 
d="M196 660v82h28v-76q28 2 42 2q13 0 37 -2v76h28v-75q44 -3 90 -32t46 -69q0 -20 -11.5 -32.5t-31.5 -12.5q-16 0 -27 11.5t-11 28.5q0 7 2 19t2 18q0 33 -59 45v-267q38 -21 60 -35.5t47.5 -38.5t37 -53.5t11.5 -67.5q0 -68 -44 -116.5t-112 -69.5v-143h-28v139
q-5 0 -14 -1t-16.5 -1.5t-14.5 -0.5q-12 0 -34 2v-138h-28v138q-33 2 -67.5 11.5t-65 33.5t-30.5 56q0 20 12.5 32.5t31.5 12.5q40 0 40 -45l-1 -17q0 -54 80 -62v321q-63 23 -104.5 64t-41.5 100q0 62 41.5 105.5t104.5 57.5zM196 433v203q-81 -33 -81 -103q0 -62 81 -100z
M303 389v255q-13 1 -38 1q-27 0 -41 -1v-223zM331 268v-245q40 14 64 48.5t24 78.5q0 37 -23 63.5t-65 54.5zM224 320v-308q3 0 13 -1t15 0q17 1 51 5v268z" />
    <glyph glyph-name="percent" unicode="%" horiz-adv-x="900" 
d="M703 731l-478 -804h-41l423 714l-2 2q-65 -36 -117 -36q-31 0 -78 15q11 -30 11 -69q0 -82 -51 -160.5t-128 -78.5q-68 0 -110.5 45t-42.5 113q0 83 59.5 157t140.5 74q47 0 96 -34.5t101 -34.5q98 0 184 97h33zM309 676q-42 0 -77 -45t-51.5 -98.5t-16.5 -94.5
q0 -38 20.5 -67.5t57.5 -29.5q46 0 81.5 41t50.5 91t15 94q0 43 -20 76t-60 33zM627 -48q-66 0 -108.5 43.5t-42.5 109.5q0 87 59.5 161t144.5 74q61 0 95.5 -40.5t34.5 -102.5q0 -55 -20 -109.5t-63.5 -95t-99.5 -40.5zM693 313q-41 0 -75 -45.5t-50.5 -99t-16.5 -92.5
t21 -68t58 -29q45 0 80.5 40.5t51.5 91t16 93.5t-22 76t-63 33z" />
    <glyph glyph-name="ampersand" unicode="&#x26;" horiz-adv-x="740" 
d="M282 370q40 27 63 70t23 92q0 45 -20 79t-63 34q-41 0 -62.5 -27t-21.5 -67q0 -72 81 -181zM374 108l-150 186q-3 -3 -18.5 -16.5t-19.5 -17.5t-15 -16t-15 -19t-10 -19t-8 -24.5t-2 -26.5q0 -50 31.5 -86t80.5 -36q67 0 131 70zM298 349l143 -170l52 87q18 33 26 46
t27 38.5t40 36t47 10.5q29 0 50.5 -19.5t21.5 -47.5q0 -21 -15.5 -38t-36.5 -17t-33 13.5t-12 34.5q0 1 0.5 6t0 8.5t-1 7.5t-3 6t-6.5 2q-30 0 -75 -90l-53 -91l-9 -14l17.5 -17.5t22.5 -22l22 -21t25.5 -21.5l24.5 -16t26.5 -13t24.5 -4q39 0 82 49l17 -16
q-67 -86 -151 -86q-35 0 -68.5 15.5t-53 31.5t-52.5 47q-87 -97 -207 -97q-56 0 -100.5 34t-44.5 88q0 48 27 89.5t58 64.5t80 52q-70 98 -70 192q0 68 44 116.5t111 48.5q60 0 98 -36t38 -95q0 -101 -134 -192z" />
    <glyph glyph-name="quotesingle" unicode="'" horiz-adv-x="220" 
d="M100 442l-33 196q-3 16 11 30t32 14t32 -14t11 -30l-33 -196h-20z" />
    <glyph glyph-name="parenleft" unicode="(" horiz-adv-x="440" 
d="M341 682l22 -19q-84 -114 -114.5 -196t-30.5 -215q0 -261 152 -426l-22 -20q-207 204 -207 442q0 234 200 434z" />
    <glyph glyph-name="parenright" unicode=")" horiz-adv-x="440" 
d="M99 -194l-22 20q82 109 113 194t31 217q0 260 -151 426l21 19q207 -199 207 -441q0 -37 -4.5 -72t-9 -59.5t-19.5 -57l-22 -48t-31 -50t-32 -45l-40 -51.5z" />
    <glyph glyph-name="asterisk" unicode="*" horiz-adv-x="500" 
d="M439 555q0 -25 -18.5 -34.5t-54.5 -15.5t-58 -18q-31 -15 -31 -20q0 -4 36 -24q19 -11 54 -16.5t53.5 -14.5t18.5 -33q0 -15 -12 -26.5t-27 -11.5q-19 0 -32.5 15.5t-32 39t-42.5 36.5q-23 14 -28 14q-8 0 -5 -40q1 -31 14 -60.5t14 -45.5q-1 -18 -10.5 -30.5
t-27.5 -12.5q-16 0 -27 12.5t-11 28.5q0 15 14 49t14 63q0 36 -5 36q-7 0 -22 -10q-28 -15 -47.5 -39.5t-33 -40t-32.5 -15.5q-15 0 -27 11.5t-12 26.5q0 33 42 43q15 3 27 4.5t17 1.5t14.5 3.5t23.5 10.5q38 20 38 25t-38 24q-14 8 -48 13t-55 15.5t-21 34.5q0 15 12 26.5
t27 11.5q19 0 33 -15.5t32.5 -39.5t41.5 -37q26 -13 28 -13q5 0 5 30q0 39 -14 72t-14 46q0 17 11 29t27 12t27 -12t11 -29q0 -14 -14 -48t-14 -64q0 -36 5 -36t33 16q22 12 39 35t30.5 38.5t32.5 15.5q15 0 27 -11t12 -26z" />
    <glyph glyph-name="plus" unicode="+" horiz-adv-x="520" 
d="M237 277v228h46v-228h204v-46h-204v-231h-46v231h-204v46h204z" />
    <glyph glyph-name="comma" unicode="," horiz-adv-x="260" 
d="M71 -154l-11 19q29 21 48.5 37.5t36.5 46t13 58.5q-16 -11 -31 -11q-23 0 -38 14.5t-15 37.5t16 38.5t39 15.5q33 0 52.5 -25.5t19.5 -60.5q0 -15 -2 -28.5t-7 -25.5l-9 -21t-14 -19.5l-15 -16t-19 -16t-19 -14l-22.5 -15t-22.5 -14.5z" />
    <glyph glyph-name="hyphen" unicode="-" horiz-adv-x="240" 
d="M241 191h-241v67h241v-67z" />
    <glyph glyph-name="period" unicode="." horiz-adv-x="260" 
d="M130 -13q-23 0 -40 16.5t-17 39.5t15.5 40.5t38.5 17.5q24 0 42 -15.5t18 -39.5t-16.5 -41.5t-40.5 -17.5z" />
    <glyph glyph-name="slash" unicode="/" horiz-adv-x="580" 
d="M79 -135h-42l438 817h45z" />
    <glyph glyph-name="zero" unicode="0" horiz-adv-x="520" 
d="M264 672q55 0 99 -34.5t69 -87.5t37.5 -108.5t12.5 -105.5q0 -52 -13 -110t-39 -113t-72.5 -90.5t-105.5 -35.5q-53 0 -96 35.5t-67.5 89t-37.5 108.5t-13 101q0 50 13.5 107.5t39 113.5t71 93t102.5 37zM368 167l14 196q0 286 -114 286q-89 0 -115 -147l-15 -199v-36
t1 -42.5t4 -50l8 -47t13.5 -46.5t20 -35.5t29 -27t38.5 -8.5q93 0 116 157z" />
    <glyph glyph-name="one" unicode="1" horiz-adv-x="520" 
d="M311 682v-534q0 -70 7 -97q3 -9 10.5 -15.5t19.5 -9t21.5 -3.5t24.5 -1.5t19 -0.5v-23q-25 1 -75 2t-75 2q-25 0 -76 -2t-77 -2v23q1 0 18.5 0.5t26 1t23.5 3t23.5 7.5t11.5 12q9 20 9 103v356q0 70 -11 89q-10 18 -63 18h-58v20q51 3 79.5 6.5t67.5 14.5t74 30z" />
    <glyph glyph-name="two" unicode="2" horiz-adv-x="520" 
d="M136 85h325l-28 -141h-22l2 36q2 14 -3.5 17t-19.5 3h-6h-289h-51q44 83 152 193l18 18l60.5 62t47.5 59.5t38.5 76t11.5 82.5q0 66 -33.5 112t-96.5 46q-52 0 -87.5 -32t-35.5 -84q0 -39 25 -69.5t63 -30.5q29 0 56 29q-4 -33 -32.5 -54t-63.5 -21q-53 0 -84 35t-31 89
q0 76 61.5 118.5t140.5 42.5q91 0 154.5 -49t63.5 -138q0 -34 -10.5 -64.5t-22.5 -51t-39 -46.5t-42.5 -38l-50.5 -39q-120 -91 -171 -161z" />
    <glyph glyph-name="three" unicode="3" horiz-adv-x="520" 
d="M273 346q-31 0 -50 -18t-32.5 -36t-30.5 -18q-8 0 -13.5 5t-5.5 13t7 16.5t14.5 14t19.5 12t15 8.5q48 29 73.5 49t47.5 57.5t22 85.5t-23 76.5t-72 28.5q-44 0 -75 -24.5t-31 -66.5q0 -28 17 -49t44 -21q28 0 59 24q-10 -31 -35 -47.5t-59 -16.5q-37 0 -62.5 23.5
t-25.5 60.5q0 68 61 108.5t133 40.5q66 0 115.5 -32.5t49.5 -95.5q0 -33 -14 -61t-41.5 -49.5t-50.5 -35t-58 -29.5l2 -2q5 1 15.5 1t15.5 1q75 0 124.5 -40t49.5 -114q0 -100 -81 -164t-185 -64q-34 0 -68.5 8t-64.5 31t-30 57q0 16 13 27.5t30 11.5q22 0 33.5 -11.5
t17 -28t12.5 -33t27 -28t54 -11.5q76 0 109 52t33 131q0 153 -106 153z" />
    <glyph glyph-name="four" unicode="4" horiz-adv-x="520" 
d="M505 214h-116v-65q0 -71 8 -98q4 -13 16.5 -19.5t23.5 -8t31 -2t24 -0.5v-23q-25 1 -72 2.5t-69 1.5q-26 0 -76.5 -2t-76.5 -2v23q77 4 88 17q18 20 18 111v65h-267v35l328 427h24v-426h116v-36zM75 250h229v299h-2z" />
    <glyph glyph-name="five" unicode="5" horiz-adv-x="520" 
d="M128 554l-4 -203l2 -2q25 35 67 53t88 18q83 0 135.5 -51t52.5 -133q0 -110 -79.5 -179.5t-191.5 -69.5q-54 0 -107 23.5t-53 70.5q0 18 12 30t30 12q20 0 30.5 -11.5t15.5 -28.5t12 -33.5t26 -28t50 -11.5q45 0 76.5 19.5t48 53t23.5 69.5t7 79q0 157 -117 157
q-36 0 -76.5 -23t-40.5 -56q0 -3 1 -11.5t1 -15t-1 -14.5t-5.5 -12t-12.5 -4q-25 0 -25 28l15 402q61 -59 150 -59q49 0 82.5 15.5t71.5 53.5q-10 -72 -62.5 -111.5t-127.5 -39.5q-42 0 -94 13z" />
    <glyph glyph-name="six" unicode="6" horiz-adv-x="520" 
d="M495 217q0 -93 -63.5 -161.5t-156.5 -68.5q-59 0 -104 27.5t-71 72.5t-38.5 96t-12.5 105q0 51 8 102t27.5 102.5t49 91t76 64t104.5 24.5q44 0 86.5 -19.5t42.5 -58.5q0 -18 -12 -30.5t-30 -12.5q-21 0 -34 14.5t-19.5 32.5t-22 32.5t-40.5 14.5t-45 -10t-33.5 -23.5
t-23.5 -39t-15.5 -44t-9.5 -51.5t-5 -48.5t-2.5 -48t-1.5 -38.5l2 -2q31 43 65.5 65t83.5 22q87 0 141 -61.5t54 -148.5zM149 300v-59q0 -231 126 -231q39 0 64.5 18t36.5 50.5t15 62t4 67.5q0 30 -1.5 51t-7.5 49t-17.5 45t-33.5 29.5t-53 12.5q-74 0 -133 -95z" />
    <glyph glyph-name="seven" unicode="7" horiz-adv-x="520" 
d="M317 346l119 225h-221q-69 0 -87.5 -9.5t-36.5 -67.5l-11 -34h-24l58 274h26l-2 -10q-6 -33 -6 -41q0 -7 1.5 -12t5 -8t6.5 -4.5t10.5 -2t12 -0.5h15.5h17h295v-17q-130 -251 -192 -527q-1 -4 -4 -19t-5 -23.5t-6.5 -23t-9.5 -23t-12 -18t-16.5 -14t-20.5 -4.5
q-20 0 -34 14.5t-14 34.5q0 55 136 310z" />
    <glyph glyph-name="eight" unicode="8" horiz-adv-x="520" 
d="M284 288l-76 37q-93 -49 -93 -169q0 -70 40.5 -108t111.5 -38q60 0 103 37.5t43 96.5q0 29 -10 51.5t-32.5 40.5t-38 27t-48.5 25zM344 366q135 -68 135 -185q0 -87 -65 -140.5t-155 -53.5q-82 0 -150 43.5t-68 120.5q0 115 144 185q-121 63 -121 165q0 70 56 123
q54 48 139 48q76 0 129 -36q66 -45 66 -115q0 -53 -28.5 -88.5t-81.5 -66.5zM255 407l68 -32q63 63 63 132q0 62 -34.5 102t-95.5 40q-53 0 -90.5 -29.5t-37.5 -81.5q0 -26 10 -46.5t33 -37t38 -25t46 -22.5z" />
    <glyph glyph-name="nine" unicode="9" horiz-adv-x="520" 
d="M476 371q0 -65 -14 -128.5t-43 -123t-83 -96t-125 -36.5q-44 0 -86.5 19.5t-42.5 58.5q0 18 12 30.5t30 12.5q20 0 33.5 -14.5t19.5 -32.5t22 -32.5t41 -14.5q28 0 50 11t36 34.5t23 44t14 57.5t7 56t4 57t2 45h-2q-63 -86 -149 -86q-87 0 -141.5 61t-54.5 148
q0 93 64 161.5t157 68.5q59 0 104 -27.5t71 -72.5t38.5 -96t12.5 -105zM376 359v58q0 232 -126 232q-39 0 -65 -18t-37 -50.5t-15 -62t-4 -67.5t3 -64.5t13 -57.5t34.5 -47.5t62.5 -16.5q76 0 134 94z" />
    <glyph glyph-name="colon" unicode=":" horiz-adv-x="260" 
d="M130 323q-23 0 -40 16.5t-17 39.5t15.5 40.5t38.5 17.5q24 0 42 -15.5t18 -39.5t-16.5 -41.5t-40.5 -17.5zM130 -13q-23 0 -40 16.5t-17 39.5t15.5 40.5t38.5 17.5q24 0 42 -15.5t18 -39.5t-16.5 -41.5t-40.5 -17.5z" />
    <glyph glyph-name="semicolon" unicode=";" horiz-adv-x="260" 
d="M71 -157l-11 19q29 21 48.5 37.5t36.5 46t13 58.5q-16 -11 -31 -11q-23 0 -38 14.5t-15 37.5t16 38.5t39 15.5q33 0 52.5 -25.5t19.5 -60.5q0 -15 -2 -28.5t-7 -25.5l-9 -21t-14 -19.5l-15 -16t-19 -16t-19 -14l-22.5 -15t-22.5 -14.5zM132 323q-23 0 -40 16.5t-17 39.5
t15.5 40.5t38.5 17.5q24 0 42 -15.5t18 -39.5t-16.5 -41.5t-40.5 -17.5z" />
    <glyph glyph-name="less" unicode="&#x3c;" horiz-adv-x="520" 
d="M73 244l416 -213v-51l-458 232v64l458 232v-53z" />
    <glyph glyph-name="equal" unicode="=" horiz-adv-x="520" 
d="M487 359v-46h-454v46h454zM487 193v-46h-454v46h454z" />
    <glyph glyph-name="greater" unicode="&#x3e;" horiz-adv-x="520" 
d="M31 31l416 213l-416 211v53l458 -232v-64l-458 -232v51z" />
    <glyph glyph-name="question" unicode="?" horiz-adv-x="400" 
d="M138 161h-27v187h61q135 0 135 109q0 55 -33.5 98t-87.5 43q-15 0 -44.5 -5.5t-43.5 -5.5q-20 0 -35.5 10.5t-15.5 29.5q0 22 17 33.5t40 11.5q93 0 164 -75t71 -169q0 -87 -55.5 -126.5t-145.5 -39.5v-101zM130 -13q-23 0 -40 16.5t-17 39.5t15.5 40.5t38.5 17.5
q24 0 42 -15.5t18 -39.5t-16.5 -41.5t-40.5 -17.5z" />
    <glyph glyph-name="at" unicode="@" horiz-adv-x="820" 
d="M450 273l50 136q8 20 8 29q0 27 -15.5 46t-44.5 19q-48 0 -90.5 -58.5t-63 -125.5t-20.5 -111q0 -24 15.5 -39.5t41.5 -15.5q74 0 119 120zM529 474l12 42h85l-94 -253q-25 -64 -25 -86q0 -21 25 -21q27 0 60 14.5t55 33.5q81 68 81 183q0 100 -83 176.5t-217 76.5
q-133 0 -220 -89.5t-87 -216.5q0 -131 85 -223t220 -92q94 0 171 44.5t120 117.5h33q-37 -88 -128.5 -141t-196.5 -53q-153 0 -259 100.5t-106 242.5q0 139 106.5 240.5t256.5 101.5q139 0 238 -80t99 -207q0 -96 -69 -177q-32 -37 -77.5 -59.5t-94.5 -22.5
q-29 0 -53.5 13.5t-28.5 38.5q-56 -52 -121 -52q-55 0 -87.5 38t-32.5 90q0 61 27 123.5t81.5 107.5t122.5 45q34 0 63 -14t37 -42h2z" />
    <glyph glyph-name="A" unicode="A" horiz-adv-x="660" 
d="M167 240l-9 -25q-2 -4 -10.5 -25.5t-13 -34l-11.5 -31.5t-10 -34t-3 -26q0 -10 4.5 -18t9.5 -12t15.5 -6.5t16.5 -3.5t19 -2t16 -1v-23q-18 0 -54.5 2t-55.5 2q-17 0 -51.5 -2t-52.5 -2v23q41 5 61 19.5t35 51.5l83 191l153 393h34l202 -508l14 -33l20.5 -46.5
t17.5 -30.5q22 -30 86 -37v-23q-24 1 -71.5 2t-70.5 2q-24 -1 -72.5 -2t-72.5 -2v23h9t10 0.5t10 1t10.5 1t9.5 2t9 3.5l7.5 5t6.5 6.5t3.5 8t1.5 10.5q0 27 -20 78l-39 103h-247zM180 272h221l-110 282z" />
    <glyph glyph-name="B" unicode="B" horiz-adv-x="640" 
d="M225 584v-225h32h12.5h13h12t12.5 0.5t11 1.5t12 2t11 2.5t12 3.5t11 5l12 6q51 33 51 118q0 133 -137 133q-53 0 -59 -5t-6 -42zM225 332v-139q0 -96 12 -126q6 -15 17 -24.5t28.5 -13t28 -4t31.5 -0.5q142 0 142 153q0 94 -72 133q-10 5 -20 8.5t-23 6l-21 4t-24.5 2
t-21.5 0.5h-24.5h-21.5h-31zM122 188v282q0 106 -9 133q-4 12 -12.5 20t-23 10.5t-23 3t-26.5 0.5v23q24 0 71.5 -2t71.5 -2q20 0 59.5 2t59.5 2q44 1 83.5 -5t78 -22t61.5 -49.5t23 -80.5q0 -108 -150 -153v-2q100 -9 146 -41q77 -52 77 -138q0 -93 -97 -145
q-25 -13 -62.5 -19t-56 -6.5t-65.5 -0.5q-22 0 -65.5 2t-65.5 2q-28 0 -84.5 -2t-84.5 -2v23q18 0 26.5 0.5t23 3t23 10.5t12.5 20q9 27 9 133z" />
    <glyph glyph-name="C" unicode="C" horiz-adv-x="680" 
d="M600 610l16 47h15l8 -197h-23q-13 85 -69.5 137t-141.5 52q-64 0 -111.5 -29.5t-72.5 -78.5t-37 -103.5t-12 -115.5q0 -60 12.5 -113t38.5 -99t73 -73t111 -27q51 0 89 16.5t63 49t41 68.5t28 86h18v-219h-13l-24 51q-95 -75 -221 -75q-153 0 -247 91.5t-94 243.5t99 251
t251 99q60 0 104.5 -14t98.5 -48z" />
    <glyph glyph-name="D" unicode="D" horiz-adv-x="740" 
d="M122 188v280q0 106 -9 133q-4 12 -12.5 20t-23 10.5t-23 3t-26.5 0.5v25q20 0 62.5 -1.5t63.5 -2.5q27 0 81 2t81 2q161 3 266 -91t105 -254q0 -156 -93.5 -238.5t-251.5 -78.5q-30 0 -89.5 2t-88.5 2q-23 -1 -68.5 -2.5t-67.5 -1.5v23q22 0 35 1t29 9t21 24q9 27 9 133z
M225 595v-421q0 -1 -0.5 -20.5t0 -26t2 -21.5t5 -25t9.5 -18q26 -38 112 -38q63 0 106 21t64.5 61.5t30 85.5t8.5 106q0 162 -60 248t-211 86q-53 0 -60 -7q-6 -6 -6 -31z" />
    <glyph glyph-name="E" unicode="E" horiz-adv-x="620" 
d="M122 190v276q0 106 -10 133q-9 22 -30.5 28t-55.5 6v27h497v-151h-23q-7 43 -19.5 68.5t-37.5 37.5t-49.5 15t-70.5 3h-72q-23 0 -25 -4q-1 -2 -1 -37v-237q94 -4 126 27.5t37 95.5h23q-2 -92 -4 -136q2 -40 4 -124h-23q-10 73 -45 91.5t-118 18.5v-164q0 -77 18 -101
q29 -38 128 -36q45 1 72 5.5t53.5 17.5t40.5 40.5t19 70.5h23l-9 -161h-544v23q22 0 35 1t29 9t22 24q10 27 10 133z" />
    <glyph glyph-name="F" unicode="F" horiz-adv-x="540" 
d="M519 660l16 -157h-23q-7 24 -10 33t-11 26.5t-19 27.5t-27 17q-41 18 -148 18q-62 0 -71 -5q-8 -5 -8 -51v-224q94 -4 126 26.5t37 94.5h23q-2 -92 -4 -136q2 -40 4 -124h-23q-4 31 -14 51.5t-21 31.5t-34 16.5t-41 6.5t-53 1v-126q0 -105 10 -132q4 -11 12 -18.5
t20 -10.5t20.5 -4t24.5 -1h22v-23q-26 1 -77.5 2t-76.5 2q-25 0 -76 -1.5t-78 -2.5v23q22 0 35 1t29 9t22 24q10 27 10 133v282q0 106 -10 133q-9 22 -30.5 28t-55.5 6v23q31 -1 90.5 -2.5t88.5 -1.5q54 0 161 2t160 2z" />
    <glyph glyph-name="G" unicode="G" horiz-adv-x="740" 
d="M637 654l-11 -198h-21q-5 86 -58 139.5t-138 53.5q-56 0 -99 -20.5t-68.5 -52.5t-42 -78t-22 -90.5t-5.5 -96.5q0 -59 12 -110t37.5 -94t71.5 -68t107 -25q78 0 122.5 37.5t44.5 112.5q0 48 -18.5 64.5t-67.5 20.5v23h262v-23q-38 1 -50 -17t-12 -59v-106q-14 0 -25 -0.5
t-18.5 -1t-17 -3l-13.5 -3.5t-15 -6t-14 -6.5t-17.5 -10t-20.5 -11.5q-75 -38 -157 -38q-148 0 -242 89.5t-94 236.5q0 155 97.5 257t252.5 102q124 0 208 -63l21 45h11z" />
    <glyph glyph-name="H" unicode="H" horiz-adv-x="820" 
d="M232 322v-134q0 -106 10 -133q9 -22 30.5 -28t55.5 -6v-23q-24 1 -72.5 2t-72.5 2q-25 -1 -75.5 -2.5t-74.5 -1.5v23q22 0 35 1t29 9t22 24q10 27 10 133v282q0 106 -10 133q-9 22 -30.5 28t-55.5 6v23q23 0 71 -1.5t72 -2.5q25 0 75.5 2t76.5 2v-23q-22 0 -35 -1t-29 -9
t-22 -24q-10 -27 -10 -133v-116h357v116q0 106 -10 133q-9 22 -30.5 28t-55.5 6v23q25 0 73 -2t73 -2t74.5 2t74.5 2v-23q-22 0 -35 -1t-29 -9t-22 -24q-10 -27 -10 -133v-282q0 -106 10 -133q9 -22 30.5 -28t55.5 -6v-23q-24 1 -72.5 2t-72.5 2q-25 -1 -75 -2t-75 -2v23
q22 0 35 1t29 9t22 24q10 27 10 133v134h-357z" />
    <glyph glyph-name="I" unicode="I" horiz-adv-x="360" 
d="M129 188v282q0 106 -10 133q-9 22 -30.5 28t-55.5 6v23q24 0 72 -2t72 -2q26 1 76 2.5t75 1.5v-23q-22 0 -35 -1t-29 -9t-22 -24q-10 -27 -10 -133v-282q0 -106 10 -133q9 -22 30.5 -28t55.5 -6v-23q-23 0 -71.5 1.5t-72.5 2.5q-25 0 -75.5 -2t-75.5 -2v23q22 0 35 1
t29 9t22 24q10 27 10 133z" />
    <glyph glyph-name="J" unicode="J" horiz-adv-x="340" 
d="M222 492v-535q-4 -96 -34 -141q-53 -79 -177 -79q-23 0 -45 2.5t-50 9t-45 22.5t-17 39q0 17 12 28t29 11q31 0 50 -42q10 -26 24.5 -37t42.5 -11q83 0 101 84q6 28 6 65v636q0 35 -10 59q-6 16 -22.5 24t-29 9t-34.5 1v23q24 0 72 -2t72 -2q25 0 75 1.5t76 2.5v-23
q-71 0 -86 -34q-10 -22 -10 -111z" />
    <glyph glyph-name="K" unicode="K" horiz-adv-x="660" 
d="M287 312l-62 -65v-118q0 -72 13.5 -87t85.5 -21v-23q-24 1 -73 2t-73 2q-26 0 -76.5 -2t-75.5 -2v23q22 0 35 1t29 9t22 24q10 27 10 133v282q0 106 -10 133q-9 22 -30.5 28t-55.5 6v23q24 0 71.5 -2t71.5 -2q26 0 77.5 2t77.5 2v-23q-71 -6 -85 -21.5t-14 -86.5v-244
q241 251 241 312q0 10 -4 17.5t-8.5 11t-14 6t-15.5 3l-17.5 1.5t-15.5 1v23q20 0 59.5 -2t59.5 -2q18 0 52.5 2t51.5 2v-23q-39 -1 -56.5 -11.5t-44.5 -44.5l-160 -198l139 -160q0 -1 12.5 -16.5l25 -31l31 -38.5t34.5 -41t33 -35t28 -25q6 -4 11 -7t12 -4.5t10.5 -2
t12.5 -1t13 -0.5v-23q-27 1 -80 2t-79 2q-26 0 -76 -2t-76 -2v23q84 0 84 30q0 20 -79 114z" />
    <glyph glyph-name="L" unicode="L" horiz-adv-x="620" 
d="M122 188v282q0 106 -10 133q-9 22 -30.5 28t-55.5 6v23q24 0 71.5 -2t71.5 -2q26 0 76 2t76 2v-23q-22 0 -35 -1t-29 -9t-22 -24q-10 -27 -10 -133v-296q0 -96 26 -122.5t121 -26.5h9q95 0 133 25q24 15 37.5 35.5t17.5 37.5t10 52h25l-9 -177q-36 2 -52 4
q-85 -1 -517 -4v23q22 0 35 1t29 9t22 24q10 27 10 133z" />
    <glyph glyph-name="M" unicode="M" horiz-adv-x="880" 
d="M753 491v-362q0 -72 13.5 -87t85.5 -21v-23q-27 1 -77 2.5t-73 1.5q-25 0 -75.5 -2t-75.5 -2v23q72 6 85.5 21t13.5 87v436h-2l-114 -279l-125 -288h-10l-243 567h-2v-421q0 -63 19.5 -91.5t76.5 -31.5v-23q-18 1 -55 2t-56 2q-17 0 -52 -2t-53 -2v23q90 0 90 91v426
q0 42 -9 65q-9 22 -30.5 28t-55.5 6v23q35 -2 101 -4q60 2 92 4l220 -512l214 512q30 -2 94 -4q64 2 99 4v-24q-71 0 -86 -34q-10 -22 -10 -111z" />
    <glyph glyph-name="N" unicode="N" horiz-adv-x="760" 
d="M131 208v369q-24 34 -46.5 46.5t-62.5 13.5v23q16 0 47.5 -2t47.5 -2q13 0 39.5 2t39.5 2l422 -515h2v278q0 113 -9 154q-3 12 -6 20.5t-8.5 14.5t-9.5 9.5t-13.5 6t-14 3.5t-18 3t-19.5 3v23q19 0 55.5 -2t54.5 -2q17 0 52 1.5t54 2.5v-23q-3 0 -14.5 -1t-14.5 -2
t-11.5 -2.5t-12 -4.5l-9 -7.5t-8.5 -11t-6 -15.5q-12 -38 -12 -175v-431h-30l-66 83l-391 474h-2v-336q0 -112 15 -146q4 -8 8 -14t10.5 -10.5t11 -7t13.5 -4t13 -2.5t15.5 -2t15.5 -1v-23q-19 1 -57.5 2t-57.5 2q-18 -1 -55.5 -2t-55.5 -2v23q21 2 29.5 3.5t23.5 6t22 14.5
t11 25q8 36 8 138z" />
    <glyph glyph-name="O" unicode="O" horiz-adv-x="820" 
d="M410 -13q-150 0 -256.5 96t-106.5 244q0 146 109.5 245.5t257.5 99.5q147 0 253 -96.5t106 -241.5q0 -152 -104.5 -249.5t-258.5 -97.5zM410 645q-62 0 -109.5 -28.5t-74.5 -75.5t-40.5 -101.5t-13.5 -112.5q0 -62 13 -115.5t40.5 -99t76 -72t114.5 -26.5q64 0 111 28
t72.5 75t37 100t11.5 113q0 47 -7.5 90.5t-25.5 85t-45 72t-68 49t-92 18.5z" />
    <glyph glyph-name="P" unicode="P" horiz-adv-x="580" 
d="M225 309v-121q0 -106 10 -133q4 -11 11.5 -18t19 -10t19.5 -4t24.5 -1.5t21.5 -0.5v-23q-26 0 -78 2t-78 2q-24 0 -73 -1.5t-74 -2.5v23q22 0 35 1t29 9t21 24q9 27 9 133v281q0 107 -9 134q-4 12 -12.5 20t-23.5 10.5t-23 3t-26 0.5v23q26 -1 76 -2.5t75 -1.5
q24 0 71.5 2t71.5 2q60 -2 108.5 -17.5t85 -55.5t36.5 -100q0 -42 -16 -74.5t-41 -52.5t-60.5 -32.5t-69.5 -17t-73 -4.5q-11 0 -39 2zM225 584v-248q6 0 26.5 -2t31.5 -2q78 0 116 36t38 116q0 147 -143 147q-52 0 -62 -6q-7 -4 -7 -41z" />
    <glyph glyph-name="Q" unicode="Q" horiz-adv-x="800" 
d="M417 645q-64 0 -113 -27.5t-77 -73.5t-41.5 -100.5t-13.5 -114.5t12.5 -114t39 -101.5t75 -75.5t112.5 -28q79 0 135.5 48.5t80.5 117t24 146.5q0 58 -12.5 112.5t-39 103t-73.5 78t-109 29.5zM258 -72l101 57q-139 34 -225.5 118t-86.5 218q0 149 110 250t261 101
q145 0 251.5 -94t106.5 -237q0 -98 -55 -180.5t-145 -131.5q-46 -25 -125 -41t-122 -45v-2q13 0 35 2q71 0 184.5 -42.5t179.5 -42.5q29 0 52.5 6.5t36.5 16t22 19t13.5 16t6.5 6.5q6 0 6 -26q0 -63 -50.5 -105t-117.5 -42q-46 0 -90 17t-77.5 41.5l-65 49.5t-66 42
t-67.5 17t-75 -26t-52 -26q-19 0 -19 21q0 26 73 43z" />
    <glyph glyph-name="R" unicode="R" horiz-adv-x="660" 
d="M225 594v-261q47 0 71.5 1.5t57 9t48.5 22.5t27.5 44t11.5 71q0 68 -37 109t-103 41q-63 0 -65 -1q-11 -5 -11 -36zM375 323l212 -243q26 -30 44 -41.5t54 -17.5v-23q-15 0 -45 2t-45 2q-12 -1 -37 -2t-38 -2l-47 58l-166 206l-13 16t-11.5 13l-8.5 7t-12 5.5t-14.5 1.5
t-22.5 1v-118q0 -106 9 -133q4 -12 12.5 -20t23.5 -10.5t23 -3t26 -0.5v-23q-22 0 -69 1.5t-72 2.5q-25 -1 -75 -2t-75 -2v23q22 0 35 1t29 9t21 24q9 27 9 133v282q0 106 -9 133q-4 12 -12.5 20t-23 10.5t-23 3t-26.5 0.5v23q29 0 86 -2t86 -2q21 0 63.5 2t63.5 2
q48 0 85 -6.5t71.5 -23.5t53.5 -51t19 -84q0 -77 -51 -121t-130 -51z" />
    <glyph glyph-name="S" unicode="S" horiz-adv-x="520" 
d="M45 5v195h23q37 -186 189 -186q61 0 102 33t41 92q0 32 -12.5 57.5t-37.5 44t-46.5 29.5t-55.5 25q-41 16 -69 30.5t-58 37.5t-45.5 55.5t-15.5 73.5q0 83 56.5 131.5t141.5 48.5q79 0 151 -51l23 39h11l5 -173h-23q-44 158 -167 158q-49 0 -83 -29t-34 -77q0 -23 9 -42
t19 -30.5t33 -25t33.5 -18l38.5 -16.5q50 -21 80 -36.5t67 -42.5t55 -63.5t18 -83.5q0 -92 -71.5 -143t-167.5 -51q-94 0 -175 60l-24 -42h-11z" />
    <glyph glyph-name="T" unicode="T" horiz-adv-x="660" 
d="M635 660l9 -156h-27q-4 72 -35 98t-103 26h-17h-19t-17.5 -0.5t-17.5 -2.5t-13 -5t-10 -7.5t-3 -11.5v-474q0 -59 20.5 -81t90.5 -25v-23q-28 0 -83 2t-83 2q-26 0 -79 -1.5t-80 -2.5v23q70 3 90.5 25t20.5 81v474q0 10 -5.5 16t-18.5 8t-22 2.5t-28 0.5h-10
q-44 0 -66 -3t-44 -14.5t-31 -37t-10 -69.5h-23v156h614z" />
    <glyph glyph-name="U" unicode="U" horiz-adv-x="780" 
d="M651 448v-185q0 -140 -61 -208t-200 -68q-138 0 -202 55.5t-64 188.5v239q0 106 -10 133q-9 22 -30.5 28t-55.5 6v23q23 0 71 -2t71 -2q26 0 76.5 2t75.5 2v-23q-18 0 -26.5 -0.5t-23 -3t-23.5 -10.5t-13 -20q-9 -27 -9 -133v-246q0 -100 44 -150.5t143 -50.5
q207 0 207 206v219q0 112 -10 143q-9 28 -32.5 37t-60.5 9v23q20 0 58.5 -2t57.5 -2q18 0 55.5 1.5t56.5 2.5v-23q-50 -2 -65 -14q-11 -8 -16 -22q-14 -36 -14 -153z" />
    <glyph glyph-name="V" unicode="V" horiz-adv-x="640" 
d="M306 -20l-215 534q-3 6 -9.5 23t-9 23t-9 19.5t-11.5 19t-14 14.5t-18 13t-22 7t-28 4v23q24 0 71 -2t70 -2q24 0 73 2t74 2v-23q-16 0 -25.5 -1t-23.5 -4t-21.5 -12.5t-7.5 -23.5q0 -30 76 -230l102 -254l95 232q75 204 75 244q0 18 -6 28.5t-20 14.5t-23 5t-29 1v23
q19 0 57 -2t57 -2q18 0 53 2t52 2v-23q-21 0 -38.5 -7.5t-28 -15.5t-22 -28t-15.5 -30t-13.5 -37t-12.5 -34l-203 -505h-30z" />
    <glyph glyph-name="W" unicode="W" horiz-adv-x="900" 
d="M617 -20l-156 511h-2l-79 -272l-82 -239h-34l-175 538l-9 27q-8 27 -14.5 42.5t-13.5 23.5q-8 11 -21 16.5t-22 7t-29 2.5v23q24 0 72 -2t72 -2t73.5 2t74.5 2v-23q-2 0 -13 -1t-15 -1.5t-14.5 -2t-15 -3.5t-12 -6t-11 -8.5t-6.5 -11.5t-3 -15q0 -15 30 -122l105 -343h2
l157 537h32l164 -529h2l68 218q53 179 53 221q0 21 -4.5 34t-18.5 19.5t-22.5 8.5t-32.5 4q-5 1 -8 1v23q18 0 54 -2t54 -2t52.5 2t51.5 2v-23q-13 0 -25 -3.5t-20 -8t-16 -15.5t-12.5 -16.5t-10.5 -22t-7.5 -21.5t-6.5 -24t-6 -21l-165 -525h-35z" />
    <glyph glyph-name="X" unicode="X" horiz-adv-x="740" 
d="M404 360l221 -278q17 -22 28.5 -33.5t31 -20.5t42.5 -7v-23q-23 0 -70 2t-71 2q-25 0 -75.5 -2t-75.5 -2v23q3 1 24 1t36 4t15 15q0 20 -53 88l-120 156l-67 -85q-85 -111 -85 -146q0 -7 3 -13t9 -9.5t11.5 -5.5t14.5 -3t14.5 -1.5t14.5 -0.5h11v-23q-20 0 -60.5 2
t-60.5 2t-58.5 -2t-58.5 -2v23q47 4 74 23.5t61 63.5l157 200l-206 262l-21.5 26.5t-18 18.5t-26.5 17t-31 5v23q23 0 68.5 -2t67.5 -2q25 0 74.5 2t73.5 2v-23h-9.5t-10.5 -0.5t-10.5 -1t-11 -1t-10 -2t-9 -3.5t-7 -4.5t-5 -6t-1.5 -8.5q0 -14 35 -63l128 -164l40 55
q2 2 13 16.5l17 23l17.5 24t18.5 27l14.5 25t11 24.5t3.5 19q0 14 -8 22.5t-17 10.5t-24.5 3.5t-22.5 3.5v23q20 0 60 -2t60 -2q18 0 52.5 2t51.5 2v-23q-49 -8 -69 -24q-8 -6 -20 -20t-20.5 -25.5l-21.5 -29t-17 -22.5z" />
    <glyph glyph-name="Y" unicode="Y" horiz-adv-x="520" 
d="M308 262v-133q0 -72 13.5 -87t85.5 -21v-23q-25 1 -75 2t-75 2q-26 0 -77 -2t-76 -2v23q72 6 86.5 21.5t14.5 86.5v124l-92 159l-18 34l-34.5 64.5t-37 63t-32.5 45.5q-8 9 -15.5 12t-22.5 4t-20 2v23q23 0 68.5 -2t67.5 -2q24 0 71 2t70 2v-23q-75 0 -75 -32
q0 -22 26 -70l130 -241l64 102q99 165 99 199q0 6 -1.5 11t-5 9l-6 7t-8.5 5t-9.5 3.5t-11 2.5t-10.5 1.5t-10.5 1.5t-9.5 1v23q18 0 53.5 -2t53.5 -2q17 0 49 2t49 2v-23q-27 -2 -48 -17t-30 -28t-28 -44z" />
    <glyph glyph-name="Z" unicode="Z" horiz-adv-x="600" 
d="M563 182l-15 -182h-513l383 633h-145q-47 0 -73 -3.5t-51.5 -16.5t-39 -40t-20.5 -73h-27l10 160h476l-381 -633h169q102 0 141 28t59 127h27z" />
    <glyph glyph-name="bracketleft" unicode="[" horiz-adv-x="440" 
d="M368 650h-145v-768h145v-32h-211v832h211v-32z" />
    <glyph glyph-name="backslash" unicode="\" horiz-adv-x="260" 
d="M372 -135h-42l-441 817h45z" />
    <glyph glyph-name="bracketright" unicode="]" horiz-adv-x="440" 
d="M72 -150v32h145v768h-145v32h211v-832h-211z" />
    <glyph glyph-name="asciicircum" unicode="^" horiz-adv-x="520" 
d="M81 251h-47l191 405h70l191 -405h-51l-175 355z" />
    <glyph glyph-name="underscore" unicode="_" horiz-adv-x="500" 
d="M0 -75h500v-50h-500v50z" />
    <glyph glyph-name="grave" unicode="`" horiz-adv-x="360" 
d="M301 530h-37l-135 58q-1 0 -12.5 5l-15 6.5t-12.5 6.5t-12.5 9.5t-7 11.5t-3.5 15q0 14 10 24.5t24 10.5q16 0 44 -23z" />
    <glyph glyph-name="a" unicode="a" horiz-adv-x="480" 
d="M301 84v163q-7 -3 -33 -15t-39.5 -19t-36 -21t-34.5 -26t-21.5 -30t-9.5 -37q0 -29 17.5 -50.5t46.5 -21.5q51 0 110 57zM193 224l99 48q8 4 8 29q0 60 -16 88t-72 28q-30 0 -47 -3t-31.5 -16t-15.5 -38q-2 -18 -12 -31t-28 -13q-17 0 -27.5 10t-10.5 26q0 26 21 44.5
t53 27.5t59 12.5t51 3.5q87 0 124.5 -30.5t37.5 -113.5v-165v-10v-13t0.5 -13.5t1.5 -15l2.5 -14t4 -13.5t6 -10t9 -7.5t11.5 -2.5t10.5 1.5t9.5 6t7 7l7.5 9.5t6.5 8l19 -10q-13 -27 -38.5 -47t-51.5 -20q-30 0 -54 20.5t-32 50.5q-88 -71 -167 -71q-42 0 -73 24t-31 64
q0 12 3 24t7 21t13 19l14 16t18.5 15t19 13t22 12t21 10l22 10t19.5 9z" />
    <glyph glyph-name="b" unicode="b" horiz-adv-x="560" 
d="M177 282v-164q0 -104 108 -104q78 0 111.5 57.5t33.5 141.5q0 37 -7 69.5t-23 62t-45 46.5t-68 17q-28 0 -57 -14t-41 -38t-12 -74zM177 682v-298q55 56 136 56q94 0 155.5 -65.5t61.5 -158.5q0 -96 -64 -162.5t-160 -66.5q-42 0 -84 17t-68 47l-48 -58h-14v504
q0 86 -10 107q-3 7 -8.5 12t-13.5 7.5t-13 3.5t-16 2t-14 1v20z" />
    <glyph glyph-name="c" unicode="c" horiz-adv-x="460" 
d="M410 82l21 -18q-30 -38 -77.5 -57.5t-98.5 -19.5q-93 0 -154 59.5t-61 152.5q0 104 70 172.5t175 68.5q25 0 51.5 -4.5t52.5 -21t26 -41.5q0 -14 -10 -25.5t-23 -11.5q-30 0 -44 39q-9 23 -19.5 30.5t-37.5 7.5q-51 0 -84 -32.5t-45 -74.5t-12 -91q0 -39 7 -71.5
t22.5 -62t44.5 -46t70 -16.5q72 0 126 63z" />
    <glyph glyph-name="d" unicode="d" horiz-adv-x="580" 
d="M394 164v142q0 45 -36.5 73.5t-82.5 28.5q-38 0 -66.5 -18.5t-43 -49.5t-21 -63.5t-6.5 -68.5q0 -50 11 -91t43 -72t83 -31q63 0 91 42t28 108zM561 20l-134 -33q-15 31 -20 76q-63 -76 -156 -76t-153 63.5t-60 157.5t60 163t153 69q90 0 143 -62v158q0 52 -12.5 72.5
t-62.5 21.5v20l160 32v-505q0 -78 10 -104q5 -13 11.5 -20t18.5 -9.5t18 -3t24 -0.5v-20z" />
    <glyph glyph-name="e" unicode="e" horiz-adv-x="500" 
d="M423 93l21 -21q-69 -85 -178 -85q-95 0 -160.5 60.5t-65.5 154.5q0 96 65 167t160 71q79 0 135 -43t56 -120q0 -4 -1.5 -6t-4.5 -2.5t-5.5 -1t-7 0t-6.5 0.5h-287l-4 -48q0 -79 41 -140t116 -61q71 0 126 74zM149 295h165l10 -1q11 0 14.5 0.5t11 2.5t10.5 6.5t3 11.5
q0 47 -25 74.5t-72 27.5q-94 0 -117 -122z" />
    <glyph glyph-name="f" unicode="f" horiz-adv-x="320" 
d="M95 382h-80v27h80v54q0 102 43 155.5t143 53.5q24 0 49 -4.5t49 -19.5t24 -39q0 -13 -10.5 -22.5t-24.5 -9.5q-24 0 -35 28q-9 24 -21 34t-37 10q-60 0 -80 -48q-15 -36 -15 -123v-69h123v-27h-123v-265q0 -39 9 -62q4 -12 11.5 -19.5t20.5 -11t20.5 -4.5t26 -1.5
t21.5 -0.5v-20q-24 0 -71.5 2t-71.5 2q-23 0 -68.5 -2t-68.5 -2v20q26 2 42.5 7t25.5 10.5t13 22.5t4.5 28t0.5 42v254z" />
    <glyph glyph-name="g" unicode="g" horiz-adv-x="520" 
d="M228 145q53 0 77.5 39t24.5 95t-24 97t-76 41q-36 0 -59 -22.5t-31 -51.5t-8 -64q0 -53 23.5 -93.5t72.5 -40.5zM193 47l67 -3q102 -8 139 -24q71 -30 71 -122q0 -46 -19.5 -79.5t-53.5 -52.5t-72.5 -27.5t-81.5 -8.5q-34 0 -68 6.5t-67.5 20.5t-54 41.5t-20.5 64.5
q0 32 21.5 57.5t52.5 25.5q22 0 42 -18q-24 -4 -38 -25t-14 -46q0 -104 159 -104q60 0 103 27.5t43 83.5q0 18 -5.5 32t-12 23.5t-21.5 17t-24 11.5t-30 6.5t-28.5 3.5t-30.5 2t-27 1q-83 3 -112 15q-45 21 -45 75q0 34 26.5 57.5t61.5 28.5v2q-45 15 -76 53t-31 85
q0 76 55 119.5t133 43.5t127 -45q54 42 97 42q23 0 41 -11t18 -32q0 -14 -9.5 -23.5t-23.5 -9.5q-15 0 -32 17.5t-33 17.5q-18 0 -41 -19q36 -41 36 -98q0 -148 -192 -157q-85 -3 -102 -25q-5 -8 -5 -17q0 -10 5.5 -16.5t16 -9.5t18.5 -4.5t21.5 -2t15.5 -0.5z" />
    <glyph glyph-name="h" unicode="h" horiz-adv-x="600" 
d="M190 682v-328h2q54 86 154 86q150 0 150 -140v-181v-22.5v-21t1 -15.5t4 -14.5t8 -10t12.5 -9.5t18 -4.5t25.5 -3.5v-20q-19 1 -57.5 2t-58.5 2q-19 -1 -55 -2.5t-52 -1.5v20q26 2 40 6t20.5 16.5t7.5 22.5t1 36v14v148q0 30 -2.5 51t-11 45.5t-28 37.5t-49.5 13
q-32 0 -64.5 -20t-47.5 -50q-18 -36 -18 -109v-110v-18.5v-17t0.5 -14.5t1.5 -13l3.5 -10t6 -9.5t9 -7t12.5 -6t16 -3t21 -2.5v-20q-18 0 -54.5 2t-55.5 2q-19 -1 -57.5 -2t-57.5 -2v20q26 2 40.5 6t21 16.5t7.5 23.5t1 37v12v384q0 86 -10 107q-3 7 -8.5 12t-13.5 7.5
t-13 3.5t-16 2t-14 1v20z" />
    <glyph glyph-name="i" unicode="i" horiz-adv-x="280" 
d="M25 409l158 31v-321v-25.5t0.5 -23t3 -17t6.5 -15t12 -9.5t19.5 -8t28.5 -3v-20q-16 0 -52 1.5t-55 2.5q-20 0 -59 -2t-58 -2v20q48 3 58.5 18.5t10.5 61.5v15v143q0 96 -4 111q-7 25 -69 22v20zM131 565q-23 0 -39.5 15t-16.5 38q0 22 15.5 38t38.5 16q22 0 37.5 -15.5
t15.5 -38.5q0 -22 -15 -37.5t-36 -15.5z" />
    <glyph glyph-name="j" unicode="j" horiz-adv-x="260" 
d="M88 -27v283q0 96 -4 111q-7 25 -69 22v20l158 31v-521q0 -93 -50.5 -140t-145.5 -47q-25 0 -51.5 5t-51.5 21.5t-25 40.5q0 13 10.5 21.5t23.5 8.5q15 0 25 -11.5t15.5 -25.5t22.5 -25.5t44 -11.5q21 0 37 7t26 16t17.5 26.5t11 30.5t5 36.5t2 35t0 36t-0.5 30.5z
M122 565q-23 0 -39.5 15t-16.5 38t15.5 38.5t37.5 15.5q23 0 38.5 -15.5t15.5 -38.5q0 -22 -15 -37.5t-36 -15.5z" />
    <glyph glyph-name="k" unicode="k" horiz-adv-x="520" 
d="M190 682v-469l67 71q76 81 76 102q0 25 -53 25v20q14 -1 43.5 -2.5t44.5 -1.5q14 1 42.5 2t42.5 2v-20q-9 0 -16.5 -1t-14 -3t-11 -3t-10.5 -5l-9 -6t-9 -8l-8.5 -8.5t-10 -11t-10.5 -11.5l-92 -103l192 -188l16 -16t15.5 -14t14.5 -8t23 -7v-20q-10 0 -30.5 2t-30.5 2
t-30.5 -2t-31.5 -2l-190 203l-20 -20v-62v-22.5v-21t1.5 -15.5t4 -14.5t7.5 -10t12.5 -9.5t18.5 -4.5t26 -3.5v-20q-18 0 -55.5 2t-56.5 2q-18 0 -55.5 -1.5t-57.5 -2.5v20q26 2 40.5 6t21 16.5t7.5 23.5t1 37v12v396q0 76 -11 95q-3 6 -8 10t-9 6.5t-12 4t-11 2.5t-13 2
t-12 1v20z" />
    <glyph glyph-name="l" unicode="l" horiz-adv-x="280" 
d="M183 682v-563v-25.5t0.5 -23t3 -17t6.5 -15t12 -9.5t19.5 -8t28.5 -3v-20q-20 1 -58 2.5t-57 1.5t-55.5 -2t-54.5 -2v20q26 2 40.5 6t21 16.5t7.5 23.5t1 37v12v384q0 86 -10 107q-3 7 -8.5 12t-13.5 7.5t-13 3.5t-16 2t-14 1v20z" />
    <glyph glyph-name="m" unicode="m" horiz-adv-x="860" 
d="M185 239v-120v-25.5v-23t2 -17t6 -15t11.5 -9.5t19 -8t28.5 -3v-20q-18 0 -54 2t-54 2q-19 0 -57 -2t-57 -2v20q26 2 40.5 6t21 16.5t7.5 23.5t1 37v12v123q0 98 -5 121q-1 7 -4 12l-5 8.5t-7.5 5.5t-8 3.5t-10 2t-9.5 0.5h-11.5h-11.5v20q29 3 74 15.5t64 15.5l11 -81
q60 81 151 81q110 0 137 -81q53 81 152 81q78 0 117 -48q27 -33 27 -132v-141v-25.5t0.5 -23t2.5 -16.5t6 -15.5t11.5 -9.5t19 -8t28.5 -3v-20q-18 1 -55 2t-56 2q-18 -1 -55 -2t-56 -2v20q48 3 58.5 18.5t10.5 61.5v15v126v14q0 29 -0.5 44t-5 39.5t-13.5 37.5t-28 23.5
t-46 10.5q-30 0 -57 -19t-40 -47q-13 -29 -13 -103v-120v-30t1 -24.5t4.5 -19t10.5 -14t19.5 -9t32.5 -4.5v-20q-18 0 -54.5 2t-54.5 2q-19 0 -56.5 -2t-56.5 -2v20q13 1 22.5 2t16.5 4.5t12 5t8.5 9t5 9t2.5 13t1.5 14t0.5 18.5v20v126v14q0 29 -0.5 44t-5 39.5t-13.5 37.5
t-28 23.5t-46 10.5q-30 0 -57 -19t-40 -47q-13 -29 -13 -103z" />
    <glyph glyph-name="n" unicode="n" horiz-adv-x="600" 
d="M495 302v-183v-18.5v-17t0.5 -14.5t1.5 -13l3.5 -10t6 -9.5t9 -7t12.5 -6t16 -3t21 -2.5v-20q-18 0 -54.5 2t-54.5 2q-19 -1 -57.5 -2t-58.5 -2v20q26 2 40.5 6t21 16.5t7.5 23.5t1 37v12v128v31.5t-1.5 31t-4.5 33t-10 26.5t-16.5 24.5t-24.5 14t-35 6.5
q-57 0 -92.5 -39t-35.5 -95v-155v-22.5v-21t1.5 -15.5t4 -14.5t7.5 -10t12.5 -9.5t18.5 -4.5t26 -3.5v-20q-18 0 -54.5 2t-54.5 2q-19 -1 -57.5 -2t-58.5 -2v20q26 2 40.5 6t21 16.5t7.5 23.5t1 37v12v123q0 98 -5 121q-1 7 -4 12l-5 8.5t-7.5 5.5t-8 3.5t-10 2t-9.5 0.5
h-11.5h-11.5v20q29 3 74 15.5t64 15.5l13 -91h2q51 91 160 91q149 0 149 -138z" />
    <glyph glyph-name="o" unicode="o" horiz-adv-x="560" 
d="M280 440q95 0 168 -65t73 -160q0 -99 -70.5 -163.5t-170.5 -64.5q-99 0 -169.5 67t-70.5 165q0 93 73 157t167 64zM276 417q-39 0 -67 -19t-42 -50t-20.5 -64t-6.5 -69q0 -39 6.5 -72.5t21.5 -65t45 -49.5t72 -18q51 0 83 32.5t42.5 74t10.5 92.5q0 40 -6.5 74
t-21.5 65.5t-45 50t-72 18.5z" />
    <glyph glyph-name="p" unicode="p" horiz-adv-x="580" 
d="M182 239v-71q0 -83 22 -109q34 -40 98 -40q51 0 84 31t44.5 72.5t11.5 91.5q0 37 -6.5 69t-21.5 61.5t-43 46.5t-67 17q-68 0 -101 -57q-21 -36 -21 -112zM170 440v-83h2q58 83 148 83q98 0 160 -65t62 -164q0 -93 -61.5 -158.5t-154.5 -65.5q-81 0 -144 57v-194v-15
q0 -28 1 -39.5t8 -24.5t23 -17.5t45 -5.5v-20q-18 0 -55 2t-56 2q-20 0 -60 -2t-60 -2v20q26 2 40 6t20.5 16.5t7.5 23t1 36.5v14v392q0 98 -5 121q-1 7 -4 12l-5 8.5t-7.5 5.5t-8 3.5t-10 2t-9.5 0.5h-11.5h-11.5v20q37 5 145 31z" />
    <glyph glyph-name="q" unicode="q" horiz-adv-x="560" 
d="M403 392l69 48v-590v-22.5v-21t1 -15.5t4 -15t8 -10t12.5 -9l18 -5t25.5 -4v-20q-18 0 -54.5 2t-54.5 2q-21 0 -61 -2t-61 -2v20q20 2 33.5 3.5t22 8.5l13 10.5t6.5 19t2 22v32.5v208h-2q-42 -65 -133 -65q-96 0 -155 63t-59 160t65 163.5t162 66.5q35 0 74 -13t64 -35z
M387 164v107q0 137 -107 137q-41 0 -70.5 -18t-44 -49t-21 -64.5t-6.5 -71.5q0 -50 10 -90t41.5 -70.5t82.5 -30.5q61 0 88 43t27 107z" />
    <glyph glyph-name="r" unicode="r" horiz-adv-x="400" 
d="M105 113v123q0 101 -6 121q-1 6 -3 10.5t-5.5 8t-5.5 6t-7 4t-7.5 2t-8.5 1t-8.5 0.5h-10h-10.5v20q21 1 43.5 6.5t49.5 13.5t42 11q14 -44 12 -101h2q43 101 145 101q27 0 49 -13.5t22 -38.5q0 -14 -10.5 -25t-24.5 -11q-21 0 -37 26t-35 26q-21 0 -43.5 -15t-34.5 -35
q-23 -41 -23 -136v-99v-17q-1 -50 10.5 -65.5t65.5 -18.5v-20q-19 1 -57.5 2t-57.5 2q-19 -1 -57.5 -2t-58.5 -2v20q26 2 40.5 6t21 16.5t7.5 23.5t1 37v12z" />
    <glyph glyph-name="s" unicode="s" horiz-adv-x="360" 
d="M71 23l-25 -29h-10l-4 143h20q32 -127 124 -127q36 0 60 18t24 52q0 10 -3 20t-6.5 17t-11.5 15t-13 12t-16.5 11t-16 9.5t-18 9.5t-16.5 8q-29 15 -44.5 24.5t-36 26.5t-30 38.5t-9.5 48.5q0 51 36 85.5t88 34.5q53 0 97 -25l20 24h12l-2 -125h-20q-8 23 -15 37.5
t-19 31.5t-29.5 25.5t-39.5 8.5q-26 0 -45 -14.5t-19 -40.5q0 -15 5 -27t17.5 -22t20.5 -15.5t26.5 -14.5t23.5 -12q71 -37 91 -55q41 -37 41 -97q0 -59 -43.5 -95.5t-103.5 -36.5q-65 0 -110 36z" />
    <glyph glyph-name="t" unicode="t" horiz-adv-x="320" 
d="M96 396h-51v18q95 55 121 126h15v-117h114v-27h-114v-285q0 -92 62 -92q38 0 72 45l18 -13q-24 -64 -116 -64q-121 0 -121 103v306z" />
    <glyph glyph-name="u" unicode="u" horiz-adv-x="580" 
d="M180 431v-273q0 -28 2.5 -47.5t9.5 -43t25 -36t46 -12.5q58 0 97.5 44.5t39.5 103.5v134q0 64 -6 77q-11 25 -70 34v20q14 -1 41.5 -2.5t41.5 -2.5q13 1 39 2.5t39 2.5v-322q0 -19 1 -30.5t10 -24t26 -12.5q5 0 11.5 0.5t14.5 1.5t12 1v-23l-139 -36l-21 94
q-28 -42 -73 -68t-94 -26q-138 0 -138 143v171q0 64 -6 77q-11 25 -70 34v19q14 -1 41.5 -2.5t41.5 -1.5q13 1 39.5 2.5t38.5 1.5z" />
    <glyph glyph-name="v" unicode="v" horiz-adv-x="420" 
d="M206 -20l-150 357q-1 2 -5.5 13.5t-6 14t-5.5 11.5t-7 11.5t-8 8.5t-10.5 8t-12.5 4t-16 3v20q18 -1 53.5 -2.5t53.5 -1.5q68 2 102 4v-20q-57 -3 -57 -33q0 -10 13 -49l97 -241q6 17 32.5 82.5t47 122t20.5 77.5q0 34 -57 41v20q12 -1 37 -2.5t37 -1.5q12 1 36 2t36 2
v-20q-25 -6 -39 -24q-20 -26 -52 -116l-118 -291h-21z" />
    <glyph glyph-name="w" unicode="w" horiz-adv-x="640" 
d="M444 -20l-125 314l-114 -314h-25l-107 323q-20 63 -29 76q-21 30 -58 33v19q19 -1 56 -2.5t55 -1.5q18 1 54 2t54 2v-19q-63 -3 -63 -44q0 -6 22 -85l58 -185h2l114 330h14l128 -330h2l62 205q12 40 12 61q0 40 -60 48v19q13 0 39.5 -1.5t39.5 -2.5q14 1 40.5 2.5
t39.5 1.5v-19q-14 -1 -38 -16q-7 -5 -14.5 -17.5t-11 -22t-9.5 -27.5t-7 -20l-105 -329h-26z" />
    <glyph glyph-name="x" unicode="x" horiz-adv-x="520" 
d="M270 257l49 62q37 48 37 60q0 17 -17 24.5t-36 7.5v20q15 0 45.5 -1.5t45.5 -2.5q14 1 42.5 2t43.5 2v-20q-19 -1 -32.5 -5t-28.5 -17.5t-19 -17.5t-23 -27l-91 -106l138 -160q3 -3 13 -14.5t12.5 -14t11 -10t14 -10t15 -6t20.5 -5.5v-20q-18 0 -55.5 2t-56.5 2
q-20 0 -58.5 -2t-58.5 -2v20h10.5t15.5 0.5t15 2t12.5 6t4.5 11.5q0 10 -23 36l-85 101l-41 -52q-46 -53 -46 -73q0 -26 54 -32v-20q-15 1 -46 2t-47 2q-16 0 -47.5 -2t-46.5 -2v20q27 0 51 13t36.5 26.5t35.5 41.5l78 97l-135 170q-24 30 -37 37q-11 6 -29 8v20
q17 0 52 -1.5t53 -2.5q18 1 54 2t54 2v-20q-1 -1 -16 -2.5t-27 -6t-12 -12.5q0 -11 50 -71z" />
    <glyph glyph-name="y" unicode="y" horiz-adv-x="420" 
d="M200 5l-141 329q-18 43 -29 56q-7 7 -21.5 14t-23.5 7v20q17 -1 51 -2.5t51 -1.5q19 1 56.5 2t56.5 2v-20q-1 0 -20 -3t-30 -10.5t-11 -21.5q0 -19 41 -120l64 -153l75 180q28 67 28 93q0 32 -55 35v20q13 -1 38.5 -2t38.5 -2q11 1 33 2.5t33 1.5v-20q-15 0 -25 -6.5
t-13.5 -12t-10.5 -22.5t-10 -23l-13 -29l-208 -480q-33 -78 -58 -98q-13 -10 -26 -10q-13 -3 -21.5 5t-8.5 19q0 20 14 31.5t34 21t28 21.5q16 23 45 92z" />
    <glyph glyph-name="z" unicode="z" horiz-adv-x="420" 
d="M397 111l-9 -111h-364l260 404h-92q-27 0 -39 -0.5t-29 -4.5t-25.5 -12t-16.5 -23t-12 -38h-19l9 101h337l-259 -404h106q67 0 94 14t42 74h17z" />
    <glyph glyph-name="braceleft" unicode="{" horiz-adv-x="280" 
d="M175 146v-186q0 -48 15.5 -72t57.5 -36v-2q-77 0 -107 27.5t-30 102.5v180q0 99 -76 106v4q46 9 61 32t15 74v161q0 83 28 116t106 29v-2q-38 -10 -54 -36t-16 -72v-170q0 -58 -16.5 -90t-66.5 -42v-4q48 -9 65.5 -37.5t17.5 -82.5z" />
    <glyph glyph-name="bar" unicode="|" horiz-adv-x="260" 
d="M97 750h67v-1000h-67v1000z" />
    <glyph glyph-name="braceright" unicode="}" horiz-adv-x="280" 
d="M105 386v186q0 48 -15.5 72t-57.5 36v2q77 0 107 -27.5t30 -102.5v-180q0 -99 76 -106v-4q-46 -9 -61 -32t-15 -74v-161q0 -83 -28 -116t-106 -29v2q38 10 54 36t16 72v170q0 58 16.5 90t66.5 42v4q-48 9 -65.5 37.5t-17.5 82.5z" />
    <glyph glyph-name="asciitilde" unicode="~" horiz-adv-x="520" 
d="M474 333l34 -37q-62 -111 -142 -111q-12 0 -28 4.5t-25 8.5l-32.5 15t-28.5 13q-64 28 -105 28q-18 0 -32 -6t-28 -22.5t-19 -23.5t-18 -30q-3 -5 -5 -8l-33 37q30 54 62.5 86t80.5 32q37 0 117 -35q80 -36 103 -36q55 0 99 85z" />
    <glyph glyph-name="uni00A0" unicode="&#xa0;" horiz-adv-x="260" 
 />
    <glyph glyph-name="exclamdown" unicode="&#xa1;" horiz-adv-x="320" 
d="M150 269h24q-3 -192 27 -341q15 -68 15 -104q0 -28 -13.5 -49t-40.5 -21q-25 0 -39.5 20t-14.5 46q0 39 16 108q31 152 26 341zM160 326q-23 0 -40 16.5t-17 39.5t15.5 40.5t38.5 17.5q24 0 42 -15.5t18 -39.5t-16.5 -41.5t-40.5 -17.5z" />
    <glyph glyph-name="cent" unicode="&#xa2;" horiz-adv-x="520" 
d="M209 191l134 338q-15 5 -30 5q-40 0 -69 -19t-44 -51.5t-21.5 -66.5t-6.5 -71q0 -90 37 -135zM130 -11l55 140q-52 23 -82.5 77t-30.5 113q0 101 69.5 169.5t170.5 68.5q7 -1 20.5 -1t20.5 -1l45 111h37l-46 -117q24 -7 42.5 -22.5t18.5 -37.5q0 -14 -9.5 -23.5
t-23.5 -9.5q-38 0 -44 54h-2l-135 -347q46 -28 87 -28q53 0 120 65l20 -20q-63 -77 -165 -77q-38 0 -82 13l-49 -127h-37z" />
    <glyph glyph-name="sterling" unicode="&#xa3;" horiz-adv-x="520" 
d="M189 71q-5 3 -20 11t-22.5 11.5t-20 7t-24.5 3.5q-24 0 -41.5 -13t-17.5 -36q0 -41 55 -41q60 0 91 57zM223 459l24 -98h158v-36h-150q14 -54 14 -94q0 -79 -32 -138q67 -28 138 -28q83 0 128 74q3 -58 -30.5 -105t-90.5 -47q-26 0 -56.5 10t-46.5 18.5t-50 28.5l-17 10
q-19 -30 -51.5 -48.5t-67.5 -18.5q-31 0 -53 18t-22 48q0 35 23 56.5t59 21.5q54 0 98 -26l5 57q0 15 -2 31.5t-7 36l-8 30.5t-11 35l-10 30h-120v36h109q-23 82 -23 131q0 82 50.5 131t132.5 49q79 0 126 -39q32 -28 32 -59q0 -17 -10.5 -29.5t-27.5 -12.5q-36 0 -46 50
q-7 30 -12 37q-20 30 -65 30t-72 -30t-27 -76q0 -37 11 -84z" />
    <glyph glyph-name="currency" unicode="&#xa4;" horiz-adv-x="520" 
d="M421 528l54 54l26 -26l-54 -54q62 -77 62 -163t-62 -163l54 -54l-26 -26l-54 54q-74 -58 -163 -61q-82 0 -158 59l-54 -54l-26 26l54 54q-62 77 -62 163t62 163l-54 54l26 26l54 -54q76 59 158 59q86 3 163 -57zM262 129q86 0 146.5 62t60.5 148q0 84 -60.5 145
t-145.5 61q-88 0 -149.5 -59.5t-61.5 -148.5q0 -87 61.5 -147.5t148.5 -60.5z" />
    <glyph glyph-name="yen" unicode="&#xa5;" horiz-adv-x="520" 
d="M300 265h153v-36h-153v-131q0 -49 14 -60t86 -17v-23q-23 1 -70.5 2t-71.5 2q-24 -1 -72.5 -2t-72.5 -2v23q72 6 87 17.5t15 59.5v131h-148v36h148v53l-26 42h-128v36h107l-76 132q-50 85 -68 98q-11 7 -37 11v23q21 0 62 -2t61 -2q21 0 63 2t63 2v-23q-76 0 -76 -32
q0 -10 5.5 -26t16.5 -38l18 -35.5t20.5 -37.5t14.5 -25l49 -84l71 112q58 93 58 124q0 9 -4 16t-8 11t-14 7t-14.5 4t-16.5 2.5t-14 1.5v23q16 0 49 -2t50 -2q15 0 46 2t47 2v-23q-20 -4 -37.5 -17.5t-27 -26.5t-22.5 -35l-103 -162h116v-36h-139l-21 -32v-63z" />
    <glyph glyph-name="brokenbar" unicode="&#xa6;" horiz-adv-x="260" 
d="M97 675h67v-350h-67v350zM97 175h67v-350h-67v350z" />
    <glyph glyph-name="section" unicode="&#xa7;" horiz-adv-x="500" 
d="M189 207l89 -51l72 -45q58 44 58 87q0 46 -87 95q-5 3 -14 7q-4 3 -6 4l-65 36l-72 45q-17 -9 -25.5 -14.5t-21 -16t-18 -23t-5.5 -27.5q0 -20 17.5 -40t32 -29.5t40.5 -24.5q3 -2 5 -3zM272 52l-53 28q-75 39 -118.5 82.5t-43.5 110.5q0 43 24 76t65 49q-65 56 -65 134
q0 71 46 110.5t119 39.5q37 0 74 -10.5t66 -37.5t29 -65q0 -24 -15.5 -41.5t-38.5 -17.5t-37.5 14t-14.5 36q0 20 18 39t18 25q0 18 -36 26.5t-62 8.5q-48 0 -83 -23.5t-35 -68.5q0 -22 9.5 -40.5t29.5 -34.5t33 -24t38 -22l54 -30q70 -39 111.5 -83t41.5 -107
q0 -71 -77 -129q68 -51 68 -132q0 -79 -55 -124t-136 -45q-71 0 -131.5 36.5t-60.5 103.5q0 25 16 44t41 19q22 0 38.5 -17t16.5 -39q0 -21 -19 -44q-20 -22 -20 -28q0 -26 44 -39t79 -13q57 0 97.5 29t40.5 84q0 18 -8.5 35t-17 27t-30 24t-28.5 17.5z" />
    <glyph glyph-name="dieresis" unicode="&#xa8;" horiz-adv-x="380" 
d="M117 555q-22 0 -36.5 15.5t-14.5 37.5q0 21 15 35t36 14q20 0 35.5 -14.5t15.5 -34.5q0 -22 -14.5 -37.5t-36.5 -15.5zM254 555q-22 0 -36.5 15.5t-14.5 37.5q0 20 15.5 34.5t35.5 14.5t35.5 -14.5t15.5 -34.5q0 -22 -14.5 -37.5t-36.5 -15.5z" />
    <glyph glyph-name="copyright" unicode="&#xa9;" horiz-adv-x="740" 
d="M705 329q0 -142 -98.5 -242t-238.5 -100q-138 0 -235.5 100.5t-97.5 240.5q0 141 97 242.5t235 101.5q140 0 239 -100.5t99 -242.5zM661 329q6 124 -82 211.5t-212 87.5q-121 0 -204.5 -88t-83.5 -212q0 -123 84 -210t205 -87t204 86.5t89 211.5zM513 497v-101h-25
q-1 48 -27 74.5t-74 26.5q-66 0 -101 -47t-35 -116q0 -67 36.5 -120t99.5 -53q81 0 114 73l20 -8q-17 -44 -59.5 -68.5t-91.5 -24.5q-81 0 -131.5 54t-50.5 138q0 88 53 142.5t139 54.5q61 0 133 -25z" />
    <glyph glyph-name="ordfeminine" unicode="&#xaa;" horiz-adv-x="340" 
d="M196 461v90l-21.5 -10.5t-27 -14t-21 -14.5t-19 -20.5t-5.5 -23.5q0 -16 9 -27.5t25 -11.5q30 0 60 32zM148 551l43 21q5 4 5 13q0 35 -8.5 52t-39.5 17q-50 0 -51 -25q-2 -36 -26 -36q-11 0 -18 7t-7 17q0 30 35 42.5t72 12.5q56 0 77 -19.5t21 -73.5v-87q0 -60 18 -60
q3 0 6 1t5.5 3.5t4 4.5t4 6t3.5 5l15 -9q-7 -17 -23 -30.5t-32 -13.5q-17 0 -32 11.5t-20 28.5q-49 -40 -95 -40q-25 0 -42.5 15t-17.5 40q0 11 3 21t11 19l13 14.5t18.5 13.5l18 10.5t21.5 10t18 8.5z" />
    <glyph glyph-name="guillemotleft" unicode="&#xab;" horiz-adv-x="480" 
d="M379 85l-146 136l91 78l59 56q1 1 5 4.5t7.5 6t6.5 2.5q8 0 8 -8q0 -19 -55 -83l-46 -56l44 -55q56 -71 56 -86q0 -10 -9 -10q-4 0 -7.5 2.5t-8 7zM216 85l-146 136l91 78l59 56q1 1 5 4.5t7.5 6t6.5 2.5q8 0 8 -8q0 -19 -55 -83l-46 -56l44 -55q56 -71 56 -86
q0 -10 -9 -10q-4 0 -7.5 2.5t-8 7z" />
    <glyph glyph-name="logicalnot" unicode="&#xac;" horiz-adv-x="520" 
d="M441 110v203h-408v46h454v-249h-46z" />
    <glyph glyph-name="uni00AD" unicode="&#xad;" horiz-adv-x="240" 
d="M241 191h-241v67h241v-67z" />
    <glyph glyph-name="registered" unicode="&#xae;" horiz-adv-x="740" 
d="M371 -13q-140 0 -238 100.5t-98 242.5q0 141 98.5 241.5t237.5 100.5t236.5 -100.5t97.5 -241.5q0 -142 -97.5 -242.5t-236.5 -100.5zM371 31q122 0 206 87t84 212q0 124 -84 211t-206 87t-207 -87t-85 -211q0 -125 85 -212t207 -87zM311 326v-123q0 -23 7 -28.5t30 -6.5
h9v-15h-142v15q5 0 14 1t12 1t8 2t6.5 5t3 8t1.5 13v286q0 5 -0.5 9t-1.5 7t-3.5 5t-4 3t-6.5 2l-7.5 1.5t-10.5 1t-12 0.5v15h167q121 0 121 -94q0 -42 -29.5 -67.5t-72.5 -30.5v-2h2v-1h2q6 0 12 -2.5t11.5 -7t10 -9t9 -12t8 -12.5t8 -14t6.5 -13.5l6 -13.5t5 -12
q23 -49 30 -58q12 -11 36 -11v-15h-42q-27 0 -40 11q-16 13 -38 72q-2 4 -10 23.5t-15 32.5t-15 20q-15 14 -58 14h-17zM311 344h26q113 0 113 85q0 41 -23.5 61.5t-63.5 20.5h-26q-13 0 -19 -7t-6.5 -12.5t-0.5 -21.5v-126z" />
    <glyph glyph-name="macron" unicode="&#xaf;" horiz-adv-x="400" 
d="M326 581h-260v41h260v-41z" />
    <glyph glyph-name="degree" unicode="&#xb0;" horiz-adv-x="400" 
d="M325 547q0 -52 -37 -88.5t-88 -36.5q-52 0 -88.5 36.5t-36.5 88.5q-1 51 36 88t89 37q51 0 88 -37t37 -88zM292 547q0 38 -27.5 65t-65.5 27q-37 0 -64 -27t-27 -65t27 -65t65 -27t65 27t27 65z" />
    <glyph glyph-name="plusminus" unicode="&#xb1;" horiz-adv-x="520" 
d="M237 327v178h46v-178h204v-46h-204v-181h-46v181h-204v46h204zM33 0v46h454v-46h-454z" />
    <glyph glyph-name="twosuperior" unicode="&#xb2;" horiz-adv-x="312" 
d="M76 320h212l-19 -85h-14l1 22q1 6 -1 8.5t-4.5 3t-8.5 0.5h-4h-188h-33q25 45 98 116q4 3 11 10q26 23 39.5 36.5t31 36t25.5 46t8 50.5q0 39 -21.5 66.5t-63.5 27.5q-34 0 -57 -19t-23 -50q0 -24 16.5 -42t41.5 -18q17 0 36 17q-2 -19 -21 -32t-41 -13q-35 0 -55 21
t-20 54q0 46 39.5 71t91.5 25q59 0 100.5 -29.5t41.5 -82.5q0 -33 -18 -61.5t-35.5 -42.5t-53.5 -39q-80 -57 -112 -97z" />
    <glyph glyph-name="threesuperior" unicode="&#xb3;" horiz-adv-x="312" 
d="M161 477q-25 0 -43.5 -22t-29.5 -22q-12 0 -12 11q0 5 4.5 10.5t9 8.5t13 7t9.5 5q31 18 47.5 29.5t31 34t14.5 51.5q0 63 -62 63q-29 0 -49 -14.5t-20 -40.5q0 -17 11 -29.5t29 -12.5q20 0 38 15q-12 -39 -61 -39q-24 0 -40.5 14.5t-16.5 36.5q0 41 39.5 65t86.5 24
q43 0 75 -19.5t32 -57.5q0 -26 -18.5 -48t-37 -32.5t-48.5 -23.5l1 -2q5 1 18 1q49 0 81 -23.5t32 -68.5q0 -60 -52.5 -98.5t-120.5 -38.5q-37 0 -71 14t-34 44q0 10 8 16.5t19 6.5q17 0 25.5 -10.5t11 -23t16.5 -23t41 -10.5q92 0 92 110q0 92 -69 92z" />
    <glyph glyph-name="acute" unicode="&#xb4;" horiz-adv-x="360" 
d="M103 530h-37l156 124q28 23 44 23q15 0 25 -10.5t10 -24.5q0 -9 -3.5 -16.5t-12.5 -14t-14 -9t-18.5 -8t-15.5 -6.5z" />
    <glyph glyph-name="mu" unicode="&#xb5;" horiz-adv-x="580" 
d="M400 167v134q0 64 -6 77q-11 25 -70 34v20q14 -1 41.5 -2.5t41.5 -2.5q13 1 39 2.5t39 2.5v-322q0 -19 1 -30.5t10 -24t26 -12.5q5 0 11.5 0.5t14.5 1.5t12 1v-23l-139 -36l-21 94q-28 -42 -73 -68t-94 -26q-35 0 -60 11q5 -49 18 -112q12 -68 12 -87q0 -28 -13.5 -49
t-40.5 -21q-25 0 -39.5 20t-14.5 46v506q0 64 -6 77q-11 25 -70 34v19q14 -1 41.5 -2.5t41.5 -1.5q13 1 39.5 2.5t38.5 1.5v-273q0 -28 2.5 -47.5t9.5 -43t25 -36t46 -12.5q58 0 97.5 44.5t39.5 103.5z" />
    <glyph glyph-name="paragraph" unicode="&#xb6;" horiz-adv-x="600" 
d="M416 494v-470q0 -106 11 -135q4 -9 10.5 -15.5t16.5 -9t17.5 -3.5t21 -1.5t18.5 -1.5v-23h-160v789h-46v-789h-170v23h17.5t20 0.5t17.5 2.5t18 5.5t13 10t10 15.5q9 27 9 132v285q-4 0 -14 -0.5t-14 -0.5q-85 0 -132 43.5t-47 128.5q0 50 20 85.5t55 54.5t74.5 27.5
t86.5 8.5h242v-23q-12 1 -25 0t-24.5 -3t-21.5 -9t-15 -19q-9 -21 -9 -108z" />
    <glyph glyph-name="periodcentered" unicode="&#xb7;" horiz-adv-x="320" 
d="M96 254q0 26 18.5 45.5t44.5 19.5q27 0 46 -19t19 -46q0 -26 -18.5 -46t-45.5 -20q-26 0 -45 19.5t-19 46.5z" />
    <glyph glyph-name="cedilla" unicode="&#xb8;" horiz-adv-x="300" 
d="M154 0l-18 -50q34 1 62 -14t28 -47q0 -29 -23 -45t-54 -16q-26 0 -54.5 14t-28.5 37q0 8 5.5 14t12.5 6q15 0 23 -23q9 -26 35 -26q18 0 29.5 9.5t11.5 26.5q0 43 -60 43q-4 0 -12 -0.5t-12 -0.5l27 72h28z" />
    <glyph glyph-name="onesuperior" unicode="&#xb9;" horiz-adv-x="312" 
d="M51 630v12q95 5 144 30v-320q0 -42 4 -58q2 -6 6.5 -9.5t13 -5l14.5 -2.5t16 -1h12v-14q-17 0 -49 1t-49 1t-50 -1t-49 -1v14q60 0 67 14q6 12 6 62v213q0 42 -7 54q-7 11 -41 11h-38z" />
    <glyph glyph-name="ordmasculine" unicode="&#xba;" horiz-adv-x="360" 
d="M179 399q-58 0 -99 41t-41 99q0 56 42 94.5t98 38.5q57 0 99.5 -39.5t42.5 -95.5q0 -59 -41 -98.5t-101 -39.5zM184 417q40 0 57 35.5t17 80.5q0 47 -17.5 84t-59.5 37q-43 0 -61 -33.5t-18 -79.5q0 -124 82 -124z" />
    <glyph glyph-name="guillemotright" unicode="&#xbb;" horiz-adv-x="480" 
d="M101 357l146 -136l-91 -78l-59 -56q-1 -1 -5 -4.5t-7.5 -6t-6.5 -2.5q-8 0 -8 8q0 19 55 83l46 56l-44 55q-56 71 -56 86q0 10 9 10q4 0 7.5 -2.5t8 -7zM264 357l146 -136l-91 -78l-59 -56q-1 -1 -5 -4.5t-7.5 -6t-6.5 -2.5q-8 0 -8 8q0 19 55 83l46 56l-44 55
q-56 71 -56 86q0 10 9 10q4 0 7.5 -2.5t8 -7z" />
    <glyph glyph-name="onequarter" unicode="&#xbc;" horiz-adv-x="780" 
d="M729 128h-75v-39q0 -42 5 -58q2 -8 10.5 -12t15.5 -5t20.5 -1h15.5v-14q-16 0 -46.5 1t-45.5 1q-17 0 -50 -1t-49 -1v14q48 0 57 10q12 12 12 66v39h-174v21l213 257h16v-256h75v-22zM450 150h149v179h-2zM678 676l-478 -676h-53l477 676h54zM52 634v12q94 5 144 30v-320
q0 -42 4 -58q2 -6 6.5 -9.5t13 -5l14.5 -2.5t16 -1h12v-14q-16 0 -49 1t-49 1t-49 -1t-50 -1v14q60 0 67 14q6 12 6 62v213q0 42 -7 54q-7 11 -41 11h-38z" />
    <glyph glyph-name="onehalf" unicode="&#xbd;" horiz-adv-x="780" 
d="M655 676l-478 -676h-53l477 676h54zM29 634v12q95 5 144 30v-320q0 -42 4 -58q2 -6 6.5 -9.5t13 -5l14.5 -2.5t16 -1h12v-14q-17 0 -49 1t-49 1t-50 -1t-49 -1v14q60 0 67 14q6 12 6 62v213q0 42 -7 54q-7 11 -41 11h-38zM533 51h212l-19 -85h-14l1 22q1 6 -1 8.5t-4.5 3
t-8.5 0.5h-4h-188h-33q25 45 98 116q4 3 11 10q26 23 39.5 36.5t31 36t25.5 46t8 50.5q0 39 -21.5 66.5t-63.5 27.5q-34 0 -57 -19t-23 -50q0 -24 16.5 -42t41.5 -18q17 0 36 17q-2 -19 -21 -32t-41 -13q-35 0 -55 21t-20 54q0 46 39.5 71t91.5 25q59 0 100.5 -29.5
t41.5 -82.5q0 -33 -18 -61.5t-35.5 -42.5t-53.5 -39q-80 -57 -112 -97z" />
    <glyph glyph-name="threequarters" unicode="&#xbe;" horiz-adv-x="780" 
d="M729 128h-75v-39q0 -42 5 -58q2 -8 10.5 -12t15.5 -5t20.5 -1h15.5v-14q-16 0 -46.5 1t-45.5 1q-17 0 -50 -1t-49 -1v14q48 0 57 10q12 12 12 66v39h-174v21l213 257h16v-256h75v-22zM450 150h149v179h-2zM673 676l-478 -676h-53l477 676h54zM161 481q-25 0 -43.5 -22
t-29.5 -22q-12 0 -12 11q0 5 4.5 10.5t9 8.5t13 7t9.5 5q31 18 47.5 29.5t31 34t14.5 51.5q0 63 -62 63q-29 0 -49 -14.5t-20 -40.5q0 -17 11 -29.5t29 -12.5q20 0 38 15q-12 -39 -61 -39q-24 0 -40.5 14.5t-16.5 36.5q0 41 39.5 65t86.5 24q43 0 75 -19.5t32 -57.5
q0 -26 -18.5 -48t-37 -32.5t-48.5 -23.5l1 -2q5 1 18 1q49 0 81 -23.5t32 -68.5q0 -60 -52.5 -98.5t-120.5 -38.5q-37 0 -71 14t-34 44q0 10 8 16.5t19 6.5q17 0 25.5 -10.5t11 -23t16.5 -23t41 -10.5q92 0 92 110q0 92 -69 92z" />
    <glyph glyph-name="questiondown" unicode="&#xbf;" horiz-adv-x="400" 
d="M256 265h27v-187h-61q-135 0 -135 -109q0 -55 33.5 -98t87.5 -43q15 0 44.5 5.5t43.5 5.5q20 0 35.5 -10.5t15.5 -29.5q0 -22 -17 -33.5t-40 -11.5q-93 0 -164 75t-71 169q0 87 55.5 126.5t145.5 39.5v101zM263 440q24 0 41 -16.5t17 -40.5q0 -22 -15.5 -39.5
t-38.5 -17.5q-24 0 -42 15.5t-18 38.5q0 25 16 42.5t40 17.5z" />
    <glyph glyph-name="Agrave" unicode="&#xc0;" horiz-adv-x="660" 
d="M167 240l-9 -25q-2 -4 -10.5 -25.5t-13 -34l-11.5 -31.5t-10 -34t-3 -26q0 -10 4.5 -18t9.5 -12t15.5 -6.5t16.5 -3.5t19 -2t16 -1v-23q-18 0 -54.5 2t-55.5 2q-17 0 -51.5 -2t-52.5 -2v23q41 5 61 19.5t35 51.5l83 191l153 393h34l202 -508l14 -33l20.5 -46.5
t17.5 -30.5q22 -30 86 -37v-23q-24 1 -71.5 2t-70.5 2q-24 -1 -72.5 -2t-72.5 -2v23h9t10 0.5t10 1t10.5 1t9.5 2t9 3.5l7.5 5t6.5 6.5t3.5 8t1.5 10.5q0 27 -20 78l-39 103h-247zM180 272h221l-110 282zM451 759h-37l-135 58q-1 0 -12.5 5l-15 6.5t-12.5 6.5t-12.5 9.5
t-7 11.5t-3.5 15q0 14 10 24.5t24 10.5q16 0 44 -23z" />
    <glyph glyph-name="Aacute" unicode="&#xc1;" horiz-adv-x="660" 
d="M167 240l-9 -25q-2 -4 -10.5 -25.5t-13 -34l-11.5 -31.5t-10 -34t-3 -26q0 -10 4.5 -18t9.5 -12t15.5 -6.5t16.5 -3.5t19 -2t16 -1v-23q-18 0 -54.5 2t-55.5 2q-17 0 -51.5 -2t-52.5 -2v23q41 5 61 19.5t35 51.5l83 191l153 393h34l202 -508l14 -33l20.5 -46.5
t17.5 -30.5q22 -30 86 -37v-23q-24 1 -71.5 2t-70.5 2q-24 -1 -72.5 -2t-72.5 -2v23h9t10 0.5t10 1t10.5 1t9.5 2t9 3.5l7.5 5t6.5 6.5t3.5 8t1.5 10.5q0 27 -20 78l-39 103h-247zM180 272h221l-110 282zM293 759h-37l156 124q28 23 44 23q15 0 25 -10.5t10 -24.5
q0 -9 -3.5 -16.5t-12.5 -14t-14 -9t-18.5 -8t-15.5 -6.5z" />
    <glyph glyph-name="Acircumflex" unicode="&#xc2;" horiz-adv-x="660" 
d="M167 240l-9 -25q-2 -4 -10.5 -25.5t-13 -34l-11.5 -31.5t-10 -34t-3 -26q0 -10 4.5 -18t9.5 -12t15.5 -6.5t16.5 -3.5t19 -2t16 -1v-23q-18 0 -54.5 2t-55.5 2q-17 0 -51.5 -2t-52.5 -2v23q41 5 61 19.5t35 51.5l83 191l153 393h34l202 -508l14 -33l20.5 -46.5
t17.5 -30.5q22 -30 86 -37v-23q-24 1 -71.5 2t-70.5 2q-24 -1 -72.5 -2t-72.5 -2v23h9t10 0.5t10 1t10.5 1t9.5 2t9 3.5l7.5 5t6.5 6.5t3.5 8t1.5 10.5q0 27 -20 78l-39 103h-247zM180 272h221l-110 282zM434 759l-107 80l-111 -80h-30l114 147h55l110 -147h-31z" />
    <glyph glyph-name="Atilde" unicode="&#xc3;" horiz-adv-x="660" 
d="M167 240l-9 -25q-2 -4 -10.5 -25.5t-13 -34l-11.5 -31.5t-10 -34t-3 -26q0 -10 4.5 -18t9.5 -12t15.5 -6.5t16.5 -3.5t19 -2t16 -1v-23q-18 0 -54.5 2t-55.5 2q-17 0 -51.5 -2t-52.5 -2v23q41 5 61 19.5t35 51.5l83 191l153 393h34l202 -508l14 -33l20.5 -46.5
t17.5 -30.5q22 -30 86 -37v-23q-24 1 -71.5 2t-70.5 2q-24 -1 -72.5 -2t-72.5 -2v23h9t10 0.5t10 1t10.5 1t9.5 2t9 3.5l7.5 5t6.5 6.5t3.5 8t1.5 10.5q0 27 -20 78l-39 103h-247zM180 272h221l-110 282zM213 805h-27q6 35 31.5 61.5t59.5 26.5q21 0 70 -20q49 -19 62 -19
q25 0 35 35h26q-3 -33 -27 -61q-26 -30 -57 -30q-25 0 -75 21q-46 20 -63 20q-23 0 -35 -34z" />
    <glyph glyph-name="Adieresis" unicode="&#xc4;" horiz-adv-x="660" 
d="M167 240l-9 -25q-2 -4 -10.5 -25.5t-13 -34l-11.5 -31.5t-10 -34t-3 -26q0 -10 4.5 -18t9.5 -12t15.5 -6.5t16.5 -3.5t19 -2t16 -1v-23q-18 0 -54.5 2t-55.5 2q-17 0 -51.5 -2t-52.5 -2v23q41 5 61 19.5t35 51.5l83 191l153 393h34l202 -508l14 -33l20.5 -46.5
t17.5 -30.5q22 -30 86 -37v-23q-24 1 -71.5 2t-70.5 2q-24 -1 -72.5 -2t-72.5 -2v23h9t10 0.5t10 1t10.5 1t9.5 2t9 3.5l7.5 5t6.5 6.5t3.5 8t1.5 10.5q0 27 -20 78l-39 103h-247zM180 272h221l-110 282zM257 784q-22 0 -36.5 15.5t-14.5 37.5q0 21 15 35t36 14
q20 0 35.5 -14.5t15.5 -34.5q0 -22 -14.5 -37.5t-36.5 -15.5zM394 784q-22 0 -36.5 15.5t-14.5 37.5q0 20 15.5 34.5t35.5 14.5t35.5 -14.5t15.5 -34.5q0 -22 -14.5 -37.5t-36.5 -15.5z" />
    <glyph glyph-name="Aring" unicode="&#xc5;" horiz-adv-x="660" 
d="M167 240l-9 -25q-2 -4 -10.5 -25.5t-13 -34l-11.5 -31.5t-10 -34t-3 -26q0 -10 4.5 -18t9.5 -12t15.5 -6.5t16.5 -3.5t19 -2t16 -1v-23q-18 0 -54.5 2t-55.5 2q-17 0 -51.5 -2t-52.5 -2v23q41 5 61 19.5t35 51.5l83 191l153 393h34l202 -508l14 -33l20.5 -46.5
t17.5 -30.5q22 -30 86 -37v-23q-24 1 -71.5 2t-70.5 2q-24 -1 -72.5 -2t-72.5 -2v23h9t10 0.5t10 1t10.5 1t9.5 2t9 3.5l7.5 5t6.5 6.5t3.5 8t1.5 10.5q0 27 -20 78l-39 103h-247zM180 272h221l-110 282zM329 709q-38 0 -65.5 27t-27.5 64t27.5 63.5t64.5 26.5
q38 0 66.5 -25.5t28.5 -62.5q0 -40 -27 -66.5t-67 -26.5zM331 738q24 0 41 18.5t17 42.5q0 26 -17.5 44.5t-43.5 18.5q-25 0 -41.5 -18.5t-16.5 -43.5q0 -26 18 -44t43 -18z" />
    <glyph glyph-name="AE" unicode="&#xc6;" horiz-adv-x="880" 
d="M248 353h141v273h-2zM389 321h-157l-100 -193q-22 -38 -23 -60q-1 -12 4.5 -21t12.5 -13.5t20 -7t20.5 -3t21.5 -0.5v-25q-66 5 -114 4q-43 1 -104 -4v25q36 3 62 21t75 109l224 428l6.5 12.5t9 19t3.5 12.5q0 8 -31 8h-62v27h533v-151h-23q-7 43 -19.5 68.5t-37.5 37.5
t-49.5 15t-70.5 3h-72q-23 0 -25 -4q-1 -3 -1 -37v-237q94 -4 126 27.5t37 95.5h23q-2 -92 -4 -136q2 -40 4 -124h-23q-10 73 -45 91.5t-118 18.5v-164q0 -77 18 -101q29 -38 128 -36q45 1 72 5.5t53.5 17.5t40.5 40.5t19 70.5h23l-9 -161h-544v23q22 0 35 1t29 9t22 24
q10 27 10 133v131z" />
    <glyph glyph-name="Ccedilla" unicode="&#xc7;" horiz-adv-x="680" 
d="M339 -72l23 60q-143 8 -229 98.5t-86 235.5q0 152 99 251t251 99q60 0 104.5 -14t98.5 -48l16 47h15l8 -197h-23q-13 85 -69.5 137t-141.5 52q-64 0 -111.5 -29.5t-72.5 -78.5t-37 -103.5t-12 -115.5q0 -60 12.5 -113t38.5 -99t73 -73t111 -27q51 0 89 16.5t63 49
t41 68.5t28 86h18v-219h-13l-24 51q-95 -75 -220 -75l-13 -37q34 1 62 -14t28 -47q0 -29 -23 -45t-54 -16q-26 0 -54.5 14t-28.5 37q0 8 5.5 14t12.5 6q15 0 23 -23q9 -26 35 -26q18 0 29.5 9.5t11.5 26.5q0 43 -60 43q-4 0 -12 -0.5t-12 -0.5z" />
    <glyph glyph-name="Egrave" unicode="&#xc8;" horiz-adv-x="620" 
d="M122 190v276q0 106 -10 133q-9 22 -30.5 28t-55.5 6v27h497v-151h-23q-7 43 -19.5 68.5t-37.5 37.5t-49.5 15t-70.5 3h-72q-23 0 -25 -4q-1 -2 -1 -37v-237q94 -4 126 27.5t37 95.5h23q-2 -92 -4 -136q2 -40 4 -124h-23q-10 73 -45 91.5t-118 18.5v-164q0 -77 18 -101
q29 -38 128 -36q45 1 72 5.5t53.5 17.5t40.5 40.5t19 70.5h23l-9 -161h-544v23q22 0 35 1t29 9t22 24q10 27 10 133zM431 759h-37l-135 58q-1 0 -12.5 5l-15 6.5t-12.5 6.5t-12.5 9.5t-7 11.5t-3.5 15q0 14 10 24.5t24 10.5q16 0 44 -23z" />
    <glyph glyph-name="Eacute" unicode="&#xc9;" horiz-adv-x="620" 
d="M122 190v276q0 106 -10 133q-9 22 -30.5 28t-55.5 6v27h497v-151h-23q-7 43 -19.5 68.5t-37.5 37.5t-49.5 15t-70.5 3h-72q-23 0 -25 -4q-1 -2 -1 -37v-237q94 -4 126 27.5t37 95.5h23q-2 -92 -4 -136q2 -40 4 -124h-23q-10 73 -45 91.5t-118 18.5v-164q0 -77 18 -101
q29 -38 128 -36q45 1 72 5.5t53.5 17.5t40.5 40.5t19 70.5h23l-9 -161h-544v23q22 0 35 1t29 9t22 24q10 27 10 133zM293 759h-37l156 124q28 23 44 23q15 0 25 -10.5t10 -24.5q0 -9 -3.5 -16.5t-12.5 -14t-14 -9t-18.5 -8t-15.5 -6.5z" />
    <glyph glyph-name="Ecircumflex" unicode="&#xca;" horiz-adv-x="620" 
d="M122 190v276q0 106 -10 133q-9 22 -30.5 28t-55.5 6v27h497v-151h-23q-7 43 -19.5 68.5t-37.5 37.5t-49.5 15t-70.5 3h-72q-23 0 -25 -4q-1 -2 -1 -37v-237q94 -4 126 27.5t37 95.5h23q-2 -92 -4 -136q2 -40 4 -124h-23q-10 73 -45 91.5t-118 18.5v-164q0 -77 18 -101
q29 -38 128 -36q45 1 72 5.5t53.5 17.5t40.5 40.5t19 70.5h23l-9 -161h-544v23q22 0 35 1t29 9t22 24q10 27 10 133zM414 759l-107 80l-111 -80h-30l114 147h55l110 -147h-31z" />
    <glyph glyph-name="Edieresis" unicode="&#xcb;" horiz-adv-x="620" 
d="M122 190v276q0 106 -10 133q-9 22 -30.5 28t-55.5 6v27h497v-151h-23q-7 43 -19.5 68.5t-37.5 37.5t-49.5 15t-70.5 3h-72q-23 0 -25 -4q-1 -2 -1 -37v-237q94 -4 126 27.5t37 95.5h23q-2 -92 -4 -136q2 -40 4 -124h-23q-10 73 -45 91.5t-118 18.5v-164q0 -77 18 -101
q29 -38 128 -36q45 1 72 5.5t53.5 17.5t40.5 40.5t19 70.5h23l-9 -161h-544v23q22 0 35 1t29 9t22 24q10 27 10 133zM237 784q-22 0 -36.5 15.5t-14.5 37.5q0 21 15 35t36 14q20 0 35.5 -14.5t15.5 -34.5q0 -22 -14.5 -37.5t-36.5 -15.5zM374 784q-22 0 -36.5 15.5
t-14.5 37.5q0 20 15.5 34.5t35.5 14.5t35.5 -14.5t15.5 -34.5q0 -22 -14.5 -37.5t-36.5 -15.5z" />
    <glyph glyph-name="Igrave" unicode="&#xcc;" horiz-adv-x="360" 
d="M129 188v282q0 106 -10 133q-9 22 -30.5 28t-55.5 6v23q24 0 72 -2t72 -2q26 1 76 2.5t75 1.5v-23q-22 0 -35 -1t-29 -9t-22 -24q-10 -27 -10 -133v-282q0 -106 10 -133q9 -22 30.5 -28t55.5 -6v-23q-23 0 -71.5 1.5t-72.5 2.5q-25 0 -75.5 -2t-75.5 -2v23q22 0 35 1
t29 9t22 24q10 27 10 133zM301 759h-37l-135 58q-1 0 -12.5 5l-15 6.5t-12.5 6.5t-12.5 9.5t-7 11.5t-3.5 15q0 14 10 24.5t24 10.5q16 0 44 -23z" />
    <glyph glyph-name="Iacute" unicode="&#xcd;" horiz-adv-x="360" 
d="M129 188v282q0 106 -10 133q-9 22 -30.5 28t-55.5 6v23q24 0 72 -2t72 -2q26 1 76 2.5t75 1.5v-23q-22 0 -35 -1t-29 -9t-22 -24q-10 -27 -10 -133v-282q0 -106 10 -133q9 -22 30.5 -28t55.5 -6v-23q-23 0 -71.5 1.5t-72.5 2.5q-25 0 -75.5 -2t-75.5 -2v23q22 0 35 1
t29 9t22 24q10 27 10 133zM103 759h-37l156 124q28 23 44 23q15 0 25 -10.5t10 -24.5q0 -9 -3.5 -16.5t-12.5 -14t-14 -9t-18.5 -8t-15.5 -6.5z" />
    <glyph glyph-name="Icircumflex" unicode="&#xce;" horiz-adv-x="360" 
d="M129 188v282q0 106 -10 133q-9 22 -30.5 28t-55.5 6v23q24 0 72 -2t72 -2q26 1 76 2.5t75 1.5v-23q-22 0 -35 -1t-29 -9t-22 -24q-10 -27 -10 -133v-282q0 -106 10 -133q9 -22 30.5 -28t55.5 -6v-23q-23 0 -71.5 1.5t-72.5 2.5q-25 0 -75.5 -2t-75.5 -2v23q22 0 35 1
t29 9t22 24q10 27 10 133zM284 759l-107 80l-111 -80h-30l114 147h55l110 -147h-31z" />
    <glyph glyph-name="Idieresis" unicode="&#xcf;" horiz-adv-x="360" 
d="M129 188v282q0 106 -10 133q-9 22 -30.5 28t-55.5 6v23q24 0 72 -2t72 -2q26 1 76 2.5t75 1.5v-23q-22 0 -35 -1t-29 -9t-22 -24q-10 -27 -10 -133v-282q0 -106 10 -133q9 -22 30.5 -28t55.5 -6v-23q-23 0 -71.5 1.5t-72.5 2.5q-25 0 -75.5 -2t-75.5 -2v23q22 0 35 1
t29 9t22 24q10 27 10 133zM107 784q-22 0 -36.5 15.5t-14.5 37.5q0 21 15 35t36 14q20 0 35.5 -14.5t15.5 -34.5q0 -22 -14.5 -37.5t-36.5 -15.5zM244 784q-22 0 -36.5 15.5t-14.5 37.5q0 20 15.5 34.5t35.5 14.5t35.5 -14.5t15.5 -34.5q0 -22 -14.5 -37.5t-36.5 -15.5z" />
    <glyph glyph-name="Eth" unicode="&#xd0;" horiz-adv-x="740" 
d="M225 362h100v-36h-100v-152q0 -1 -0.5 -20.5t0 -26t2 -21.5t5 -25t9.5 -18q26 -38 112 -38q63 0 106 21t64.5 61.5t30 85.5t8.5 106q0 162 -60 248t-211 86q-53 0 -60 -7q-6 -6 -6 -31v-233zM28 -2v23q22 0 35 1t29 9t21 24q9 27 9 133v138h-79v36h79v106q0 106 -9 133
q-4 12 -12.5 20t-23 10.5t-23 3t-26.5 0.5v25q20 0 62.5 -1.5t63.5 -2.5q27 0 81 2t81 2q161 3 266 -91t105 -254q0 -156 -93.5 -238.5t-251.5 -78.5q-30 0 -89.5 2t-88.5 2q-23 -1 -68.5 -2.5t-67.5 -1.5z" />
    <glyph glyph-name="Ntilde" unicode="&#xd1;" horiz-adv-x="760" 
d="M131 208v369q-24 34 -46.5 46.5t-62.5 13.5v23q16 0 47.5 -2t47.5 -2q13 0 39.5 2t39.5 2l422 -515h2v278q0 113 -9 154q-3 12 -6 20.5t-8.5 14.5t-9.5 9.5t-13.5 6t-14 3.5t-18 3t-19.5 3v23q19 0 55.5 -2t54.5 -2q17 0 52 1.5t54 2.5v-23q-3 0 -14.5 -1t-14.5 -2
t-11.5 -2.5t-12 -4.5l-9 -7.5t-8.5 -11t-6 -15.5q-12 -38 -12 -175v-431h-30l-66 83l-391 474h-2v-336q0 -112 15 -146q4 -8 8 -14t10.5 -10.5t11 -7t13.5 -4t13 -2.5t15.5 -2t15.5 -1v-23q-19 1 -57.5 2t-57.5 2q-18 -1 -55.5 -2t-55.5 -2v23q21 2 29.5 3.5t23.5 6t22 14.5
t11 25q8 36 8 138zM263 805h-27q6 35 31.5 61.5t59.5 26.5q21 0 70 -20q49 -19 62 -19q25 0 35 35h26q-3 -33 -27 -61q-26 -30 -57 -30q-25 0 -75 21q-46 20 -63 20q-23 0 -35 -34z" />
    <glyph glyph-name="Ograve" unicode="&#xd2;" horiz-adv-x="820" 
d="M410 -13q-150 0 -256.5 96t-106.5 244q0 146 109.5 245.5t257.5 99.5q147 0 253 -96.5t106 -241.5q0 -152 -104.5 -249.5t-258.5 -97.5zM410 645q-62 0 -109.5 -28.5t-74.5 -75.5t-40.5 -101.5t-13.5 -112.5q0 -62 13 -115.5t40.5 -99t76 -72t114.5 -26.5q64 0 111 28
t72.5 75t37 100t11.5 113q0 47 -7.5 90.5t-25.5 85t-45 72t-68 49t-92 18.5zM531 759h-37l-135 58q-1 0 -12.5 5l-15 6.5t-12.5 6.5t-12.5 9.5t-7 11.5t-3.5 15q0 14 10 24.5t24 10.5q16 0 44 -23z" />
    <glyph glyph-name="Oacute" unicode="&#xd3;" horiz-adv-x="820" 
d="M410 -13q-150 0 -256.5 96t-106.5 244q0 146 109.5 245.5t257.5 99.5q147 0 253 -96.5t106 -241.5q0 -152 -104.5 -249.5t-258.5 -97.5zM410 645q-62 0 -109.5 -28.5t-74.5 -75.5t-40.5 -101.5t-13.5 -112.5q0 -62 13 -115.5t40.5 -99t76 -72t114.5 -26.5q64 0 111 28
t72.5 75t37 100t11.5 113q0 47 -7.5 90.5t-25.5 85t-45 72t-68 49t-92 18.5zM393 759h-37l156 124q28 23 44 23q15 0 25 -10.5t10 -24.5q0 -9 -3.5 -16.5t-12.5 -14t-14 -9t-18.5 -8t-15.5 -6.5z" />
    <glyph glyph-name="Ocircumflex" unicode="&#xd4;" horiz-adv-x="820" 
d="M410 -13q-150 0 -256.5 96t-106.5 244q0 146 109.5 245.5t257.5 99.5q147 0 253 -96.5t106 -241.5q0 -152 -104.5 -249.5t-258.5 -97.5zM410 645q-62 0 -109.5 -28.5t-74.5 -75.5t-40.5 -101.5t-13.5 -112.5q0 -62 13 -115.5t40.5 -99t76 -72t114.5 -26.5q64 0 111 28
t72.5 75t37 100t11.5 113q0 47 -7.5 90.5t-25.5 85t-45 72t-68 49t-92 18.5zM514 759l-107 80l-111 -80h-30l114 147h55l110 -147h-31z" />
    <glyph glyph-name="Otilde" unicode="&#xd5;" horiz-adv-x="820" 
d="M410 -13q-150 0 -256.5 96t-106.5 244q0 146 109.5 245.5t257.5 99.5q147 0 253 -96.5t106 -241.5q0 -152 -104.5 -249.5t-258.5 -97.5zM410 645q-62 0 -109.5 -28.5t-74.5 -75.5t-40.5 -101.5t-13.5 -112.5q0 -62 13 -115.5t40.5 -99t76 -72t114.5 -26.5q64 0 111 28
t72.5 75t37 100t11.5 113q0 47 -7.5 90.5t-25.5 85t-45 72t-68 49t-92 18.5zM293 805h-27q6 35 31.5 61.5t59.5 26.5q21 0 70 -20q49 -19 62 -19q25 0 35 35h26q-3 -33 -27 -61q-26 -30 -57 -30q-25 0 -75 21q-46 20 -63 20q-23 0 -35 -34z" />
    <glyph glyph-name="Odieresis" unicode="&#xd6;" horiz-adv-x="820" 
d="M410 -13q-150 0 -256.5 96t-106.5 244q0 146 109.5 245.5t257.5 99.5q147 0 253 -96.5t106 -241.5q0 -152 -104.5 -249.5t-258.5 -97.5zM410 645q-62 0 -109.5 -28.5t-74.5 -75.5t-40.5 -101.5t-13.5 -112.5q0 -62 13 -115.5t40.5 -99t76 -72t114.5 -26.5q64 0 111 28
t72.5 75t37 100t11.5 113q0 47 -7.5 90.5t-25.5 85t-45 72t-68 49t-92 18.5zM337 784q-22 0 -36.5 15.5t-14.5 37.5q0 21 15 35t36 14q20 0 35.5 -14.5t15.5 -34.5q0 -22 -14.5 -37.5t-36.5 -15.5zM474 784q-22 0 -36.5 15.5t-14.5 37.5q0 20 15.5 34.5t35.5 14.5
t35.5 -14.5t15.5 -34.5q0 -22 -14.5 -37.5t-36.5 -15.5z" />
    <glyph glyph-name="multiply" unicode="&#xd7;" horiz-adv-x="520" 
d="M227 255l-175 175l32 33l176 -175l176 176l32 -33l-176 -176l177 -177l-33 -32l-176 176l-177 -176l-32 33z" />
    <glyph glyph-name="Oslash" unicode="&#xd8;" horiz-adv-x="820" 
d="M98 -78l92 131q-68 48 -105.5 117.5t-37.5 152.5q0 149 107.5 249t258.5 100q98 0 174 -43l66 96h52l-83 -118q151 -99 151 -279q0 -145 -106.5 -243t-254.5 -98q-108 0 -185 44l-76 -109h-53zM586 554l-329 -478q68 -62 147 -62q86 0 142.5 45t79 112t22.5 152
q0 149 -62 231zM229 110l328 478q-57 57 -145 57q-62 0 -110 -27.5t-75.5 -73t-41 -99.5t-13.5 -112q0 -133 57 -223z" />
    <glyph glyph-name="Ugrave" unicode="&#xd9;" horiz-adv-x="780" 
d="M651 448v-185q0 -140 -61 -208t-200 -68q-138 0 -202 55.5t-64 188.5v239q0 106 -10 133q-9 22 -30.5 28t-55.5 6v23q23 0 71 -2t71 -2q26 0 76.5 2t75.5 2v-23q-18 0 -26.5 -0.5t-23 -3t-23.5 -10.5t-13 -20q-9 -27 -9 -133v-246q0 -100 44 -150.5t143 -50.5
q207 0 207 206v219q0 112 -10 143q-9 28 -32.5 37t-60.5 9v23q20 0 58.5 -2t57.5 -2q18 0 55.5 1.5t56.5 2.5v-23q-50 -2 -65 -14q-11 -8 -16 -22q-14 -36 -14 -153zM511 759h-37l-135 58q-1 0 -12.5 5l-15 6.5t-12.5 6.5t-12.5 9.5t-7 11.5t-3.5 15q0 14 10 24.5t24 10.5
q16 0 44 -23z" />
    <glyph glyph-name="Uacute" unicode="&#xda;" horiz-adv-x="780" 
d="M651 448v-185q0 -140 -61 -208t-200 -68q-138 0 -202 55.5t-64 188.5v239q0 106 -10 133q-9 22 -30.5 28t-55.5 6v23q23 0 71 -2t71 -2q26 0 76.5 2t75.5 2v-23q-18 0 -26.5 -0.5t-23 -3t-23.5 -10.5t-13 -20q-9 -27 -9 -133v-246q0 -100 44 -150.5t143 -50.5
q207 0 207 206v219q0 112 -10 143q-9 28 -32.5 37t-60.5 9v23q20 0 58.5 -2t57.5 -2q18 0 55.5 1.5t56.5 2.5v-23q-50 -2 -65 -14q-11 -8 -16 -22q-14 -36 -14 -153zM373 759h-37l156 124q28 23 44 23q15 0 25 -10.5t10 -24.5q0 -9 -3.5 -16.5t-12.5 -14t-14 -9t-18.5 -8
t-15.5 -6.5z" />
    <glyph glyph-name="Ucircumflex" unicode="&#xdb;" horiz-adv-x="780" 
d="M651 448v-185q0 -140 -61 -208t-200 -68q-138 0 -202 55.5t-64 188.5v239q0 106 -10 133q-9 22 -30.5 28t-55.5 6v23q23 0 71 -2t71 -2q26 0 76.5 2t75.5 2v-23q-18 0 -26.5 -0.5t-23 -3t-23.5 -10.5t-13 -20q-9 -27 -9 -133v-246q0 -100 44 -150.5t143 -50.5
q207 0 207 206v219q0 112 -10 143q-9 28 -32.5 37t-60.5 9v23q20 0 58.5 -2t57.5 -2q18 0 55.5 1.5t56.5 2.5v-23q-50 -2 -65 -14q-11 -8 -16 -22q-14 -36 -14 -153zM494 759l-107 80l-111 -80h-30l114 147h55l110 -147h-31z" />
    <glyph glyph-name="Udieresis" unicode="&#xdc;" horiz-adv-x="780" 
d="M651 448v-185q0 -140 -61 -208t-200 -68q-138 0 -202 55.5t-64 188.5v239q0 106 -10 133q-9 22 -30.5 28t-55.5 6v23q23 0 71 -2t71 -2q26 0 76.5 2t75.5 2v-23q-18 0 -26.5 -0.5t-23 -3t-23.5 -10.5t-13 -20q-9 -27 -9 -133v-246q0 -100 44 -150.5t143 -50.5
q207 0 207 206v219q0 112 -10 143q-9 28 -32.5 37t-60.5 9v23q20 0 58.5 -2t57.5 -2q18 0 55.5 1.5t56.5 2.5v-23q-50 -2 -65 -14q-11 -8 -16 -22q-14 -36 -14 -153zM337 784q-22 0 -36.5 15.5t-14.5 37.5q0 21 15 35t36 14q20 0 35.5 -14.5t15.5 -34.5q0 -22 -14.5 -37.5
t-36.5 -15.5zM474 784q-22 0 -36.5 15.5t-14.5 37.5q0 20 15.5 34.5t35.5 14.5t35.5 -14.5t15.5 -34.5q0 -22 -14.5 -37.5t-36.5 -15.5z" />
    <glyph glyph-name="Yacute" unicode="&#xdd;" horiz-adv-x="520" 
d="M308 262v-133q0 -72 13.5 -87t85.5 -21v-23q-25 1 -75 2t-75 2q-26 0 -77 -2t-76 -2v23q72 6 86.5 21.5t14.5 86.5v124l-92 159l-18 34l-34.5 64.5t-37 63t-32.5 45.5q-8 9 -15.5 12t-22.5 4t-20 2v23q23 0 68.5 -2t67.5 -2q24 0 71 2t70 2v-23q-75 0 -75 -32
q0 -22 26 -70l130 -241l64 102q99 165 99 199q0 6 -1.5 11t-5 9l-6 7t-8.5 5t-9.5 3.5t-11 2.5t-10.5 1.5t-10.5 1.5t-9.5 1v23q18 0 53.5 -2t53.5 -2q17 0 49 2t49 2v-23q-27 -2 -48 -17t-30 -28t-28 -44zM263 759h-37l156 124q28 23 44 23q15 0 25 -10.5t10 -24.5
q0 -9 -3.5 -16.5t-12.5 -14t-14 -9t-18.5 -8t-15.5 -6.5z" />
    <glyph glyph-name="Thorn" unicode="&#xde;" horiz-adv-x="580" 
d="M122 188v281q0 107 -9 134q-4 12 -12.5 20t-23.5 10.5t-23 3t-26 0.5v23q29 -1 78.5 -2.5t62.5 -1.5q26 1 76 2.5t75 1.5v-23q-22 0 -35 -1t-29 -9t-22 -24q-9 -25 -9 -69v-28q37 1 97 3q60 -2 108.5 -17.5t85 -55.5t36.5 -100q0 -42 -16 -74.5t-41 -52.5t-60.5 -32.5
t-69.5 -17t-73 -4.5q-11 0 -39 1l-28 2q2 -83 10 -103q4 -11 11.5 -18t19 -10t19.5 -4t24.5 -1.5t21.5 -0.5v-23q-26 0 -78 2t-78 2q-24 0 -73 -1.5t-74 -2.5v23q22 0 35 1t29 9t21 24q9 27 9 133zM225 430v-248q6 0 26.5 -2t31.5 -2q78 0 116 36t38 116q0 147 -143 147
q-51 0 -62 -6q-7 -4 -7 -41z" />
    <glyph glyph-name="germandbls" unicode="&#xdf;" horiz-adv-x="540" 
d="M249 358v27q33 1 50.5 5t33.5 16.5t22 37.5t6 67q0 148 -92 148q-18 0 -32.5 -5t-24 -15.5t-17 -21.5t-11.5 -28.5l-7 -30.5t-3.5 -34t-1 -32.5t0 -32t0.5 -27.5v-328q0 -4 -0.5 -20t0 -20.5t3 -15t7 -14.5t13.5 -8.5t22 -5.5v-22q-16 1 -47 2t-46 2q-18 -1 -53.5 -2
t-53.5 -2v23q26 2 40.5 5.5t21 15.5t7.5 22t1 36v13v346q0 107 33 151q53 72 153 72q73 0 126.5 -43.5t53.5 -114.5q0 -57 -38.5 -96t-97.5 -55v-2q80 -8 129 -63.5t49 -136.5q0 -76 -47 -130t-121 -54q-32 0 -61.5 16t-29.5 45q0 34 33 34q14 0 24 -11t12 -25q0 -2 1 -7
t1 -6.5t1 -5.5t1.5 -5l2 -4t3.5 -4t4.5 -2t6.5 -1.5t8 -0.5q21 0 35.5 18.5t21 47t9 51t2.5 43.5q0 99 -35.5 148t-118.5 40z" />
    <glyph glyph-name="agrave" unicode="&#xe0;" horiz-adv-x="480" 
d="M301 84v163q-7 -3 -33 -15t-39.5 -19t-36 -21t-34.5 -26t-21.5 -30t-9.5 -37q0 -29 17.5 -50.5t46.5 -21.5q51 0 110 57zM193 224l99 48q8 4 8 29q0 60 -16 88t-72 28q-30 0 -47 -3t-31.5 -16t-15.5 -38q-2 -18 -12 -31t-28 -13q-17 0 -27.5 10t-10.5 26q0 26 21 44.5
t53 27.5t59 12.5t51 3.5q87 0 124.5 -30.5t37.5 -113.5v-165v-10v-13t0.5 -13.5t1.5 -15l2.5 -14t4 -13.5t6 -10t9 -7.5t11.5 -2.5t10.5 1.5t9.5 6t7 7l7.5 9.5t6.5 8l19 -10q-13 -27 -38.5 -47t-51.5 -20q-30 0 -54 20.5t-32 50.5q-88 -71 -167 -71q-42 0 -73 24t-31 64
q0 12 3 24t7 21t13 19l14 16t18.5 15t19 13t22 12t21 10l22 10t19.5 9zM361 530h-37l-135 58q-1 0 -12.5 5l-15 6.5t-12.5 6.5t-12.5 9.5t-7 11.5t-3.5 15q0 14 10 24.5t24 10.5q16 0 44 -23z" />
    <glyph glyph-name="aacute" unicode="&#xe1;" horiz-adv-x="480" 
d="M301 84v163q-7 -3 -33 -15t-39.5 -19t-36 -21t-34.5 -26t-21.5 -30t-9.5 -37q0 -29 17.5 -50.5t46.5 -21.5q51 0 110 57zM193 224l99 48q8 4 8 29q0 60 -16 88t-72 28q-30 0 -47 -3t-31.5 -16t-15.5 -38q-2 -18 -12 -31t-28 -13q-17 0 -27.5 10t-10.5 26q0 26 21 44.5
t53 27.5t59 12.5t51 3.5q87 0 124.5 -30.5t37.5 -113.5v-165v-10v-13t0.5 -13.5t1.5 -15l2.5 -14t4 -13.5t6 -10t9 -7.5t11.5 -2.5t10.5 1.5t9.5 6t7 7l7.5 9.5t6.5 8l19 -10q-13 -27 -38.5 -47t-51.5 -20q-30 0 -54 20.5t-32 50.5q-88 -71 -167 -71q-42 0 -73 24t-31 64
q0 12 3 24t7 21t13 19l14 16t18.5 15t19 13t22 12t21 10l22 10t19.5 9zM199 530h-37l156 124q28 23 44 23q15 0 25 -10.5t10 -24.5q0 -9 -3.5 -16.5t-12.5 -14t-14 -9t-18.5 -8t-15.5 -6.5z" />
    <glyph glyph-name="acircumflex" unicode="&#xe2;" horiz-adv-x="480" 
d="M301 84v163q-7 -3 -33 -15t-39.5 -19t-36 -21t-34.5 -26t-21.5 -30t-9.5 -37q0 -29 17.5 -50.5t46.5 -21.5q51 0 110 57zM193 224l99 48q8 4 8 29q0 60 -16 88t-72 28q-30 0 -47 -3t-31.5 -16t-15.5 -38q-2 -18 -12 -31t-28 -13q-17 0 -27.5 10t-10.5 26q0 26 21 44.5
t53 27.5t59 12.5t51 3.5q87 0 124.5 -30.5t37.5 -113.5v-165v-10v-13t0.5 -13.5t1.5 -15l2.5 -14t4 -13.5t6 -10t9 -7.5t11.5 -2.5t10.5 1.5t9.5 6t7 7l7.5 9.5t6.5 8l19 -10q-13 -27 -38.5 -47t-51.5 -20q-30 0 -54 20.5t-32 50.5q-88 -71 -167 -71q-42 0 -73 24t-31 64
q0 12 3 24t7 21t13 19l14 16t18.5 15t19 13t22 12t21 10l22 10t19.5 9zM344 530l-107 80l-111 -80h-30l114 147h55l110 -147h-31z" />
    <glyph glyph-name="atilde" unicode="&#xe3;" horiz-adv-x="480" 
d="M301 84v163q-7 -3 -33 -15t-39.5 -19t-36 -21t-34.5 -26t-21.5 -30t-9.5 -37q0 -29 17.5 -50.5t46.5 -21.5q51 0 110 57zM193 224l99 48q8 4 8 29q0 60 -16 88t-72 28q-30 0 -47 -3t-31.5 -16t-15.5 -38q-2 -18 -12 -31t-28 -13q-17 0 -27.5 10t-10.5 26q0 26 21 44.5
t53 27.5t59 12.5t51 3.5q87 0 124.5 -30.5t37.5 -113.5v-165v-10v-13t0.5 -13.5t1.5 -15l2.5 -14t4 -13.5t6 -10t9 -7.5t11.5 -2.5t10.5 1.5t9.5 6t7 7l7.5 9.5t6.5 8l19 -10q-13 -27 -38.5 -47t-51.5 -20q-30 0 -54 20.5t-32 50.5q-88 -71 -167 -71q-42 0 -73 24t-31 64
q0 12 3 24t7 21t13 19l14 16t18.5 15t19 13t22 12t21 10l22 10t19.5 9zM123 576h-27q6 35 31.5 61.5t59.5 26.5q21 0 70 -20q49 -19 62 -19q25 0 35 35h26q-3 -32 -27 -61q-26 -30 -57 -30q-25 0 -75 21q-46 20 -63 20q-23 0 -35 -34z" />
    <glyph glyph-name="adieresis" unicode="&#xe4;" horiz-adv-x="480" 
d="M301 84v163q-7 -3 -33 -15t-39.5 -19t-36 -21t-34.5 -26t-21.5 -30t-9.5 -37q0 -29 17.5 -50.5t46.5 -21.5q51 0 110 57zM193 224l99 48q8 4 8 29q0 60 -16 88t-72 28q-30 0 -47 -3t-31.5 -16t-15.5 -38q-2 -18 -12 -31t-28 -13q-17 0 -27.5 10t-10.5 26q0 26 21 44.5
t53 27.5t59 12.5t51 3.5q87 0 124.5 -30.5t37.5 -113.5v-165v-10v-13t0.5 -13.5t1.5 -15l2.5 -14t4 -13.5t6 -10t9 -7.5t11.5 -2.5t10.5 1.5t9.5 6t7 7l7.5 9.5t6.5 8l19 -10q-13 -27 -38.5 -47t-51.5 -20q-30 0 -54 20.5t-32 50.5q-88 -71 -167 -71q-42 0 -73 24t-31 64
q0 12 3 24t7 21t13 19l14 16t18.5 15t19 13t22 12t21 10l22 10t19.5 9zM167 555q-22 0 -36.5 15.5t-14.5 37.5q0 21 15 35t36 14q20 0 35.5 -14.5t15.5 -34.5q0 -22 -14.5 -37.5t-36.5 -15.5zM304 555q-22 0 -36.5 15.5t-14.5 37.5q0 20 15.5 34.5t35.5 14.5t35.5 -14.5
t15.5 -34.5q0 -22 -14.5 -37.5t-36.5 -15.5z" />
    <glyph glyph-name="aring" unicode="&#xe5;" horiz-adv-x="480" 
d="M301 84v163q-7 -3 -33 -15t-39.5 -19t-36 -21t-34.5 -26t-21.5 -30t-9.5 -37q0 -29 17.5 -50.5t46.5 -21.5q51 0 110 57zM193 224l99 48q8 4 8 29q0 60 -16 88t-72 28q-30 0 -47 -3t-31.5 -16t-15.5 -38q-2 -18 -12 -31t-28 -13q-17 0 -27.5 10t-10.5 26q0 26 21 44.5
t53 27.5t59 12.5t51 3.5q87 0 124.5 -30.5t37.5 -113.5v-165v-10v-13t0.5 -13.5t1.5 -15l2.5 -14t4 -13.5t6 -10t9 -7.5t11.5 -2.5t10.5 1.5t9.5 6t7 7l7.5 9.5t6.5 8l19 -10q-13 -27 -38.5 -47t-51.5 -20q-30 0 -54 20.5t-32 50.5q-88 -71 -167 -71q-42 0 -73 24t-31 64
q0 12 3 24t7 21t13 19l14 16t18.5 15t19 13t22 12t21 10l22 10t19.5 9zM239 525q-38 0 -65.5 27t-27.5 64t27.5 63.5t64.5 26.5q38 0 66.5 -25.5t28.5 -62.5q0 -40 -27 -66.5t-67 -26.5zM241 554q24 0 41 18.5t17 42.5q0 26 -17.5 44.5t-43.5 18.5q-25 0 -41.5 -18.5
t-16.5 -43.5q0 -26 18 -44t43 -18z" />
    <glyph glyph-name="ae" unicode="&#xe6;" horiz-adv-x="720" 
d="M382 296h166h8q12 0 16.5 0.5t10 3t7 9t1.5 18.5q0 39 -26 64.5t-65 25.5q-50 0 -81.5 -35t-36.5 -86zM318 95q-25 55 -25 142l-32 -14l-38 -17t-34.5 -19t-32.5 -24.5t-20 -29.5t-9 -37q0 -29 17.5 -49t46.5 -20q49 0 127 68zM651 269h-273q-3 -38 3.5 -79t22.5 -80.5
t49.5 -65t78.5 -25.5q67 0 119 68l20 -16q-28 -38 -71 -61t-88 -23q-54 0 -106.5 24t-78.5 66q-48 -44 -91.5 -67t-96.5 -23q-45 0 -75 23t-30 67q0 24 13.5 46t32 37.5t48 31.5t50.5 24.5t51 19.5t39 15q21 8 26 16t5 57q0 50 -22.5 71.5t-72.5 21.5q-30 0 -47 -10
t-23 -24.5t-10 -28.5t-13 -24t-26 -10q-15 0 -26 10t-11 25q0 26 18 44t47 26t53.5 11.5t47.5 3.5q112 0 139 -58q67 58 156 58q70 0 122.5 -44t52.5 -114q0 -9 -6 -12t-13 -1t-14 0z" />
    <glyph glyph-name="ccedilla" unicode="&#xe7;" horiz-adv-x="460" 
d="M215 -72l23 60q-87 5 -142.5 64t-55.5 147q0 104 70 172.5t175 68.5q25 0 51.5 -4.5t52.5 -21t26 -41.5q0 -14 -10 -25.5t-23 -11.5q-30 0 -44 39q-9 23 -19.5 30.5t-37.5 7.5q-51 0 -84 -32.5t-45 -74.5t-12 -91q0 -39 7 -71.5t22.5 -62t44.5 -46t70 -16.5q72 0 126 63
l21 -18q-57 -72 -165 -77l-14 -37q34 1 62 -14t28 -47q0 -29 -23 -45t-54 -16q-26 0 -54.5 14t-28.5 37q0 8 5.5 14t12.5 6q15 0 23 -23q9 -26 35 -26q18 0 29.5 9.5t11.5 26.5q0 43 -60 43q-4 0 -12 -0.5t-12 -0.5z" />
    <glyph glyph-name="egrave" unicode="&#xe8;" horiz-adv-x="500" 
d="M423 93l21 -21q-69 -85 -178 -85q-95 0 -160.5 60.5t-65.5 154.5q0 96 65 167t160 71q79 0 135 -43t56 -120q0 -4 -1.5 -6t-4.5 -2.5t-5.5 -1t-7 0t-6.5 0.5h-287l-4 -48q0 -79 41 -140t116 -61q71 0 126 74zM149 295h165l10 -1q11 0 14.5 0.5t11 2.5t10.5 6.5t3 11.5
q0 47 -25 74.5t-72 27.5q-94 0 -117 -122zM371 530h-37l-135 58q-1 0 -12.5 5l-15 6.5t-12.5 6.5t-12.5 9.5t-7 11.5t-3.5 15q0 14 10 24.5t24 10.5q16 0 44 -23z" />
    <glyph glyph-name="eacute" unicode="&#xe9;" horiz-adv-x="500" 
d="M423 93l21 -21q-69 -85 -178 -85q-95 0 -160.5 60.5t-65.5 154.5q0 96 65 167t160 71q79 0 135 -43t56 -120q0 -4 -1.5 -6t-4.5 -2.5t-5.5 -1t-7 0t-6.5 0.5h-287l-4 -48q0 -79 41 -140t116 -61q71 0 126 74zM149 295h165l10 -1q11 0 14.5 0.5t11 2.5t10.5 6.5t3 11.5
q0 47 -25 74.5t-72 27.5q-94 0 -117 -122zM209 530h-37l156 124q28 23 44 23q15 0 25 -10.5t10 -24.5q0 -9 -3.5 -16.5t-12.5 -14t-14 -9t-18.5 -8t-15.5 -6.5z" />
    <glyph glyph-name="ecircumflex" unicode="&#xea;" horiz-adv-x="500" 
d="M423 93l21 -21q-69 -85 -178 -85q-95 0 -160.5 60.5t-65.5 154.5q0 96 65 167t160 71q79 0 135 -43t56 -120q0 -4 -1.5 -6t-4.5 -2.5t-5.5 -1t-7 0t-6.5 0.5h-287l-4 -48q0 -79 41 -140t116 -61q71 0 126 74zM149 295h165l10 -1q11 0 14.5 0.5t11 2.5t10.5 6.5t3 11.5
q0 47 -25 74.5t-72 27.5q-94 0 -117 -122zM354 530l-107 80l-111 -80h-30l114 147h55l110 -147h-31z" />
    <glyph glyph-name="edieresis" unicode="&#xeb;" horiz-adv-x="500" 
d="M423 93l21 -21q-69 -85 -178 -85q-95 0 -160.5 60.5t-65.5 154.5q0 96 65 167t160 71q79 0 135 -43t56 -120q0 -4 -1.5 -6t-4.5 -2.5t-5.5 -1t-7 0t-6.5 0.5h-287l-4 -48q0 -79 41 -140t116 -61q71 0 126 74zM149 295h165l10 -1q11 0 14.5 0.5t11 2.5t10.5 6.5t3 11.5
q0 47 -25 74.5t-72 27.5q-94 0 -117 -122zM177 555q-22 0 -36.5 15.5t-14.5 37.5q0 21 15 35t36 14q20 0 35.5 -14.5t15.5 -34.5q0 -22 -14.5 -37.5t-36.5 -15.5zM314 555q-22 0 -36.5 15.5t-14.5 37.5q0 20 15.5 34.5t35.5 14.5t35.5 -14.5t15.5 -34.5q0 -22 -14.5 -37.5
t-36.5 -15.5z" />
    <glyph glyph-name="igrave" unicode="&#xec;" horiz-adv-x="300" 
d="M35 409l158 31v-321v-25.5t0.5 -23t3 -17t6.5 -15t12 -9.5t19.5 -8t28.5 -3v-20q-16 0 -52 1.5t-55 2.5q-20 0 -58.5 -2t-58.5 -2v20q48 3 58.5 18.5t10.5 61.5v15v143q0 96 -4 111q-7 25 -69 22v20zM271 530h-37l-135 58q-1 0 -12.5 5l-15 6.5t-12.5 6.5t-12.5 9.5
t-7 11.5t-3.5 15q0 14 10 24.5t24 10.5q16 0 44 -23z" />
    <glyph glyph-name="iacute" unicode="&#xed;" horiz-adv-x="300" 
d="M35 409l158 31v-321v-25.5t0.5 -23t3 -17t6.5 -15t12 -9.5t19.5 -8t28.5 -3v-20q-16 0 -52 1.5t-55 2.5q-20 0 -58.5 -2t-58.5 -2v20q48 3 58.5 18.5t10.5 61.5v15v143q0 96 -4 111q-7 25 -69 22v20zM109 530h-37l156 124q28 23 44 23q15 0 25 -10.5t10 -24.5
q0 -9 -3.5 -16.5t-12.5 -14t-14 -9t-18.5 -8t-15.5 -6.5z" />
    <glyph glyph-name="icircumflex" unicode="&#xee;" horiz-adv-x="300" 
d="M35 409l158 31v-321v-25.5t0.5 -23t3 -17t6.5 -15t12 -9.5t19.5 -8t28.5 -3v-20q-16 0 -52 1.5t-55 2.5q-20 0 -58.5 -2t-58.5 -2v20q48 3 58.5 18.5t10.5 61.5v15v143q0 96 -4 111q-7 25 -69 22v20zM254 530l-107 80l-111 -80h-30l114 147h55l110 -147h-31z" />
    <glyph glyph-name="idieresis" unicode="&#xef;" horiz-adv-x="300" 
d="M35 409l158 31v-321v-25.5t0.5 -23t3 -17t6.5 -15t12 -9.5t19.5 -8t28.5 -3v-20q-16 0 -52 1.5t-55 2.5q-20 0 -58.5 -2t-58.5 -2v20q48 3 58.5 18.5t10.5 61.5v15v143q0 96 -4 111q-7 25 -69 22v20zM77 555q-22 0 -36.5 15.5t-14.5 37.5q0 21 15 35t36 14
q20 0 35.5 -14.5t15.5 -34.5q0 -22 -14.5 -37.5t-36.5 -15.5zM214 555q-22 0 -36.5 15.5t-14.5 37.5q0 20 15.5 34.5t35.5 14.5t35.5 -14.5t15.5 -34.5q0 -22 -14.5 -37.5t-36.5 -15.5z" />
    <glyph glyph-name="eth" unicode="&#xf0;" horiz-adv-x="560" 
d="M140 215q0 -39 6.5 -72.5t21.5 -65t45 -49.5t72 -18q51 0 83 32.5t42.5 74t10.5 92.5q0 40 -6.5 74t-21.5 65.5t-45 50t-72 18.5q-39 0 -67 -19t-42 -50t-20.5 -64t-6.5 -69zM148 675l18 25q82 -22 149 -62l122 70l34 -27l-118 -68q168 -121 168 -352q0 -53 -13 -100
t-40 -87t-75.5 -63.5t-112.5 -23.5q-99 0 -169.5 67t-70.5 165q0 93 73 157t167 64q46 0 80 -21t51 -50l2 2q-34 140 -111 213l-117 -68l-34 27l119 69q-48 37 -122 63z" />
    <glyph glyph-name="ntilde" unicode="&#xf1;" horiz-adv-x="600" 
d="M495 302v-183v-18.5v-17t0.5 -14.5t1.5 -13l3.5 -10t6 -9.5t9 -7t12.5 -6t16 -3t21 -2.5v-20q-18 0 -54.5 2t-54.5 2q-19 -1 -57.5 -2t-58.5 -2v20q26 2 40.5 6t21 16.5t7.5 23.5t1 37v12v128v31.5t-1.5 31t-4.5 33t-10 26.5t-16.5 24.5t-24.5 14t-35 6.5
q-57 0 -92.5 -39t-35.5 -95v-155v-22.5v-21t1.5 -15.5t4 -14.5t7.5 -10t12.5 -9.5t18.5 -4.5t26 -3.5v-20q-18 0 -54.5 2t-54.5 2q-19 -1 -57.5 -2t-58.5 -2v20q26 2 40.5 6t21 16.5t7.5 23.5t1 37v12v123q0 98 -5 121q-1 7 -4 12l-5 8.5t-7.5 5.5t-8 3.5t-10 2t-9.5 0.5
h-11.5h-11.5v20q29 3 74 15.5t64 15.5l13 -91h2q51 91 160 91q149 0 149 -138zM183 576h-27q6 35 31.5 61.5t59.5 26.5q21 0 70 -20q49 -19 62 -19q25 0 35 35h26q-3 -32 -27 -61q-26 -30 -57 -30q-25 0 -75 21q-46 20 -63 20q-23 0 -35 -34z" />
    <glyph glyph-name="ograve" unicode="&#xf2;" horiz-adv-x="560" 
d="M280 440q95 0 168 -65t73 -160q0 -99 -70.5 -163.5t-170.5 -64.5q-99 0 -169.5 67t-70.5 165q0 93 73 157t167 64zM276 417q-39 0 -67 -19t-42 -50t-20.5 -64t-6.5 -69q0 -39 6.5 -72.5t21.5 -65t45 -49.5t72 -18q51 0 83 32.5t42.5 74t10.5 92.5q0 40 -6.5 74
t-21.5 65.5t-45 50t-72 18.5zM401 530h-37l-135 58q-1 0 -12.5 5l-15 6.5t-12.5 6.5t-12.5 9.5t-7 11.5t-3.5 15q0 14 10 24.5t24 10.5q16 0 44 -23z" />
    <glyph glyph-name="oacute" unicode="&#xf3;" horiz-adv-x="560" 
d="M280 440q95 0 168 -65t73 -160q0 -99 -70.5 -163.5t-170.5 -64.5q-99 0 -169.5 67t-70.5 165q0 93 73 157t167 64zM276 417q-39 0 -67 -19t-42 -50t-20.5 -64t-6.5 -69q0 -39 6.5 -72.5t21.5 -65t45 -49.5t72 -18q51 0 83 32.5t42.5 74t10.5 92.5q0 40 -6.5 74
t-21.5 65.5t-45 50t-72 18.5zM239 530h-37l156 124q28 23 44 23q15 0 25 -10.5t10 -24.5q0 -9 -3.5 -16.5t-12.5 -14t-14 -9t-18.5 -8t-15.5 -6.5z" />
    <glyph glyph-name="ocircumflex" unicode="&#xf4;" horiz-adv-x="560" 
d="M280 440q95 0 168 -65t73 -160q0 -99 -70.5 -163.5t-170.5 -64.5q-99 0 -169.5 67t-70.5 165q0 93 73 157t167 64zM276 417q-39 0 -67 -19t-42 -50t-20.5 -64t-6.5 -69q0 -39 6.5 -72.5t21.5 -65t45 -49.5t72 -18q51 0 83 32.5t42.5 74t10.5 92.5q0 40 -6.5 74
t-21.5 65.5t-45 50t-72 18.5zM384 530l-107 80l-111 -80h-30l114 147h55l110 -147h-31z" />
    <glyph glyph-name="otilde" unicode="&#xf5;" horiz-adv-x="560" 
d="M280 440q95 0 168 -65t73 -160q0 -99 -70.5 -163.5t-170.5 -64.5q-99 0 -169.5 67t-70.5 165q0 93 73 157t167 64zM276 417q-39 0 -67 -19t-42 -50t-20.5 -64t-6.5 -69q0 -39 6.5 -72.5t21.5 -65t45 -49.5t72 -18q51 0 83 32.5t42.5 74t10.5 92.5q0 40 -6.5 74
t-21.5 65.5t-45 50t-72 18.5zM163 576h-27q6 35 31.5 61.5t59.5 26.5q21 0 70 -20q49 -19 62 -19q25 0 35 35h26q-3 -32 -27 -61q-26 -30 -57 -30q-25 0 -75 21q-46 20 -63 20q-23 0 -35 -34z" />
    <glyph glyph-name="odieresis" unicode="&#xf6;" horiz-adv-x="560" 
d="M280 440q95 0 168 -65t73 -160q0 -99 -70.5 -163.5t-170.5 -64.5q-99 0 -169.5 67t-70.5 165q0 93 73 157t167 64zM276 417q-39 0 -67 -19t-42 -50t-20.5 -64t-6.5 -69q0 -39 6.5 -72.5t21.5 -65t45 -49.5t72 -18q51 0 83 32.5t42.5 74t10.5 92.5q0 40 -6.5 74
t-21.5 65.5t-45 50t-72 18.5zM207 555q-22 0 -36.5 15.5t-14.5 37.5q0 21 15 35t36 14q20 0 35.5 -14.5t15.5 -34.5q0 -22 -14.5 -37.5t-36.5 -15.5zM344 555q-22 0 -36.5 15.5t-14.5 37.5q0 20 15.5 34.5t35.5 14.5t35.5 -14.5t15.5 -34.5q0 -22 -14.5 -37.5t-36.5 -15.5z
" />
    <glyph glyph-name="divide" unicode="&#xf7;" horiz-adv-x="520" 
d="M33 231v46h454v-46h-454zM261 403q-22 0 -36.5 15.5t-14.5 37.5q0 21 15 35t36 14q20 0 35.5 -14.5t15.5 -34.5q0 -22 -14.5 -37.5t-36.5 -15.5zM261 3q-22 0 -36.5 15.5t-14.5 37.5q0 21 15 35t36 14q20 0 35.5 -14.5t15.5 -34.5q0 -22 -14.5 -37.5t-36.5 -15.5z" />
    <glyph glyph-name="oslash" unicode="&#xf8;" horiz-adv-x="560" 
d="M491 497l-69 -102q44 -29 70 -77.5t26 -101.5q0 -100 -70.5 -164.5t-170.5 -64.5q-67 0 -116 27l-63 -95h-45l79 113q-44 28 -68 77.5t-24 103.5q0 96 71 161.5t168 65.5q63 0 112 -26l57 83h43zM390 349l-206 -302q33 -37 95 -37q52 0 84.5 32.5t43.5 74.5t11 93
q0 96 -28 139zM164 81l204 298q-32 38 -84 38q-41 0 -70.5 -17.5t-44.5 -47.5t-22 -63.5t-7 -71.5q0 -88 24 -136z" />
    <glyph glyph-name="ugrave" unicode="&#xf9;" horiz-adv-x="580" 
d="M180 431v-273q0 -28 2.5 -47.5t9.5 -43t25 -36t46 -12.5q58 0 97.5 44.5t39.5 103.5v134q0 64 -6 77q-11 25 -70 34v20q14 -1 41.5 -2.5t41.5 -2.5q13 1 39 2.5t39 2.5v-322q0 -19 1 -30.5t10 -24t26 -12.5q5 0 11.5 0.5t14.5 1.5t12 1v-23l-139 -36l-21 94
q-28 -42 -73 -68t-94 -26q-138 0 -138 143v171q0 64 -6 77q-11 25 -70 34v19q14 -1 41.5 -2.5t41.5 -1.5q13 1 39.5 2.5t38.5 1.5zM411 530h-37l-135 58q-1 0 -12.5 5l-15 6.5t-12.5 6.5t-12.5 9.5t-7 11.5t-3.5 15q0 14 10 24.5t24 10.5q16 0 44 -23z" />
    <glyph glyph-name="uacute" unicode="&#xfa;" horiz-adv-x="580" 
d="M180 431v-273q0 -28 2.5 -47.5t9.5 -43t25 -36t46 -12.5q58 0 97.5 44.5t39.5 103.5v134q0 64 -6 77q-11 25 -70 34v20q14 -1 41.5 -2.5t41.5 -2.5q13 1 39 2.5t39 2.5v-322q0 -19 1 -30.5t10 -24t26 -12.5q5 0 11.5 0.5t14.5 1.5t12 1v-23l-139 -36l-21 94
q-28 -42 -73 -68t-94 -26q-138 0 -138 143v171q0 64 -6 77q-11 25 -70 34v19q14 -1 41.5 -2.5t41.5 -1.5q13 1 39.5 2.5t38.5 1.5zM249 530h-37l156 124q28 23 44 23q15 0 25 -10.5t10 -24.5q0 -9 -3.5 -16.5t-12.5 -14t-14 -9t-18.5 -8t-15.5 -6.5z" />
    <glyph glyph-name="ucircumflex" unicode="&#xfb;" horiz-adv-x="580" 
d="M180 431v-273q0 -28 2.5 -47.5t9.5 -43t25 -36t46 -12.5q58 0 97.5 44.5t39.5 103.5v134q0 64 -6 77q-11 25 -70 34v20q14 -1 41.5 -2.5t41.5 -2.5q13 1 39 2.5t39 2.5v-322q0 -19 1 -30.5t10 -24t26 -12.5q5 0 11.5 0.5t14.5 1.5t12 1v-23l-139 -36l-21 94
q-28 -42 -73 -68t-94 -26q-138 0 -138 143v171q0 64 -6 77q-11 25 -70 34v19q14 -1 41.5 -2.5t41.5 -1.5q13 1 39.5 2.5t38.5 1.5zM394 530l-107 80l-111 -80h-30l114 147h55l110 -147h-31z" />
    <glyph glyph-name="udieresis" unicode="&#xfc;" horiz-adv-x="580" 
d="M180 431v-273q0 -28 2.5 -47.5t9.5 -43t25 -36t46 -12.5q58 0 97.5 44.5t39.5 103.5v134q0 64 -6 77q-11 25 -70 34v20q14 -1 41.5 -2.5t41.5 -2.5q13 1 39 2.5t39 2.5v-322q0 -19 1 -30.5t10 -24t26 -12.5q5 0 11.5 0.5t14.5 1.5t12 1v-23l-139 -36l-21 94
q-28 -42 -73 -68t-94 -26q-138 0 -138 143v171q0 64 -6 77q-11 25 -70 34v19q14 -1 41.5 -2.5t41.5 -1.5q13 1 39.5 2.5t38.5 1.5zM217 555q-22 0 -36.5 15.5t-14.5 37.5q0 21 15 35t36 14q20 0 35.5 -14.5t15.5 -34.5q0 -22 -14.5 -37.5t-36.5 -15.5zM354 555
q-22 0 -36.5 15.5t-14.5 37.5q0 20 15.5 34.5t35.5 14.5t35.5 -14.5t15.5 -34.5q0 -22 -14.5 -37.5t-36.5 -15.5z" />
    <glyph glyph-name="yacute" unicode="&#xfd;" horiz-adv-x="420" 
d="M200 5l-141 329q-18 43 -29 56q-7 7 -21.5 14t-23.5 7v20q17 -1 51 -2.5t51 -1.5q19 1 56.5 2t56.5 2v-20q-1 0 -20 -3t-30 -10.5t-11 -21.5q0 -19 41 -120l64 -153l75 180q28 67 28 93q0 32 -55 35v20q13 -1 38.5 -2t38.5 -2q11 1 33 2.5t33 1.5v-20q-15 0 -25 -6.5
t-13.5 -12t-10.5 -22.5t-10 -23l-13 -29l-208 -480q-33 -78 -58 -98q-13 -10 -26 -10q-13 -3 -21.5 5t-8.5 19q0 20 14 31.5t34 21t28 21.5q16 23 45 92zM169 530h-37l156 124q28 23 44 23q15 0 25 -10.5t10 -24.5q0 -9 -3.5 -16.5t-12.5 -14t-14 -9t-18.5 -8t-15.5 -6.5z
" />
    <glyph glyph-name="thorn" unicode="&#xfe;" horiz-adv-x="580" 
d="M182 239v-71q0 -83 22 -109q34 -40 98 -40q51 0 84 31t44.5 72.5t11.5 91.5q0 37 -6.5 69t-21.5 61.5t-43 46.5t-67 17q-68 0 -101 -57q-21 -36 -21 -112zM182 660v-289h2q52 69 136 69q98 0 160 -65t62 -164q0 -93 -61.5 -158.5t-154.5 -65.5q-81 0 -144 57v-194v-15
q0 -28 1 -39.5t8 -24.5t23 -17.5t45 -5.5v-20q-18 0 -55 2t-56 2q-20 0 -60 -2t-60 -2v20q26 2 40 6t20.5 16.5t7.5 23t1 36.5v14v612q0 98 -5 121q-1 7 -4 12l-5 8.5t-7.5 5.5t-8 3.5t-10 2t-9.5 0.5h-11.5h-11.5v20q36 5 157 31z" />
    <glyph glyph-name="ydieresis" unicode="&#xff;" horiz-adv-x="420" 
d="M200 5l-141 329q-18 43 -29 56q-7 7 -21.5 14t-23.5 7v20q17 -1 51 -2.5t51 -1.5q19 1 56.5 2t56.5 2v-20q-1 0 -20 -3t-30 -10.5t-11 -21.5q0 -19 41 -120l64 -153l75 180q28 67 28 93q0 32 -55 35v20q13 -1 38.5 -2t38.5 -2q11 1 33 2.5t33 1.5v-20q-15 0 -25 -6.5
t-13.5 -12t-10.5 -22.5t-10 -23l-13 -29l-208 -480q-33 -78 -58 -98q-13 -10 -26 -10q-13 -3 -21.5 5t-8.5 19q0 20 14 31.5t34 21t28 21.5q16 23 45 92zM157 555q-22 0 -36.5 15.5t-14.5 37.5q0 21 15 35t36 14q20 0 35.5 -14.5t15.5 -34.5q0 -22 -14.5 -37.5t-36.5 -15.5z
M294 555q-22 0 -36.5 15.5t-14.5 37.5q0 20 15.5 34.5t35.5 14.5t35.5 -14.5t15.5 -34.5q0 -22 -14.5 -37.5t-36.5 -15.5z" />
    <glyph glyph-name="dotlessi" unicode="&#x131;" horiz-adv-x="300" 
d="M35 409l158 31v-321v-25.5t0.5 -23t3 -17t6.5 -15t12 -9.5t19.5 -8t28.5 -3v-20q-16 0 -52 1.5t-55 2.5q-20 0 -58.5 -2t-58.5 -2v20q48 3 58.5 18.5t10.5 61.5v15v143q0 96 -4 111q-7 25 -69 22v20z" />
    <glyph glyph-name="Lslash" unicode="&#x141;" horiz-adv-x="620" 
d="M122 301v169q0 106 -10 133q-9 22 -30.5 28t-55.5 6v23q24 0 71.5 -2t71.5 -2q26 0 76 2t76 2v-23q-22 0 -35 -1t-29 -9t-22 -24q-10 -27 -10 -133v-110l138 94v-41l-138 -97v-141q0 -97 25.5 -123.5t121.5 -26.5q103 0 142 25q24 15 37.5 35.5t17.5 37.5t10 52h25
l-9 -177q-8 0 -25.5 2t-26.5 2q-86 0 -258.5 -2t-258.5 -2v23q22 0 35 1t29 9t22 24q10 27 10 133v70l-98 -63v40z" />
    <glyph glyph-name="lslash" unicode="&#x142;" horiz-adv-x="280" 
d="M183 682v-276l66 49v-45l-66 -48v-243v-26t0.5 -22.5t2.5 -17t6.5 -15l12 -9.5t19 -8t28.5 -3v-20q-19 0 -57 2t-57 2t-55.5 -2t-54.5 -2v20q48 3 59 18.5t11 62.5v14v203l-65 -49v46l65 49v135q0 86 -10 107q-3 7 -8.5 12t-13.5 7.5t-13 3.5t-16 2t-14 1v20z" />
    <glyph glyph-name="OE" unicode="&#x152;" horiz-adv-x="1000" 
d="M521 243v243q-3 78 -29.5 114.5t-101.5 36.5q-223 0 -223 -296q0 -68 9 -119.5t32 -100t69.5 -74.5t114.5 -26q27 0 48 6t34.5 16.5t23.5 25t14 32t6.5 37.5t2.5 40.5v41.5v23zM42 321q0 152 96 245.5t249 93.5h76q28 0 83.5 -2t82.5 -2q39 0 136 1.5l157 2.5v-147h-23
q-6 35 -16.5 57.5t-22.5 35t-36 18.5t-44 7.5t-58 1.5h-72q-20 0 -25 -5q-1 -2 -1 -35v-240q94 -4 126 27.5t37 95.5h23q-2 -92 -4 -136q2 -40 4 -124h-23q-10 73 -45 91.5t-118 18.5v-164q0 -78 18 -101q31 -38 128 -36q45 1 72 5.5t53.5 17.5t40.5 40.5t19 70.5h23
l-9 -161q-64 1 -177 2.5t-163 1.5q-44 -1 -131.5 -2t-131.5 -2q-142 -4 -233 88t-91 235z" />
    <glyph glyph-name="oe" unicode="&#x153;" horiz-adv-x="840" 
d="M499 295h177h7h6.5h5t4.5 0.5t3.5 1.5t3.5 2.5t2 3.5t1.5 4.5t1 6t0.5 8.5q0 44 -25 69.5t-70 25.5q-48 0 -79.5 -36.5t-37.5 -85.5zM140 209q0 -199 132 -199q34 0 57.5 13.5t36 32t19 49.5t8 54t1.5 57q0 39 -4 68.5t-15 62.5t-36.5 51.5t-64.5 18.5q-134 0 -134 -208z
M785 268h-287q-1 -10 -2.5 -26.5t-1.5 -23.5q0 -45 16 -89t53 -77t86 -33q26 0 49.5 10.5t35 20.5t36.5 34l20 -16q-66 -81 -170 -81q-105 0 -171 81q-70 -81 -176 -81q-100 0 -166.5 64.5t-66.5 163.5q0 95 67.5 160t163.5 65q52 0 101 -19.5t77 -57.5q69 77 171 77
q77 0 130.5 -42.5t53.5 -115.5q0 -14 -19 -14z" />
    <glyph glyph-name="Scaron" unicode="&#x160;" horiz-adv-x="520" 
d="M45 5v195h23q37 -186 189 -186q61 0 102 33t41 92q0 32 -12.5 57.5t-37.5 44t-46.5 29.5t-55.5 25q-41 16 -69 30.5t-58 37.5t-45.5 55.5t-15.5 73.5q0 83 56.5 131.5t141.5 48.5q79 0 151 -51l23 39h11l5 -173h-23q-44 158 -167 158q-49 0 -83 -29t-34 -77q0 -23 9 -42
t19 -30.5t33 -25t33.5 -18l38.5 -16.5q50 -21 80 -36.5t67 -42.5t55 -63.5t18 -83.5q0 -92 -71.5 -143t-167.5 -51q-94 0 -175 60l-24 -42h-11zM147 906l106 -79l111 79h31l-114 -147h-56l-109 147h31z" />
    <glyph glyph-name="scaron" unicode="&#x161;" horiz-adv-x="360" 
d="M71 23l-25 -29h-10l-4 143h20q32 -127 124 -127q36 0 60 18t24 52q0 10 -3 20t-6.5 17t-11.5 15t-13 12t-16.5 11t-16 9.5t-18 9.5t-16.5 8q-29 15 -44.5 24.5t-36 26.5t-30 38.5t-9.5 48.5q0 51 36 85.5t88 34.5q53 0 97 -25l20 24h12l-2 -125h-20q-8 23 -15 37.5
t-19 31.5t-29.5 25.5t-39.5 8.5q-26 0 -45 -14.5t-19 -40.5q0 -15 5 -27t17.5 -22t20.5 -15.5t26.5 -14.5t23.5 -12q71 -37 91 -55q41 -37 41 -97q0 -59 -43.5 -95.5t-103.5 -36.5q-65 0 -110 36zM67 677l106 -79l111 79h31l-114 -147h-56l-109 147h31z" />
    <glyph glyph-name="Ydieresis" unicode="&#x178;" horiz-adv-x="520" 
d="M308 262v-133q0 -72 13.5 -87t85.5 -21v-23q-25 1 -75 2t-75 2q-26 0 -77 -2t-76 -2v23q72 6 86.5 21.5t14.5 86.5v124l-92 159l-18 34l-34.5 64.5t-37 63t-32.5 45.5q-8 9 -15.5 12t-22.5 4t-20 2v23q23 0 68.5 -2t67.5 -2q24 0 71 2t70 2v-23q-75 0 -75 -32
q0 -22 26 -70l130 -241l64 102q99 165 99 199q0 6 -1.5 11t-5 9l-6 7t-8.5 5t-9.5 3.5t-11 2.5t-10.5 1.5t-10.5 1.5t-9.5 1v23q18 0 53.5 -2t53.5 -2q17 0 49 2t49 2v-23q-27 -2 -48 -17t-30 -28t-28 -44zM259 784q-22 0 -36.5 15.5t-14.5 37.5q0 21 15 35t36 14
q20 0 35.5 -14.5t15.5 -34.5q0 -22 -14.5 -37.5t-36.5 -15.5zM396 784q-22 0 -36.5 15.5t-14.5 37.5q0 20 15.5 34.5t35.5 14.5t35.5 -14.5t15.5 -34.5q0 -22 -14.5 -37.5t-36.5 -15.5z" />
    <glyph glyph-name="Zcaron" unicode="&#x17d;" horiz-adv-x="600" 
d="M563 182l-15 -182h-513l383 633h-145q-47 0 -73 -3.5t-51.5 -16.5t-39 -40t-20.5 -73h-27l10 160h476l-381 -633h169q102 0 141 28t59 127h27zM187 906l106 -79l111 79h31l-114 -147h-56l-109 147h31z" />
    <glyph glyph-name="zcaron" unicode="&#x17e;" horiz-adv-x="420" 
d="M397 111l-9 -111h-364l260 404h-92q-27 0 -39 -0.5t-29 -4.5t-25.5 -12t-16.5 -23t-12 -38h-19l9 101h337l-259 -404h106q67 0 94 14t42 74h17zM97 677l106 -79l111 79h31l-114 -147h-56l-109 147h31z" />
    <glyph glyph-name="florin" unicode="&#x192;" horiz-adv-x="520" 
d="M423 484h-104l-30 -184q-34 -205 -72 -286q-32 -67 -69.5 -104t-98.5 -37q-34 0 -61 12.5t-27 41.5q0 19 12.5 32t31.5 13q17 0 27 -11t13.5 -25t11.5 -25t21 -11q16 0 30 11t25 34t18.5 43.5t14.5 54t10 50t7.5 48t4.5 32.5l47 311h-91l8 27h88l10 52q8 36 12 52.5
t15 40.5t29 47q67 84 159 84q27 0 50 -14t23 -39q0 -18 -13 -30.5t-31 -12.5q-16 0 -27.5 10t-17.5 22t-14 22t-18 10q-39 0 -57 -57q-14 -41 -30 -137l-9 -50h109z" />
    <glyph glyph-name="circumflex" unicode="&#x2c6;" horiz-adv-x="420" 
d="M314 530l-107 80l-111 -80h-30l114 147h55l110 -147h-31z" />
    <glyph glyph-name="caron" unicode="&#x2c7;" horiz-adv-x="420" 
d="M97 677l106 -79l111 79h31l-114 -147h-56l-109 147h31z" />
    <glyph glyph-name="uni02C9" unicode="&#x2c9;" horiz-adv-x="400" 
d="M326 581h-260v41h260v-41z" />
    <glyph glyph-name="breve" unicode="&#x2d8;" horiz-adv-x="400" 
d="M315 656h27q-4 -55 -43 -90t-95 -35t-95.5 35t-42.5 90h26q12 -33 43 -49.5t69 -16.5q37 0 69 16.5t42 49.5z" />
    <glyph glyph-name="dotaccent" unicode="&#x2d9;" horiz-adv-x="240" 
d="M117 555q-22 0 -36.5 15.5t-14.5 37.5q0 21 15 35t36 14q20 0 35.5 -14.5t15.5 -34.5q0 -22 -14.5 -37.5t-36.5 -15.5z" />
    <glyph glyph-name="ring" unicode="&#x2da;" horiz-adv-x="320" 
d="M159 525q-38 0 -65.5 27t-27.5 64t27.5 63.5t64.5 26.5q38 0 66.5 -25.5t28.5 -62.5q0 -40 -27 -66.5t-67 -26.5zM161 554q24 0 41 18.5t17 42.5q0 26 -17.5 44.5t-43.5 18.5q-25 0 -41.5 -18.5t-16.5 -43.5q0 -26 18 -44t43 -18z" />
    <glyph glyph-name="ogonek" unicode="&#x2db;" horiz-adv-x="300" 
d="M224 -78l20 -25q-18 -23 -47.5 -39t-57.5 -16q-27 0 -50.5 14.5t-23.5 39.5q0 67 132 104h20v-2q-93 -44 -93 -82q0 -13 10 -23t23 -10q28 0 67 39z" />
    <glyph glyph-name="tilde" unicode="&#x2dc;" horiz-adv-x="420" 
d="M93 576h-27q6 35 31.5 61.5t59.5 26.5q21 0 70 -20q49 -19 62 -19q25 0 35 35h26q-3 -32 -27 -61q-26 -30 -57 -30q-25 0 -75 21q-46 20 -63 20q-23 0 -35 -34z" />
    <glyph glyph-name="hungarumlaut" unicode="&#x2dd;" horiz-adv-x="540" 
d="M237 588l-134 -58h-37l156 124q28 23 44 23q15 0 25 -10.5t10 -24.5q0 -9 -3.5 -16.5t-12.5 -14t-14 -9t-18.5 -8t-15.5 -6.5zM408 588l-135 -58h-37l157 124q28 23 44 23q14 0 24 -10.5t10 -24.5q0 -8 -3.5 -15t-7 -11.5t-12.5 -9.5t-12.5 -6.5l-15 -6.5t-12.5 -5z" />
    <glyph glyph-name="uni03A9" unicode="&#x3a9;" horiz-adv-x="680" 
d="M648 140l-23 -140h-223l-7 18q5 11 27 53t33.5 68t27 67.5t23 81t7.5 77.5q-1 141 -50.5 208t-123.5 67q-78 0 -125 -66.5t-47 -212.5q0 -60 22 -132t38 -104l55 -107l-7 -18h-222l-22 140l25 1q15 -45 29 -58.5t43 -13.5h96q-30 27 -51 49.5t-49 61t-43 86.5t-15 102
q0 136 78.5 219t196.5 83q121 0 196.5 -79.5t75.5 -215.5q0 -49 -14.5 -94.5t-41.5 -85.5t-50 -66.5t-56 -59.5h101q30 0 42.5 12.5t27.5 59.5z" />
    <glyph glyph-name="uni03BC" unicode="&#x3bc;" horiz-adv-x="580" 
d="M400 167v134q0 64 -6 77q-11 25 -70 34v20q14 -1 41.5 -2.5t41.5 -2.5q13 1 39 2.5t39 2.5v-322q0 -19 1 -30.5t10 -24t26 -12.5q5 0 11.5 0.5t14.5 1.5t12 1v-23l-139 -36l-21 94q-28 -42 -73 -68t-94 -26q-35 0 -60 11q5 -49 18 -112q12 -68 12 -87q0 -28 -13.5 -49
t-40.5 -21q-25 0 -39.5 20t-14.5 46v506q0 64 -6 77q-11 25 -70 34v19q14 -1 41.5 -2.5t41.5 -1.5q13 1 39.5 2.5t38.5 1.5v-273q0 -28 2.5 -47.5t9.5 -43t25 -36t46 -12.5q58 0 97.5 44.5t39.5 103.5z" />
    <glyph glyph-name="pi" unicode="&#x3c0;" horiz-adv-x="533" 
d="M483 453l24 -9q-11 -55 -34 -88q-19 -5 -63 -5q-4 -47 -4 -218q0 -86 40 -86q22 0 46 27l13 -21q-18 -31 -45 -48t-55 -17q-41 0 -63 27.5t-22 96.5q0 72 9 241q-104 2 -141 2v-16q0 -100 -13.5 -179.5t-26 -110.5t-22.5 -44q-30 -13 -58 -17l-7 17q47 61 68 160.5
t21 191.5q-29 0 -52 -6t-35 -13t-34 -23l-14 22q1 1 9.5 11.5l11 13.5t11.5 12.5t14.5 13t16 11.5t20 11l22 7t26.5 5.5t30 1.5q32 0 118 -1.5t133 -1.5q23 0 34 6t22 26z" />
    <glyph glyph-name="uni2010" unicode="&#x2010;" horiz-adv-x="240" 
d="M241 191h-241v67h241v-67z" />
    <glyph glyph-name="endash" unicode="&#x2013;" horiz-adv-x="500" 
d="M500 191h-500v67h500v-67z" />
    <glyph glyph-name="emdash" unicode="&#x2014;" horiz-adv-x="1000" 
d="M1000 191h-1000v67h1000v-67z" />
    <glyph glyph-name="quoteleft" unicode="&#x2018;" horiz-adv-x="300" 
d="M190 682l13 -17q-29 -25 -42 -38.5t-23 -37.5t-9 -55q16 13 33 13q22 0 36.5 -16t14.5 -38t-17 -37t-40 -15q-31 0 -49.5 28t-18.5 60q0 52 25.5 85.5t76.5 67.5z" />
    <glyph glyph-name="quoteright" unicode="&#x2019;" horiz-adv-x="300" 
d="M111 441l-13 17q29 25 42 38.5t23 37.5t9 55q-16 -13 -33 -13q-22 0 -36.5 16t-14.5 38t17 37t40 15q31 0 49.5 -28t18.5 -60q0 -52 -25.5 -85.5t-76.5 -67.5z" />
    <glyph glyph-name="quotesinglbase" unicode="&#x201a;" horiz-adv-x="300" 
d="M111 -146l-13 17q29 25 42 38.5t23 37.5t9 55q-16 -13 -33 -13q-22 0 -36.5 16t-14.5 38t17 37t40 15q31 0 49.5 -28t18.5 -60q0 -52 -25.5 -85.5t-76.5 -67.5z" />
    <glyph glyph-name="quotedblleft" unicode="&#x201c;" horiz-adv-x="400" 
d="M325 682l13 -17q-29 -25 -42 -38.5t-23 -37.5t-9 -55q16 13 33 13q22 0 36.5 -16t14.5 -38t-17 -37t-40 -15q-31 0 -49.5 28t-18.5 60q0 52 25.5 85.5t76.5 67.5zM154 682l13 -17q-29 -25 -42 -38.5t-23 -37.5t-9 -55q16 13 33 13q22 0 36.5 -16t14.5 -38t-17 -37
t-40 -15q-31 0 -49.5 28t-18.5 60q0 52 25.5 85.5t76.5 67.5z" />
    <glyph glyph-name="quotedblright" unicode="&#x201d;" horiz-adv-x="400" 
d="M75 441l-13 17q29 25 42 38.5t23 37.5t9 55q-16 -13 -33 -13q-22 0 -36.5 16t-14.5 38t17 37t40 15q31 0 49.5 -28t18.5 -60q0 -52 -25.5 -85.5t-76.5 -67.5zM246 441l-13 17q29 25 42 38.5t23 37.5t9 55q-16 -13 -33 -13q-22 0 -36.5 16t-14.5 38t17 37t40 15
q31 0 49.5 -28t18.5 -60q0 -52 -25.5 -85.5t-76.5 -67.5z" />
    <glyph glyph-name="quotedblbase" unicode="&#x201e;" horiz-adv-x="400" 
d="M75 -146l-13 17q29 25 42 38.5t23 37.5t9 55q-16 -13 -33 -13q-22 0 -36.5 16t-14.5 38t17 37t40 15q31 0 49.5 -28t18.5 -60q0 -52 -25.5 -85.5t-76.5 -67.5zM246 -146l-13 17q29 25 42 38.5t23 37.5t9 55q-16 -13 -33 -13q-22 0 -36.5 16t-14.5 38t17 37t40 15
q31 0 49.5 -28t18.5 -60q0 -52 -25.5 -85.5t-76.5 -67.5z" />
    <glyph glyph-name="dagger" unicode="&#x2020;" horiz-adv-x="500" 
d="M412 406q-2 34 25 34q32 0 32 -32q0 -19 -14 -32.5t-34 -13.5q-17 0 -47 15q-26 15 -44 15q-35 0 -57 -42l32 -33l-40 -532h-24q-3 51 -7.5 153.5t-6.5 153.5l-29 225l31 33q-8 17 -25 30.5t-34 13.5t-43 -15q-26 -16 -46 -16t-34.5 14t-14.5 34q0 13 8.5 21t21.5 8
q30 0 27 -30q0 -20 6 -20q3 0 6 1.5t5 4.5t4 5.5t4.5 7.5t4.5 8q16 23 42 23q25 0 43 -18q21 -21 24 -21q10 0 10 12q0 8 -14 45.5t-14 58.5q0 25 13.5 53t13.5 30q0 5 -10.5 19t-10.5 29t10.5 24.5t25.5 9.5q12 0 22.5 -9.5t10.5 -22.5q0 -14 -11 -29t-11 -20t14 -32
t14 -52q0 -22 -13.5 -59t-13.5 -48q0 -10 6 -10q7 0 29 22q20 18 43 18q24 0 40 -23q17 -27 24 -27q9 0 6 16z" />
    <glyph glyph-name="daggerdbl" unicode="&#x2021;" horiz-adv-x="500" 
d="M269 486l30 -32l-37 -207h-23l-36 207l29 32q-14 6 -30 6q-21 0 -53 -16q-28 -17 -47 -17t-32 11t-13 30q0 36 32 36q15 0 20 -11t6 -22.5t5 -11.5q5 0 14 9q29 36 60 36q10 0 22 -5q-1 35 10 56q12 22 12 23q0 5 -7 14q-12 16 -12 25q0 13 9.5 23t22.5 10q11 0 21 -9.5
t10 -21.5q0 -13 -10 -24q-9 -12 -9 -15q0 -4 1.5 -7.5t4.5 -7.5t5 -8q11 -17 11 -58q12 5 22 5q31 0 59 -33q9 -12 14 -12q7 0 7 13q2 16 7.5 24t20.5 8q14 0 21.5 -10.5t7.5 -25.5q0 -18 -12 -29.5t-30 -11.5q-20 0 -50 17q-30 16 -53 16q-15 0 -30 -6zM232 -20l-29 32
l36 207h23l37 -207l-30 -32q15 -6 30 -6q25 0 53 17q32 16 50 16t30 -11.5t12 -29.5q0 -15 -7.5 -25.5t-21.5 -10.5q-15 0 -20.5 8t-7.5 24q0 13 -7 13q-5 0 -14 -12q-28 -33 -59 -33q-10 0 -22 5q0 -41 -11 -58l-5 -7.5t-4.5 -7.5t-1.5 -8q0 -3 9 -15q10 -11 10 -24
q0 -12 -10 -21.5t-21 -9.5q-13 0 -22.5 10t-9.5 23q0 9 12 25q7 9 7 14q0 3 -12 23q-11 21 -10 56q-12 -5 -22 -5q-31 0 -60 36q-9 9 -14 9q-3 0 -4 -2.5t-2 -10t-1 -9.5q-4 -23 -24 -23q-32 0 -32 36q0 19 13 30t32 11q17 0 47 -16q30 -17 53 -17q16 0 30 6z" />
    <glyph glyph-name="bullet" unicode="&#x2022;" horiz-adv-x="460" 
d="M227 170q-68 0 -118.5 50t-50.5 121t51.5 120.5t123.5 49.5q69 0 119 -49.5t50 -120.5t-51 -121t-124 -50z" />
    <glyph glyph-name="ellipsis" unicode="&#x2026;" horiz-adv-x="1000" 
d="M500 -13q-23 0 -40 16.5t-17 39.5t15.5 40.5t38.5 17.5q24 0 42 -15.5t18 -39.5t-16.5 -41.5t-40.5 -17.5zM833 -13q-23 0 -40 16.5t-17 39.5t15.5 40.5t38.5 17.5q24 0 42 -15.5t18 -39.5t-16.5 -41.5t-40.5 -17.5zM167 -13q-23 0 -40 16.5t-17 39.5t15.5 40.5
t38.5 17.5q24 0 42 -15.5t18 -39.5t-16.5 -41.5t-40.5 -17.5z" />
    <glyph glyph-name="perthousand" unicode="&#x2030;" horiz-adv-x="1300" 
d="M707 731l-478 -804h-41l423 714l-2 2q-65 -36 -117 -36q-31 0 -78 15q11 -30 11 -69q0 -82 -51 -160.5t-128 -78.5q-68 0 -110.5 45t-42.5 113q0 83 59.5 157t140.5 74q47 0 96 -34.5t101 -34.5q98 0 184 97h33zM313 676q-42 0 -77 -45t-51.5 -98.5t-16.5 -94.5
q0 -38 20.5 -66.5t57.5 -28.5q46 0 81.5 40.5t50.5 90t15 93.5q0 43 -20 76t-60 33zM631 -48q-66 0 -108.5 43.5t-42.5 109.5q0 87 59.5 161t144.5 74q61 0 95.5 -40.5t34.5 -102.5q0 -55 -20 -109.5t-63.5 -95t-99.5 -40.5zM697 313q-41 0 -75 -45.5t-50.5 -99t-16.5 -92.5
t21 -68t58 -29q45 0 80.5 40.5t51.5 91t16 93.5t-22 76t-63 33zM1024 -48q-66 0 -108 43.5t-42 109.5q0 87 59 161t144 74q61 0 95.5 -40.5t34.5 -102.5q0 -55 -20 -109.5t-63.5 -95t-99.5 -40.5zM1091 313q-41 0 -75 -45.5t-50.5 -99t-16.5 -92.5t20.5 -68t58.5 -29
q45 0 80 40.5t51 91t16 93.5t-21.5 76t-62.5 33z" />
    <glyph glyph-name="guilsinglleft" unicode="&#x2039;" horiz-adv-x="320" 
d="M218 85l-146 136l91 78l59 56q1 1 5 4.5t7.5 6t6.5 2.5q8 0 8 -8q0 -19 -55 -83l-46 -56l44 -55q56 -71 56 -86q0 -10 -9 -10q-4 0 -7.5 2.5t-8 7z" />
    <glyph glyph-name="guilsinglright" unicode="&#x203a;" horiz-adv-x="320" 
d="M102 357l146 -136l-91 -78l-59 -56q-1 -1 -5 -4.5t-7.5 -6t-6.5 -2.5q-8 0 -8 8q0 19 55 83l46 56l-44 55q-56 71 -56 86q0 10 9 10q4 0 7.5 -2.5t8 -7z" />
    <glyph glyph-name="fraction" unicode="&#x2044;" horiz-adv-x="120" 
d="M326 676l-478 -676h-53l477 676h54z" />
    <glyph glyph-name="Euro" unicode="&#x20ac;" horiz-adv-x="520" 
d="M377 297v-33h-198v-2q5 -84 25 -140q42 -113 131 -113q83 0 122 118q8 25 18 89h24v-205h-19l-10 44q-55 -68 -149 -68q-97 0 -162.5 75t-77.5 200v2h-72v33h70q-1 8 -1 23q0 28 3 57h-73v33h78q20 119 85 190.5t157 71.5q42 0 73 -13t67 -46l7 43h19l5 -181h-24
q-14 80 -49 126.5t-91 46.5q-130 0 -154 -238h196v-33h-198q-1 -18 -1 -55v-25h199z" />
    <glyph glyph-name="afii61289" unicode="&#x2113;" horiz-adv-x="391" 
d="M355 114l20 -17q-58 -108 -159 -108q-66 0 -97 37q-33 42 -33 139v78l-55 -41l-12 24l67 53v125q0 116 9.5 165.5t39.5 86.5q37 48 86 48q42 0 64.5 -36.5t22.5 -91.5q0 -79 -35.5 -145t-101.5 -135v-88q0 -91 20 -127t62 -36q57 0 102 69zM171 459v-117
q39 46 62.5 108.5t23.5 124.5q0 99 -42 99q-25 0 -34.5 -46.5t-9.5 -168.5z" />
    <glyph glyph-name="trademark" unicode="&#x2122;" horiz-adv-x="980" 
d="M294 278h-182v20q43 0 52 6q11 7 11 38v315h-41q-45 0 -61 -14t-16 -57h-23v96h338v-96h-23q0 43 -16 57t-61 14h-41v-315q0 -31 11 -38q9 -6 52 -6v-20zM882 644v-299q0 -30 8 -37.5t40 -9.5v-20h-155v20q19 1 26 2t14.5 5.5t9 13t1.5 25.5v298h-2l-150 -364h-8
l-151 364h-2v-310q0 -22 11.5 -28t38.5 -6v-20h-123v20q35 1 42 9q6 7 6 24v296q0 27 -4 31t-36 4v20h109l129 -308l132 308h112v-20q-1 0 -11 0.5t-14 0t-10.5 -2t-9.5 -5.5t-3 -11z" />
    <glyph glyph-name="Omega" unicode="&#x2126;" horiz-adv-x="680" 
d="M648 140l-23 -140h-223l-7 18q5 11 27 53t33.5 68t27 67.5t23 81t7.5 77.5q-1 141 -50.5 208t-123.5 67q-78 0 -125 -66.5t-47 -212.5q0 -60 22 -132t38 -104l55 -107l-7 -18h-222l-22 140l25 1q15 -45 29 -58.5t43 -13.5h96q-30 27 -51 49.5t-49 61t-43 86.5t-15 102
q0 136 78.5 219t196.5 83q121 0 196.5 -79.5t75.5 -215.5q0 -49 -14.5 -94.5t-41.5 -85.5t-50 -66.5t-56 -59.5h101q30 0 42.5 12.5t27.5 59.5z" />
    <glyph glyph-name="estimated" unicode="&#x212e;" horiz-adv-x="825" 
d="M792 319h-615q-5 0 -5 -4v-186q0 -11 8 -21q96 -101 232 -101q147 0 245 113h55q-52 -61 -131 -96.5t-170 -35.5q-157 0 -268 99.5t-111 240.5q0 142 111 242t268 100q158 0 269.5 -100t111.5 -242v-9zM652 344v187q0 13 -9 22q-99 97 -231 97q-134 0 -231 -100
q-9 -9 -9 -23v-183q0 -6 5 -6h471q4 0 4 6z" />
    <glyph glyph-name="partialdiff" unicode="&#x2202;" horiz-adv-x="501" 
d="M248 411h1q34 0 68 -16.5t55 -48.5q6 47 9 103q2 89 -25 150q-15 36 -47.5 62t-73.5 26q-64 0 -129 -55q-12 -2 -24 22t-6 41q64 39 133 39q126 0 196 -136q47 -92 47 -224q0 -142 -45 -239q-66 -146 -194 -146q-79 0 -126 51t-47 140q0 92 56 159q26 32 66.5 52t85.5 20
zM269 372h-1q-60 0 -99 -56q-42 -69 -42 -182q0 -50 23 -82.5t63 -32.5q61 0 105 101q31 67 46 185q-10 23 -36.5 45t-58.5 22z" />
    <glyph glyph-name="Delta" unicode="&#x2206;" horiz-adv-x="598" 
d="M564 0h-532v25l243 634l39 10l250 -644v-25zM455 47l-187 491l-183 -491h370z" />
    <glyph glyph-name="product" unicode="&#x220f;" horiz-adv-x="648" 
d="M621 662v-26q-60 -4 -73 -15.5t-13 -55.5v-542q0 -49 13.5 -62t70.5 -18v-25h-248v25q54 5 65.5 16.5t11.5 63.5v575q0 20 -6 25.5t-28 5.5h-183q-21 0 -26.5 -5t-5.5 -23v-578q0 -50 9.5 -62.5t60.5 -17.5v-25h-242v25q57 5 70.5 18t13.5 62v542q0 45 -13.5 56t-73.5 15
v26h597z" />
    <glyph glyph-name="summation" unicode="&#x2211;" horiz-adv-x="521" 
d="M499 96l-42 -182h-431v24l210 325l-205 375v24h427q0 -19 11 -155l-27 -5q-11 61 -31 96q-10 19 -28.5 25.5t-70.5 6.5h-172l173 -307l-211 -332h237q63 0 83.5 16.5t49.5 95.5z" />
    <glyph glyph-name="minus" unicode="&#x2212;" horiz-adv-x="520" 
d="M33 231v46h454v-46h-454z" />
    <glyph glyph-name="uni2215" unicode="&#x2215;" horiz-adv-x="120" 
d="M326 676l-478 -676h-53l477 676h54z" />
    <glyph glyph-name="uni2219" unicode="&#x2219;" horiz-adv-x="320" 
d="M96 254q0 26 18.5 45.5t44.5 19.5q27 0 46 -19t19 -46q0 -26 -18.5 -46t-45.5 -20q-26 0 -45 19.5t-19 46.5z" />
    <glyph glyph-name="radical" unicode="&#x221a;" horiz-adv-x="520" 
d="M504 844l-158 -989l-21 -10l-202 523l-82 -39l-11 33l151 69l153 -411h2l130 833z" />
    <glyph glyph-name="infinity" unicode="&#x221e;" horiz-adv-x="711" 
d="M666 274v-1q0 -68 -43 -110.5t-101 -42.5q-42 0 -80.5 24.5t-84.5 82.5q-44 -52 -83 -79.5t-89 -27.5q-58 0 -99.5 42.5t-41.5 106.5q0 66 42.5 109t105.5 43q48 0 87.5 -27.5t80.5 -78.5q51 59 79 77q41 29 89 29q60 -1 99 -41.5t39 -105.5zM192 174h1q25 0 53 17.5
t40 30.5l40 45q-28 36 -41 51t-40.5 32.5t-56.5 17.5q-40 0 -64 -28.5t-23 -71.5q0 -39 26 -66.5t65 -27.5zM522 368h-1q-16 0 -32 -6t-32.5 -19.5t-24.5 -21.5t-25 -27.5t-19 -21.5q46 -55 74.5 -76.5t62.5 -21.5q38 0 61.5 29.5t23.5 65.5q0 45 -24.5 72t-63.5 27z" />
    <glyph glyph-name="integral" unicode="&#x222b;" horiz-adv-x="358" 
d="M152 9l-19 390q-19 404 148 404q22 0 40.5 -12t19.5 -34q0 -21 -13 -32.5t-31 -11.5q-17 0 -29 23.5t-21 23.5q-44 0 -37 -156l17 -363q21 -431 -150 -431q-26 0 -43 14t-17 33q-1 20 15 33.5t36 13.5q15 0 26.5 -25t21.5 -25q21 0 30.5 42t5.5 113z" />
    <glyph glyph-name="approxequal" unicode="&#x2248;" horiz-adv-x="505" 
d="M429 413l37 -32q-46 -91 -121 -91q-41 0 -104 37q-50 31 -80 31q-28 0 -47.5 -17t-40.5 -50l-37 31q21 41 55.5 66t74.5 25q13 0 24.5 -2t23.5 -7t18 -8t18.5 -10t14.5 -8q54 -32 81 -32q25 0 44 16.5t39 50.5zM429 250l37 -32q-46 -91 -122 -91q-40 0 -103 37
q-49 31 -80 31q-28 0 -47.5 -17.5t-40.5 -50.5l-37 32q21 41 55.5 66t74.5 25q13 0 24.5 -2t23.5 -7t18.5 -8t18 -10t14.5 -8q4 -3 15.5 -9.5l17 -9.5t14.5 -7t17 -5.5t17 -1.5q25 0 43.5 16.5t39.5 51.5z" />
    <glyph glyph-name="notequal" unicode="&#x2260;" horiz-adv-x="505" 
d="M365 473l-38 -84h132v-57h-154l-57 -128h211v-57h-233l-47 -105l-44 19l38 86h-128v57h151l56 128h-207v57h229l46 103z" />
    <glyph glyph-name="lessequal" unicode="&#x2264;" horiz-adv-x="505" 
d="M457 96l-407 207v60l406 206v-66l-348 -168v-2l349 -170v-67zM460 2h-414v58h414v-58z" />
    <glyph glyph-name="greaterequal" unicode="&#x2265;" horiz-adv-x="505" 
d="M51 569l407 -206v-60l-407 -207v67l348 169v2l-348 169v66zM458 2h-412v58h412v-58z" />
    <glyph glyph-name="lozenge" unicode="&#x25ca;" horiz-adv-x="526" 
d="M480 319l-184 -385h-67l-184 385l185 388h67zM416 319l-151 326h-3l-152 -325l152 -326h3z" />
    <glyph glyph-name="A.sc" unicode="&#xe000;" 
d="M260 477h29l154 -375q2 -4 8 -19.5t7.5 -18.5l7 -13.5t8 -12.5t9 -8t12.5 -7.5t15 -3t20 -1.5v-20q-76 2 -113 2t-111 -2v20q18 0 26.5 0.5t19.5 2.5t15.5 7t4.5 13q0 12 -8 34l-35 91h-178l-13 -35q-23 -60 -23 -79q0 -16 12.5 -24t23 -9t29.5 -1v-20q-58 2 -87 2
t-87 -2v20q21 0 37 7.5t28.5 27t20 34.5t20 48t20.5 50zM166 193h151l-73 183z" />
    <glyph glyph-name="AE.sc" unicode="&#xe001;" horiz-adv-x="722" 
d="M327 204h-145l-74 -118q-13 -22 -13 -35q0 -5 1.5 -9t5 -7.5t6 -5.5t9 -3.5t10 -2.5t12 -2.5t11.5 -2.5v-20q-44 2 -67 2q-26 0 -78 -2v20q15 2 28.5 12t20.5 19.5t18 26.5l210 334q12 19 12 23q0 8 -23 10l-45 3v20q98 -2 146 -2q97 0 281 2v-119h-17q-8 60 -31 79.5
t-84 19.5h-86q-18 0 -18 -13v-179q68 0 90.5 19t26.5 83h20q-2 -68 -2 -104q0 -34 2 -104h-20q-3 54 -26 70t-91 16v-147q0 -38 23 -53.5t75 -15.5q77 0 109.5 20t43.5 88h20l-6 -128q-202 2 -310 2q-41 0 -123 -2v20q54 0 66 17.5t12 77.5v91zM327 231v198h-3l-125 -198
h128z" />
    <glyph glyph-name="Aacute.sc" unicode="&#xe002;" 
d="M260 477h29l154 -375q2 -4 8 -19.5t7.5 -18.5l7 -13.5t8 -12.5t9 -8t12.5 -7.5t15 -3t20 -1.5v-20q-76 2 -113 2t-111 -2v20q18 0 26.5 0.5t19.5 2.5t15.5 7t4.5 13q0 12 -8 34l-35 91h-178l-13 -35q-23 -60 -23 -79q0 -16 12.5 -24t23 -9t29.5 -1v-20q-58 2 -87 2
t-87 -2v20q21 0 37 7.5t28.5 27t20 34.5t20 48t20.5 50zM166 193h151l-73 183zM201 530h-37l156 124q28 23 44 23q15 0 25 -10.5t10 -24.5q0 -9 -3.5 -16.5t-12.5 -14t-14 -9t-18.5 -8t-15.5 -6.5z" />
    <glyph glyph-name="Acircumflex.sc" unicode="&#xe003;" 
d="M260 477h29l154 -375q2 -4 8 -19.5t7.5 -18.5l7 -13.5t8 -12.5t9 -8t12.5 -7.5t15 -3t20 -1.5v-20q-76 2 -113 2t-111 -2v20q18 0 26.5 0.5t19.5 2.5t15.5 7t4.5 13q0 12 -8 34l-35 91h-178l-13 -35q-23 -60 -23 -79q0 -16 12.5 -24t23 -9t29.5 -1v-20q-58 2 -87 2
t-87 -2v20q21 0 37 7.5t28.5 27t20 34.5t20 48t20.5 50zM166 193h151l-73 183zM382 530l-107 80l-111 -80h-30l114 147h55l110 -147h-31z" />
    <glyph glyph-name="Adieresis.sc" unicode="&#xe004;" 
d="M260 477h29l154 -375q2 -4 8 -19.5t7.5 -18.5l7 -13.5t8 -12.5t9 -8t12.5 -7.5t15 -3t20 -1.5v-20q-76 2 -113 2t-111 -2v20q18 0 26.5 0.5t19.5 2.5t15.5 7t4.5 13q0 12 -8 34l-35 91h-178l-13 -35q-23 -60 -23 -79q0 -16 12.5 -24t23 -9t29.5 -1v-20q-58 2 -87 2
t-87 -2v20q21 0 37 7.5t28.5 27t20 34.5t20 48t20.5 50zM166 193h151l-73 183zM215 555q-22 0 -36.5 15.5t-14.5 37.5q0 21 15 35t36 14q20 0 35.5 -14.5t15.5 -34.5q0 -22 -14.5 -37.5t-36.5 -15.5zM352 555q-22 0 -36.5 15.5t-14.5 37.5q0 20 15.5 34.5t35.5 14.5
t35.5 -14.5t15.5 -34.5q0 -22 -14.5 -37.5t-36.5 -15.5z" />
    <glyph glyph-name="Agrave.sc" unicode="&#xe005;" 
d="M260 477h29l154 -375q2 -4 8 -19.5t7.5 -18.5l7 -13.5t8 -12.5t9 -8t12.5 -7.5t15 -3t20 -1.5v-20q-76 2 -113 2t-111 -2v20q18 0 26.5 0.5t19.5 2.5t15.5 7t4.5 13q0 12 -8 34l-35 91h-178l-13 -35q-23 -60 -23 -79q0 -16 12.5 -24t23 -9t29.5 -1v-20q-58 2 -87 2
t-87 -2v20q21 0 37 7.5t28.5 27t20 34.5t20 48t20.5 50zM166 193h151l-73 183zM399 530h-37l-135 58q-1 0 -12.5 5l-15 6.5t-12.5 6.5t-12.5 9.5t-7 11.5t-3.5 15q0 14 10 24.5t24 10.5q16 0 44 -23z" />
    <glyph glyph-name="Aring.sc" unicode="&#xe006;" 
d="M260 477h29l154 -375q2 -4 8 -19.5t7.5 -18.5l7 -13.5t8 -12.5t9 -8t12.5 -7.5t15 -3t20 -1.5v-20q-76 2 -113 2t-111 -2v20q18 0 26.5 0.5t19.5 2.5t15.5 7t4.5 13q0 12 -8 34l-35 91h-178l-13 -35q-23 -60 -23 -79q0 -16 12.5 -24t23 -9t29.5 -1v-20q-58 2 -87 2
t-87 -2v20q21 0 37 7.5t28.5 27t20 34.5t20 48t20.5 50zM166 193h151l-73 183zM277 525q-38 0 -65.5 27t-27.5 64t27.5 63.5t64.5 26.5q38 0 66.5 -25.5t28.5 -62.5q0 -40 -27 -66.5t-67 -26.5zM279 554q24 0 41 18.5t17 42.5q0 26 -17.5 44.5t-43.5 18.5q-25 0 -41.5 -18.5
t-16.5 -43.5q0 -26 18 -44t43 -18z" />
    <glyph glyph-name="Atilde.sc" unicode="&#xe007;" 
d="M260 477h29l154 -375q2 -4 8 -19.5t7.5 -18.5l7 -13.5t8 -12.5t9 -8t12.5 -7.5t15 -3t20 -1.5v-20q-76 2 -113 2t-111 -2v20q18 0 26.5 0.5t19.5 2.5t15.5 7t4.5 13q0 12 -8 34l-35 91h-178l-13 -35q-23 -60 -23 -79q0 -16 12.5 -24t23 -9t29.5 -1v-20q-58 2 -87 2
t-87 -2v20q21 0 37 7.5t28.5 27t20 34.5t20 48t20.5 50zM166 193h151l-73 183zM171 576h-27q6 35 31.5 61.5t59.5 26.5q21 0 70 -20q49 -19 62 -19q25 0 35 35h26q-3 -32 -27 -61q-26 -30 -57 -30q-25 0 -75 21q-46 20 -63 20q-23 0 -35 -34z" />
    <glyph glyph-name="B.sc" unicode="&#xe008;" 
d="M213 428v-153q0 -14 7.5 -16.5t40.5 -2.5q105 0 105 96q0 94 -109 94q-31 0 -37.5 -3t-6.5 -15zM123 113v238q0 60 -12 77.5t-66 17.5v20q72 -2 123 -2q22 0 61.5 1t54.5 1q71 0 121.5 -27t50.5 -80q0 -21 -10 -38.5t-23 -28t-34 -19.5t-33.5 -12.5l-31.5 -8.5v-2
q178 -21 178 -127q0 -125 -196 -125q-17 0 -63.5 1t-74.5 1q-51 0 -123 -2v20q54 0 66 17.5t12 77.5zM213 220v-150q0 -29 18.5 -40.5t57.5 -11.5q113 0 113 104q0 64 -38 89t-120 25q-21 0 -26 -2t-5 -14z" />
    <glyph glyph-name="C.sc" unicode="&#xe009;" 
d="M497 163v-165h-12l-18 41q-84 -52 -173 -52q-122 0 -185 63t-63 182q0 110 72 177.5t188 67.5q76 0 152 -37l13 24h10l11 -140h-16q-15 61 -56.5 97t-102.5 36t-100.5 -35t-53.5 -83t-14 -108q0 -45 8 -82.5t26 -70.5t51.5 -52t79.5 -19q69 0 110.5 47t57.5 109h15z" />
    <glyph glyph-name="Ccedilla.sc" unicode="&#xe00a;" 
d="M497 163v-165h-12l-18 41q-84 -52 -173 -52q-17 0 -24 2l-14 -39q34 1 62 -14t28 -47q0 -29 -23 -45t-54 -16q-26 0 -54.5 14t-28.5 37q0 8 5.5 14t12.5 6q10 0 15.5 -8t7.5 -17.5t11 -17.5t24 -8q18 0 29.5 9.5t11.5 26.5q0 46 -60 46q-4 0 -12 -0.5t-12 -0.5l24 62
q-197 26 -197 241q0 110 72 177.5t188 67.5q76 0 152 -37l13 24h10l11 -140h-16q-15 61 -56.5 97t-102.5 36t-100.5 -35t-53.5 -83t-14 -108q0 -45 8 -82.5t26 -70.5t51.5 -52t79.5 -19q69 0 110.5 47t57.5 109h15z" />
    <glyph glyph-name="D.sc" unicode="&#xe00b;" horiz-adv-x="611" 
d="M116 113v238q0 60 -12 77.5t-66 17.5v20q76 -2 114 -2q25 0 74 1t68 1q123 0 197.5 -63.5t74.5 -172.5t-74.5 -170.5t-197.5 -61.5q-22 0 -65.5 1t-67.5 1q-41 0 -123 -2v20q54 0 66 17.5t12 77.5zM206 422v-338q0 -38 23 -52t65 -14q96 0 132.5 50t36.5 149
q0 229 -191 229q-48 0 -57 -3t-9 -21z" />
    <glyph glyph-name="E.sc" unicode="&#xe00c;" horiz-adv-x="500" 
d="M107 113v238q0 60 -12 77.5t-66 17.5v20q82 -2 123 -2q97 0 281 2v-119h-17q-8 60 -31 79.5t-84 19.5h-86q-18 0 -18 -13v-179q68 0 90.5 19t26.5 83h20q-2 -68 -2 -104q0 -34 2 -104h-20q-3 54 -26 70t-91 16v-147q0 -38 23.5 -53.5t75.5 -15.5q77 0 109.5 20t43.5 88
h20l-6 -128q-204 2 -311 2q-41 0 -123 -2v20q54 0 66 17.5t12 77.5z" />
    <glyph glyph-name="Eacute.sc" unicode="&#xe00d;" horiz-adv-x="500" 
d="M107 113v238q0 60 -12 77.5t-66 17.5v20q82 -2 123 -2q97 0 281 2v-119h-17q-8 60 -31 79.5t-84 19.5h-86q-18 0 -18 -13v-179q68 0 90.5 19t26.5 83h20q-2 -68 -2 -104q0 -34 2 -104h-20q-3 54 -26 70t-91 16v-147q0 -38 23.5 -53.5t75.5 -15.5q77 0 109.5 20t43.5 88
h20l-6 -128q-204 2 -311 2q-41 0 -123 -2v20q54 0 66 17.5t12 77.5zM173 530h-37l156 124q28 23 44 23q15 0 25 -10.5t10 -24.5q0 -9 -3.5 -16.5t-12.5 -14t-14 -9t-18.5 -8t-15.5 -6.5z" />
    <glyph glyph-name="Ecircumflex.sc" unicode="&#xe00e;" horiz-adv-x="500" 
d="M107 113v238q0 60 -12 77.5t-66 17.5v20q82 -2 123 -2q97 0 281 2v-119h-17q-8 60 -31 79.5t-84 19.5h-86q-18 0 -18 -13v-179q68 0 90.5 19t26.5 83h20q-2 -68 -2 -104q0 -34 2 -104h-20q-3 54 -26 70t-91 16v-147q0 -38 23.5 -53.5t75.5 -15.5q77 0 109.5 20t43.5 88
h20l-6 -128q-204 2 -311 2q-41 0 -123 -2v20q54 0 66 17.5t12 77.5zM354 530l-107 80l-111 -80h-30l114 147h55l110 -147h-31z" />
    <glyph glyph-name="Edieresis.sc" unicode="&#xe00f;" horiz-adv-x="500" 
d="M107 113v238q0 60 -12 77.5t-66 17.5v20q82 -2 123 -2q97 0 281 2v-119h-17q-8 60 -31 79.5t-84 19.5h-86q-18 0 -18 -13v-179q68 0 90.5 19t26.5 83h20q-2 -68 -2 -104q0 -34 2 -104h-20q-3 54 -26 70t-91 16v-147q0 -38 23.5 -53.5t75.5 -15.5q77 0 109.5 20t43.5 88
h20l-6 -128q-204 2 -311 2q-41 0 -123 -2v20q54 0 66 17.5t12 77.5zM177 555q-22 0 -36.5 15.5t-14.5 37.5q0 21 15 35t36 14q20 0 35.5 -14.5t15.5 -34.5q0 -22 -14.5 -37.5t-36.5 -15.5zM314 555q-22 0 -36.5 15.5t-14.5 37.5q0 20 15.5 34.5t35.5 14.5t35.5 -14.5
t15.5 -34.5q0 -22 -14.5 -37.5t-36.5 -15.5z" />
    <glyph glyph-name="Egrave.sc" unicode="&#xe010;" horiz-adv-x="500" 
d="M107 113v238q0 60 -12 77.5t-66 17.5v20q82 -2 123 -2q97 0 281 2v-119h-17q-8 60 -31 79.5t-84 19.5h-86q-18 0 -18 -13v-179q68 0 90.5 19t26.5 83h20q-2 -68 -2 -104q0 -34 2 -104h-20q-3 54 -26 70t-91 16v-147q0 -38 23.5 -53.5t75.5 -15.5q77 0 109.5 20t43.5 88
h20l-6 -128q-204 2 -311 2q-41 0 -123 -2v20q54 0 66 17.5t12 77.5zM371 530h-37l-135 58q-1 0 -12.5 5l-15 6.5t-12.5 6.5t-12.5 9.5t-7 11.5t-3.5 15q0 14 10 24.5t24 10.5q16 0 44 -23z" />
    <glyph glyph-name="Eth.sc" unicode="&#xe011;" horiz-adv-x="611" 
d="M116 258h-78v25h78v68q0 60 -12 77.5t-66 17.5v20q76 -2 114 -2q25 0 74 1t68 1q123 0 197.5 -63.5t74.5 -172.5t-74.5 -170.5t-197.5 -61.5q-22 0 -65.5 1t-67.5 1q-41 0 -123 -2v20q54 0 66 17.5t12 77.5v145zM206 283h146v-25h-146v-174q0 -38 23 -52t65 -14
q96 0 132.5 50t36.5 149q0 229 -191 229q-48 0 -57 -3t-9 -21v-139z" />
    <glyph glyph-name="F.sc" unicode="&#xe012;" horiz-adv-x="444" 
d="M190 223v-110q0 -60 12 -77.5t66 -17.5v-20q-82 2 -123 2t-123 -2v20q54 0 66 17.5t12 77.5v238q0 60 -12 77.5t-66 17.5v20q82 -2 123 -2q97 0 281 2l10 -119h-17q-13 53 -39 76t-86 23h-86q-18 0 -18 -13v-190q66 0 89.5 17t27.5 78h20q-2 -64 -2 -97q0 -34 2 -104h-20
q-3 54 -26 70t-91 16z" />
    <glyph glyph-name="G.sc" unicode="&#xe013;" horiz-adv-x="611" 
d="M463 440l13 24h10l11 -140h-16q-15 61 -56.5 97t-102.5 36t-100.5 -35t-53.5 -83t-14 -108q0 -45 8 -82.5t26 -70.5t51.5 -52t79.5 -19q63 0 92 30.5t29 74.5q0 33 -17 46t-54 13v20h225v-20q-35 0 -49.5 -9.5t-14.5 -38.5v-79q-38 -2 -105 -29.5t-126 -27.5
q-122 0 -185 63t-63 182q0 110 72 177.5t188 67.5q76 0 152 -37z" />
    <glyph glyph-name="H.sc" unicode="&#xe014;" horiz-adv-x="667" 
d="M204 227v-114q0 -60 12 -77.5t66 -17.5v-20q-82 2 -123 2t-123 -2v20q54 0 66 17.5t12 77.5v238q0 60 -12 77.5t-66 17.5v20q82 -2 123 -2t123 2v-20q-54 0 -66 -17.5t-12 -77.5v-97h259v97q0 60 -12 77.5t-66 17.5v20q82 -2 123 -2t123 2v-20q-54 0 -66 -17.5t-12 -77.5
v-238q0 -60 12 -77.5t66 -17.5v-20q-82 2 -123 2t-123 -2v20q54 0 66 17.5t12 77.5v114h-259z" />
    <glyph glyph-name="I.sc" unicode="&#xe015;" horiz-adv-x="333" 
d="M211 351v-238q0 -60 12 -77.5t66 -17.5v-20q-82 2 -123 2t-123 -2v20q54 0 66 17.5t12 77.5v238q0 60 -12 77.5t-66 17.5v20q82 -2 123 -2t123 2v-20q-54 0 -66 -17.5t-12 -77.5z" />
    <glyph glyph-name="Iacute.sc" unicode="&#xe016;" horiz-adv-x="333" 
d="M211 351v-238q0 -60 12 -77.5t66 -17.5v-20q-82 2 -123 2t-123 -2v20q54 0 66 17.5t12 77.5v238q0 60 -12 77.5t-66 17.5v20q82 -2 123 -2t123 2v-20q-54 0 -66 -17.5t-12 -77.5zM90 530h-37l156 124q28 23 44 23q15 0 25 -10.5t10 -24.5q0 -9 -3.5 -16.5t-12.5 -14
t-14 -9t-18.5 -8t-15.5 -6.5z" />
    <glyph glyph-name="Icircumflex.sc" unicode="&#xe017;" horiz-adv-x="333" 
d="M211 351v-238q0 -60 12 -77.5t66 -17.5v-20q-82 2 -123 2t-123 -2v20q54 0 66 17.5t12 77.5v238q0 60 -12 77.5t-66 17.5v20q82 -2 123 -2t123 2v-20q-54 0 -66 -17.5t-12 -77.5zM271 530l-107 80l-111 -80h-30l114 147h55l110 -147h-31z" />
    <glyph glyph-name="Idieresis.sc" unicode="&#xe018;" horiz-adv-x="333" 
d="M211 351v-238q0 -60 12 -77.5t66 -17.5v-20q-82 2 -123 2t-123 -2v20q54 0 66 17.5t12 77.5v238q0 60 -12 77.5t-66 17.5v20q82 -2 123 -2t123 2v-20q-54 0 -66 -17.5t-12 -77.5zM94 555q-22 0 -36.5 15.5t-14.5 37.5q0 21 15 35t36 14q20 0 35.5 -14.5t15.5 -34.5
q0 -22 -14.5 -37.5t-36.5 -15.5zM231 555q-22 0 -36.5 15.5t-14.5 37.5q0 20 15.5 34.5t35.5 14.5t35.5 -14.5t15.5 -34.5q0 -22 -14.5 -37.5t-36.5 -15.5z" />
    <glyph glyph-name="Igrave.sc" unicode="&#xe019;" horiz-adv-x="333" 
d="M211 351v-238q0 -60 12 -77.5t66 -17.5v-20q-82 2 -123 2t-123 -2v20q54 0 66 17.5t12 77.5v238q0 60 -12 77.5t-66 17.5v20q82 -2 123 -2t123 2v-20q-54 0 -66 -17.5t-12 -77.5zM288 530h-37l-135 58q-1 0 -12.5 5l-15 6.5t-12.5 6.5t-12.5 9.5t-7 11.5t-3.5 15
q0 14 10 24.5t24 10.5q16 0 44 -23z" />
    <glyph glyph-name="J.sc" unicode="&#xe01a;" horiz-adv-x="333" 
d="M139 -53v404q0 60 -12 77.5t-66 17.5v20q82 -2 123 -2t123 2v-20q-54 0 -66 -17.5t-12 -77.5v-414q0 -52 -19.5 -90t-50.5 -57t-61.5 -27.5t-61.5 -8.5q-63 0 -104 19.5t-41 48.5q0 16 9 26.5t24 10.5q19 0 29 -13t14 -28t20.5 -28t47.5 -13q58 0 81 38.5t23 131.5z" />
    <glyph glyph-name="K.sc" unicode="&#xe01b;" 
d="M206 184v-71q0 -59 10.5 -77t57.5 -18v-20q-62 2 -113 2q-41 0 -123 -2v20q54 0 66 17.5t12 77.5v238q0 60 -12 77.5t-66 17.5v20q82 -2 123 -2q51 0 113 2v-20q-47 0 -57.5 -18t-10.5 -77v-137q13 10 47.5 42t78.5 83.5t44 75.5q0 9 -6.5 15.5t-13 8.5t-20 4t-16.5 3v20
q64 -2 95 -2q32 0 94 2v-20q-36 -3 -57.5 -17t-47.5 -43l-95 -107l179 -223q15 -19 29 -27t40 -11v-20q-19 0 -57 1t-57 1t-57.5 -1t-57.5 -1v20h22t17.5 1.5t16 5.5t4.5 11q0 15 -28 50l-110 137z" />
    <glyph glyph-name="L.sc" unicode="&#xe01c;" horiz-adv-x="500" 
d="M203 351v-230q0 -63 20.5 -83t97.5 -20q34 0 59 7.5t38.5 16t23.5 27.5t13 30.5t9 36.5h19l-5 -138q-108 2 -208 2q-127 0 -235 -2v20q54 0 66 17.5t12 77.5v238q0 60 -12 77.5t-66 17.5v20q82 -2 123 -2t123 2v-20q-54 0 -66 -17.5t-12 -77.5z" />
    <glyph glyph-name="Lslash.sc" unicode="&#xe01d;" horiz-adv-x="500" 
d="M324 291l-121 -44v-126q0 -63 20.5 -83t97.5 -20q34 0 59 7.5t38.5 16t23.5 27.5t13 30.5t9 36.5h19l-5 -138q-108 2 -208 2q-127 0 -235 -2v20q54 0 66 17.5t12 77.5v101l-77 -28v27l77 28v110q0 60 -12 77.5t-66 17.5v20q82 -2 123 -2t123 2v-20q-54 0 -66 -17.5
t-12 -77.5v-77l121 44v-27z" />
    <glyph glyph-name="M.sc" unicode="&#xe01e;" horiz-adv-x="722" 
d="M362 115l163 351q58 -2 86 -2q23 0 83 2v-20q-82 0 -82 -73v-260q0 -60 12 -77.5t66 -17.5v-20q-82 2 -123 2t-123 -2v20q54 0 66 17.5t12 77.5v276h-2l-185 -385h-11l-181 393h-2v-287q0 -59 16 -75.5t67 -16.5v-20q-64 2 -101 2q-31 0 -95 -2v20q51 0 67 16.5t16 75.5
v263q0 73 -81 73v20q58 -2 82 -2q28 0 86 2z" />
    <glyph glyph-name="N.sc" unicode="&#xe01f;" horiz-adv-x="611" 
d="M499 354v-367h-30l-326 387h-2v-264q0 -59 16 -75.5t67 -16.5v-20q-64 2 -101 2q-31 0 -95 -2v20q51 0 67 16.5t16 75.5v302q-25 32 -81 34v20q32 -2 62 -2q25 0 81 2l294 -357h2v245q0 59 -16 75.5t-67 16.5v20q64 -2 95 -2q36 0 102 2v-20q-52 0 -68 -16.5t-16 -75.5z
" />
    <glyph glyph-name="Ntilde.sc" unicode="&#xe020;" horiz-adv-x="611" 
d="M499 354v-367h-30l-326 387h-2v-264q0 -59 16 -75.5t67 -16.5v-20q-64 2 -101 2q-31 0 -95 -2v20q51 0 67 16.5t16 75.5v302q-25 32 -81 34v20q32 -2 62 -2q25 0 81 2l294 -357h2v245q0 59 -16 75.5t-67 16.5v20q64 -2 95 -2q36 0 102 2v-20q-52 0 -68 -16.5t-16 -75.5z
M189 576h-27q6 35 31.5 61.5t59.5 26.5q21 0 70 -20q49 -19 62 -19q25 0 35 35h26q-3 -32 -27 -61q-26 -30 -57 -30q-25 0 -75 21q-46 20 -63 20q-23 0 -35 -34z" />
    <glyph glyph-name="O.sc" unicode="&#xe021;" horiz-adv-x="611" 
d="M566 232q0 -111 -70 -178t-190 -67t-190.5 67t-70.5 178t70.5 178t190.5 67t190 -67t70 -178zM463 232q0 96 -38 160.5t-120 64.5q-81 0 -119 -64.5t-38 -160.5t38 -160.5t119 -64.5q82 0 120 64.5t38 160.5z" />
    <glyph glyph-name="OE.sc" unicode="&#xe022;" horiz-adv-x="833" 
d="M434 131v203q0 56 -27.5 84t-96.5 28q-47 0 -81 -18t-52.5 -49.5t-27 -68t-8.5 -78.5t8.5 -78.5t27 -68t52.5 -49.5t81 -18q69 0 96.5 28t27.5 85zM524 433v-179q68 0 90.5 19t26.5 83h20q-2 -68 -2 -104q0 -34 2 -104h-20q-3 54 -26 70t-91 16v-147q0 -38 23 -53.5
t75 -15.5q77 0 109.5 20t43.5 88h20l-6 -128q-198 2 -310 2q-28 0 -83.5 -1t-82.5 -1q-113 0 -194 63t-81 171q0 107 81 170.5t194 63.5q27 0 82.5 -1t83.5 -1q97 0 281 2v-119h-17q-8 60 -31 79.5t-84 19.5h-86q-18 0 -18 -13z" />
    <glyph glyph-name="Oacute.sc" unicode="&#xe023;" horiz-adv-x="611" 
d="M566 232q0 -111 -70 -178t-190 -67t-190.5 67t-70.5 178t70.5 178t190.5 67t190 -67t70 -178zM463 232q0 96 -38 160.5t-120 64.5q-81 0 -119 -64.5t-38 -160.5t38 -160.5t119 -64.5q82 0 120 64.5t38 160.5zM229 530h-37l156 124q28 23 44 23q15 0 25 -10.5t10 -24.5
q0 -9 -3.5 -16.5t-12.5 -14t-14 -9t-18.5 -8t-15.5 -6.5z" />
    <glyph glyph-name="Ocircumflex.sc" unicode="&#xe024;" horiz-adv-x="611" 
d="M566 232q0 -111 -70 -178t-190 -67t-190.5 67t-70.5 178t70.5 178t190.5 67t190 -67t70 -178zM463 232q0 96 -38 160.5t-120 64.5q-81 0 -119 -64.5t-38 -160.5t38 -160.5t119 -64.5q82 0 120 64.5t38 160.5zM410 530l-107 80l-111 -80h-30l114 147h55l110 -147h-31z" />
    <glyph glyph-name="Odieresis.sc" unicode="&#xe025;" horiz-adv-x="611" 
d="M566 232q0 -111 -70 -178t-190 -67t-190.5 67t-70.5 178t70.5 178t190.5 67t190 -67t70 -178zM463 232q0 96 -38 160.5t-120 64.5q-81 0 -119 -64.5t-38 -160.5t38 -160.5t119 -64.5q82 0 120 64.5t38 160.5zM233 555q-22 0 -36.5 15.5t-14.5 37.5q0 21 15 35t36 14
q20 0 35.5 -14.5t15.5 -34.5q0 -22 -14.5 -37.5t-36.5 -15.5zM370 555q-22 0 -36.5 15.5t-14.5 37.5q0 20 15.5 34.5t35.5 14.5t35.5 -14.5t15.5 -34.5q0 -22 -14.5 -37.5t-36.5 -15.5z" />
    <glyph glyph-name="Ograve.sc" unicode="&#xe026;" horiz-adv-x="611" 
d="M566 232q0 -111 -70 -178t-190 -67t-190.5 67t-70.5 178t70.5 178t190.5 67t190 -67t70 -178zM463 232q0 96 -38 160.5t-120 64.5q-81 0 -119 -64.5t-38 -160.5t38 -160.5t119 -64.5q82 0 120 64.5t38 160.5zM427 530h-37l-135 58q-1 0 -12.5 5l-15 6.5t-12.5 6.5
t-12.5 9.5t-7 11.5t-3.5 15q0 14 10 24.5t24 10.5q16 0 44 -23z" />
    <glyph glyph-name="Oslash.sc" unicode="&#xe027;" horiz-adv-x="611" 
d="M417 403l-200 -365q34 -31 88 -31q82 0 120 64.5t38 160.5q0 112 -46 171zM193 63l199 365q-34 29 -87 29q-81 0 -119 -64.5t-38 -160.5q0 -110 45 -169zM199 5l-82 -150h-38l89 163q-59 29 -91 85t-32 129q0 111 70.5 178t190.5 67q56 0 104 -16l78 143h39l-86 -156
q60 -30 92.5 -86t32.5 -130q0 -111 -70 -178t-190 -67q-60 0 -107 18z" />
    <glyph glyph-name="Otilde.sc" unicode="&#xe028;" horiz-adv-x="611" 
d="M566 232q0 -111 -70 -178t-190 -67t-190.5 67t-70.5 178t70.5 178t190.5 67t190 -67t70 -178zM463 232q0 96 -38 160.5t-120 64.5q-81 0 -119 -64.5t-38 -160.5t38 -160.5t119 -64.5q82 0 120 64.5t38 160.5zM189 576h-27q6 35 31.5 61.5t59.5 26.5q21 0 70 -20
q49 -19 62 -19q25 0 35 35h26q-3 -32 -27 -61q-26 -30 -57 -30q-25 0 -75 21q-46 20 -63 20q-23 0 -35 -34z" />
    <glyph glyph-name="P.sc" unicode="&#xe029;" horiz-adv-x="500" 
d="M204 215v-102q0 -60 12 -77.5t66 -17.5v-20q-82 2 -123 2t-123 -2v20q54 0 66 17.5t12 77.5v238q0 60 -12 77.5t-66 17.5v20q82 -2 123 -2q21 0 62.5 1t62.5 1q85 0 139.5 -31t54.5 -95q0 -127 -218 -127q-35 0 -56 2zM204 426v-191q44 -2 53 -2q60 0 89 24.5t29 83.5
q0 58 -29.5 81.5t-88.5 23.5q-13 0 -20 -0.5t-16 -2t-13 -6t-4 -11.5z" />
    <glyph glyph-name="Q.sc" unicode="&#xe02a;" horiz-adv-x="611" 
d="M329 -25l-60 -23v-2q53 0 94.5 -13t62 -29t46 -29t49.5 -13q20 0 30 8.5t11.5 19t4 19t9.5 8.5q18 0 18 -45t-29 -72t-72 -27q-35 0 -66 24t-51 52.5t-48 52.5t-56 24q-24 0 -60 -21q-34 -22 -42 -22q-23 0 -23 21q0 12 12.5 16.5t33 7.5t31.5 10l73 44v2
q-117 2 -184.5 69t-67.5 175q0 111 70.5 178t190.5 67t190 -67t70 -178q0 -54 -17 -95t-52.5 -71t-72.5 -49.5t-95 -41.5zM305 457q-81 0 -119 -64.5t-38 -160.5t38 -160.5t119 -64.5q82 0 120 64.5t38 160.5t-38 160.5t-120 64.5z" />
    <glyph glyph-name="R.sc" unicode="&#xe02b;" 
d="M114 113v238q0 60 -12 77.5t-66 17.5v20q82 -2 123 -2q21 0 63.5 1t63.5 1q86 0 138 -28t52 -90q0 -48 -39 -81.5t-104 -37.5l129 -153q18 -21 28 -31t28 -18.5t40 -8.5v-20q-46 2 -70 2q-23 0 -71 -2l-152 185q-15 18 -24 21.5t-37 3.5v-95q0 -60 12 -77.5t66 -17.5v-20
q-82 2 -123 2t-123 -2v20q54 0 66 17.5t12 77.5zM204 426v-195h35q67 0 100.5 28t33.5 78q0 53 -30.5 81t-87.5 28q-51 0 -51 -20z" />
    <glyph glyph-name="S.sc" unicode="&#xe02c;" horiz-adv-x="444" 
d="M352 468l9 -133h-16q-33 69 -52 90q-31 32 -82 32q-35 0 -57.5 -20t-22.5 -52q0 -30 27 -52.5t65 -38.5t76 -34.5t65 -51t27 -77.5q0 -73 -53.5 -108.5t-130.5 -35.5q-29 0 -63.5 12.5t-58.5 30.5l-24 -30h-9v148h19q8 -60 45 -100.5t94 -40.5q50 0 77.5 23.5t27.5 65.5
q0 34 -27 57.5t-65 38.5l-76 31.5t-65 48.5t-27 78q0 54 41.5 90.5t111.5 36.5q63 0 121 -42l15 33h8z" />
    <glyph glyph-name="Scaron.sc" unicode="&#xe02d;" horiz-adv-x="444" 
d="M352 468l9 -133h-16q-33 69 -52 90q-31 32 -82 32q-35 0 -57.5 -20t-22.5 -52q0 -30 27 -52.5t65 -38.5t76 -34.5t65 -51t27 -77.5q0 -73 -53.5 -108.5t-130.5 -35.5q-29 0 -63.5 12.5t-58.5 30.5l-24 -30h-9v148h19q8 -60 45 -100.5t94 -40.5q50 0 77.5 23.5t27.5 65.5
q0 34 -27 57.5t-65 38.5l-76 31.5t-65 48.5t-27 78q0 54 41.5 90.5t111.5 36.5q63 0 121 -42l15 33h8zM109 677l106 -79l111 79h31l-114 -147h-56l-109 147h31z" />
    <glyph glyph-name="T.sc" unicode="&#xe02e;" 
d="M323 427v-314q0 -60 12 -77.5t66 -17.5v-20q-82 2 -123 2t-123 -2v20q54 0 66 17.5t12 77.5v314q0 14 -29 14h-57q-54 0 -76 -23t-25 -73h-20v121q180 -2 252 -2t252 2v-121h-20q-3 50 -25 73t-76 23h-57q-29 0 -29 -14z" />
    <glyph glyph-name="Thorn.sc" unicode="&#xe02f;" horiz-adv-x="500" 
d="M204 351v-173q28 -2 53 -2q59 0 88.5 21t29.5 71t-29.5 71t-88.5 21q-32 0 -53 -4v-5zM114 113v238q0 60 -12 77.5t-66 17.5v20q82 -2 123 -2t123 2v-20q-47 0 -61.5 -13.5t-16.5 -52.5h56q96 0 157 -26.5t61 -85.5q0 -112 -218 -112h-56v-43q0 -60 12 -77.5t66 -17.5
v-20q-82 2 -123 2t-123 -2v20q54 0 66 17.5t12 77.5z" />
    <glyph glyph-name="U.sc" unicode="&#xe030;" horiz-adv-x="611" 
d="M105 147v204q0 60 -12 77.5t-66 17.5v20q82 -2 123 -2t123 2v-20q-54 0 -66 -17.5t-12 -77.5v-205q0 -129 129 -129q147 0 147 153v184q0 59 -16 75.5t-67 16.5v20q64 -2 95 -2q37 0 101 2v-20q-51 0 -67 -16.5t-16 -75.5v-179q0 -94 -47 -141t-149 -47q-200 0 -200 160z
" />
    <glyph glyph-name="Uacute.sc" unicode="&#xe031;" horiz-adv-x="611" 
d="M105 147v204q0 60 -12 77.5t-66 17.5v20q82 -2 123 -2t123 2v-20q-54 0 -66 -17.5t-12 -77.5v-205q0 -129 129 -129q147 0 147 153v184q0 59 -16 75.5t-67 16.5v20q64 -2 95 -2q37 0 101 2v-20q-51 0 -67 -16.5t-16 -75.5v-179q0 -94 -47 -141t-149 -47q-200 0 -200 160z
M229 530h-37l156 124q28 23 44 23q15 0 25 -10.5t10 -24.5q0 -9 -3.5 -16.5t-12.5 -14t-14 -9t-18.5 -8t-15.5 -6.5z" />
    <glyph glyph-name="Ucircumflex.sc" unicode="&#xe032;" horiz-adv-x="611" 
d="M105 147v204q0 60 -12 77.5t-66 17.5v20q82 -2 123 -2t123 2v-20q-54 0 -66 -17.5t-12 -77.5v-205q0 -129 129 -129q147 0 147 153v184q0 59 -16 75.5t-67 16.5v20q64 -2 95 -2q37 0 101 2v-20q-51 0 -67 -16.5t-16 -75.5v-179q0 -94 -47 -141t-149 -47q-200 0 -200 160z
M410 530l-107 80l-111 -80h-30l114 147h55l110 -147h-31z" />
    <glyph glyph-name="Udieresis.sc" unicode="&#xe033;" horiz-adv-x="611" 
d="M105 147v204q0 60 -12 77.5t-66 17.5v20q82 -2 123 -2t123 2v-20q-54 0 -66 -17.5t-12 -77.5v-205q0 -129 129 -129q147 0 147 153v184q0 59 -16 75.5t-67 16.5v20q64 -2 95 -2q37 0 101 2v-20q-51 0 -67 -16.5t-16 -75.5v-179q0 -94 -47 -141t-149 -47q-200 0 -200 160z
M243 555q-22 0 -36.5 15.5t-14.5 37.5q0 21 15 35t36 14q20 0 35.5 -14.5t15.5 -34.5q0 -22 -14.5 -37.5t-36.5 -15.5zM380 555q-22 0 -36.5 15.5t-14.5 37.5q0 20 15.5 34.5t35.5 14.5t35.5 -14.5t15.5 -34.5q0 -22 -14.5 -37.5t-36.5 -15.5z" />
    <glyph glyph-name="Ugrave.sc" unicode="&#xe034;" horiz-adv-x="611" 
d="M105 147v204q0 60 -12 77.5t-66 17.5v20q82 -2 123 -2t123 2v-20q-54 0 -66 -17.5t-12 -77.5v-205q0 -129 129 -129q147 0 147 153v184q0 59 -16 75.5t-67 16.5v20q64 -2 95 -2q37 0 101 2v-20q-51 0 -67 -16.5t-16 -75.5v-179q0 -94 -47 -141t-149 -47q-200 0 -200 160z
M427 530h-37l-135 58q-1 0 -12.5 5l-15 6.5t-12.5 6.5t-12.5 9.5t-7 11.5t-3.5 15q0 14 10 24.5t24 10.5q16 0 44 -23z" />
    <glyph glyph-name="V.sc" unicode="&#xe035;" 
d="M286 -13h-30l-162 388q-18 45 -31 58t-45 13v20q76 -2 115 -2q50 0 116 2v-20q-67 0 -67 -27q0 -17 27 -91l95 -240l90 206q37 81 37 112q0 12 -3 19t-11 11t-13.5 5.5t-19 2.5t-18.5 2v20q42 -2 83 -2q29 0 89 2v-20q-20 -1 -34 -6.5t-25 -20.5t-16.5 -26t-16.5 -38z
" />
    <glyph glyph-name="W.sc" unicode="&#xe036;" horiz-adv-x="778" 
d="M543 -13h-30l-122 345h-2l-124 -345h-30l-117 326q-5 13 -13.5 38.5t-11.5 33t-10.5 22.5t-15 20t-20 10.5t-29.5 8.5v20q74 -2 112 -2q40 0 118 2v-20q-68 0 -68 -33q0 -11 2 -20.5t7.5 -25t6.5 -19.5l83 -248h2l128 364h24l126 -364h2l77 211q22 59 22 87
q0 19 -12 29.5t-23.5 13t-34.5 5.5v20q48 -2 83 -2q29 0 87 2v-20q-31 -1 -44.5 -15t-25.5 -47z" />
    <glyph glyph-name="X.sc" unicode="&#xe037;" horiz-adv-x="611" 
d="M260 216l-124 158q-57 72 -111 72v20q52 -2 124 -2q39 0 117 2v-20q-59 0 -59 -18q0 -4 1.5 -7.5t4.5 -8t5.5 -7.5t7 -9t7.5 -9l85 -106l60 70q2 2 7 8t6.5 8l5.5 7l6 7.5t4.5 7t4 7.5t3 6.5t2 7t0.5 7.5q0 17 -11.5 22.5t-35.5 6.5h-7v20q52 -2 88 -2q33 0 99 2v-20
q-26 0 -49 -11.5t-33.5 -21.5t-29.5 -32l-104 -121l141 -170q57 -72 111 -72v-20q-52 2 -124 2q-39 0 -117 -2v20q59 0 59 18q0 4 -1.5 7.5t-4.5 8t-5.5 7.5t-7 9t-7.5 9l-102 121l-68 -85q-2 -2 -7 -8t-6.5 -8l-5.5 -7l-6 -7.5t-4.5 -7t-4 -7.5t-3 -6.5t-2 -7t-0.5 -7.5
q0 -17 11.5 -22.5t35.5 -6.5h7v-20q-52 2 -88 2q-33 0 -99 -2v20q26 0 49 11.5t33.5 21.5t29.5 32z" />
    <glyph glyph-name="Y.sc" unicode="&#xe038;" 
d="M22 446v20q76 -2 115 -2t115 2v-20q-29 0 -44.5 -6.5t-14.5 -20.5q1 -21 30 -72l79 -132l86 129q31 47 31 66q0 10 -3.5 16.5t-11 10t-13 5t-17.5 2.5t-15 2v20q58 -2 87 -2q28 0 88 2v-20q-33 -4 -50.5 -15.5t-34.5 -37.5l-132 -197v-83q0 -60 12 -77.5t66 -17.5v-20
q-82 2 -123 2t-123 -2v20q54 0 66 17.5t12 77.5v68l-123 207q-22 37 -31.5 44t-50.5 14z" />
    <glyph glyph-name="Yacute.sc" unicode="&#xe039;" 
d="M22 446v20q76 -2 115 -2t115 2v-20q-29 0 -44.5 -6.5t-14.5 -20.5q1 -21 30 -72l79 -132l86 129q31 47 31 66q0 10 -3.5 16.5t-11 10t-13 5t-17.5 2.5t-15 2v20q58 -2 87 -2q28 0 88 2v-20q-33 -4 -50.5 -15.5t-34.5 -37.5l-132 -197v-83q0 -60 12 -77.5t66 -17.5v-20
q-82 2 -123 2t-123 -2v20q54 0 66 17.5t12 77.5v68l-123 207q-22 37 -31.5 44t-50.5 14zM201 530h-37l156 124q28 23 44 23q15 0 25 -10.5t10 -24.5q0 -9 -3.5 -16.5t-12.5 -14t-14 -9t-18.5 -8t-15.5 -6.5z" />
    <glyph glyph-name="Ydieresis.sc" unicode="&#xe03a;" 
d="M22 446v20q76 -2 115 -2t115 2v-20q-29 0 -44.5 -6.5t-14.5 -20.5q1 -21 30 -72l79 -132l86 129q31 47 31 66q0 10 -3.5 16.5t-11 10t-13 5t-17.5 2.5t-15 2v20q58 -2 87 -2q28 0 88 2v-20q-33 -4 -50.5 -15.5t-34.5 -37.5l-132 -197v-83q0 -60 12 -77.5t66 -17.5v-20
q-82 2 -123 2t-123 -2v20q54 0 66 17.5t12 77.5v68l-123 207q-22 37 -31.5 44t-50.5 14zM215 555q-22 0 -36.5 15.5t-14.5 37.5q0 21 15 35t36 14q20 0 35.5 -14.5t15.5 -34.5q0 -22 -14.5 -37.5t-36.5 -15.5zM352 555q-22 0 -36.5 15.5t-14.5 37.5q0 20 15.5 34.5
t35.5 14.5t35.5 -14.5t15.5 -34.5q0 -22 -14.5 -37.5t-36.5 -15.5z" />
    <glyph glyph-name="Z.sc" unicode="&#xe03b;" horiz-adv-x="500" 
d="M34 0l299 444h-130q-52 0 -85.5 -23.5t-37.5 -73.5h-20l10 117h380l-301 -444h131q72 0 109 22t51 90h18l-9 -132h-415z" />
    <glyph glyph-name="Zcaron.sc" unicode="&#xe03c;" horiz-adv-x="500" 
d="M34 0l299 444h-130q-52 0 -85.5 -23.5t-37.5 -73.5h-20l10 117h380l-301 -444h131q72 0 109 22t51 90h18l-9 -132h-415zM137 677l106 -79l111 79h31l-114 -147h-56l-109 147h31z" />
    <glyph glyph-name="germandbls.sc" unicode="&#xe03f;" horiz-adv-x="888" 
d="M352 468l9 -133h-16q-33 69 -52 90q-31 32 -82 32q-35 0 -57.5 -20t-22.5 -52q0 -30 27 -52.5t65 -38.5t76 -34.5t65 -51t27 -77.5q0 -73 -53.5 -108.5t-130.5 -35.5q-29 0 -63.5 12.5t-58.5 30.5l-24 -30h-9v148h19q8 -60 45 -100.5t94 -40.5q50 0 77.5 23.5t27.5 65.5
q0 34 -27 57.5t-65 38.5l-76 31.5t-65 48.5t-27 78q0 54 41.5 90.5t111.5 36.5q63 0 121 -42l15 33h8zM796 468l9 -133h-16q-33 69 -52 90q-31 32 -82 32q-35 0 -57.5 -20t-22.5 -52q0 -30 27 -52.5t65 -38.5t76 -34.5t65 -51t27 -77.5q0 -73 -53.5 -108.5t-130.5 -35.5
q-29 0 -63.5 12.5t-58.5 30.5l-24 -30h-9v148h19q8 -60 45 -100.5t94 -40.5q50 0 77.5 23.5t27.5 65.5q0 34 -27 57.5t-65 38.5l-76 31.5t-65 48.5t-27 78q0 54 41.5 90.5t111.5 36.5q63 0 121 -42l15 33h8z" />
    <glyph glyph-name="zero.taboldstyle" unicode="&#xf643;" 
d="M521 220q0 -94 -70.5 -163.5t-172.5 -69.5t-172.5 69.5t-70.5 163.5t70.5 163.5t172.5 69.5t172.5 -69.5t70.5 -163.5zM421 220q0 37 -6.5 71t-21 68t-44 54t-71.5 20t-71.5 -20t-44 -54t-21 -68t-6.5 -71t6.5 -71t21 -68t44 -54t71.5 -20t71.5 20t44 54t21 68t6.5 71z
" />
    <glyph glyph-name="one.taboldstyle" unicode="&#xf644;" 
d="M323 432v-359q0 -55 94 -55v-20q-114 2 -139 2t-139 -2v20q94 0 94 55v300q0 25 -11 34.5t-37 10.5l-45 1v20q123 4 183 14v-21z" />
    <glyph glyph-name="two.taboldstyle" unicode="&#xf645;" 
d="M353 0h-125q-110 0 -149 -2q15 40 50.5 77t74 64.5l75 56t60 64t23.5 75.5q0 42 -26.5 70t-76.5 28q-42 0 -73 -26t-31 -62q0 -25 16 -42.5t39 -17.5q14 0 26 3q-2 -15 -22.5 -27.5t-46.5 -12.5q-35 0 -56 23t-21 58q0 41 29.5 70.5t67.5 41.5t77 12q83 0 140.5 -34
t57.5 -96q0 -45 -29.5 -77t-69 -49t-98 -48.5t-98.5 -67.5h185q38 0 100 4l-35 -142h-19q0 1 3.5 19.5t3.5 29.5q0 8 -52 8z" />
    <glyph glyph-name="three.taboldstyle" unicode="&#xf646;" 
d="M287 151v-7q197 0 197 -161q0 -97 -79 -166t-182 -69q-74 0 -120 28.5t-46 70.5q0 18 13 30t30 12q25 0 37 -18.5t15.5 -40.5t24 -40.5t59.5 -18.5q81 0 114.5 55t33.5 137q0 161 -103 161q-27 0 -45.5 -12t-25.5 -27t-17.5 -27t-25.5 -12q-22 0 -22 21q0 11 20.5 25.5
t50 32.5t59 41.5t50 61.5t20.5 84q0 118 -96 118q-44 0 -76.5 -29t-32.5 -70q0 -31 19 -52t46 -21q31 0 52 12q-5 -25 -30 -38.5t-54 -13.5q-37 0 -63.5 22t-26.5 62q0 65 57 108t139 43q68 0 113.5 -34t45.5 -91q0 -113 -151 -177z" />
    <glyph glyph-name="four.taboldstyle" unicode="&#xf647;" 
d="M308 -13h-284v28l353 438h21v-434h134v-32h-134v-168q0 -48 97 -48v-20q-120 2 -142 2t-142 -2v20q50 0 73.5 11t23.5 37v168zM306 325l-246 -306h248v306h-2z" />
    <glyph glyph-name="five.taboldstyle" unicode="&#xf648;" 
d="M113 62l19 391q87 -54 147 -54q101 0 142 65h1q-2 -71 -53.5 -109t-122.5 -38q-41 0 -97 15l-8 -212q37 37 71 53.5t83 16.5q91 0 141.5 -49t50.5 -129q0 -114 -76 -189t-186 -75q-71 0 -121 25t-50 71q0 18 13.5 31.5t31.5 13.5q22 0 31.5 -12.5t12 -30.5t7 -35.5
t22.5 -30t53 -12.5q38 0 67.5 14.5t47 37t28.5 54.5t15 63t4 67q0 69 -30 112.5t-92 43.5q-41 0 -75.5 -24t-34.5 -52q0 -6 -0.5 -19.5t-0.5 -20.5q0 -23 -21 -23q-20 0 -20 24v17z" />
    <glyph glyph-name="six.taboldstyle" unicode="&#xf649;" 
d="M411 221q0 89 -27.5 137.5t-96.5 48.5q-58 0 -103 -45q-28 -28 -36 -45t-8 -48q0 -34 1 -58t5 -57.5t13.5 -56t23.5 -44t38 -32.5t55 -11q135 0 135 211zM45 312q0 96 29 180t92.5 141t149.5 57q49 0 97 -20t48 -62q0 -21 -12.5 -33t-33.5 -12t-34 16.5t-18.5 35.5
t-25.5 35.5t-53 16.5t-58 -16t-39.5 -46t-23.5 -59t-12.5 -71t-4.5 -64.5t-1 -55.5v-2h2q69 84 164 84q90 0 145 -57t55 -147q0 -104 -63 -175t-165 -71q-65 0 -113.5 29.5t-74.5 78.5t-38 103t-12 114z" />
    <glyph glyph-name="seven.taboldstyle" unicode="&#xf64a;" 
d="M118 520h18q0 -9 -1.5 -22t-1.5 -18q0 -24 7.5 -32t30.5 -8h322v-21q-136 -260 -194 -570q-4 -21 -7 -32.5t-10.5 -30.5t-20 -28.5t-29.5 -9.5q-22 0 -36.5 13.5t-13.5 39.5q1 10 4 22.5t9 29t11.5 29l14.5 32.5t13.5 29l14.5 28.5l11 21.5l180 365h-241q-53 0 -71.5 -12
t-31.5 -61l-13 -49h-22z" />
    <glyph glyph-name="eight.taboldstyle" unicode="&#xf64b;" 
d="M124 163q0 -64 37.5 -110t114.5 -46q66 0 110.5 38t44.5 105q0 31 -13 56.5t-38.5 44t-48 31t-57 28.5t-50.5 25q-100 -64 -100 -172zM140 554q0 -52 41.5 -86.5t154.5 -79.5q67 46 67 134q0 68 -33.5 108t-100.5 40q-57 0 -93 -33t-36 -83zM76 514q0 74 54.5 125
t138.5 51q91 0 144.5 -44t53.5 -114q0 -35 -17 -65t-35 -45t-58 -45q35 -20 53 -33t41 -36.5t33.5 -54.5t10.5 -73q0 -84 -59.5 -138.5t-163.5 -54.5q-94 0 -153 46t-59 129q0 36 13 65.5t38.5 53t43 36t47.5 29.5q-126 63 -126 168z" />
    <glyph glyph-name="nine.taboldstyle" unicode="&#xf64c;" 
d="M272 430q-38 0 -64.5 -19t-39.5 -51t-18 -63.5t-5 -67.5q0 -33 1.5 -55t8 -52t18.5 -48t36 -31t57 -13q58 0 103 45q31 30 36.5 44.5t5.5 54.5q0 58 -4.5 98.5t-18.5 79.5t-43 58.5t-73 19.5zM511 147q0 -50 -7.5 -101t-27.5 -105.5t-50 -96.5t-78.5 -69t-109.5 -27
q-63 0 -101.5 21.5t-38.5 52.5q0 20 12 32.5t31 12.5q21 0 33.5 -15t17.5 -33t22.5 -33t48.5 -15q123 0 138 208q1 17 2.5 54.5t2.5 49.5l-2 2q-23 -26 -39 -40.5t-50.5 -29.5t-75.5 -15q-93 0 -143.5 64.5t-50.5 163.5q0 96 66.5 160.5t163.5 64.5q65 0 113 -29t73.5 -76.5
t37.5 -98t12 -102.5z" />
    <glyph glyph-name="dollar.taboldstyle" unicode="&#xf653;" 
d="M214 660v82h28v-76q28 2 42 2q13 0 37 -2v76h28v-75q44 -3 90 -32t46 -69q0 -20 -11.5 -32.5t-31.5 -12.5q-16 0 -27 11.5t-11 28.5q0 7 2 19t2 18q0 33 -59 45v-267q38 -21 60 -35.5t47.5 -38.5t37 -53.5t11.5 -67.5q0 -68 -44 -116.5t-112 -69.5v-143h-28v139
q-5 0 -14 -1t-16.5 -1.5t-14.5 -0.5q-12 0 -34 2v-138h-28v138q-33 2 -67.5 11.5t-65 33.5t-30.5 56q0 20 12.5 32.5t31.5 12.5q40 0 40 -45l-1 -17q0 -54 80 -62v321q-63 23 -104.5 64t-41.5 100q0 62 41.5 105.5t104.5 57.5zM214 433v203q-81 -33 -81 -103q0 -62 81 -100z
M321 389v255q-13 1 -38 1q-27 0 -41 -1v-223zM349 268v-245q40 14 64 48.5t24 78.5q0 37 -23 63.5t-65 54.5zM242 320v-308q3 0 13 -1t15 0q17 1 51 5v268z" />
    <glyph glyph-name="cent.taboldstyle" unicode="&#xf654;" 
d="M227 191l134 338q-15 5 -30 5q-40 0 -69 -19t-44 -51.5t-21.5 -66.5t-6.5 -71q0 -90 37 -135zM148 -11l55 140q-52 23 -82.5 77t-30.5 113q0 101 69.5 169.5t170.5 68.5q7 -1 20.5 -1t20.5 -1l45 111h37l-46 -117q24 -7 42.5 -22.5t18.5 -37.5q0 -14 -9.5 -23.5
t-23.5 -9.5q-38 0 -44 54h-2l-135 -347q46 -28 87 -28q53 0 120 65l20 -20q-63 -77 -165 -77q-38 0 -82 13l-49 -127h-37z" />
    <glyph glyph-name="breve.sc" unicode="&#xf6f4;" horiz-adv-x="400" 
d="M315 656h27q-4 -55 -43 -90t-95 -35t-95.5 35t-42.5 90h26q12 -33 43 -49.5t69 -16.5q37 0 69 16.5t42 49.5z" />
    <glyph glyph-name="caron.sc" unicode="&#xf6f5;" horiz-adv-x="420" 
d="M97 677l106 -79l111 79h31l-114 -147h-56l-109 147h31z" />
    <glyph glyph-name="circumflex.sc" unicode="&#xf6f6;" horiz-adv-x="420" 
d="M314 530l-107 80l-111 -80h-30l114 147h55l110 -147h-31z" />
    <glyph glyph-name="dotaccent.sc" unicode="&#xf6f7;" horiz-adv-x="240" 
d="M117 555q-22 0 -36.5 15.5t-14.5 37.5q0 21 15 35t36 14q20 0 35.5 -14.5t15.5 -34.5q0 -22 -14.5 -37.5t-36.5 -15.5z" />
    <glyph glyph-name="hungarumlaut.sc" unicode="&#xf6f8;" horiz-adv-x="540" 
d="M237 588l-134 -58h-37l156 124q28 23 44 23q15 0 25 -10.5t10 -24.5q0 -9 -3.5 -16.5t-12.5 -14t-14 -9t-18.5 -8t-15.5 -6.5zM408 588l-135 -58h-37l157 124q28 23 44 23q14 0 24 -10.5t10 -24.5q0 -8 -3.5 -15t-7 -11.5t-12.5 -9.5t-12.5 -6.5l-15 -6.5t-12.5 -5z" />
    <glyph glyph-name="lslash.sc" unicode="&#xf6f9;" horiz-adv-x="500" 
d="M324 291l-121 -44v-126q0 -63 20.5 -83t97.5 -20q34 0 59 7.5t38.5 16t23.5 27.5t13 30.5t9 36.5h19l-5 -138q-108 2 -208 2q-127 0 -235 -2v20q54 0 66 17.5t12 77.5v101l-77 -28v27l77 28v110q0 60 -12 77.5t-66 17.5v20q82 -2 123 -2t123 2v-20q-54 0 -66 -17.5
t-12 -77.5v-77l121 44v-27z" />
    <glyph glyph-name="oe.sc" unicode="&#xf6fa;" horiz-adv-x="833" 
d="M434 131v203q0 56 -27.5 84t-96.5 28q-47 0 -81 -18t-52.5 -49.5t-27 -68t-8.5 -78.5t8.5 -78.5t27 -68t52.5 -49.5t81 -18q69 0 96.5 28t27.5 85zM524 433v-179q68 0 90.5 19t26.5 83h20q-2 -68 -2 -104q0 -34 2 -104h-20q-3 54 -26 70t-91 16v-147q0 -38 23 -53.5
t75 -15.5q77 0 109.5 20t43.5 88h20l-6 -128q-198 2 -310 2q-28 0 -83.5 -1t-82.5 -1q-113 0 -194 63t-81 171q0 107 81 170.5t194 63.5q27 0 82.5 -1t83.5 -1q97 0 281 2v-119h-17q-8 60 -31 79.5t-84 19.5h-86q-18 0 -18 -13z" />
    <glyph glyph-name="ogonek.sc" unicode="&#xf6fb;" horiz-adv-x="300" 
d="M224 -78l20 -25q-18 -23 -47.5 -39t-57.5 -16q-27 0 -50.5 14.5t-23.5 39.5q0 67 132 104h20v-2q-93 -44 -93 -82q0 -13 10 -23t23 -10q28 0 67 39z" />
    <glyph glyph-name="ring.sc" unicode="&#xf6fc;" horiz-adv-x="320" 
d="M159 525q-38 0 -65.5 27t-27.5 64t27.5 63.5t64.5 26.5q38 0 66.5 -25.5t28.5 -62.5q0 -40 -27 -66.5t-67 -26.5zM161 554q24 0 41 18.5t17 42.5q0 26 -17.5 44.5t-43.5 18.5q-25 0 -41.5 -18.5t-16.5 -43.5q0 -26 18 -44t43 -18z" />
    <glyph glyph-name="scaron.sc" unicode="&#xf6fd;" horiz-adv-x="444" 
d="M352 468l9 -133h-16q-33 69 -52 90q-31 32 -82 32q-35 0 -57.5 -20t-22.5 -52q0 -30 27 -52.5t65 -38.5t76 -34.5t65 -51t27 -77.5q0 -73 -53.5 -108.5t-130.5 -35.5q-29 0 -63.5 12.5t-58.5 30.5l-24 -30h-9v148h19q8 -60 45 -100.5t94 -40.5q50 0 77.5 23.5t27.5 65.5
q0 34 -27 57.5t-65 38.5l-76 31.5t-65 48.5t-27 78q0 54 41.5 90.5t111.5 36.5q63 0 121 -42l15 33h8zM109 677l106 -79l111 79h31l-114 -147h-56l-109 147h31z" />
    <glyph glyph-name="tilde.sc" unicode="&#xf6fe;" horiz-adv-x="420" 
d="M93 576h-27q6 35 31.5 61.5t59.5 26.5q21 0 70 -20q49 -19 62 -19q25 0 35 35h26q-3 -32 -27 -61q-26 -30 -57 -30q-25 0 -75 21q-46 20 -63 20q-23 0 -35 -34z" />
    <glyph glyph-name="zcaron.sc" unicode="&#xf6ff;" horiz-adv-x="500" 
d="M34 0l299 444h-130q-52 0 -85.5 -23.5t-37.5 -73.5h-20l10 117h380l-301 -444h131q72 0 109 22t51 90h18l-9 -132h-415zM137 677l106 -79l111 79h31l-114 -147h-56l-109 147h31z" />
    <glyph glyph-name="exclam.sc" unicode="&#xf721;" horiz-adv-x="320" 
d="M171 157h-24q5 189 -26 341q-16 69 -16 108q0 26 14.5 46t39.5 20q27 0 40.5 -21t13.5 -49q0 -36 -15 -104q-30 -149 -27 -341zM160 -13q-23 0 -40 16.5t-17 39.5t15.5 40.5t38.5 17.5q24 0 42 -15.5t18 -39.5t-16.5 -41.5t-40.5 -17.5z" />
    <glyph glyph-name="ampersand.sc" unicode="&#xf726;" horiz-adv-x="740" 
d="M282 370q40 27 63 70t23 92q0 45 -20 79t-63 34q-41 0 -62.5 -27t-21.5 -67q0 -72 81 -181zM374 108l-150 186q-3 -3 -18.5 -16.5t-19.5 -17.5t-15 -16t-15 -19t-10 -19t-8 -24.5t-2 -26.5q0 -50 31.5 -86t80.5 -36q67 0 131 70zM298 349l143 -170l52 87q18 33 26 46
t27 38.5t40 36t47 10.5q29 0 50.5 -19.5t21.5 -47.5q0 -21 -15.5 -38t-36.5 -17t-33 13.5t-12 34.5q0 1 0.5 6t0 8.5t-1 7.5t-3 6t-6.5 2q-30 0 -75 -90l-53 -91l-9 -14l17.5 -17.5t22.5 -22l22 -21t25.5 -21.5l24.5 -16t26.5 -13t24.5 -4q39 0 82 49l17 -16
q-67 -86 -151 -86q-35 0 -68.5 15.5t-53 31.5t-52.5 47q-87 -97 -207 -97q-56 0 -100.5 34t-44.5 88q0 48 27 89.5t58 64.5t80 52q-70 98 -70 192q0 68 44 116.5t111 48.5q60 0 98 -36t38 -95q0 -101 -134 -192z" />
    <glyph glyph-name="question.sc" unicode="&#xf73f;" horiz-adv-x="400" 
d="M138 161h-27v187h61q135 0 135 109q0 55 -33.5 98t-87.5 43q-15 0 -44.5 -5.5t-43.5 -5.5q-20 0 -35.5 10.5t-15.5 29.5q0 22 17 33.5t40 11.5q93 0 164 -75t71 -169q0 -87 -55.5 -126.5t-145.5 -39.5v-101zM130 -13q-23 0 -40 16.5t-17 39.5t15.5 40.5t38.5 17.5
q24 0 42 -15.5t18 -39.5t-16.5 -41.5t-40.5 -17.5z" />
    <glyph glyph-name="grave.sc" unicode="&#xf760;" horiz-adv-x="360" 
d="M301 530h-37l-135 58q-1 0 -12.5 5l-15 6.5t-12.5 6.5t-12.5 9.5t-7 11.5t-3.5 15q0 14 10 24.5t24 10.5q16 0 44 -23z" />
    <glyph glyph-name="a.sc" unicode="&#xf761;" 
d="M260 477h29l154 -375q2 -4 8 -19.5t7.5 -18.5l7 -13.5t8 -12.5t9 -8t12.5 -7.5t15 -3t20 -1.5v-20q-76 2 -113 2t-111 -2v20q18 0 26.5 0.5t19.5 2.5t15.5 7t4.5 13q0 12 -8 34l-35 91h-178l-13 -35q-23 -60 -23 -79q0 -16 12.5 -24t23 -9t29.5 -1v-20q-58 2 -87 2
t-87 -2v20q21 0 37 7.5t28.5 27t20 34.5t20 48t20.5 50zM166 193h151l-73 183z" />
    <glyph glyph-name="b.sc" unicode="&#xf762;" 
d="M213 428v-153q0 -14 7.5 -16.5t40.5 -2.5q105 0 105 96q0 94 -109 94q-31 0 -37.5 -3t-6.5 -15zM123 113v238q0 60 -12 77.5t-66 17.5v20q72 -2 123 -2q22 0 61.5 1t54.5 1q71 0 121.5 -27t50.5 -80q0 -21 -10 -38.5t-23 -28t-34 -19.5t-33.5 -12.5l-31.5 -8.5v-2
q178 -21 178 -127q0 -125 -196 -125q-17 0 -63.5 1t-74.5 1q-51 0 -123 -2v20q54 0 66 17.5t12 77.5zM213 220v-150q0 -29 18.5 -40.5t57.5 -11.5q113 0 113 104q0 64 -38 89t-120 25q-21 0 -26 -2t-5 -14z" />
    <glyph glyph-name="c.sc" unicode="&#xf763;" 
d="M497 163v-165h-12l-18 41q-84 -52 -173 -52q-122 0 -185 63t-63 182q0 110 72 177.5t188 67.5q76 0 152 -37l13 24h10l11 -140h-16q-15 61 -56.5 97t-102.5 36t-100.5 -35t-53.5 -83t-14 -108q0 -45 8 -82.5t26 -70.5t51.5 -52t79.5 -19q69 0 110.5 47t57.5 109h15z" />
    <glyph glyph-name="d.sc" unicode="&#xf764;" horiz-adv-x="611" 
d="M116 113v238q0 60 -12 77.5t-66 17.5v20q76 -2 114 -2q25 0 74 1t68 1q123 0 197.5 -63.5t74.5 -172.5t-74.5 -170.5t-197.5 -61.5q-22 0 -65.5 1t-67.5 1q-41 0 -123 -2v20q54 0 66 17.5t12 77.5zM206 422v-338q0 -38 23 -52t65 -14q96 0 132.5 50t36.5 149
q0 229 -191 229q-48 0 -57 -3t-9 -21z" />
    <glyph glyph-name="e.sc" unicode="&#xf765;" horiz-adv-x="500" 
d="M107 113v238q0 60 -12 77.5t-66 17.5v20q82 -2 123 -2q97 0 281 2v-119h-17q-8 60 -31 79.5t-84 19.5h-86q-18 0 -18 -13v-179q68 0 90.5 19t26.5 83h20q-2 -68 -2 -104q0 -34 2 -104h-20q-3 54 -26 70t-91 16v-147q0 -38 23.5 -53.5t75.5 -15.5q77 0 109.5 20t43.5 88
h20l-6 -128q-204 2 -311 2q-41 0 -123 -2v20q54 0 66 17.5t12 77.5z" />
    <glyph glyph-name="f.sc" unicode="&#xf766;" horiz-adv-x="444" 
d="M190 223v-110q0 -60 12 -77.5t66 -17.5v-20q-82 2 -123 2t-123 -2v20q54 0 66 17.5t12 77.5v238q0 60 -12 77.5t-66 17.5v20q82 -2 123 -2q97 0 281 2l10 -119h-17q-13 53 -39 76t-86 23h-86q-18 0 -18 -13v-190q66 0 89.5 17t27.5 78h20q-2 -64 -2 -97q0 -34 2 -104h-20
q-3 54 -26 70t-91 16z" />
    <glyph glyph-name="g.sc" unicode="&#xf767;" horiz-adv-x="611" 
d="M463 440l13 24h10l11 -140h-16q-15 61 -56.5 97t-102.5 36t-100.5 -35t-53.5 -83t-14 -108q0 -45 8 -82.5t26 -70.5t51.5 -52t79.5 -19q63 0 92 30.5t29 74.5q0 33 -17 46t-54 13v20h225v-20q-35 0 -49.5 -9.5t-14.5 -38.5v-79q-38 -2 -105 -29.5t-126 -27.5
q-122 0 -185 63t-63 182q0 110 72 177.5t188 67.5q76 0 152 -37z" />
    <glyph glyph-name="h.sc" unicode="&#xf768;" horiz-adv-x="667" 
d="M204 227v-114q0 -60 12 -77.5t66 -17.5v-20q-82 2 -123 2t-123 -2v20q54 0 66 17.5t12 77.5v238q0 60 -12 77.5t-66 17.5v20q82 -2 123 -2t123 2v-20q-54 0 -66 -17.5t-12 -77.5v-97h259v97q0 60 -12 77.5t-66 17.5v20q82 -2 123 -2t123 2v-20q-54 0 -66 -17.5t-12 -77.5
v-238q0 -60 12 -77.5t66 -17.5v-20q-82 2 -123 2t-123 -2v20q54 0 66 17.5t12 77.5v114h-259z" />
    <glyph glyph-name="i.sc" unicode="&#xf769;" horiz-adv-x="333" 
d="M211 351v-238q0 -60 12 -77.5t66 -17.5v-20q-82 2 -123 2t-123 -2v20q54 0 66 17.5t12 77.5v238q0 60 -12 77.5t-66 17.5v20q82 -2 123 -2t123 2v-20q-54 0 -66 -17.5t-12 -77.5z" />
    <glyph glyph-name="j.sc" unicode="&#xf76a;" horiz-adv-x="333" 
d="M139 -53v404q0 60 -12 77.5t-66 17.5v20q82 -2 123 -2t123 2v-20q-54 0 -66 -17.5t-12 -77.5v-414q0 -52 -19.5 -90t-50.5 -57t-61.5 -27.5t-61.5 -8.5q-63 0 -104 19.5t-41 48.5q0 16 9 26.5t24 10.5q19 0 29 -13t14 -28t20.5 -28t47.5 -13q58 0 81 38.5t23 131.5z" />
    <glyph glyph-name="k.sc" unicode="&#xf76b;" 
d="M206 184v-71q0 -59 10.5 -77t57.5 -18v-20q-62 2 -113 2q-41 0 -123 -2v20q54 0 66 17.5t12 77.5v238q0 60 -12 77.5t-66 17.5v20q82 -2 123 -2q51 0 113 2v-20q-47 0 -57.5 -18t-10.5 -77v-137q13 10 47.5 42t78.5 83.5t44 75.5q0 9 -6.5 15.5t-13 8.5t-20 4t-16.5 3v20
q64 -2 95 -2q32 0 94 2v-20q-36 -3 -57.5 -17t-47.5 -43l-95 -107l179 -223q15 -19 29 -27t40 -11v-20q-19 0 -57 1t-57 1t-57.5 -1t-57.5 -1v20h22t17.5 1.5t16 5.5t4.5 11q0 15 -28 50l-110 137z" />
    <glyph glyph-name="l.sc" unicode="&#xf76c;" horiz-adv-x="500" 
d="M203 351v-230q0 -63 20.5 -83t97.5 -20q34 0 59 7.5t38.5 16t23.5 27.5t13 30.5t9 36.5h19l-5 -138q-108 2 -208 2q-127 0 -235 -2v20q54 0 66 17.5t12 77.5v238q0 60 -12 77.5t-66 17.5v20q82 -2 123 -2t123 2v-20q-54 0 -66 -17.5t-12 -77.5z" />
    <glyph glyph-name="m.sc" unicode="&#xf76d;" horiz-adv-x="722" 
d="M362 115l163 351q58 -2 86 -2q23 0 83 2v-20q-82 0 -82 -73v-260q0 -60 12 -77.5t66 -17.5v-20q-82 2 -123 2t-123 -2v20q54 0 66 17.5t12 77.5v276h-2l-185 -385h-11l-181 393h-2v-287q0 -59 16 -75.5t67 -16.5v-20q-64 2 -101 2q-31 0 -95 -2v20q51 0 67 16.5t16 75.5
v263q0 73 -81 73v20q58 -2 82 -2q28 0 86 2z" />
    <glyph glyph-name="n.sc" unicode="&#xf76e;" horiz-adv-x="611" 
d="M499 354v-367h-30l-326 387h-2v-264q0 -59 16 -75.5t67 -16.5v-20q-64 2 -101 2q-31 0 -95 -2v20q51 0 67 16.5t16 75.5v302q-25 32 -81 34v20q32 -2 62 -2q25 0 81 2l294 -357h2v245q0 59 -16 75.5t-67 16.5v20q64 -2 95 -2q36 0 102 2v-20q-52 0 -68 -16.5t-16 -75.5z
" />
    <glyph glyph-name="o.sc" unicode="&#xf76f;" horiz-adv-x="611" 
d="M566 232q0 -111 -70 -178t-190 -67t-190.5 67t-70.5 178t70.5 178t190.5 67t190 -67t70 -178zM463 232q0 96 -38 160.5t-120 64.5q-81 0 -119 -64.5t-38 -160.5t38 -160.5t119 -64.5q82 0 120 64.5t38 160.5z" />
    <glyph glyph-name="p.sc" unicode="&#xf770;" horiz-adv-x="500" 
d="M204 215v-102q0 -60 12 -77.5t66 -17.5v-20q-82 2 -123 2t-123 -2v20q54 0 66 17.5t12 77.5v238q0 60 -12 77.5t-66 17.5v20q82 -2 123 -2q21 0 62.5 1t62.5 1q85 0 139.5 -31t54.5 -95q0 -127 -218 -127q-35 0 -56 2zM204 426v-191q44 -2 53 -2q60 0 89 24.5t29 83.5
q0 58 -29.5 81.5t-88.5 23.5q-13 0 -20 -0.5t-16 -2t-13 -6t-4 -11.5z" />
    <glyph glyph-name="q.sc" unicode="&#xf771;" horiz-adv-x="611" 
d="M329 -25l-60 -23v-2q53 0 94.5 -13t62 -29t46 -29t49.5 -13q20 0 30 8.5t11.5 19t4 19t9.5 8.5q18 0 18 -45t-29 -72t-72 -27q-35 0 -66 24t-51 52.5t-48 52.5t-56 24q-24 0 -60 -21q-34 -22 -42 -22q-23 0 -23 21q0 12 12.5 16.5t33 7.5t31.5 10l73 44v2
q-117 2 -184.5 69t-67.5 175q0 111 70.5 178t190.5 67t190 -67t70 -178q0 -54 -17 -95t-52.5 -71t-72.5 -49.5t-95 -41.5zM305 457q-81 0 -119 -64.5t-38 -160.5t38 -160.5t119 -64.5q82 0 120 64.5t38 160.5t-38 160.5t-120 64.5z" />
    <glyph glyph-name="r.sc" unicode="&#xf772;" 
d="M114 113v238q0 60 -12 77.5t-66 17.5v20q82 -2 123 -2q21 0 63.5 1t63.5 1q86 0 138 -28t52 -90q0 -48 -39 -81.5t-104 -37.5l129 -153q18 -21 28 -31t28 -18.5t40 -8.5v-20q-46 2 -70 2q-23 0 -71 -2l-152 185q-15 18 -24 21.5t-37 3.5v-95q0 -60 12 -77.5t66 -17.5v-20
q-82 2 -123 2t-123 -2v20q54 0 66 17.5t12 77.5zM204 426v-195h35q67 0 100.5 28t33.5 78q0 53 -30.5 81t-87.5 28q-51 0 -51 -20z" />
    <glyph glyph-name="s.sc" unicode="&#xf773;" horiz-adv-x="444" 
d="M352 468l9 -133h-16q-33 69 -52 90q-31 32 -82 32q-35 0 -57.5 -20t-22.5 -52q0 -30 27 -52.5t65 -38.5t76 -34.5t65 -51t27 -77.5q0 -73 -53.5 -108.5t-130.5 -35.5q-29 0 -63.5 12.5t-58.5 30.5l-24 -30h-9v148h19q8 -60 45 -100.5t94 -40.5q50 0 77.5 23.5t27.5 65.5
q0 34 -27 57.5t-65 38.5l-76 31.5t-65 48.5t-27 78q0 54 41.5 90.5t111.5 36.5q63 0 121 -42l15 33h8z" />
    <glyph glyph-name="t.sc" unicode="&#xf774;" 
d="M323 427v-314q0 -60 12 -77.5t66 -17.5v-20q-82 2 -123 2t-123 -2v20q54 0 66 17.5t12 77.5v314q0 14 -29 14h-57q-54 0 -76 -23t-25 -73h-20v121q180 -2 252 -2t252 2v-121h-20q-3 50 -25 73t-76 23h-57q-29 0 -29 -14z" />
    <glyph glyph-name="u.sc" unicode="&#xf775;" horiz-adv-x="611" 
d="M105 147v204q0 60 -12 77.5t-66 17.5v20q82 -2 123 -2t123 2v-20q-54 0 -66 -17.5t-12 -77.5v-205q0 -129 129 -129q147 0 147 153v184q0 59 -16 75.5t-67 16.5v20q64 -2 95 -2q37 0 101 2v-20q-51 0 -67 -16.5t-16 -75.5v-179q0 -94 -47 -141t-149 -47q-200 0 -200 160z
" />
    <glyph glyph-name="v.sc" unicode="&#xf776;" 
d="M286 -13h-30l-162 388q-18 45 -31 58t-45 13v20q76 -2 115 -2q50 0 116 2v-20q-67 0 -67 -27q0 -17 27 -91l95 -240l90 206q37 81 37 112q0 12 -3 19t-11 11t-13.5 5.5t-19 2.5t-18.5 2v20q42 -2 83 -2q29 0 89 2v-20q-20 -1 -34 -6.5t-25 -20.5t-16.5 -26t-16.5 -38z
" />
    <glyph glyph-name="w.sc" unicode="&#xf777;" horiz-adv-x="778" 
d="M543 -13h-30l-122 345h-2l-124 -345h-30l-117 326q-5 13 -13.5 38.5t-11.5 33t-10.5 22.5t-15 20t-20 10.5t-29.5 8.5v20q74 -2 112 -2q40 0 118 2v-20q-68 0 -68 -33q0 -11 2 -20.5t7.5 -25t6.5 -19.5l83 -248h2l128 364h24l126 -364h2l77 211q22 59 22 87
q0 19 -12 29.5t-23.5 13t-34.5 5.5v20q48 -2 83 -2q29 0 87 2v-20q-31 -1 -44.5 -15t-25.5 -47z" />
    <glyph glyph-name="x.sc" unicode="&#xf778;" horiz-adv-x="611" 
d="M260 216l-124 158q-57 72 -111 72v20q52 -2 124 -2q39 0 117 2v-20q-59 0 -59 -18q0 -4 1.5 -7.5t4.5 -8t5.5 -7.5t7 -9t7.5 -9l85 -106l60 70q2 2 7 8t6.5 8l5.5 7l6 7.5t4.5 7t4 7.5t3 6.5t2 7t0.5 7.5q0 17 -11.5 22.5t-35.5 6.5h-7v20q52 -2 88 -2q33 0 99 2v-20
q-26 0 -49 -11.5t-33.5 -21.5t-29.5 -32l-104 -121l141 -170q57 -72 111 -72v-20q-52 2 -124 2q-39 0 -117 -2v20q59 0 59 18q0 4 -1.5 7.5t-4.5 8t-5.5 7.5t-7 9t-7.5 9l-102 121l-68 -85q-2 -2 -7 -8t-6.5 -8l-5.5 -7l-6 -7.5t-4.5 -7t-4 -7.5t-3 -6.5t-2 -7t-0.5 -7.5
q0 -17 11.5 -22.5t35.5 -6.5h7v-20q-52 2 -88 2q-33 0 -99 -2v20q26 0 49 11.5t33.5 21.5t29.5 32z" />
    <glyph glyph-name="y.sc" unicode="&#xf779;" 
d="M22 446v20q76 -2 115 -2t115 2v-20q-29 0 -44.5 -6.5t-14.5 -20.5q1 -21 30 -72l79 -132l86 129q31 47 31 66q0 10 -3.5 16.5t-11 10t-13 5t-17.5 2.5t-15 2v20q58 -2 87 -2q28 0 88 2v-20q-33 -4 -50.5 -15.5t-34.5 -37.5l-132 -197v-83q0 -60 12 -77.5t66 -17.5v-20
q-82 2 -123 2t-123 -2v20q54 0 66 17.5t12 77.5v68l-123 207q-22 37 -31.5 44t-50.5 14z" />
    <glyph glyph-name="z.sc" unicode="&#xf77a;" horiz-adv-x="500" 
d="M34 0l299 444h-130q-52 0 -85.5 -23.5t-37.5 -73.5h-20l10 117h380l-301 -444h131q72 0 109 22t51 90h18l-9 -132h-415z" />
    <glyph glyph-name="exclamdown.sc" unicode="&#xf7a1;" horiz-adv-x="320" 
d="M150 269h24q-3 -192 27 -341q15 -68 15 -104q0 -28 -13.5 -49t-40.5 -21q-25 0 -39.5 20t-14.5 46q0 39 16 108q31 152 26 341zM160 326q-23 0 -40 16.5t-17 39.5t15.5 40.5t38.5 17.5q24 0 42 -15.5t18 -39.5t-16.5 -41.5t-40.5 -17.5z" />
    <glyph glyph-name="dieresis.sc" unicode="&#xf7a8;" horiz-adv-x="380" 
d="M117 555q-22 0 -36.5 15.5t-14.5 37.5q0 21 15 35t36 14q20 0 35.5 -14.5t15.5 -34.5q0 -22 -14.5 -37.5t-36.5 -15.5zM254 555q-22 0 -36.5 15.5t-14.5 37.5q0 20 15.5 34.5t35.5 14.5t35.5 -14.5t15.5 -34.5q0 -22 -14.5 -37.5t-36.5 -15.5z" />
    <glyph glyph-name="macron.sc" unicode="&#xf7af;" horiz-adv-x="400" 
d="M326 581h-260v41h260v-41z" />
    <glyph glyph-name="acute.sc" unicode="&#xf7b4;" horiz-adv-x="360" 
d="M103 530h-37l156 124q28 23 44 23q15 0 25 -10.5t10 -24.5q0 -9 -3.5 -16.5t-12.5 -14t-14 -9t-18.5 -8t-15.5 -6.5z" />
    <glyph glyph-name="cedilla.sc" unicode="&#xf7b8;" horiz-adv-x="300" 
d="M154 0l-18 -50q34 1 62 -14t28 -47q0 -29 -23 -45t-54 -16q-26 0 -54.5 14t-28.5 37q0 8 5.5 14t12.5 6q15 0 23 -23q9 -26 35 -26q18 0 29.5 9.5t11.5 26.5q0 43 -60 43q-4 0 -12 -0.5t-12 -0.5l27 72h28z" />
    <glyph glyph-name="questiondown.sc" unicode="&#xf7bf;" horiz-adv-x="400" 
d="M256 265h27v-187h-61q-135 0 -135 -109q0 -55 33.5 -98t87.5 -43q15 0 44.5 5.5t43.5 5.5q20 0 35.5 -10.5t15.5 -29.5q0 -22 -17 -33.5t-40 -11.5q-93 0 -164 75t-71 169q0 87 55.5 126.5t145.5 39.5v101zM263 440q24 0 41 -16.5t17 -40.5q0 -22 -15.5 -39.5
t-38.5 -17.5q-24 0 -42 15.5t-18 38.5q0 25 16 42.5t40 17.5z" />
    <glyph glyph-name="agrave.sc" unicode="&#xf7e0;" 
d="M260 477h29l154 -375q2 -4 8 -19.5t7.5 -18.5l7 -13.5t8 -12.5t9 -8t12.5 -7.5t15 -3t20 -1.5v-20q-76 2 -113 2t-111 -2v20q18 0 26.5 0.5t19.5 2.5t15.5 7t4.5 13q0 12 -8 34l-35 91h-178l-13 -35q-23 -60 -23 -79q0 -16 12.5 -24t23 -9t29.5 -1v-20q-58 2 -87 2
t-87 -2v20q21 0 37 7.5t28.5 27t20 34.5t20 48t20.5 50zM166 193h151l-73 183zM399 530h-37l-135 58q-1 0 -12.5 5l-15 6.5t-12.5 6.5t-12.5 9.5t-7 11.5t-3.5 15q0 14 10 24.5t24 10.5q16 0 44 -23z" />
    <glyph glyph-name="aacute.sc" unicode="&#xf7e1;" 
d="M260 477h29l154 -375q2 -4 8 -19.5t7.5 -18.5l7 -13.5t8 -12.5t9 -8t12.5 -7.5t15 -3t20 -1.5v-20q-76 2 -113 2t-111 -2v20q18 0 26.5 0.5t19.5 2.5t15.5 7t4.5 13q0 12 -8 34l-35 91h-178l-13 -35q-23 -60 -23 -79q0 -16 12.5 -24t23 -9t29.5 -1v-20q-58 2 -87 2
t-87 -2v20q21 0 37 7.5t28.5 27t20 34.5t20 48t20.5 50zM166 193h151l-73 183zM201 530h-37l156 124q28 23 44 23q15 0 25 -10.5t10 -24.5q0 -9 -3.5 -16.5t-12.5 -14t-14 -9t-18.5 -8t-15.5 -6.5z" />
    <glyph glyph-name="acircumflex.sc" unicode="&#xf7e2;" 
d="M260 477h29l154 -375q2 -4 8 -19.5t7.5 -18.5l7 -13.5t8 -12.5t9 -8t12.5 -7.5t15 -3t20 -1.5v-20q-76 2 -113 2t-111 -2v20q18 0 26.5 0.5t19.5 2.5t15.5 7t4.5 13q0 12 -8 34l-35 91h-178l-13 -35q-23 -60 -23 -79q0 -16 12.5 -24t23 -9t29.5 -1v-20q-58 2 -87 2
t-87 -2v20q21 0 37 7.5t28.5 27t20 34.5t20 48t20.5 50zM166 193h151l-73 183zM382 530l-107 80l-111 -80h-30l114 147h55l110 -147h-31z" />
    <glyph glyph-name="atilde.sc" unicode="&#xf7e3;" 
d="M260 477h29l154 -375q2 -4 8 -19.5t7.5 -18.5l7 -13.5t8 -12.5t9 -8t12.5 -7.5t15 -3t20 -1.5v-20q-76 2 -113 2t-111 -2v20q18 0 26.5 0.5t19.5 2.5t15.5 7t4.5 13q0 12 -8 34l-35 91h-178l-13 -35q-23 -60 -23 -79q0 -16 12.5 -24t23 -9t29.5 -1v-20q-58 2 -87 2
t-87 -2v20q21 0 37 7.5t28.5 27t20 34.5t20 48t20.5 50zM166 193h151l-73 183zM171 576h-27q6 35 31.5 61.5t59.5 26.5q21 0 70 -20q49 -19 62 -19q25 0 35 35h26q-3 -32 -27 -61q-26 -30 -57 -30q-25 0 -75 21q-46 20 -63 20q-23 0 -35 -34z" />
    <glyph glyph-name="adieresis.sc" unicode="&#xf7e4;" 
d="M260 477h29l154 -375q2 -4 8 -19.5t7.5 -18.5l7 -13.5t8 -12.5t9 -8t12.5 -7.5t15 -3t20 -1.5v-20q-76 2 -113 2t-111 -2v20q18 0 26.5 0.5t19.5 2.5t15.5 7t4.5 13q0 12 -8 34l-35 91h-178l-13 -35q-23 -60 -23 -79q0 -16 12.5 -24t23 -9t29.5 -1v-20q-58 2 -87 2
t-87 -2v20q21 0 37 7.5t28.5 27t20 34.5t20 48t20.5 50zM166 193h151l-73 183zM215 555q-22 0 -36.5 15.5t-14.5 37.5q0 21 15 35t36 14q20 0 35.5 -14.5t15.5 -34.5q0 -22 -14.5 -37.5t-36.5 -15.5zM352 555q-22 0 -36.5 15.5t-14.5 37.5q0 20 15.5 34.5t35.5 14.5
t35.5 -14.5t15.5 -34.5q0 -22 -14.5 -37.5t-36.5 -15.5z" />
    <glyph glyph-name="aring.sc" unicode="&#xf7e5;" 
d="M260 477h29l154 -375q2 -4 8 -19.5t7.5 -18.5l7 -13.5t8 -12.5t9 -8t12.5 -7.5t15 -3t20 -1.5v-20q-76 2 -113 2t-111 -2v20q18 0 26.5 0.5t19.5 2.5t15.5 7t4.5 13q0 12 -8 34l-35 91h-178l-13 -35q-23 -60 -23 -79q0 -16 12.5 -24t23 -9t29.5 -1v-20q-58 2 -87 2
t-87 -2v20q21 0 37 7.5t28.5 27t20 34.5t20 48t20.5 50zM166 193h151l-73 183zM277 525q-38 0 -65.5 27t-27.5 64t27.5 63.5t64.5 26.5q38 0 66.5 -25.5t28.5 -62.5q0 -40 -27 -66.5t-67 -26.5zM279 554q24 0 41 18.5t17 42.5q0 26 -17.5 44.5t-43.5 18.5q-25 0 -41.5 -18.5
t-16.5 -43.5q0 -26 18 -44t43 -18z" />
    <glyph glyph-name="ae.sc" unicode="&#xf7e6;" horiz-adv-x="722" 
d="M327 204h-145l-74 -118q-13 -22 -13 -35q0 -5 1.5 -9t5 -7.5t6 -5.5t9 -3.5t10 -2.5t12 -2.5t11.5 -2.5v-20q-44 2 -67 2q-26 0 -78 -2v20q15 2 28.5 12t20.5 19.5t18 26.5l210 334q12 19 12 23q0 8 -23 10l-45 3v20q98 -2 146 -2q97 0 281 2v-119h-17q-8 60 -31 79.5
t-84 19.5h-86q-18 0 -18 -13v-179q68 0 90.5 19t26.5 83h20q-2 -68 -2 -104q0 -34 2 -104h-20q-3 54 -26 70t-91 16v-147q0 -38 23 -53.5t75 -15.5q77 0 109.5 20t43.5 88h20l-6 -128q-202 2 -310 2q-41 0 -123 -2v20q54 0 66 17.5t12 77.5v91zM327 231v198h-3l-125 -198
h128z" />
    <glyph glyph-name="ccedilla.sc" unicode="&#xf7e7;" 
d="M497 163v-165h-12l-18 41q-84 -52 -173 -52q-17 0 -24 2l-14 -39q34 1 62 -14t28 -47q0 -29 -23 -45t-54 -16q-26 0 -54.5 14t-28.5 37q0 8 5.5 14t12.5 6q10 0 15.5 -8t7.5 -17.5t11 -17.5t24 -8q18 0 29.5 9.5t11.5 26.5q0 46 -60 46q-4 0 -12 -0.5t-12 -0.5l24 62
q-197 26 -197 241q0 110 72 177.5t188 67.5q76 0 152 -37l13 24h10l11 -140h-16q-15 61 -56.5 97t-102.5 36t-100.5 -35t-53.5 -83t-14 -108q0 -45 8 -82.5t26 -70.5t51.5 -52t79.5 -19q69 0 110.5 47t57.5 109h15z" />
    <glyph glyph-name="egrave.sc" unicode="&#xf7e8;" horiz-adv-x="500" 
d="M107 113v238q0 60 -12 77.5t-66 17.5v20q82 -2 123 -2q97 0 281 2v-119h-17q-8 60 -31 79.5t-84 19.5h-86q-18 0 -18 -13v-179q68 0 90.5 19t26.5 83h20q-2 -68 -2 -104q0 -34 2 -104h-20q-3 54 -26 70t-91 16v-147q0 -38 23.5 -53.5t75.5 -15.5q77 0 109.5 20t43.5 88
h20l-6 -128q-204 2 -311 2q-41 0 -123 -2v20q54 0 66 17.5t12 77.5zM371 530h-37l-135 58q-1 0 -12.5 5l-15 6.5t-12.5 6.5t-12.5 9.5t-7 11.5t-3.5 15q0 14 10 24.5t24 10.5q16 0 44 -23z" />
    <glyph glyph-name="eacute.sc" unicode="&#xf7e9;" horiz-adv-x="500" 
d="M107 113v238q0 60 -12 77.5t-66 17.5v20q82 -2 123 -2q97 0 281 2v-119h-17q-8 60 -31 79.5t-84 19.5h-86q-18 0 -18 -13v-179q68 0 90.5 19t26.5 83h20q-2 -68 -2 -104q0 -34 2 -104h-20q-3 54 -26 70t-91 16v-147q0 -38 23.5 -53.5t75.5 -15.5q77 0 109.5 20t43.5 88
h20l-6 -128q-204 2 -311 2q-41 0 -123 -2v20q54 0 66 17.5t12 77.5zM173 530h-37l156 124q28 23 44 23q15 0 25 -10.5t10 -24.5q0 -9 -3.5 -16.5t-12.5 -14t-14 -9t-18.5 -8t-15.5 -6.5z" />
    <glyph glyph-name="ecircumflex.sc" unicode="&#xf7ea;" horiz-adv-x="500" 
d="M107 113v238q0 60 -12 77.5t-66 17.5v20q82 -2 123 -2q97 0 281 2v-119h-17q-8 60 -31 79.5t-84 19.5h-86q-18 0 -18 -13v-179q68 0 90.5 19t26.5 83h20q-2 -68 -2 -104q0 -34 2 -104h-20q-3 54 -26 70t-91 16v-147q0 -38 23.5 -53.5t75.5 -15.5q77 0 109.5 20t43.5 88
h20l-6 -128q-204 2 -311 2q-41 0 -123 -2v20q54 0 66 17.5t12 77.5zM354 530l-107 80l-111 -80h-30l114 147h55l110 -147h-31z" />
    <glyph glyph-name="edieresis.sc" unicode="&#xf7eb;" horiz-adv-x="500" 
d="M107 113v238q0 60 -12 77.5t-66 17.5v20q82 -2 123 -2q97 0 281 2v-119h-17q-8 60 -31 79.5t-84 19.5h-86q-18 0 -18 -13v-179q68 0 90.5 19t26.5 83h20q-2 -68 -2 -104q0 -34 2 -104h-20q-3 54 -26 70t-91 16v-147q0 -38 23.5 -53.5t75.5 -15.5q77 0 109.5 20t43.5 88
h20l-6 -128q-204 2 -311 2q-41 0 -123 -2v20q54 0 66 17.5t12 77.5zM177 555q-22 0 -36.5 15.5t-14.5 37.5q0 21 15 35t36 14q20 0 35.5 -14.5t15.5 -34.5q0 -22 -14.5 -37.5t-36.5 -15.5zM314 555q-22 0 -36.5 15.5t-14.5 37.5q0 20 15.5 34.5t35.5 14.5t35.5 -14.5
t15.5 -34.5q0 -22 -14.5 -37.5t-36.5 -15.5z" />
    <glyph glyph-name="igrave.sc" unicode="&#xf7ec;" horiz-adv-x="333" 
d="M211 351v-238q0 -60 12 -77.5t66 -17.5v-20q-82 2 -123 2t-123 -2v20q54 0 66 17.5t12 77.5v238q0 60 -12 77.5t-66 17.5v20q82 -2 123 -2t123 2v-20q-54 0 -66 -17.5t-12 -77.5zM288 530h-37l-135 58q-1 0 -12.5 5l-15 6.5t-12.5 6.5t-12.5 9.5t-7 11.5t-3.5 15
q0 14 10 24.5t24 10.5q16 0 44 -23z" />
    <glyph glyph-name="iacute.sc" unicode="&#xf7ed;" horiz-adv-x="333" 
d="M211 351v-238q0 -60 12 -77.5t66 -17.5v-20q-82 2 -123 2t-123 -2v20q54 0 66 17.5t12 77.5v238q0 60 -12 77.5t-66 17.5v20q82 -2 123 -2t123 2v-20q-54 0 -66 -17.5t-12 -77.5zM90 530h-37l156 124q28 23 44 23q15 0 25 -10.5t10 -24.5q0 -9 -3.5 -16.5t-12.5 -14
t-14 -9t-18.5 -8t-15.5 -6.5z" />
    <glyph glyph-name="icircumflex.sc" unicode="&#xf7ee;" horiz-adv-x="333" 
d="M211 351v-238q0 -60 12 -77.5t66 -17.5v-20q-82 2 -123 2t-123 -2v20q54 0 66 17.5t12 77.5v238q0 60 -12 77.5t-66 17.5v20q82 -2 123 -2t123 2v-20q-54 0 -66 -17.5t-12 -77.5zM271 530l-107 80l-111 -80h-30l114 147h55l110 -147h-31z" />
    <glyph glyph-name="idieresis.sc" unicode="&#xf7ef;" horiz-adv-x="333" 
d="M211 351v-238q0 -60 12 -77.5t66 -17.5v-20q-82 2 -123 2t-123 -2v20q54 0 66 17.5t12 77.5v238q0 60 -12 77.5t-66 17.5v20q82 -2 123 -2t123 2v-20q-54 0 -66 -17.5t-12 -77.5zM94 555q-22 0 -36.5 15.5t-14.5 37.5q0 21 15 35t36 14q20 0 35.5 -14.5t15.5 -34.5
q0 -22 -14.5 -37.5t-36.5 -15.5zM231 555q-22 0 -36.5 15.5t-14.5 37.5q0 20 15.5 34.5t35.5 14.5t35.5 -14.5t15.5 -34.5q0 -22 -14.5 -37.5t-36.5 -15.5z" />
    <glyph glyph-name="eth.sc" unicode="&#xf7f0;" horiz-adv-x="611" 
d="M116 258h-78v25h78v68q0 60 -12 77.5t-66 17.5v20q76 -2 114 -2q25 0 74 1t68 1q123 0 197.5 -63.5t74.5 -172.5t-74.5 -170.5t-197.5 -61.5q-22 0 -65.5 1t-67.5 1q-41 0 -123 -2v20q54 0 66 17.5t12 77.5v145zM206 283h146v-25h-146v-174q0 -38 23 -52t65 -14
q96 0 132.5 50t36.5 149q0 229 -191 229q-48 0 -57 -3t-9 -21v-139z" />
    <glyph glyph-name="ntilde.sc" unicode="&#xf7f1;" horiz-adv-x="611" 
d="M499 354v-367h-30l-326 387h-2v-264q0 -59 16 -75.5t67 -16.5v-20q-64 2 -101 2q-31 0 -95 -2v20q51 0 67 16.5t16 75.5v302q-25 32 -81 34v20q32 -2 62 -2q25 0 81 2l294 -357h2v245q0 59 -16 75.5t-67 16.5v20q64 -2 95 -2q36 0 102 2v-20q-52 0 -68 -16.5t-16 -75.5z
M189 576h-27q6 35 31.5 61.5t59.5 26.5q21 0 70 -20q49 -19 62 -19q25 0 35 35h26q-3 -32 -27 -61q-26 -30 -57 -30q-25 0 -75 21q-46 20 -63 20q-23 0 -35 -34z" />
    <glyph glyph-name="ograve.sc" unicode="&#xf7f2;" horiz-adv-x="611" 
d="M566 232q0 -111 -70 -178t-190 -67t-190.5 67t-70.5 178t70.5 178t190.5 67t190 -67t70 -178zM463 232q0 96 -38 160.5t-120 64.5q-81 0 -119 -64.5t-38 -160.5t38 -160.5t119 -64.5q82 0 120 64.5t38 160.5zM427 530h-37l-135 58q-1 0 -12.5 5l-15 6.5t-12.5 6.5
t-12.5 9.5t-7 11.5t-3.5 15q0 14 10 24.5t24 10.5q16 0 44 -23z" />
    <glyph glyph-name="oacute.sc" unicode="&#xf7f3;" horiz-adv-x="611" 
d="M566 232q0 -111 -70 -178t-190 -67t-190.5 67t-70.5 178t70.5 178t190.5 67t190 -67t70 -178zM463 232q0 96 -38 160.5t-120 64.5q-81 0 -119 -64.5t-38 -160.5t38 -160.5t119 -64.5q82 0 120 64.5t38 160.5zM229 530h-37l156 124q28 23 44 23q15 0 25 -10.5t10 -24.5
q0 -9 -3.5 -16.5t-12.5 -14t-14 -9t-18.5 -8t-15.5 -6.5z" />
    <glyph glyph-name="ocircumflex.sc" unicode="&#xf7f4;" horiz-adv-x="611" 
d="M566 232q0 -111 -70 -178t-190 -67t-190.5 67t-70.5 178t70.5 178t190.5 67t190 -67t70 -178zM463 232q0 96 -38 160.5t-120 64.5q-81 0 -119 -64.5t-38 -160.5t38 -160.5t119 -64.5q82 0 120 64.5t38 160.5zM410 530l-107 80l-111 -80h-30l114 147h55l110 -147h-31z" />
    <glyph glyph-name="otilde.sc" unicode="&#xf7f5;" horiz-adv-x="611" 
d="M566 232q0 -111 -70 -178t-190 -67t-190.5 67t-70.5 178t70.5 178t190.5 67t190 -67t70 -178zM463 232q0 96 -38 160.5t-120 64.5q-81 0 -119 -64.5t-38 -160.5t38 -160.5t119 -64.5q82 0 120 64.5t38 160.5zM189 576h-27q6 35 31.5 61.5t59.5 26.5q21 0 70 -20
q49 -19 62 -19q25 0 35 35h26q-3 -32 -27 -61q-26 -30 -57 -30q-25 0 -75 21q-46 20 -63 20q-23 0 -35 -34z" />
    <glyph glyph-name="odieresis.sc" unicode="&#xf7f6;" horiz-adv-x="611" 
d="M566 232q0 -111 -70 -178t-190 -67t-190.5 67t-70.5 178t70.5 178t190.5 67t190 -67t70 -178zM463 232q0 96 -38 160.5t-120 64.5q-81 0 -119 -64.5t-38 -160.5t38 -160.5t119 -64.5q82 0 120 64.5t38 160.5zM233 555q-22 0 -36.5 15.5t-14.5 37.5q0 21 15 35t36 14
q20 0 35.5 -14.5t15.5 -34.5q0 -22 -14.5 -37.5t-36.5 -15.5zM370 555q-22 0 -36.5 15.5t-14.5 37.5q0 20 15.5 34.5t35.5 14.5t35.5 -14.5t15.5 -34.5q0 -22 -14.5 -37.5t-36.5 -15.5z" />
    <glyph glyph-name="oslash.sc" unicode="&#xf7f8;" horiz-adv-x="611" 
d="M417 403l-200 -365q34 -31 88 -31q82 0 120 64.5t38 160.5q0 112 -46 171zM193 63l199 365q-34 29 -87 29q-81 0 -119 -64.5t-38 -160.5q0 -110 45 -169zM199 5l-82 -150h-38l89 163q-59 29 -91 85t-32 129q0 111 70.5 178t190.5 67q56 0 104 -16l78 143h39l-86 -156
q60 -30 92.5 -86t32.5 -130q0 -111 -70 -178t-190 -67q-60 0 -107 18z" />
    <glyph glyph-name="ugrave.sc" unicode="&#xf7f9;" horiz-adv-x="611" 
d="M105 147v204q0 60 -12 77.5t-66 17.5v20q82 -2 123 -2t123 2v-20q-54 0 -66 -17.5t-12 -77.5v-205q0 -129 129 -129q147 0 147 153v184q0 59 -16 75.5t-67 16.5v20q64 -2 95 -2q37 0 101 2v-20q-51 0 -67 -16.5t-16 -75.5v-179q0 -94 -47 -141t-149 -47q-200 0 -200 160z
M427 530h-37l-135 58q-1 0 -12.5 5l-15 6.5t-12.5 6.5t-12.5 9.5t-7 11.5t-3.5 15q0 14 10 24.5t24 10.5q16 0 44 -23z" />
    <glyph glyph-name="uacute.sc" unicode="&#xf7fa;" horiz-adv-x="611" 
d="M105 147v204q0 60 -12 77.5t-66 17.5v20q82 -2 123 -2t123 2v-20q-54 0 -66 -17.5t-12 -77.5v-205q0 -129 129 -129q147 0 147 153v184q0 59 -16 75.5t-67 16.5v20q64 -2 95 -2q37 0 101 2v-20q-51 0 -67 -16.5t-16 -75.5v-179q0 -94 -47 -141t-149 -47q-200 0 -200 160z
M229 530h-37l156 124q28 23 44 23q15 0 25 -10.5t10 -24.5q0 -9 -3.5 -16.5t-12.5 -14t-14 -9t-18.5 -8t-15.5 -6.5z" />
    <glyph glyph-name="ucircumflex.sc" unicode="&#xf7fb;" horiz-adv-x="611" 
d="M105 147v204q0 60 -12 77.5t-66 17.5v20q82 -2 123 -2t123 2v-20q-54 0 -66 -17.5t-12 -77.5v-205q0 -129 129 -129q147 0 147 153v184q0 59 -16 75.5t-67 16.5v20q64 -2 95 -2q37 0 101 2v-20q-51 0 -67 -16.5t-16 -75.5v-179q0 -94 -47 -141t-149 -47q-200 0 -200 160z
M410 530l-107 80l-111 -80h-30l114 147h55l110 -147h-31z" />
    <glyph glyph-name="udieresis.sc" unicode="&#xf7fc;" horiz-adv-x="611" 
d="M105 147v204q0 60 -12 77.5t-66 17.5v20q82 -2 123 -2t123 2v-20q-54 0 -66 -17.5t-12 -77.5v-205q0 -129 129 -129q147 0 147 153v184q0 59 -16 75.5t-67 16.5v20q64 -2 95 -2q37 0 101 2v-20q-51 0 -67 -16.5t-16 -75.5v-179q0 -94 -47 -141t-149 -47q-200 0 -200 160z
M243 555q-22 0 -36.5 15.5t-14.5 37.5q0 21 15 35t36 14q20 0 35.5 -14.5t15.5 -34.5q0 -22 -14.5 -37.5t-36.5 -15.5zM380 555q-22 0 -36.5 15.5t-14.5 37.5q0 20 15.5 34.5t35.5 14.5t35.5 -14.5t15.5 -34.5q0 -22 -14.5 -37.5t-36.5 -15.5z" />
    <glyph glyph-name="yacute.sc" unicode="&#xf7fd;" 
d="M22 446v20q76 -2 115 -2t115 2v-20q-29 0 -44.5 -6.5t-14.5 -20.5q1 -21 30 -72l79 -132l86 129q31 47 31 66q0 10 -3.5 16.5t-11 10t-13 5t-17.5 2.5t-15 2v20q58 -2 87 -2q28 0 88 2v-20q-33 -4 -50.5 -15.5t-34.5 -37.5l-132 -197v-83q0 -60 12 -77.5t66 -17.5v-20
q-82 2 -123 2t-123 -2v20q54 0 66 17.5t12 77.5v68l-123 207q-22 37 -31.5 44t-50.5 14zM201 530h-37l156 124q28 23 44 23q15 0 25 -10.5t10 -24.5q0 -9 -3.5 -16.5t-12.5 -14t-14 -9t-18.5 -8t-15.5 -6.5z" />
    <glyph glyph-name="thorn.sc" unicode="&#xf7fe;" horiz-adv-x="500" 
d="M204 351v-173q28 -2 53 -2q59 0 88.5 21t29.5 71t-29.5 71t-88.5 21q-32 0 -53 -4v-5zM114 113v238q0 60 -12 77.5t-66 17.5v20q82 -2 123 -2t123 2v-20q-47 0 -61.5 -13.5t-16.5 -52.5h56q96 0 157 -26.5t61 -85.5q0 -112 -218 -112h-56v-43q0 -60 12 -77.5t66 -17.5
v-20q-82 2 -123 2t-123 -2v20q54 0 66 17.5t12 77.5z" />
    <glyph glyph-name="ydieresis.sc" unicode="&#xf7ff;" 
d="M22 446v20q76 -2 115 -2t115 2v-20q-29 0 -44.5 -6.5t-14.5 -20.5q1 -21 30 -72l79 -132l86 129q31 47 31 66q0 10 -3.5 16.5t-11 10t-13 5t-17.5 2.5t-15 2v20q58 -2 87 -2q28 0 88 2v-20q-33 -4 -50.5 -15.5t-34.5 -37.5l-132 -197v-83q0 -60 12 -77.5t66 -17.5v-20
q-82 2 -123 2t-123 -2v20q54 0 66 17.5t12 77.5v68l-123 207q-22 37 -31.5 44t-50.5 14zM215 555q-22 0 -36.5 15.5t-14.5 37.5q0 21 15 35t36 14q20 0 35.5 -14.5t15.5 -34.5q0 -22 -14.5 -37.5t-36.5 -15.5zM352 555q-22 0 -36.5 15.5t-14.5 37.5q0 20 15.5 34.5
t35.5 14.5t35.5 -14.5t15.5 -34.5q0 -22 -14.5 -37.5t-36.5 -15.5z" />
    <glyph glyph-name="fi" unicode="&#xfb01;" horiz-adv-x="600" 
d="M499 424v-306v-25.5t0.5 -22.5t3 -16.5t6.5 -15t12 -9.5t19.5 -8t28.5 -3v-20q-19 0 -55.5 2t-54.5 2q-20 -1 -58.5 -2t-57.5 -2v20q11 1 20 2.5t16 2.5t12 5.5t8.5 6t6 8.5t4 9t2.5 12.5t1 13t0.5 16.5t0.5 18v194v20v16.5t-0.5 12.5t-1.5 10.5t-3.5 7t-6 5t-9.5 2.5
t-13 2h-18h-176v-264v-22.5t0.5 -20.5t1.5 -15.5t4 -14.5t8 -10t12.5 -9t18 -4.5t25.5 -3.5v-20q-18 0 -54.5 2t-55.5 2t-57 -2t-57 -2v20q48 3 58.5 18.5t10.5 61.5v14v270h-72v27h72v52q0 109 51.5 160t161.5 51q25 0 48.5 -3t52 -10.5t45.5 -25t17 -43.5q0 -17 -13 -28.5
t-31 -11.5q-19 0 -27.5 10t-12 25t-9 29.5t-24 24.5t-52.5 10q-41 0 -67 -13t-37.5 -40t-14.5 -53t-3 -68v-66h172q72 0 141 15z" />
    <glyph glyph-name="fl" unicode="&#xfb02;" horiz-adv-x="620" 
d="M516 672v-553q0 -7 -0.5 -23t0 -21t1.5 -16t3.5 -14.5l7.5 -10t12.5 -8.5t18 -4.5t25.5 -3.5v-20q-15 0 -53 1.5t-58 2.5q-18 0 -55.5 -2t-56.5 -2v20q13 1 22.5 2t16.5 4.5t12 5t8.5 8.5t5.5 9.5t3 13t1 13.5t0.5 18t0.5 20v398q0 74 -22.5 106.5t-94.5 32.5
q-77 0 -101 -41t-24 -125v-74h128v-27h-128v-263v-26.5t0.5 -22.5t2.5 -18t6.5 -14t12 -10t19 -6.5t28.5 -3.5v-20q-19 0 -55.5 2t-54.5 2q-19 0 -57 -2t-57 -2v20q26 2 40.5 6t21 16.5t7.5 23t1 37.5v11v270h-74v27h74v65q9 198 202 198q40 0 87 -13z" />
    <glyph glyph-name="one.superior" horiz-adv-x="312" 
d="M51 630v12q95 5 144 30v-320q0 -42 4 -58q2 -6 6.5 -9.5t13 -5l14.5 -2.5t16 -1h12v-14q-17 0 -49 1t-49 1t-50 -1t-49 -1v14q60 0 67 14q6 12 6 62v213q0 42 -7 54q-7 11 -41 11h-38z" />
    <glyph glyph-name="two.superior" horiz-adv-x="312" 
d="M76 320h212l-19 -85h-14l1 22q1 6 -1 8.5t-4.5 3t-8.5 0.5h-4h-188h-33q25 45 98 116q4 3 11 10q26 23 39.5 36.5t31 36t25.5 46t8 50.5q0 39 -21.5 66.5t-63.5 27.5q-34 0 -57 -19t-23 -50q0 -24 16.5 -42t41.5 -18q17 0 36 17q-2 -19 -21 -32t-41 -13q-35 0 -55 21
t-20 54q0 46 39.5 71t91.5 25q59 0 100.5 -29.5t41.5 -82.5q0 -33 -18 -61.5t-35.5 -42.5t-53.5 -39q-80 -57 -112 -97z" />
    <glyph glyph-name="three.superior" horiz-adv-x="312" 
d="M161 477q-25 0 -43.5 -22t-29.5 -22q-12 0 -12 11q0 5 4.5 10.5t9 8.5t13 7t9.5 5q31 18 47.5 29.5t31 34t14.5 51.5q0 63 -62 63q-29 0 -49 -14.5t-20 -40.5q0 -17 11 -29.5t29 -12.5q20 0 38 15q-12 -39 -61 -39q-24 0 -40.5 14.5t-16.5 36.5q0 41 39.5 65t86.5 24
q43 0 75 -19.5t32 -57.5q0 -26 -18.5 -48t-37 -32.5t-48.5 -23.5l1 -2q5 1 18 1q49 0 81 -23.5t32 -68.5q0 -60 -52.5 -98.5t-120.5 -38.5q-37 0 -71 14t-34 44q0 10 8 16.5t19 6.5q17 0 25.5 -10.5t11 -23t16.5 -23t41 -10.5q92 0 92 110q0 92 -69 92z" />
    <glyph glyph-name="dotlessi.sc" horiz-adv-x="333" 
d="M211 351v-238q0 -60 12 -77.5t66 -17.5v-20q-82 2 -123 2t-123 -2v20q54 0 66 17.5t12 77.5v238q0 60 -12 77.5t-66 17.5v20q82 -2 123 -2t123 2v-20q-54 0 -66 -17.5t-12 -77.5z" />
    <glyph glyph-name="a.superior" horiz-adv-x="340" 
d="M196 461v90l-21.5 -10.5t-27 -14t-21 -14.5t-19 -20.5t-5.5 -23.5q0 -16 9 -27.5t25 -11.5q30 0 60 32zM148 551l43 21q5 4 5 13q0 35 -8.5 52t-39.5 17q-50 0 -51 -25q-2 -36 -26 -36q-11 0 -18 7t-7 17q0 30 35 42.5t72 12.5q56 0 77 -19.5t21 -73.5v-87q0 -60 18 -60
q3 0 6 1t5.5 3.5t4 4.5t4 6t3.5 5l15 -9q-7 -17 -23 -30.5t-32 -13.5q-17 0 -32 11.5t-20 28.5q-49 -40 -95 -40q-25 0 -42.5 15t-17.5 40q0 11 3 21t11 19l13 14.5t18.5 13.5l18 10.5t21.5 10t18 8.5z" />
    <glyph glyph-name="o.superior" horiz-adv-x="360" 
d="M179 399q-58 0 -99 41t-41 99q0 56 42 94.5t98 38.5q57 0 99.5 -39.5t42.5 -95.5q0 -59 -41 -98.5t-101 -39.5zM184 417q40 0 57 35.5t17 80.5q0 47 -17.5 84t-59.5 37q-43 0 -61 -33.5t-18 -79.5q0 -124 82 -124z" />
    <glyph glyph-name="fi.sc" horiz-adv-x="777" 
d="M190 223v-110q0 -60 12 -77.5t66 -17.5v-20q-82 2 -123 2t-123 -2v20q54 0 66 17.5t12 77.5v238q0 60 -12 77.5t-66 17.5v20q82 -2 123 -2q97 0 281 2l10 -119h-17q-13 53 -39 76t-86 23h-86q-18 0 -18 -13v-190q66 0 89.5 17t27.5 78h20q-2 -64 -2 -97q0 -34 2 -104h-20
q-3 54 -26 70t-91 16zM655 351v-238q0 -60 12 -77.5t66 -17.5v-20q-82 2 -123 2t-123 -2v20q54 0 66 17.5t12 77.5v238q0 60 -12 77.5t-66 17.5v20q82 -2 123 -2t123 2v-20q-54 0 -66 -17.5t-12 -77.5z" />
    <glyph glyph-name="fl.sc" horiz-adv-x="944" 
d="M190 223v-110q0 -60 12 -77.5t66 -17.5v-20q-82 2 -123 2t-123 -2v20q54 0 66 17.5t12 77.5v238q0 60 -12 77.5t-66 17.5v20q82 -2 123 -2q97 0 281 2l10 -119h-17q-13 53 -39 76t-86 23h-86q-18 0 -18 -13v-190q66 0 89.5 17t27.5 78h20q-2 -64 -2 -97q0 -34 2 -104h-20
q-3 54 -26 70t-91 16zM647 351v-230q0 -63 20.5 -83t97.5 -20q34 0 59 7.5t38.5 16t23.5 27.5t13 30.5t9 36.5h19l-5 -138q-108 2 -208 2q-127 0 -235 -2v20q54 0 66 17.5t12 77.5v238q0 60 -12 77.5t-66 17.5v20q82 -2 123 -2t123 2v-20q-54 0 -66 -17.5t-12 -77.5z" />
    </font>
</defs>
</svg>
