<?xml version="1.0" encoding="UTF-8" standalone="no"?>
<svg width="612px" height="792px" viewBox="0 0 612 792" version="1.1" xmlns="http://www.w3.org/2000/svg" xmlns:xlink="http://www.w3.org/1999/xlink" xmlns:sketch="http://www.bohemiancoding.com/sketch/ns">
    <!-- Generator: Sketch 3.4.4 (17249) - http://www.bohemiancoding.com/sketch -->
    <title>amati</title>
    <desc>Created with Sketch.</desc>
    <defs></defs>
    <g id="Page-1" stroke="none" stroke-width="1" fill="none" fill-rule="evenodd" sketch:type="MSPage">
        <g id="amati" sketch:type="MSArtboardGroup" stroke-linecap="round" stroke-linejoin="round">
            <g id="Amati" sketch:type="MSLayerGroup" transform="translate(-219.000000, -442.630581)">
                <path d="M125.801,850.758 L925,850.758" id="Stroke-58" stroke="#00FF00" stroke-width="0.2" sketch:type="MSShapeGroup"></path>
                <path d="M125.801,850.758 L925,850.758" id="Stroke-59" stroke="#00FF00" stroke-width="0.2" sketch:type="MSShapeGroup"></path>
                <path d="M125.801,731.336 L925,731.336" id="Stroke-60" stroke="#00FF00" stroke-width="0.2" sketch:type="MSShapeGroup"></path>
                <path d="M125.801,731.336 L925,731.336" id="Stroke-61" stroke="#00FF00" stroke-width="0.2" sketch:type="MSShapeGroup"></path>
                <path d="M125.801,805.266 L925,805.266" id="Stroke-62" stroke="#00FF00" stroke-width="0.2" sketch:type="MSShapeGroup"></path>
                <path d="M125.801,805.266 L925,805.266" id="Stroke-63" stroke="#00FF00" stroke-width="0.2" sketch:type="MSShapeGroup"></path>
                <path d="M125.801,1100.977 L925,1100.977" id="Stroke-64" stroke="#00FF00" stroke-width="0.2" sketch:type="MSShapeGroup"></path>
                <path d="M125.801,1100.977 L925,1100.977" id="Stroke-65" stroke="#00FF00" stroke-width="0.2" sketch:type="MSShapeGroup"></path>
                <path d="M125.801,646.035 L925,646.035" id="Stroke-66" stroke="#00FF00" stroke-width="0.2" sketch:type="MSShapeGroup"></path>
                <path d="M125.801,646.035 L925,646.035" id="Stroke-67" stroke="#00FF00" stroke-width="0.2" sketch:type="MSShapeGroup"></path>
                <path d="M125.801,919 L925,919" id="Stroke-68" stroke="#00FF00" stroke-width="0.2" sketch:type="MSShapeGroup"></path>
                <path d="M125.801,919 L925,919" id="Stroke-69" stroke="#00FF00" stroke-width="0.2" sketch:type="MSShapeGroup"></path>
                <path d="M125.801,1009.988 L925,1009.988" id="Stroke-70" stroke="#00FF00" stroke-width="0.2" sketch:type="MSShapeGroup"></path>
                <path d="M125.801,1009.988 L925,1009.988" id="Stroke-71" stroke="#00FF00" stroke-width="0.2" sketch:type="MSShapeGroup"></path>
                <path d="M397.047,219.801 L397.047,1619" id="Stroke-72" stroke="#00FF00" stroke-width="0.2" sketch:type="MSShapeGroup"></path>
                <path d="M652.953,219.801 L652.953,1619" id="Stroke-73" stroke="#00FF00" stroke-width="0.2" sketch:type="MSShapeGroup"></path>
                <path d="M422.637,219.801 L422.637,1619" id="Stroke-74" stroke="#00FF00" stroke-width="0.2" sketch:type="MSShapeGroup"></path>
                <path d="M627.363,219.801 L627.363,1619" id="Stroke-75" stroke="#00FF00" stroke-width="0.2" sketch:type="MSShapeGroup"></path>
                <path d="M496.566,219.801 L496.566,1619" id="Stroke-76" stroke="#00FF00" stroke-width="0.2" sketch:type="MSShapeGroup"></path>
                <path d="M553.434,219.801 L553.434,1619" id="Stroke-77" stroke="#00FF00" stroke-width="0.2" sketch:type="MSShapeGroup"></path>
                <path d="M459.246,219.801 L459.246,1619" id="Stroke-78" stroke="#00FF00" stroke-width="0.2" sketch:type="MSShapeGroup"></path>
                <path d="M590.754,219.801 L590.754,1619" id="Stroke-79" stroke="#00FF00" stroke-width="0.2" sketch:type="MSShapeGroup"></path>
                <path d="M125.801,1638.355 L925,58.109" id="Stroke-80" stroke="#00FF00" stroke-width="0.2" sketch:type="MSShapeGroup"></path>
                <path d="M125.801,58.109 L925,1638.355" id="Stroke-81" stroke="#00FF00" stroke-width="0.2" sketch:type="MSShapeGroup"></path>
                <path d="M820.715,805.266 C820.715,641.945 688.316,509.551 525,509.551 C361.684,509.551 229.285,641.945 229.285,805.266 C229.285,968.582 361.684,1100.977 525,1100.977 C688.316,1100.977 820.715,968.582 820.715,805.266" id="Stroke-82" stroke="#FF0000" stroke-width="0.2" sketch:type="MSShapeGroup"></path>
                <path d="M579.023,1006.625 C579.023,956.371 538.289,915.637 488.035,915.637 C437.785,915.637 397.047,956.371 397.047,1006.625 C397.047,1056.875 437.785,1097.613 488.035,1097.613 C538.289,1097.613 579.023,1056.875 579.023,1006.625" id="Stroke-83" stroke="#FF0000" stroke-width="0.2" sketch:type="MSShapeGroup"></path>
                <path d="M624.52,1006.625 C624.52,943.809 573.598,892.887 510.781,892.887 C447.969,892.887 397.047,943.809 397.047,1006.625 C397.047,1069.438 447.969,1120.359 510.781,1120.359 C573.598,1120.359 624.52,1069.438 624.52,1006.625" id="Stroke-84" stroke="#FF0000" stroke-width="0.2" sketch:type="MSShapeGroup"></path>
                <path d="M416.09,934.039 C416.09,915.195 400.812,899.918 381.969,899.918 C363.125,899.918 347.848,915.195 347.848,934.039 C347.848,952.883 363.125,968.16 381.969,968.16 C400.812,968.16 416.09,952.883 416.09,934.039" id="Stroke-85" stroke="#FF0000" stroke-width="0.2" sketch:type="MSShapeGroup"></path>
                <path d="M729.723,850.758 C729.723,737.691 638.066,646.035 525,646.035 C411.934,646.035 320.277,737.691 320.277,850.758 C320.277,963.824 411.934,1055.484 525,1055.484 C638.066,1055.484 729.723,963.824 729.723,850.758" id="Stroke-86" stroke="#FF0000" stroke-width="0.2" sketch:type="MSShapeGroup"></path>
                <path d="M593.242,732.562 C593.242,685.449 555.051,647.258 507.941,647.258 C460.828,647.258 422.637,685.449 422.637,732.562 C422.637,779.672 460.828,817.863 507.941,817.863 C555.051,817.863 593.242,779.672 593.242,732.562" id="Stroke-87" stroke="#FF0000" stroke-width="0.2" sketch:type="MSShapeGroup"></path>
                <path d="M434.785,785.039 C434.785,766.195 419.512,750.918 400.664,750.918 C381.82,750.918 366.547,766.195 366.547,785.039 C366.547,803.883 381.82,819.16 400.664,819.16 C419.512,819.16 434.785,803.883 434.785,785.039" id="Stroke-88" stroke="#FF0000" stroke-width="0.2" sketch:type="MSShapeGroup"></path>
                <path d="M459.246,850.758 C459.246,787.945 408.324,737.023 345.512,737.023 C282.695,737.023 231.773,787.945 231.773,850.758 C231.773,913.574 282.695,964.496 345.512,964.496 C408.324,964.496 459.246,913.574 459.246,850.758" id="Stroke-89" stroke="#FF0000" stroke-width="0.2" sketch:type="MSShapeGroup"></path>
                <path d="M455.602,825.262 C455.602,812.699 445.418,802.512 432.855,802.512 C420.289,802.512 410.105,812.699 410.105,825.262 C410.105,837.824 420.289,848.008 432.855,848.008 C445.418,848.008 455.602,837.824 455.602,825.262" id="Stroke-90" stroke="#FF0000" stroke-width="0.2" sketch:type="MSShapeGroup"></path>
                <path d="M450.543,886.957 C450.543,868.113 435.266,852.836 416.422,852.836 C397.574,852.836 382.301,868.113 382.301,886.957 C382.301,905.801 397.574,921.078 416.422,921.078 C435.266,921.078 450.543,905.801 450.543,886.957" id="Stroke-91" stroke="#FF0000" stroke-width="0.2" sketch:type="MSShapeGroup"></path>
                <path d="M525,805.266 L525,1100.977" id="Stroke-92" stroke="#FFA500" stroke-width="0.2" sketch:type="MSShapeGroup"></path>
                <path d="M525,805.266 L471.605,1096.117" id="Stroke-93" stroke="#FFA500" stroke-width="0.2" sketch:type="MSShapeGroup"></path>
                <path d="M471.605,1096.117 C489.223,1099.352 507.094,1100.977 525,1100.977" id="Stroke-94" stroke="#0000FF" stroke-width="0.8" sketch:type="MSShapeGroup"></path>
                <path d="M525,805.266 L525,1100.977" id="Stroke-95" stroke="#FFA500" stroke-width="0.2" sketch:type="MSShapeGroup"></path>
                <path d="M525,805.266 L578.395,1096.117" id="Stroke-96" stroke="#FFA500" stroke-width="0.2" sketch:type="MSShapeGroup"></path>
                <path d="M525,1100.977 C542.906,1100.977 560.777,1099.352 578.395,1096.117" id="Stroke-97" stroke="#0000FF" stroke-width="0.8" sketch:type="MSShapeGroup"></path>
                <path d="M488.035,1006.625 L471.605,1096.117" id="Stroke-98" stroke="#FFA500" stroke-width="0.2" sketch:type="MSShapeGroup"></path>
                <path d="M488.035,1006.625 L397.047,1006.625" id="Stroke-99" stroke="#FFA500" stroke-width="0.2" sketch:type="MSShapeGroup"></path>
                <path d="M397.047,1006.625 C397.047,1050.539 428.414,1088.188 471.605,1096.117" id="Stroke-100" stroke="#0000FF" stroke-width="0.8" sketch:type="MSShapeGroup"></path>
                <path d="M561.965,1006.625 L578.395,1096.117" id="Stroke-101" stroke="#FFA500" stroke-width="0.2" sketch:type="MSShapeGroup"></path>
                <path d="M561.965,1006.625 L652.953,1006.625" id="Stroke-102" stroke="#FFA500" stroke-width="0.2" sketch:type="MSShapeGroup"></path>
                <path d="M578.395,1096.117 C621.586,1088.188 652.953,1050.539 652.953,1006.625" id="Stroke-103" stroke="#0000FF" stroke-width="0.8" sketch:type="MSShapeGroup"></path>
                <path d="M510.781,1006.625 L397.047,1006.625" id="Stroke-104" stroke="#FFA500" stroke-width="0.2" sketch:type="MSShapeGroup"></path>
                <path d="M510.781,1006.625 L411.695,950.789" id="Stroke-105" stroke="#FFA500" stroke-width="0.2" sketch:type="MSShapeGroup"></path>
                <path d="M411.695,950.789 C402.094,967.832 397.047,987.062 397.047,1006.625" id="Stroke-106" stroke="#0000FF" stroke-width="0.8" sketch:type="MSShapeGroup"></path>
                <path d="M539.219,1006.625 L652.953,1006.625" id="Stroke-107" stroke="#FFA500" stroke-width="0.2" sketch:type="MSShapeGroup"></path>
                <path d="M539.219,1006.625 L638.305,950.789" id="Stroke-108" stroke="#FFA500" stroke-width="0.2" sketch:type="MSShapeGroup"></path>
                <path d="M652.953,1006.625 C652.953,987.062 647.906,967.832 638.305,950.789" id="Stroke-109" stroke="#0000FF" stroke-width="0.8" sketch:type="MSShapeGroup"></path>
                <path d="M381.969,934.039 L411.695,950.789" id="Stroke-110" stroke="#FFA500" stroke-width="0.2" sketch:type="MSShapeGroup"></path>
                <path d="M381.969,934.039 L412.598,919" id="Stroke-111" stroke="#FFA500" stroke-width="0.2" sketch:type="MSShapeGroup"></path>
                <path d="M411.695,950.789 C417.219,940.988 417.555,929.098 412.598,919" id="Stroke-112" stroke="#0000FF" stroke-width="0.8" sketch:type="MSShapeGroup"></path>
                <path d="M668.031,934.039 L638.305,950.789" id="Stroke-113" stroke="#FFA500" stroke-width="0.2" sketch:type="MSShapeGroup"></path>
                <path d="M668.031,934.039 L637.402,919" id="Stroke-114" stroke="#FFA500" stroke-width="0.2" sketch:type="MSShapeGroup"></path>
                <path d="M637.402,919 C632.445,929.098 632.781,940.988 638.305,950.789" id="Stroke-115" stroke="#0000FF" stroke-width="0.8" sketch:type="MSShapeGroup"></path>
                <path d="M432.855,825.262 L427.641,803.117" id="Stroke-116" stroke="#FFA500" stroke-width="0.2" sketch:type="MSShapeGroup"></path>
                <path d="M432.855,825.262 L454.688,818.887" id="Stroke-117" stroke="#FFA500" stroke-width="0.2" sketch:type="MSShapeGroup"></path>
                <path d="M454.688,818.887 C451.301,807.273 439.414,800.348 427.641,803.117" id="Stroke-118" stroke="#0000FF" stroke-width="0.8" sketch:type="MSShapeGroup"></path>
                <path d="M617.145,825.262 L622.359,803.117" id="Stroke-119" stroke="#FFA500" stroke-width="0.2" sketch:type="MSShapeGroup"></path>
                <path d="M617.145,825.262 L595.312,818.887" id="Stroke-120" stroke="#FFA500" stroke-width="0.2" sketch:type="MSShapeGroup"></path>
                <path d="M622.359,803.117 C610.586,800.348 598.699,807.273 595.312,818.887" id="Stroke-121" stroke="#0000FF" stroke-width="0.8" sketch:type="MSShapeGroup"></path>
                <path d="M345.512,850.758 L454.688,818.887" id="Stroke-122" stroke="#FFA500" stroke-width="0.2" sketch:type="MSShapeGroup"></path>
                <path d="M345.512,850.758 L446.809,902.473" id="Stroke-123" stroke="#FFA500" stroke-width="0.2" sketch:type="MSShapeGroup"></path>
                <path d="M446.809,902.473 C460,876.633 462.82,846.734 454.688,818.887" id="Stroke-124" stroke="#0000FF" stroke-width="0.8" sketch:type="MSShapeGroup"></path>
                <path d="M704.488,850.758 L595.312,818.887" id="Stroke-125" stroke="#FFA500" stroke-width="0.2" sketch:type="MSShapeGroup"></path>
                <path d="M704.488,850.758 L603.191,902.473" id="Stroke-126" stroke="#FFA500" stroke-width="0.2" sketch:type="MSShapeGroup"></path>
                <path d="M595.312,818.887 C587.18,846.734 590,876.633 603.191,902.473" id="Stroke-127" stroke="#0000FF" stroke-width="0.8" sketch:type="MSShapeGroup"></path>
                <path d="M416.422,886.957 L446.809,902.473" id="Stroke-128" stroke="#FFA500" stroke-width="0.2" sketch:type="MSShapeGroup"></path>
                <path d="M416.422,886.957 L412.379,920.84" id="Stroke-129" stroke="#FFA500" stroke-width="0.2" sketch:type="MSShapeGroup"></path>
                <path d="M412.379,920.84 C426.57,922.531 440.312,915.199 446.809,902.473" id="Stroke-130" stroke="#0000FF" stroke-width="0.8" sketch:type="MSShapeGroup"></path>
                <path d="M633.578,886.957 L603.191,902.473" id="Stroke-131" stroke="#FFA500" stroke-width="0.2" sketch:type="MSShapeGroup"></path>
                <path d="M633.578,886.957 L637.621,920.84" id="Stroke-132" stroke="#FFA500" stroke-width="0.2" sketch:type="MSShapeGroup"></path>
                <path d="M603.191,902.473 C609.688,915.199 623.43,922.531 637.621,920.84" id="Stroke-133" stroke="#0000FF" stroke-width="0.8" sketch:type="MSShapeGroup"></path>
                <path d="M525,850.758 L525,646.035" id="Stroke-134" stroke="#FFA500" stroke-width="0.2" sketch:type="MSShapeGroup"></path>
                <path d="M525,850.758 L495.754,648.133" id="Stroke-135" stroke="#FFA500" stroke-width="0.2" sketch:type="MSShapeGroup"></path>
                <path d="M525,646.035 C515.215,646.035 505.441,646.734 495.754,648.133" id="Stroke-136" stroke="#0000FF" stroke-width="0.8" sketch:type="MSShapeGroup"></path>
                <path d="M525,850.758 L525,646.035" id="Stroke-137" stroke="#FFA500" stroke-width="0.2" sketch:type="MSShapeGroup"></path>
                <path d="M525,850.758 L554.246,648.133" id="Stroke-138" stroke="#FFA500" stroke-width="0.2" sketch:type="MSShapeGroup"></path>
                <path d="M554.246,648.133 C544.559,646.734 534.785,646.035 525,646.035" id="Stroke-139" stroke="#0000FF" stroke-width="0.8" sketch:type="MSShapeGroup"></path>
                <path d="M507.941,732.562 L495.754,648.133" id="Stroke-140" stroke="#FFA500" stroke-width="0.2" sketch:type="MSShapeGroup"></path>
                <path d="M507.941,732.562 L431.316,770.047" id="Stroke-141" stroke="#FFA500" stroke-width="0.2" sketch:type="MSShapeGroup"></path>
                <path d="M495.754,648.133 C468.766,652.027 445.266,668.594 432.523,692.699 C419.781,716.805 419.332,745.551 431.316,770.047" id="Stroke-142" stroke="#0000FF" stroke-width="0.8" sketch:type="MSShapeGroup"></path>
                <path d="M542.059,732.562 L554.246,648.133" id="Stroke-143" stroke="#FFA500" stroke-width="0.2" sketch:type="MSShapeGroup"></path>
                <path d="M542.059,732.562 L618.684,770.047" id="Stroke-144" stroke="#FFA500" stroke-width="0.2" sketch:type="MSShapeGroup"></path>
                <path d="M618.684,770.047 C630.668,745.551 630.219,716.805 617.477,692.699 C604.734,668.594 581.234,652.027 554.246,648.133" id="Stroke-145" stroke="#0000FF" stroke-width="0.8" sketch:type="MSShapeGroup"></path>
                <path d="M400.664,785.039 L431.316,770.047" id="Stroke-146" stroke="#FFA500" stroke-width="0.2" sketch:type="MSShapeGroup"></path>
                <path d="M400.664,785.039 L428.148,805.266" id="Stroke-147" stroke="#FFA500" stroke-width="0.2" sketch:type="MSShapeGroup"></path>
                <path d="M428.148,805.266 C435.68,795.031 436.898,781.461 431.316,770.047" id="Stroke-148" stroke="#0000FF" stroke-width="0.8" sketch:type="MSShapeGroup"></path>
                <path d="M649.336,785.039 L618.684,770.047" id="Stroke-149" stroke="#FFA500" stroke-width="0.2" sketch:type="MSShapeGroup"></path>
                <path d="M649.336,785.039 L621.852,805.266" id="Stroke-150" stroke="#FFA500" stroke-width="0.2" sketch:type="MSShapeGroup"></path>
                <path d="M618.684,770.047 C613.102,781.461 614.32,795.031 621.852,805.266" id="Stroke-151" stroke="#0000FF" stroke-width="0.8" sketch:type="MSShapeGroup"></path>
            </g>
        </g>
    </g>
</svg>