<svg height="500" width="500" viewBox="0 0 800 1400"><line x1="-156.16797900262463" y1="95.80052493438313" x2="1156.1679790026246" y2="95.80052493438313" stroke="blue"></line><line x1="1156.1679790026246" y1="95.80052493438313" x2="1156.1679790026246" y2="115.48556430446195" stroke="blue"></line><text x="1156.1679790026246" y="79.39632545931761"></text><line x1="1139.763779527559" y1="95.80052493438313" x2="1139.763779527559" y2="102.36220472440948" stroke="blue"></line><line x1="1123.3595800524936" y1="95.80052493438313" x2="1123.3595800524936" y2="102.36220472440948" stroke="blue"></line><line x1="1106.9553805774278" y1="95.80052493438313" x2="1106.9553805774278" y2="102.36220472440948" stroke="blue"></line><line x1="1090.551181102362" y1="95.80052493438313" x2="1090.551181102362" y2="102.36220472440948" stroke="blue"></line><line x1="1074.1469816272966" y1="95.80052493438313" x2="1074.1469816272966" y2="115.48556430446195" stroke="blue"></line><text x="1074.1469816272966" y="79.39632545931761"></text><line x1="1057.742782152231" y1="95.80052493438313" x2="1057.742782152231" y2="102.36220472440948" stroke="blue"></line><line x1="1041.3385826771655" y1="95.80052493438313" x2="1041.3385826771655" y2="102.36220472440948" stroke="blue"></line><line x1="1024.9343832020998" y1="95.80052493438313" x2="1024.9343832020998" y2="102.36220472440948" stroke="blue"></line><line x1="1008.5301837270341" y1="95.80052493438313" x2="1008.5301837270341" y2="102.36220472440948" stroke="blue"></line><line x1="992.1259842519685" y1="95.80052493438313" x2="992.1259842519685" y2="115.48556430446195" stroke="blue"></line><text x="992.1259842519685" y="79.39632545931761"></text><line x1="975.721784776903" y1="95.80052493438313" x2="975.721784776903" y2="102.36220472440948" stroke="blue"></line><line x1="959.3175853018373" y1="95.80052493438313" x2="959.3175853018373" y2="102.36220472440948" stroke="blue"></line><line x1="942.9133858267717" y1="95.80052493438313" x2="942.9133858267717" y2="102.36220472440948" stroke="blue"></line><line x1="926.509186351706" y1="95.80052493438313" x2="926.509186351706" y2="102.36220472440948" stroke="blue"></line><line x1="910.1049868766404" y1="95.80052493438313" x2="910.1049868766404" y2="115.48556430446195" stroke="blue"></line><text x="910.1049868766404" y="79.39632545931761">250</text><line x1="893.7007874015749" y1="95.80052493438313" x2="893.7007874015749" y2="102.36220472440948" stroke="blue"></line><line x1="877.2965879265091" y1="95.80052493438313" x2="877.2965879265091" y2="102.36220472440948" stroke="blue"></line><line x1="860.8923884514436" y1="95.80052493438313" x2="860.8923884514436" y2="102.36220472440948" stroke="blue"></line><line x1="844.488188976378" y1="95.80052493438313" x2="844.488188976378" y2="102.36220472440948" stroke="blue"></line><line x1="828.0839895013123" y1="95.80052493438313" x2="828.0839895013123" y2="115.48556430446195" stroke="blue"></line><text x="828.0839895013123" y="79.39632545931761">200</text><line x1="811.6797900262468" y1="95.80052493438313" x2="811.6797900262468" y2="102.36220472440948" stroke="blue"></line><line x1="795.275590551181" y1="95.80052493438313" x2="795.275590551181" y2="102.36220472440948" stroke="blue"></line><line x1="778.8713910761155" y1="95.80052493438313" x2="778.8713910761155" y2="102.36220472440948" stroke="blue"></line><line x1="762.4671916010499" y1="95.80052493438313" x2="762.4671916010499" y2="102.36220472440948" stroke="blue"></line><line x1="746.0629921259842" y1="95.80052493438313" x2="746.0629921259842" y2="115.48556430446195" stroke="blue"></line><text x="746.0629921259842" y="79.39632545931761">150</text><line x1="729.6587926509187" y1="95.80052493438313" x2="729.6587926509187" y2="102.36220472440948" stroke="blue"></line><line x1="713.254593175853" y1="95.80052493438313" x2="713.254593175853" y2="102.36220472440948" stroke="blue"></line><line x1="696.8503937007874" y1="95.80052493438313" x2="696.8503937007874" y2="102.36220472440948" stroke="blue"></line><line x1="680.4461942257218" y1="95.80052493438313" x2="680.4461942257218" y2="102.36220472440948" stroke="blue"></line><line x1="664.0419947506562" y1="95.80052493438313" x2="664.0419947506562" y2="115.48556430446195" stroke="blue"></line><text x="664.0419947506562" y="79.39632545931761">100</text><line x1="647.6377952755905" y1="95.80052493438313" x2="647.6377952755905" y2="102.36220472440948" stroke="blue"></line><line x1="631.2335958005249" y1="95.80052493438313" x2="631.2335958005249" y2="102.36220472440948" stroke="blue"></line><line x1="614.8293963254594" y1="95.80052493438313" x2="614.8293963254594" y2="102.36220472440948" stroke="blue"></line><line x1="598.4251968503937" y1="95.80052493438313" x2="598.4251968503937" y2="102.36220472440948" stroke="blue"></line><line x1="582.0209973753281" y1="95.80052493438313" x2="582.0209973753281" y2="115.48556430446195" stroke="blue"></line><text x="582.0209973753281" y="79.39632545931761">50</text><line x1="565.6167979002624" y1="95.80052493438313" x2="565.6167979002624" y2="102.36220472440948" stroke="blue"></line><line x1="549.2125984251968" y1="95.80052493438313" x2="549.2125984251968" y2="102.36220472440948" stroke="blue"></line><line x1="532.8083989501313" y1="95.80052493438313" x2="532.8083989501313" y2="102.36220472440948" stroke="blue"></line><line x1="516.4041994750656" y1="95.80052493438313" x2="516.4041994750656" y2="102.36220472440948" stroke="blue"></line><line x1="500" y1="95.80052493438313" x2="500" y2="115.48556430446195" stroke="blue"></line><text x="500" y="79.39632545931761">0</text><line x1="483.59580052493436" y1="95.80052493438313" x2="483.59580052493436" y2="102.36220472440948" stroke="blue"></line><line x1="467.1916010498688" y1="95.80052493438313" x2="467.1916010498688" y2="102.36220472440948" stroke="blue"></line><line x1="450.78740157480314" y1="95.80052493438313" x2="450.78740157480314" y2="102.36220472440948" stroke="blue"></line><line x1="434.38320209973756" y1="95.80052493438313" x2="434.38320209973756" y2="102.36220472440948" stroke="blue"></line><line x1="417.9790026246719" y1="95.80052493438313" x2="417.9790026246719" y2="115.48556430446195" stroke="blue"></line><text x="417.9790026246719" y="79.39632545931761">50</text><line x1="401.5748031496063" y1="95.80052493438313" x2="401.5748031496063" y2="102.36220472440948" stroke="blue"></line><line x1="385.17060367454064" y1="95.80052493438313" x2="385.17060367454064" y2="102.36220472440948" stroke="blue"></line><line x1="368.76640419947506" y1="95.80052493438313" x2="368.76640419947506" y2="102.36220472440948" stroke="blue"></line><line x1="352.3622047244095" y1="95.80052493438313" x2="352.3622047244095" y2="102.36220472440948" stroke="blue"></line><line x1="335.95800524934384" y1="95.80052493438313" x2="335.95800524934384" y2="115.48556430446195" stroke="blue"></line><text x="335.95800524934384" y="79.39632545931761">100</text><line x1="319.5538057742782" y1="95.80052493438313" x2="319.5538057742782" y2="102.36220472440948" stroke="blue"></line><line x1="303.14960629921256" y1="95.80052493438313" x2="303.14960629921256" y2="102.36220472440948" stroke="blue"></line><line x1="286.745406824147" y1="95.80052493438313" x2="286.745406824147" y2="102.36220472440948" stroke="blue"></line><line x1="270.34120734908134" y1="95.80052493438313" x2="270.34120734908134" y2="102.36220472440948" stroke="blue"></line><line x1="253.93700787401573" y1="95.80052493438313" x2="253.93700787401573" y2="115.48556430446195" stroke="blue"></line><text x="253.93700787401573" y="79.39632545931761">150</text><line x1="237.53280839895012" y1="95.80052493438313" x2="237.53280839895012" y2="102.36220472440948" stroke="blue"></line><line x1="221.12860892388449" y1="95.80052493438313" x2="221.12860892388449" y2="102.36220472440948" stroke="blue"></line><line x1="204.7244094488189" y1="95.80052493438313" x2="204.7244094488189" y2="102.36220472440948" stroke="blue"></line><line x1="188.32020997375326" y1="95.80052493438313" x2="188.32020997375326" y2="102.36220472440948" stroke="blue"></line><line x1="171.91601049868768" y1="95.80052493438313" x2="171.91601049868768" y2="115.48556430446195" stroke="blue"></line><text x="171.91601049868768" y="79.39632545931761">200</text><line x1="155.51181102362204" y1="95.80052493438313" x2="155.51181102362204" y2="102.36220472440948" stroke="blue"></line><line x1="139.1076115485564" y1="95.80052493438313" x2="139.1076115485564" y2="102.36220472440948" stroke="blue"></line><line x1="122.70341207349082" y1="95.80052493438313" x2="122.70341207349082" y2="102.36220472440948" stroke="blue"></line><line x1="106.29921259842519" y1="95.80052493438313" x2="106.29921259842519" y2="102.36220472440948" stroke="blue"></line><line x1="89.89501312335955" y1="95.80052493438313" x2="89.89501312335955" y2="115.48556430446195" stroke="blue"></line><text x="89.89501312335955" y="79.39632545931761">250</text><line x1="73.49081364829397" y1="95.80052493438313" x2="73.49081364829397" y2="102.36220472440948" stroke="blue"></line><line x1="57.08661417322833" y1="95.80052493438313" x2="57.08661417322833" y2="102.36220472440948" stroke="blue"></line><line x1="40.68241469816269" y1="95.80052493438313" x2="40.68241469816269" y2="102.36220472440948" stroke="blue"></line><line x1="24.278215223097106" y1="95.80052493438313" x2="24.278215223097106" y2="102.36220472440948" stroke="blue"></line><line x1="7.874015748031468" y1="95.80052493438313" x2="7.874015748031468" y2="115.48556430446195" stroke="blue"></line><text x="7.874015748031468" y="79.39632545931761"></text><line x1="-8.530183727034114" y1="95.80052493438313" x2="-8.530183727034114" y2="102.36220472440948" stroke="blue"></line><line x1="-24.934383202099752" y1="95.80052493438313" x2="-24.934383202099752" y2="102.36220472440948" stroke="blue"></line><line x1="-41.33858267716539" y1="95.80052493438313" x2="-41.33858267716539" y2="102.36220472440948" stroke="blue"></line><line x1="-57.74278215223103" y1="95.80052493438313" x2="-57.74278215223103" y2="102.36220472440948" stroke="blue"></line><line x1="-74.14698162729655" y1="95.80052493438313" x2="-74.14698162729655" y2="115.48556430446195" stroke="blue"></line><text x="-74.14698162729655" y="79.39632545931761"></text><line x1="-90.5511811023622" y1="95.80052493438313" x2="-90.5511811023622" y2="102.36220472440948" stroke="blue"></line><line x1="-106.95538057742783" y1="95.80052493438313" x2="-106.95538057742783" y2="102.36220472440948" stroke="blue"></line><line x1="-123.35958005249347" y1="95.80052493438313" x2="-123.35958005249347" y2="102.36220472440948" stroke="blue"></line><line x1="-139.7637795275591" y1="95.80052493438313" x2="-139.7637795275591" y2="102.36220472440948" stroke="blue"></line><line x1="-156.16797900262463" y1="95.80052493438313" x2="-156.16797900262463" y2="115.48556430446195" stroke="blue"></line><text x="-156.16797900262463" y="79.39632545931761"></text><line x1="910.1049868766404" y1="-273.2939632545931" x2="910.1049868766404" y2="2023.293963254593" stroke="blue"></line><line x1="910.1049868766404" y1="2023.293963254593" x2="890.4199475065617" y2="2023.293963254593" stroke="blue"></line><text x="923.3070866141732" y="2015.293963254593">700</text><line x1="910.1049868766404" y1="2006.8897637795276" x2="903.5433070866142" y2="2006.8897637795276" stroke="blue"></line><line x1="910.1049868766404" y1="1990.485564304462" x2="903.5433070866142" y2="1990.485564304462" stroke="blue"></line><line x1="910.1049868766404" y1="1974.0813648293963" x2="903.5433070866142" y2="1974.0813648293963" stroke="blue"></line><line x1="910.1049868766404" y1="1957.6771653543308" x2="903.5433070866142" y2="1957.6771653543308" stroke="blue"></line><line x1="910.1049868766404" y1="1941.272965879265" x2="890.4199475065617" y2="1941.272965879265" stroke="blue"></line><text x="923.3070866141732" y="1933.272965879265">650</text><line x1="910.1049868766404" y1="1924.8687664041995" x2="903.5433070866142" y2="1924.8687664041995" stroke="blue"></line><line x1="910.1049868766404" y1="1908.464566929134" x2="903.5433070866142" y2="1908.464566929134" stroke="blue"></line><line x1="910.1049868766404" y1="1892.0603674540682" x2="903.5433070866142" y2="1892.0603674540682" stroke="blue"></line><line x1="910.1049868766404" y1="1875.6561679790027" x2="903.5433070866142" y2="1875.6561679790027" stroke="blue"></line><line x1="910.1049868766404" y1="1859.251968503937" x2="890.4199475065617" y2="1859.251968503937" stroke="blue"></line><text x="923.3070866141732" y="1851.251968503937">600</text><line x1="910.1049868766404" y1="1842.8477690288714" x2="903.5433070866142" y2="1842.8477690288714" stroke="blue"></line><line x1="910.1049868766404" y1="1826.443569553806" x2="903.5433070866142" y2="1826.443569553806" stroke="blue"></line><line x1="910.1049868766404" y1="1810.0393700787401" x2="903.5433070866142" y2="1810.0393700787401" stroke="blue"></line><line x1="910.1049868766404" y1="1793.6351706036746" x2="903.5433070866142" y2="1793.6351706036746" stroke="blue"></line><line x1="910.1049868766404" y1="1777.2309711286089" x2="890.4199475065617" y2="1777.2309711286089" stroke="blue"></line><text x="923.3070866141732" y="1769.2309711286089">550</text><line x1="910.1049868766404" y1="1760.8267716535433" x2="903.5433070866142" y2="1760.8267716535433" stroke="blue"></line><line x1="910.1049868766404" y1="1744.4225721784778" x2="903.5433070866142" y2="1744.4225721784778" stroke="blue"></line><line x1="910.1049868766404" y1="1728.018372703412" x2="903.5433070866142" y2="1728.018372703412" stroke="blue"></line><line x1="910.1049868766404" y1="1711.6141732283463" x2="903.5433070866142" y2="1711.6141732283463" stroke="blue"></line><line x1="910.1049868766404" y1="1695.2099737532808" x2="890.4199475065617" y2="1695.2099737532808" stroke="blue"></line><text x="923.3070866141732" y="1687.2099737532808">500</text><line x1="910.1049868766404" y1="1678.8057742782153" x2="903.5433070866142" y2="1678.8057742782153" stroke="blue"></line><line x1="910.1049868766404" y1="1662.4015748031497" x2="903.5433070866142" y2="1662.4015748031497" stroke="blue"></line><line x1="910.1049868766404" y1="1645.997375328084" x2="903.5433070866142" y2="1645.997375328084" stroke="blue"></line><line x1="910.1049868766404" y1="1629.5931758530182" x2="903.5433070866142" y2="1629.5931758530182" stroke="blue"></line><line x1="910.1049868766404" y1="1613.1889763779527" x2="890.4199475065617" y2="1613.1889763779527" stroke="blue"></line><text x="923.3070866141732" y="1605.1889763779527">450</text><line x1="910.1049868766404" y1="1596.7847769028872" x2="903.5433070866142" y2="1596.7847769028872" stroke="blue"></line><line x1="910.1049868766404" y1="1580.3805774278217" x2="903.5433070866142" y2="1580.3805774278217" stroke="blue"></line><line x1="910.1049868766404" y1="1563.976377952756" x2="903.5433070866142" y2="1563.976377952756" stroke="blue"></line><line x1="910.1049868766404" y1="1547.5721784776902" x2="903.5433070866142" y2="1547.5721784776902" stroke="blue"></line><line x1="910.1049868766404" y1="1531.1679790026246" x2="890.4199475065617" y2="1531.1679790026246" stroke="blue"></line><text x="923.3070866141732" y="1523.1679790026246">400</text><line x1="910.1049868766404" y1="1514.763779527559" x2="903.5433070866142" y2="1514.763779527559" stroke="blue"></line><line x1="910.1049868766404" y1="1498.3595800524936" x2="903.5433070866142" y2="1498.3595800524936" stroke="blue"></line><line x1="910.1049868766404" y1="1481.9553805774278" x2="903.5433070866142" y2="1481.9553805774278" stroke="blue"></line><line x1="910.1049868766404" y1="1465.551181102362" x2="903.5433070866142" y2="1465.551181102362" stroke="blue"></line><line x1="910.1049868766404" y1="1449.1469816272966" x2="890.4199475065617" y2="1449.1469816272966" stroke="blue"></line><text x="923.3070866141732" y="1441.1469816272966">350</text><line x1="910.1049868766404" y1="1432.742782152231" x2="903.5433070866142" y2="1432.742782152231" stroke="blue"></line><line x1="910.1049868766404" y1="1416.3385826771655" x2="903.5433070866142" y2="1416.3385826771655" stroke="blue"></line><line x1="910.1049868766404" y1="1399.9343832020998" x2="903.5433070866142" y2="1399.9343832020998" stroke="blue"></line><line x1="910.1049868766404" y1="1383.530183727034" x2="903.5433070866142" y2="1383.530183727034" stroke="blue"></line><line x1="910.1049868766404" y1="1367.1259842519685" x2="890.4199475065617" y2="1367.1259842519685" stroke="blue"></line><text x="923.3070866141732" y="1359.1259842519685">300</text><line x1="910.1049868766404" y1="1350.721784776903" x2="903.5433070866142" y2="1350.721784776903" stroke="blue"></line><line x1="910.1049868766404" y1="1334.3175853018374" x2="903.5433070866142" y2="1334.3175853018374" stroke="blue"></line><line x1="910.1049868766404" y1="1317.9133858267717" x2="903.5433070866142" y2="1317.9133858267717" stroke="blue"></line><line x1="910.1049868766404" y1="1301.509186351706" x2="903.5433070866142" y2="1301.509186351706" stroke="blue"></line><line x1="910.1049868766404" y1="1285.1049868766404" x2="890.4199475065617" y2="1285.1049868766404" stroke="blue"></line><text x="923.3070866141732" y="1277.1049868766404">250</text><line x1="910.1049868766404" y1="1268.7007874015749" x2="903.5433070866142" y2="1268.7007874015749" stroke="blue"></line><line x1="910.1049868766404" y1="1252.2965879265091" x2="903.5433070866142" y2="1252.2965879265091" stroke="blue"></line><line x1="910.1049868766404" y1="1235.8923884514436" x2="903.5433070866142" y2="1235.8923884514436" stroke="blue"></line><line x1="910.1049868766404" y1="1219.4881889763778" x2="903.5433070866142" y2="1219.4881889763778" stroke="blue"></line><line x1="910.1049868766404" y1="1203.0839895013123" x2="890.4199475065617" y2="1203.0839895013123" stroke="blue"></line><text x="923.3070866141732" y="1195.0839895013123">200</text><line x1="910.1049868766404" y1="1186.6797900262468" x2="903.5433070866142" y2="1186.6797900262468" stroke="blue"></line><line x1="910.1049868766404" y1="1170.275590551181" x2="903.5433070866142" y2="1170.275590551181" stroke="blue"></line><line x1="910.1049868766404" y1="1153.8713910761155" x2="903.5433070866142" y2="1153.8713910761155" stroke="blue"></line><line x1="910.1049868766404" y1="1137.4671916010498" x2="903.5433070866142" y2="1137.4671916010498" stroke="blue"></line><line x1="910.1049868766404" y1="1121.0629921259842" x2="890.4199475065617" y2="1121.0629921259842" stroke="blue"></line><text x="923.3070866141732" y="1113.0629921259842">150</text><line x1="910.1049868766404" y1="1104.6587926509187" x2="903.5433070866142" y2="1104.6587926509187" stroke="blue"></line><line x1="910.1049868766404" y1="1088.254593175853" x2="903.5433070866142" y2="1088.254593175853" stroke="blue"></line><line x1="910.1049868766404" y1="1071.8503937007874" x2="903.5433070866142" y2="1071.8503937007874" stroke="blue"></line><line x1="910.1049868766404" y1="1055.4461942257217" x2="903.5433070866142" y2="1055.4461942257217" stroke="blue"></line><line x1="910.1049868766404" y1="1039.0419947506562" x2="890.4199475065617" y2="1039.0419947506562" stroke="blue"></line><text x="923.3070866141732" y="1031.0419947506562">100</text><line x1="910.1049868766404" y1="1022.6377952755905" x2="903.5433070866142" y2="1022.6377952755905" stroke="blue"></line><line x1="910.1049868766404" y1="1006.2335958005249" x2="903.5433070866142" y2="1006.2335958005249" stroke="blue"></line><line x1="910.1049868766404" y1="989.8293963254594" x2="903.5433070866142" y2="989.8293963254594" stroke="blue"></line><line x1="910.1049868766404" y1="973.4251968503937" x2="903.5433070866142" y2="973.4251968503937" stroke="blue"></line><line x1="910.1049868766404" y1="957.0209973753281" x2="890.4199475065617" y2="957.0209973753281" stroke="blue"></line><text x="923.3070866141732" y="949.0209973753281">50</text><line x1="910.1049868766404" y1="940.6167979002624" x2="903.5433070866142" y2="940.6167979002624" stroke="blue"></line><line x1="910.1049868766404" y1="924.2125984251968" x2="903.5433070866142" y2="924.2125984251968" stroke="blue"></line><line x1="910.1049868766404" y1="907.8083989501313" x2="903.5433070866142" y2="907.8083989501313" stroke="blue"></line><line x1="910.1049868766404" y1="891.4041994750656" x2="903.5433070866142" y2="891.4041994750656" stroke="blue"></line><line x1="910.1049868766404" y1="875" x2="890.4199475065617" y2="875" stroke="blue"></line><text x="923.3070866141732" y="867">0</text><line x1="910.1049868766404" y1="858.5958005249344" x2="903.5433070866142" y2="858.5958005249344" stroke="blue"></line><line x1="910.1049868766404" y1="842.1916010498687" x2="903.5433070866142" y2="842.1916010498687" stroke="blue"></line><line x1="910.1049868766404" y1="825.7874015748032" x2="903.5433070866142" y2="825.7874015748032" stroke="blue"></line><line x1="910.1049868766404" y1="809.3832020997376" x2="903.5433070866142" y2="809.3832020997376" stroke="blue"></line><line x1="910.1049868766404" y1="792.9790026246719" x2="890.4199475065617" y2="792.9790026246719" stroke="blue"></line><text x="923.3070866141732" y="784.9790026246719">50</text><line x1="910.1049868766404" y1="776.5748031496063" x2="903.5433070866142" y2="776.5748031496063" stroke="blue"></line><line x1="910.1049868766404" y1="760.1706036745406" x2="903.5433070866142" y2="760.1706036745406" stroke="blue"></line><line x1="910.1049868766404" y1="743.7664041994751" x2="903.5433070866142" y2="743.7664041994751" stroke="blue"></line><line x1="910.1049868766404" y1="727.3622047244095" x2="903.5433070866142" y2="727.3622047244095" stroke="blue"></line><line x1="910.1049868766404" y1="710.9580052493438" x2="890.4199475065617" y2="710.9580052493438" stroke="blue"></line><text x="923.3070866141732" y="702.9580052493438">100</text><line x1="910.1049868766404" y1="694.5538057742782" x2="903.5433070866142" y2="694.5538057742782" stroke="blue"></line><line x1="910.1049868766404" y1="678.1496062992126" x2="903.5433070866142" y2="678.1496062992126" stroke="blue"></line><line x1="910.1049868766404" y1="661.745406824147" x2="903.5433070866142" y2="661.745406824147" stroke="blue"></line><line x1="910.1049868766404" y1="645.3412073490813" x2="903.5433070866142" y2="645.3412073490813" stroke="blue"></line><line x1="910.1049868766404" y1="628.9370078740158" x2="890.4199475065617" y2="628.9370078740158" stroke="blue"></line><text x="923.3070866141732" y="620.9370078740158">150</text><line x1="910.1049868766404" y1="612.5328083989501" x2="903.5433070866142" y2="612.5328083989501" stroke="blue"></line><line x1="910.1049868766404" y1="596.1286089238845" x2="903.5433070866142" y2="596.1286089238845" stroke="blue"></line><line x1="910.1049868766404" y1="579.724409448819" x2="903.5433070866142" y2="579.724409448819" stroke="blue"></line><line x1="910.1049868766404" y1="563.3202099737532" x2="903.5433070866142" y2="563.3202099737532" stroke="blue"></line><line x1="910.1049868766404" y1="546.9160104986877" x2="890.4199475065617" y2="546.9160104986877" stroke="blue"></line><text x="923.3070866141732" y="538.9160104986877">200</text><line x1="910.1049868766404" y1="530.511811023622" x2="903.5433070866142" y2="530.511811023622" stroke="blue"></line><line x1="910.1049868766404" y1="514.1076115485564" x2="903.5433070866142" y2="514.1076115485564" stroke="blue"></line><line x1="910.1049868766404" y1="497.7034120734908" x2="903.5433070866142" y2="497.7034120734908" stroke="blue"></line><line x1="910.1049868766404" y1="481.2992125984252" x2="903.5433070866142" y2="481.2992125984252" stroke="blue"></line><line x1="910.1049868766404" y1="464.89501312335955" x2="890.4199475065617" y2="464.89501312335955" stroke="blue"></line><text x="923.3070866141732" y="456.89501312335955">250</text><line x1="910.1049868766404" y1="448.49081364829397" x2="903.5433070866142" y2="448.49081364829397" stroke="blue"></line><line x1="910.1049868766404" y1="432.0866141732283" x2="903.5433070866142" y2="432.0866141732283" stroke="blue"></line><line x1="910.1049868766404" y1="415.6824146981627" x2="903.5433070866142" y2="415.6824146981627" stroke="blue"></line><line x1="910.1049868766404" y1="399.2782152230971" x2="903.5433070866142" y2="399.2782152230971" stroke="blue"></line><line x1="910.1049868766404" y1="382.87401574803147" x2="890.4199475065617" y2="382.87401574803147" stroke="blue"></line><text x="923.3070866141732" y="374.87401574803147">300</text><line x1="910.1049868766404" y1="366.4698162729659" x2="903.5433070866142" y2="366.4698162729659" stroke="blue"></line><line x1="910.1049868766404" y1="350.06561679790025" x2="903.5433070866142" y2="350.06561679790025" stroke="blue"></line><line x1="910.1049868766404" y1="333.6614173228346" x2="903.5433070866142" y2="333.6614173228346" stroke="blue"></line><line x1="910.1049868766404" y1="317.25721784776897" x2="903.5433070866142" y2="317.25721784776897" stroke="blue"></line><line x1="910.1049868766404" y1="300.85301837270345" x2="890.4199475065617" y2="300.85301837270345" stroke="blue"></line><text x="923.3070866141732" y="292.85301837270345">350</text><line x1="910.1049868766404" y1="284.4488188976378" x2="903.5433070866142" y2="284.4488188976378" stroke="blue"></line><line x1="910.1049868766404" y1="268.04461942257217" x2="903.5433070866142" y2="268.04461942257217" stroke="blue"></line><line x1="910.1049868766404" y1="251.64041994750653" x2="903.5433070866142" y2="251.64041994750653" stroke="blue"></line><line x1="910.1049868766404" y1="235.2362204724409" x2="903.5433070866142" y2="235.2362204724409" stroke="blue"></line><line x1="910.1049868766404" y1="218.83202099737537" x2="890.4199475065617" y2="218.83202099737537" stroke="blue"></line><text x="923.3070866141732" y="210.83202099737537">400</text><line x1="910.1049868766404" y1="202.42782152230973" x2="903.5433070866142" y2="202.42782152230973" stroke="blue"></line><line x1="910.1049868766404" y1="186.0236220472441" x2="903.5433070866142" y2="186.0236220472441" stroke="blue"></line><line x1="910.1049868766404" y1="169.61942257217845" x2="903.5433070866142" y2="169.61942257217845" stroke="blue"></line><line x1="910.1049868766404" y1="153.2152230971128" x2="903.5433070866142" y2="153.2152230971128" stroke="blue"></line><line x1="910.1049868766404" y1="136.81102362204717" x2="890.4199475065617" y2="136.81102362204717" stroke="blue"></line><text x="923.3070866141732" y="128.81102362204717">450</text><line x1="910.1049868766404" y1="120.40682414698165" x2="903.5433070866142" y2="120.40682414698165" stroke="blue"></line><line x1="910.1049868766404" y1="104.00262467191601" x2="903.5433070866142" y2="104.00262467191601" stroke="blue"></line><line x1="910.1049868766404" y1="87.59842519685037" x2="903.5433070866142" y2="87.59842519685037" stroke="blue"></line><line x1="910.1049868766404" y1="71.19422572178473" x2="903.5433070866142" y2="71.19422572178473" stroke="blue"></line><line x1="910.1049868766404" y1="54.790026246719094" x2="890.4199475065617" y2="54.790026246719094" stroke="blue"></line><text x="923.3070866141732" y="46.790026246719094"></text><line x1="910.1049868766404" y1="38.38582677165357" x2="903.5433070866142" y2="38.38582677165357" stroke="blue"></line><line x1="910.1049868766404" y1="21.98162729658793" x2="903.5433070866142" y2="21.98162729658793" stroke="blue"></line><line x1="910.1049868766404" y1="5.577427821522292" x2="903.5433070866142" y2="5.577427821522292" stroke="blue"></line><line x1="910.1049868766404" y1="-10.826771653543346" x2="903.5433070866142" y2="-10.826771653543346" stroke="blue"></line><line x1="910.1049868766404" y1="-27.230971128608985" x2="890.4199475065617" y2="-27.230971128608985" stroke="blue"></line><text x="923.3070866141732" y="-35.230971128608985"></text><line x1="910.1049868766404" y1="-43.635170603674624" x2="903.5433070866142" y2="-43.635170603674624" stroke="blue"></line><line x1="910.1049868766404" y1="-60.03937007874015" x2="903.5433070866142" y2="-60.03937007874015" stroke="blue"></line><line x1="910.1049868766404" y1="-76.44356955380579" x2="903.5433070866142" y2="-76.44356955380579" stroke="blue"></line><line x1="910.1049868766404" y1="-92.84776902887143" x2="903.5433070866142" y2="-92.84776902887143" stroke="blue"></line><line x1="910.1049868766404" y1="-109.25196850393706" x2="890.4199475065617" y2="-109.25196850393706" stroke="blue"></line><text x="923.3070866141732" y="-117.25196850393706"></text><line x1="910.1049868766404" y1="-125.6561679790027" x2="903.5433070866142" y2="-125.6561679790027" stroke="blue"></line><line x1="910.1049868766404" y1="-142.06036745406823" x2="903.5433070866142" y2="-142.06036745406823" stroke="blue"></line><line x1="910.1049868766404" y1="-158.46456692913398" x2="903.5433070866142" y2="-158.46456692913398" stroke="blue"></line><line x1="910.1049868766404" y1="-174.8687664041995" x2="903.5433070866142" y2="-174.8687664041995" stroke="blue"></line><line x1="910.1049868766404" y1="-191.27296587926503" x2="890.4199475065617" y2="-191.27296587926503" stroke="blue"></line><text x="923.3070866141732" y="-199.27296587926503"></text><line x1="910.1049868766404" y1="-207.67716535433078" x2="903.5433070866142" y2="-207.67716535433078" stroke="blue"></line><line x1="910.1049868766404" y1="-224.0813648293963" x2="903.5433070866142" y2="-224.0813648293963" stroke="blue"></line><line x1="910.1049868766404" y1="-240.48556430446206" x2="903.5433070866142" y2="-240.48556430446206" stroke="blue"></line><line x1="910.1049868766404" y1="-256.8897637795276" x2="903.5433070866142" y2="-256.8897637795276" stroke="blue"></line><line x1="910.1049868766404" y1="-273.2939632545931" x2="890.4199475065617" y2="-273.2939632545931" stroke="blue"></line><text x="923.3070866141732" y="-281.2939632545931"></text><rect x="498" y="873" width="4" height="4" fill="red"></rect><text x="500" y="875" stroke="black" stroke-width="0.5">X</text><rect x="327.3963254593176" y="873" width="4" height="4" fill="red"></rect><text x="329.3963254593176" y="875" stroke="black" stroke-width="0.5">A</text><rect x="498" y="531.7926509186352" width="4" height="4" fill="red"></rect><text x="500" y="533.7926509186352" stroke="black" stroke-width="0.5">Q</text><rect x="498" y="787.6981627296587" width="4" height="4" fill="red"></rect><text x="500" y="789.6981627296587" stroke="black" stroke-width="0.5">N</text><rect x="370.0472440944882" y="531.7926509186352" width="4" height="4" fill="red"></rect><text x="372.0472440944882" y="533.7926509186352" stroke="black" stroke-width="0.5">q</text><rect x="625.9527559055118" y="531.7926509186352" width="4" height="4" fill="red"></rect><text x="627.9527559055118" y="533.7926509186352" stroke="black" stroke-width="0.5">q'</text><rect x="498" y="638.4199475065617" width="4" height="4" fill="red"></rect><text x="500" y="640.4199475065617" stroke="black" stroke-width="0.5">O</text><rect x="498" y="730.830271216098" width="4" height="4" fill="red"></rect><text x="500" y="732.830271216098" stroke="black" stroke-width="0.5">Z</text><rect x="498" y="1100.471566054243" width="4" height="4" fill="red"></rect><text x="500" y="1102.471566054243" stroke="black" stroke-width="0.5">P</text><rect x="338.0590551181102" y="1100.471566054243" width="4" height="4" fill="red"></rect><text x="340.0590551181102" y="1102.471566054243" stroke="black" stroke-width="0.5">p</text><rect x="657.9409448818898" y="1100.471566054243" width="4" height="4" fill="red"></rect><text x="659.9409448818898" y="1102.471566054243" stroke="black" stroke-width="0.5">p'</text><rect x="498" y="986.7357830271216" width="4" height="4" fill="red"></rect><text x="500" y="988.7357830271216" stroke="black" stroke-width="0.5">M</text><rect x="398.4811898512686" y="873" width="4" height="4" fill="red"></rect><text x="400.4811898512686" y="875" stroke="black" stroke-width="0.5">a</text><rect x="462.4575678040245" y="730.830271216098" width="4" height="4" fill="red"></rect><text x="464.4575678040245" y="732.830271216098" stroke="black" stroke-width="0.5">b</text><rect x="415.80812554680665" y="787.6981627296587" width="4" height="4" fill="red"></rect><text x="417.80812554680665" y="789.6981627296587" stroke="black" stroke-width="0.5">e</text><rect x="357.49632272528436" y="873" width="4" height="4" fill="red"></rect><text x="359.49632272528436" y="875" stroke="black" stroke-width="0.5">c</text><rect x="376.93359033245844" y="873" width="4" height="4" fill="red"></rect><text x="378.93359033245844" y="875" stroke="black" stroke-width="0.5">d</text><rect x="396.3708579396325" y="730.830271216098" width="4" height="4" fill="red"></rect><text x="398.3708579396325" y="732.830271216098" stroke="black" stroke-width="0.5">h</text><rect x="376.93359033245844" y="730.830271216098" width="4" height="4" fill="red"></rect><text x="378.93359033245844" y="732.830271216098" stroke="black" stroke-width="0.5">g</text><line x1="1" y1="789.6981627296587" x2="1000" y2="789.6981627296587" stroke="green"></line><line x1="1" y1="789.6981627296587" x2="1000" y2="789.6981627296587" stroke="green"></line><line x1="1" y1="640.4199475065617" x2="1000" y2="640.4199475065617" stroke="green"></line><line x1="1" y1="640.4199475065617" x2="1000" y2="640.4199475065617" stroke="green"></line><line x1="1" y1="732.830271216098" x2="1000" y2="732.830271216098" stroke="green"></line><line x1="1" y1="732.830271216098" x2="1000" y2="732.830271216098" stroke="green"></line><line x1="1" y1="1102.471566054243" x2="1000" y2="1102.471566054243" stroke="green"></line><line x1="1" y1="1102.471566054243" x2="1000" y2="1102.471566054243" stroke="green"></line><line x1="1" y1="533.7926509186352" x2="1000" y2="533.7926509186352" stroke="green"></line><line x1="1" y1="533.7926509186352" x2="1000" y2="533.7926509186352" stroke="green"></line><line x1="1" y1="875" x2="1000" y2="875" stroke="green"></line><line x1="1" y1="875" x2="1000" y2="875" stroke="green"></line><line x1="1" y1="988.7357830271216" x2="1000" y2="988.7357830271216" stroke="green"></line><line x1="1" y1="988.7357830271216" x2="1000" y2="988.7357830271216" stroke="green"></line><line x1="340.0590551181102" y1="1" x2="340.0590551181102" y2="1750" stroke="green"></line><line x1="659.9409448818898" y1="1" x2="659.9409448818898" y2="1750" stroke="green"></line><line x1="372.0472440944882" y1="1" x2="372.0472440944882" y2="1750" stroke="green"></line><line x1="627.9527559055118" y1="1" x2="627.9527559055118" y2="1750" stroke="green"></line><line x1="464.4575678040245" y1="1" x2="464.4575678040245" y2="1750" stroke="green"></line><line x1="535.5424321959755" y1="1" x2="535.5424321959755" y2="1750" stroke="green"></line><line x1="417.80812554680665" y1="1" x2="417.80812554680665" y2="1750" stroke="green"></line><line x1="582.1918744531933" y1="1" x2="582.1918744531933" y2="1750" stroke="green"></line><line x1="1" y1="1774.1931564110037" x2="1000" y2="-201.1154855643042" stroke="green"></line><line x1="1" y1="-201.11548556430398" x2="1000" y2="1774.1931564110039" stroke="green"></line><circle cx="500" cy="732.830271216098" r="369.6412948381452" fill="none" stroke="red"></circle><circle cx="453.79483814523184" cy="984.5299215798533" r="113.7357830271216" fill="none" stroke="red"></circle><circle cx="482.22878390201225" cy="984.5299215798533" r="142.169728783902" fill="none" stroke="red"></circle><circle cx="321.2116952382295" cy="893.7986211888366" r="42.65091863517116" fill="none" stroke="red"></circle><circle cx="500" cy="789.6981627296587" r="255.90551181102364" fill="none" stroke="red"></circle><circle cx="478.6745406824147" cy="641.9510465984554" r="106.62729658792651" fill="none" stroke="red"></circle><circle cx="344.5822381482569" cy="707.5501315103746" r="42.65091863517061" fill="none" stroke="red"></circle><circle cx="275.6383967629047" cy="789.6981627296587" r="142.16972878390197" fill="none" stroke="red"></circle><circle cx="384.8171129438832" cy="757.8259762049503" r="28.433945756780414" fill="none" stroke="red"></circle><circle cx="364.2754893558783" cy="834.9470233792252" r="42.650918635170484" fill="none" stroke="red"></circle><line x1="500" y1="732.830271216098" x2="500" y2="1102.471566054243" stroke="orange"></line><line x1="500" y1="732.830271216098" x2="433.2592106542269" y2="1096.3964328526345" stroke="orange"></line><circle cx="500" cy="732.830271216098" r="3" fill="black"></circle><circle cx="500" cy="1102.471566054243" r="3" fill="green"></circle><path d="M 500 1102.471566054243 A 369.64129483814577 369.6412948381451 0 0 0 433.2592106542269 1096.3964328526345" fill="transparent" alpha="4.53083506599782" beta="4.712384999999999" stroke="blue" center="0"></path><line x1="500" y1="732.830271216098" x2="500" y2="1102.471566054243" stroke="orange"></line><line x1="500" y1="732.830271216098" x2="566.7407893457731" y2="1096.3964328526345" stroke="orange"></line><circle cx="500" cy="732.830271216098" r="3" fill="black"></circle><circle cx="500" cy="1102.471566054243" r="3" fill="green"></circle><path d="M 500 1102.471566054243 A 369.64129483814577 369.6412948381451 0 0 1 566.7407893457731 1096.3964328526345" fill="transparent" alpha="4.712384999999999" beta="4.8939362607970756" stroke="blue" center="0"></path><line x1="500" y1="732.830271216098" x2="500" y2="1108.2130358705163" stroke="orange"></line><line x1="500" y1="732.830271216098" x2="432.22255638184424" y2="1102.0435403928468" stroke="orange"></line><circle cx="500" cy="732.830271216098" r="3" fill="black"></circle><circle cx="500" cy="1108.2130358705163" r="3" fill="green"></circle><path d="M 500 1108.2130358705163 A 375.3827646544186 375.3827646544182 0 0 0 432.22255638184424 1102.0435403928468" fill="transparent" alpha="4.53083506599782" beta="4.712384999999999" stroke="pink" center="0"></path><line x1="500" y1="732.830271216098" x2="500" y2="1108.2130358705163" stroke="orange"></line><line x1="500" y1="732.830271216098" x2="567.7774436181558" y2="1102.0435403928468" stroke="orange"></line><circle cx="500" cy="732.830271216098" r="3" fill="black"></circle><circle cx="500" cy="1108.2130358705163" r="3" fill="green"></circle><path d="M 500 1108.2130358705163 A 375.3827646544186 375.3827646544182 0 0 1 567.7774436181558 1102.0435403928468" fill="transparent" alpha="4.712384999999999" beta="4.8939362607970756" stroke="pink" center="0"></path><line x1="453.79483814523184" y1="984.5299215798533" x2="433.2592106542269" y2="1096.3964328526345" stroke="orange"></line><line x1="453.79483814523184" y1="984.5299215798533" x2="340.0590551181102" y2="984.5299215798533" stroke="orange"></line><circle cx="453.79483814523184" cy="984.5299215798533" r="3" fill="black"></circle><circle cx="433.2592106542269" cy="1096.3964328526345" r="3" fill="green"></circle><path d="M 433.2592106542269 1096.3964328526345 A 113.73578302712161 113.7357830271221 0 0 1 340.0590551181102 984.5299215798533" fill="transparent" alpha="3.14159" beta="4.530835065997841" stroke="blue" center="-28.16666666666667"></path><line x1="546.2051618547682" y1="984.5299215798533" x2="566.7407893457731" y2="1096.3964328526345" stroke="orange"></line><line x1="546.2051618547682" y1="984.5299215798533" x2="659.9409448818898" y2="984.5299215798533" stroke="orange"></line><circle cx="546.2051618547682" cy="984.5299215798533" r="3" fill="black"></circle><circle cx="566.7407893457731" cy="1096.3964328526345" r="3" fill="green"></circle><path d="M 566.7407893457731 1096.3964328526345 A 113.73578302712156 113.73578302712208 0 0 0 659.9409448818898 984.5299215798533" fill="transparent" alpha="0" beta="4.893936260797055" stroke="blue" center="28.16666666666667"></path><line x1="453.79483814523184" y1="984.5299215798533" x2="432.22255638184436" y2="1102.0435403928468" stroke="orange"></line><line x1="453.79483814523184" y1="984.5299215798533" x2="334.3175853018372" y2="984.5299215798533" stroke="orange"></line><circle cx="453.79483814523184" cy="984.5299215798533" r="3" fill="black"></circle><circle cx="432.22255638184436" cy="1102.0435403928468" r="3" fill="green"></circle><path d="M 432.22255638184436 1102.0435403928468 A 119.47725284339464 119.47725284339494 0 0 1 334.3175853018372 984.5299215798533" fill="transparent" alpha="3.14159" beta="4.53083506599784" stroke="pink" center="-28.16666666666667"></path><line x1="546.2051618547682" y1="984.5299215798533" x2="567.7774436181556" y2="1102.0435403928468" stroke="orange"></line><line x1="546.2051618547682" y1="984.5299215798533" x2="665.6824146981628" y2="984.5299215798533" stroke="orange"></line><circle cx="546.2051618547682" cy="984.5299215798533" r="3" fill="black"></circle><circle cx="567.7774436181556" cy="1102.0435403928468" r="3" fill="green"></circle><path d="M 567.7774436181556 1102.0435403928468 A 119.47725284339458 119.47725284339492 0 0 0 665.6824146981628 984.5299215798533" fill="transparent" alpha="0" beta="4.893936260797056" stroke="pink" center="28.16666666666667"></path><line x1="482.22878390201225" y1="984.5299215798533" x2="340.0590551181102" y2="984.5299215798533" stroke="orange"></line><line x1="482.22878390201225" y1="984.5299215798533" x2="358.369484929872" y2="914.7366135867636" stroke="orange"></line><circle cx="482.22878390201225" cy="984.5299215798533" r="3" fill="black"></circle><circle cx="340.0590551181102" cy="984.5299215798533" r="3" fill="green"></circle><path d="M 340.0590551181102 984.5299215798533 A 142.16972878390217 142.16972878390203 0 0 1 358.369484929872 914.7366135867636" fill="transparent" alpha="2.628451169000157" beta="3.14159" stroke="blue" center="-10.833333333333343"></path><line x1="517.7712160979878" y1="984.5299215798533" x2="659.9409448818898" y2="984.5299215798533" stroke="orange"></line><line x1="517.7712160979878" y1="984.5299215798533" x2="641.630515070128" y2="914.7366135867636" stroke="orange"></line><circle cx="517.7712160979878" cy="984.5299215798533" r="3" fill="black"></circle><circle cx="659.9409448818898" cy="984.5299215798533" r="3" fill="green"></circle><path d="M 659.9409448818898 984.5299215798533 A 142.16972878390212 142.16972878390197 0 0 0 641.630515070128 914.7366135867636" fill="transparent" alpha="0" beta="0.5131401577947393" stroke="blue" center="10.833333333333343"></path><line x1="482.22878390201225" y1="984.5299215798533" x2="334.3175853018372" y2="984.5299215798533" stroke="orange"></line><line x1="482.22878390201225" y1="984.5299215798533" x2="353.367474779074" y2="911.9180376870427" stroke="orange"></line><circle cx="482.22878390201225" cy="984.5299215798533" r="3" fill="black"></circle><circle cx="334.3175853018372" cy="984.5299215798533" r="3" fill="green"></circle><path d="M 334.3175853018372 984.5299215798533 A 147.9111986001752 147.91119860017506 0 0 1 353.367474779074 911.9180376870427" fill="transparent" alpha="2.6284511690001575" beta="3.14159" stroke="pink" center="-10.833333333333343"></path><line x1="517.7712160979878" y1="984.5299215798533" x2="665.6824146981628" y2="984.5299215798533" stroke="orange"></line><line x1="517.7712160979878" y1="984.5299215798533" x2="646.632525220926" y2="911.9180376870427" stroke="orange"></line><circle cx="517.7712160979878" cy="984.5299215798533" r="3" fill="black"></circle><circle cx="665.6824146981628" cy="984.5299215798533" r="3" fill="green"></circle><path d="M 665.6824146981628 984.5299215798533 A 147.91119860017514 147.911198600175 0 0 0 646.632525220926 911.9180376870427" fill="transparent" alpha="0" beta="0.5131401577947392" stroke="pink" center="10.833333333333343"></path><line x1="321.2116952382295" y1="893.7986211888366" x2="358.369484929872" y2="914.7366135867636" stroke="orange"></line><line x1="321.2116952382295" y1="893.7986211888366" x2="359.4966461207819" y2="874.9998412054694" stroke="orange"></line><circle cx="321.2116952382295" cy="893.7986211888366" r="3" fill="black"></circle><circle cx="358.369484929872" cy="914.7366135867636" r="3" fill="green"></circle><path d="M 358.369484929872 914.7366135867636 A 42.65127891332804 42.65091863517108 0 0 0 359.4966461207819 874.9998412054694" fill="transparent" alpha="0.45644001212539076" beta="5.77004116900016" stroke="blue" center="-108.98935058277529"></path><line x1="678.7883047617705" y1="893.7986211888366" x2="641.630515070128" y2="914.7366135867636" stroke="orange"></line><line x1="678.7883047617705" y1="893.7986211888366" x2="640.5033538792181" y2="874.9998412054694" stroke="orange"></line><circle cx="678.7883047617705" cy="893.7986211888366" r="3" fill="black"></circle><circle cx="641.630515070128" cy="914.7366135867636" r="3" fill="green"></circle><path d="M 641.630515070128 914.7366135867636 A 42.65127891332799 42.65091863517108 0 0 1 640.5033538792181 874.9998412054694" fill="transparent" alpha="2.685151314669505" beta="3.654730157794736" stroke="blue" center="108.98935058277529"></path><line x1="321.2116952382295" y1="893.7986211888366" x2="353.367474779074" y2="911.9180376870427" stroke="orange"></line><line x1="321.2116952382295" y1="893.7986211888366" x2="354.3429462667553" y2="877.5304248270435" stroke="orange"></line><circle cx="321.2116952382295" cy="893.7986211888366" r="3" fill="black"></circle><circle cx="353.367474779074" cy="911.9180376870427" r="3" fill="green"></circle><path d="M 353.367474779074 911.9180376870427 A 36.909809097055096 36.90944881889806 0 0 0 354.3429462667553 877.5304248270435" fill="transparent" alpha="0.45644001212539165" beta="5.77004116900016" stroke="pink" center="-108.98935058277529"></path><line x1="678.7883047617705" y1="893.7986211888366" x2="646.632525220926" y2="911.9180376870427" stroke="orange"></line><line x1="678.7883047617705" y1="893.7986211888366" x2="645.6570537332448" y2="877.5304248270435" stroke="orange"></line><circle cx="678.7883047617705" cy="893.7986211888366" r="3" fill="black"></circle><circle cx="646.632525220926" cy="911.9180376870427" r="3" fill="green"></circle><path d="M 646.632525220926 911.9180376870427 A 36.909809097055046 36.90944881889806 0 0 1 645.6570537332448 877.5304248270435" fill="transparent" alpha="2.685151314669504" beta="3.654730157794736" stroke="pink" center="108.98935058277529"></path><line x1="384.8171129438832" y1="757.8259762049503" x2="378.3023334342304" y2="730.1484235812055" stroke="orange"></line><line x1="384.8171129438832" y1="757.8259762049503" x2="412.1117919891278" y2="749.8579295737732" stroke="orange"></line><circle cx="384.8171129438832" cy="757.8259762049503" r="3" fill="black"></circle><circle cx="378.3023334342304" cy="730.1484235812055" r="3" fill="green"></circle><path d="M 378.3023334342304 730.1484235812055 A 28.433945756780364 28.4339457567808 0 0 1 412.1117919891278 749.8579295737732" fill="transparent" alpha="0.2840337746204051" beta="1.801968315257843" stroke="blue" center="-70.21548794940878"></path><line x1="615.1828870561168" y1="757.8259762049503" x2="621.6976665657696" y2="730.1484235812055" stroke="orange"></line><line x1="615.1828870561168" y1="757.8259762049503" x2="587.8882080108722" y2="749.8579295737732" stroke="orange"></line><circle cx="615.1828870561168" cy="757.8259762049503" r="3" fill="black"></circle><circle cx="621.6976665657696" cy="730.1484235812055" r="3" fill="green"></circle><path d="M 621.6976665657696 730.1484235812055 A 28.433945756780364 28.4339457567808 0 0 0 587.8882080108722 749.8579295737732" fill="transparent" alpha="1.3396230115370538" beta="2.8575575521744914" stroke="blue" center="70.21548794940878"></path><line x1="384.8171129438832" y1="757.8259762049503" x2="379.6178177582949" y2="735.7371601686923" stroke="orange"></line><line x1="384.8171129438832" y1="757.8259762049503" x2="406.60036641268414" y2="751.466862066607" stroke="orange"></line><circle cx="384.8171129438832" cy="757.8259762049503" r="3" fill="black"></circle><circle cx="379.6178177582949" cy="735.7371601686923" r="3" fill="green"></circle><path d="M 379.6178177582949 735.7371601686923 A 22.69247594050736 22.69247594050789 0 0 1 406.60036641268414 751.466862066607" fill="transparent" alpha="0.28403377462040813" beta="1.801968315257841" stroke="pink" center="-70.21548794940878"></path><line x1="615.1828870561168" y1="757.8259762049503" x2="620.3821822417051" y2="735.7371601686923" stroke="orange"></line><line x1="615.1828870561168" y1="757.8259762049503" x2="593.3996335873159" y2="751.466862066607" stroke="orange"></line><circle cx="615.1828870561168" cy="757.8259762049503" r="3" fill="black"></circle><circle cx="620.3821822417051" cy="735.7371601686923" r="3" fill="green"></circle><path d="M 620.3821822417051 735.7371601686923 A 22.69247594050736 22.69247594050789 0 0 0 593.3996335873159 751.466862066607" fill="transparent" alpha="1.3396230115370555" beta="2.8575575521744883" stroke="pink" center="70.21548794940878"></path><line x1="275.6383967629047" y1="789.6981627296587" x2="412.1117919891278" y2="749.8579295737732" stroke="orange"></line><line x1="275.6383967629047" y1="789.6981627296587" x2="402.2628147528672" y2="854.3393922290393" stroke="orange"></line><circle cx="275.6383967629047" cy="789.6981627296587" r="3" fill="black"></circle><circle cx="412.1117919891278" cy="749.8579295737732" r="3" fill="green"></circle><path d="M 412.1117919891278 749.8579295737732 A 142.16972878390226 142.16972878390195 0 0 1 402.2628147528672 854.3393922290393" fill="transparent" alpha="0.28403377462040486" beta="5.811172402501413" stroke="blue" center="-136.77083333333331"></path><line x1="724.3616032370953" y1="789.6981627296587" x2="587.8882080108722" y2="749.8579295737732" stroke="orange"></line><line x1="724.3616032370953" y1="789.6981627296587" x2="597.7371852471329" y2="854.3393922290393" stroke="orange"></line><circle cx="724.3616032370953" cy="789.6981627296587" r="3" fill="black"></circle><circle cx="587.8882080108722" cy="749.8579295737732" r="3" fill="green"></circle><path d="M 587.8882080108722 749.8579295737732 A 142.1697287839022 142.16972878390195 0 0 0 597.7371852471329 854.3393922290393" fill="transparent" alpha="2.857557552174492" beta="3.6135989242934836" stroke="blue" center="136.77083333333331"></path><line x1="275.6383967629047" y1="789.6981627296587" x2="406.60036641268414" y2="751.466862066607" stroke="orange"></line><line x1="275.6383967629047" y1="789.6981627296587" x2="397.1491363340418" y2="851.7288810377182" stroke="orange"></line><circle cx="275.6383967629047" cy="789.6981627296587" r="3" fill="black"></circle><circle cx="406.60036641268414" cy="751.466862066607" r="3" fill="green"></circle><path d="M 406.60036641268414 751.466862066607 A 136.42825896762935 136.42825896762892 0 0 1 397.1491363340418 851.7288810377182" fill="transparent" alpha="0.28403377462040535" beta="5.811172402501412" stroke="pink" center="-136.77083333333331"></path><line x1="724.3616032370953" y1="789.6981627296587" x2="593.3996335873159" y2="751.466862066607" stroke="orange"></line><line x1="724.3616032370953" y1="789.6981627296587" x2="602.8508636659582" y2="851.7288810377182" stroke="orange"></line><circle cx="724.3616032370953" cy="789.6981627296587" r="3" fill="black"></circle><circle cx="593.3996335873159" cy="751.466862066607" r="3" fill="green"></circle><path d="M 593.3996335873159 751.466862066607 A 136.42825896762935 136.42825896762892 0 0 0 602.8508636659582 851.7288810377182" fill="transparent" alpha="2.857557552174491" beta="3.613598924293484" stroke="pink" center="136.77083333333331"></path><line x1="364.2754893558783" y1="834.9470233792252" x2="402.2628147528672" y2="854.3393922290393" stroke="orange"></line><line x1="364.2754893558783" y1="834.9470233792252" x2="359.22217952941014" y2="877.2975242053295" stroke="orange"></line><circle cx="364.2754893558783" cy="834.9470233792252" r="3" fill="black"></circle><circle cx="402.2628147528672" cy="854.3393922290393" r="3" fill="green"></circle><path d="M 402.2628147528672 854.3393922290393 A 42.6509186351729 42.65091863517077 0 0 1 359.22217952941014 877.2975242053295" fill="transparent" alpha="4.593626682538199" beta="5.811172402501416" stroke="blue" center="-82.7376616886566"></path><line x1="635.7245106441217" y1="834.9470233792252" x2="597.7371852471329" y2="854.3393922290393" stroke="orange"></line><line x1="635.7245106441217" y1="834.9470233792252" x2="640.7778204705899" y2="877.2975242053295" stroke="orange"></line><circle cx="635.7245106441217" cy="834.9470233792252" r="3" fill="black"></circle><circle cx="597.7371852471329" cy="854.3393922290393" r="3" fill="green"></circle><path d="M 597.7371852471329 854.3393922290393 A 42.65091863517291 42.65091863517067 0 0 0 640.7778204705899 877.2975242053295" fill="transparent" alpha="3.6135989242934805" beta="4.831144644256699" stroke="blue" center="82.7376616886566"></path><line x1="364.2754893558783" y1="834.9470233792252" x2="397.14913633404177" y2="851.7288810377182" stroke="orange"></line><line x1="364.2754893558783" y1="834.9470233792252" x2="359.9024327752808" y2="871.5964952479696" stroke="orange"></line><circle cx="364.2754893558783" cy="834.9470233792252" r="3" fill="black"></circle><circle cx="397.14913633404177" cy="851.7288810377182" r="3" fill="green"></circle><path d="M 397.14913633404177 851.7288810377182 A 36.90944881889994 36.909448818897815 0 0 1 359.9024327752808 871.5964952479696" fill="transparent" alpha="4.593626682538198" beta="5.811172402501415" stroke="pink" center="-82.7376616886566"></path><line x1="635.7245106441217" y1="834.9470233792252" x2="602.8508636659582" y2="851.7288810377182" stroke="orange"></line><line x1="635.7245106441217" y1="834.9470233792252" x2="640.0975672247192" y2="871.5964952479696" stroke="orange"></line><circle cx="635.7245106441217" cy="834.9470233792252" r="3" fill="black"></circle><circle cx="602.8508636659582" cy="851.7288810377182" r="3" fill="green"></circle><path d="M 602.8508636659582 851.7288810377182 A 36.909448818899946 36.909448818897815 0 0 0 640.0975672247192 871.5964952479696" fill="transparent" alpha="3.613598924293481" beta="4.8311446442567" stroke="pink" center="82.7376616886566"></path><line x1="500" y1="789.6981627296587" x2="500" y2="533.7926509186352" stroke="orange"></line><line x1="500" y1="789.6981627296587" x2="463.4420697412808" y2="536.4173922190248" stroke="orange"></line><circle cx="500" cy="789.6981627296587" r="3" fill="black"></circle><circle cx="500" cy="533.7926509186352" r="3" fill="green"></circle><path d="M 500 533.7926509186352 A 255.9055118110233 255.90551181102353 0 0 0 463.4420697412808 536.4173922190248" fill="transparent" alpha="1.570795" beta="1.7141425689053715" stroke="blue" center="0"></path><line x1="500" y1="789.6981627296587" x2="500" y2="533.7926509186352" stroke="orange"></line><line x1="500" y1="789.6981627296587" x2="536.5579302587192" y2="536.4173922190248" stroke="orange"></line><circle cx="500" cy="789.6981627296587" r="3" fill="black"></circle><circle cx="500" cy="533.7926509186352" r="3" fill="green"></circle><path d="M 500 533.7926509186352 A 255.90551181102333 255.90551181102353 0 0 1 536.5579302587192 536.4173922190248" fill="transparent" alpha="1.427448757889525" beta="1.570795" stroke="blue" center="0"></path><line x1="500" y1="789.6981627296587" x2="500" y2="528.0511811023622" stroke="orange"></line><line x1="500" y1="789.6981627296587" x2="462.6218597675275" y2="530.7348108293631" stroke="orange"></line><circle cx="500" cy="789.6981627296587" r="3" fill="black"></circle><circle cx="500" cy="528.0511811023622" r="3" fill="green"></circle><path d="M 500 528.0511811023622 A 261.64698162729627 261.64698162729655 0 0 0 462.6218597675275 530.7348108293631" fill="transparent" alpha="1.570795" beta="1.7141425689053715" stroke="pink" center="0"></path><line x1="500" y1="789.6981627296587" x2="500" y2="528.0511811023622" stroke="orange"></line><line x1="500" y1="789.6981627296587" x2="537.3781402324726" y2="530.7348108293631" stroke="orange"></line><circle cx="500" cy="789.6981627296587" r="3" fill="black"></circle><circle cx="500" cy="528.0511811023622" r="3" fill="green"></circle><path d="M 500 528.0511811023622 A 261.64698162729627 261.64698162729655 0 0 1 537.3781402324726 530.7348108293631" fill="transparent" alpha="1.4274487578895247" beta="1.570795" stroke="pink" center="0"></path><line x1="478.6745406824147" y1="641.9510465984554" x2="463.4420697412808" y2="536.4173922190248" stroke="orange"></line><line x1="478.6745406824147" y1="641.9510465984554" x2="382.89432458658763" y2="688.807535821255" stroke="orange"></line><circle cx="478.6745406824147" cy="641.9510465984554" r="3" fill="black"></circle><circle cx="463.4420697412808" cy="536.4173922190248" r="3" fill="green"></circle><path d="M 463.4420697412808 536.4173922190248 A 106.62729658792662 106.62729658792627 0 0 0 382.89432458658763 688.807535821255" fill="transparent" alpha="1.7141425689053802" beta="3.596567142849295" stroke="blue" center="-13"></path><line x1="521.3254593175853" y1="641.9510465984554" x2="536.5579302587192" y2="536.4173922190248" stroke="orange"></line><line x1="521.3254593175853" y1="641.9510465984554" x2="617.1056754134124" y2="688.807535821255" stroke="orange"></line><circle cx="521.3254593175853" cy="641.9510465984554" r="3" fill="black"></circle><circle cx="536.5579302587192" cy="536.4173922190248" r="3" fill="green"></circle><path d="M 536.5579302587192 536.4173922190248 A 106.62729658792662 106.62729658792627 0 0 1 617.1056754134124 688.807535821255" fill="transparent" alpha="1.4274487578895163" beta="5.828204183945601" stroke="blue" center="13"></path><line x1="478.6745406824147" y1="641.9510465984554" x2="462.62185976752744" y2="530.734810829363" stroke="orange"></line><line x1="478.6745406824147" y1="641.9510465984554" x2="377.73692833527383" y2="691.3305775486365" stroke="orange"></line><circle cx="478.6745406824147" cy="641.9510465984554" r="3" fill="black"></circle><circle cx="462.62185976752744" cy="530.734810829363" r="3" fill="green"></circle><path d="M 462.62185976752744 530.734810829363 A 112.36876640419962 112.36876640419936 0 0 0 377.73692833527383 691.3305775486365" fill="transparent" alpha="1.7141425689053802" beta="3.596567142849295" stroke="pink" center="-13"></path><line x1="521.3254593175853" y1="641.9510465984554" x2="537.3781402324726" y2="530.734810829363" stroke="orange"></line><line x1="521.3254593175853" y1="641.9510465984554" x2="622.2630716647261" y2="691.3305775486365" stroke="orange"></line><circle cx="521.3254593175853" cy="641.9510465984554" r="3" fill="black"></circle><circle cx="537.3781402324726" cy="530.734810829363" r="3" fill="green"></circle><path d="M 537.3781402324726 530.734810829363 A 112.36876640419952 112.36876640419935 0 0 1 622.2630716647261 691.3305775486365" fill="transparent" alpha="1.427448757889517" beta="5.8282041839456005" stroke="pink" center="13"></path><line x1="344.5822381482569" y1="707.5501315103746" x2="382.89432458658763" y2="688.807535821255" stroke="orange"></line><line x1="344.5822381482569" y1="707.5501315103746" x2="378.9335903324585" y2="732.830271216098" stroke="orange"></line><circle cx="344.5822381482569" cy="707.5501315103746" r="3" fill="black"></circle><circle cx="382.89432458658763" cy="688.807535821255" r="3" fill="green"></circle><path d="M 382.89432458658763 688.807535821255 A 42.650918635170605 42.65091863517045 0 0 1 378.9335903324585 732.830271216098" fill="transparent" alpha="0.45497714284929214" beta="5.648746959270616" stroke="blue" center="-94.7426676248226"></path><line x1="655.4177618517431" y1="707.5501315103746" x2="617.1056754134124" y2="688.807535821255" stroke="orange"></line><line x1="655.4177618517431" y1="707.5501315103746" x2="621.0664096675415" y2="732.830271216098" stroke="orange"></line><circle cx="655.4177618517431" cy="707.5501315103746" r="3" fill="black"></circle><circle cx="617.1056754134124" cy="688.807535821255" r="3" fill="green"></circle><path d="M 617.1056754134124 688.807535821255 A 42.650918635170605 42.6509186351704 0 0 0 621.0664096675415 732.830271216098" fill="transparent" alpha="2.686614183945604" beta="3.77602436752428" stroke="blue" center="94.7426676248226"></path><line x1="344.5822381482569" y1="707.5501315103746" x2="377.73692833527383" y2="691.3305775486365" stroke="orange"></line><line x1="344.5822381482569" y1="707.5501315103746" x2="374.3093698461237" y2="729.4271754864815" stroke="orange"></line><circle cx="344.5822381482569" cy="707.5501315103746" r="3" fill="black"></circle><circle cx="377.73692833527383" cy="691.3305775486365" r="3" fill="green"></circle><path d="M 377.73692833527383 691.3305775486365 A 36.90944881889767 36.90944881889746 0 0 1 374.3093698461237 729.4271754864815" fill="transparent" alpha="0.4549771428492925" beta="5.648746959270615" stroke="pink" center="-94.7426676248226"></path><line x1="655.4177618517431" y1="707.5501315103746" x2="622.2630716647261" y2="691.3305775486365" stroke="orange"></line><line x1="655.4177618517431" y1="707.5501315103746" x2="625.6906301538763" y2="729.4271754864815" stroke="orange"></line><circle cx="655.4177618517431" cy="707.5501315103746" r="3" fill="black"></circle><circle cx="622.2630716647261" cy="691.3305775486365" r="3" fill="green"></circle><path d="M 622.2630716647261 691.3305775486365 A 36.90944881889767 36.90944881889751 0 0 0 625.6906301538763 729.4271754864815" fill="transparent" alpha="2.686614183945605" beta="3.776024367524281" stroke="pink" center="94.7426676248226"></path></svg>