<?xml version="1.0" encoding="UTF-8" standalone="no"?>
<svg width="2560px" height="1600px" viewBox="0 0 2560 1600" version="1.1" xmlns="http://www.w3.org/2000/svg" xmlns:xlink="http://www.w3.org/1999/xlink" xmlns:sketch="http://www.bohemiancoding.com/sketch/ns">
    <!-- Generator: Sketch 3.4.4 (17249) - http://www.bohemiancoding.com/sketch -->
    <title>footer</title>
    <desc>Created with Sketch.</desc>
    <defs></defs>
    <g id="Page-1" stroke="none" stroke-width="1" fill="none" fill-rule="evenodd" sketch:type="MSPage">
        <g id="footer" sketch:type="MSArtboardGroup" stroke-linecap="round" stroke-linejoin="round">
            <g id="Amati" sketch:type="MSLayerGroup" transform="translate(904.286515, -553.952578)">
                <path d="M226.4418,1426.9644 L1665,1426.9644" id="Stroke-58" stroke="#00FF00" stroke-width="0.5" sketch:type="MSShapeGroup"></path>
                <path d="M226.4418,1426.9644 L1665,1426.9644" id="Stroke-59" stroke="#00FF00" stroke-width="0.5" sketch:type="MSShapeGroup"></path>
                <path d="M226.4418,1212.0048 L1665,1212.0048" id="Stroke-60" stroke="#00FF00" stroke-width="0.5" sketch:type="MSShapeGroup"></path>
                <path d="M226.4418,1212.0048 L1665,1212.0048" id="Stroke-61" stroke="#00FF00" stroke-width="0.5" sketch:type="MSShapeGroup"></path>
                <path d="M226.4418,1345.0788 L1665,1345.0788" id="Stroke-62" stroke="#00FF00" stroke-width="0.5" sketch:type="MSShapeGroup"></path>
                <path d="M226.4418,1345.0788 L1665,1345.0788" id="Stroke-63" stroke="#00FF00" stroke-width="0.5" sketch:type="MSShapeGroup"></path>
                <path d="M226.4418,1877.3586 L1665,1877.3586" id="Stroke-64" stroke="#00FF00" stroke-width="0.5" sketch:type="MSShapeGroup"></path>
                <path d="M226.4418,1877.3586 L1665,1877.3586" id="Stroke-65" stroke="#00FF00" stroke-width="0.5" sketch:type="MSShapeGroup"></path>
                <path d="M226.4418,1058.463 L1665,1058.463" id="Stroke-66" stroke="#00FF00" stroke-width="0.5" sketch:type="MSShapeGroup"></path>
                <path d="M226.4418,1058.463 L1665,1058.463" id="Stroke-67" stroke="#00FF00" stroke-width="0.5" sketch:type="MSShapeGroup"></path>
                <path d="M226.4418,1549.8 L1665,1549.8" id="Stroke-68" stroke="#00FF00" stroke-width="0.5" sketch:type="MSShapeGroup"></path>
                <path d="M226.4418,1549.8 L1665,1549.8" id="Stroke-69" stroke="#00FF00" stroke-width="0.5" sketch:type="MSShapeGroup"></path>
                <path d="M226.4418,1713.5784 L1665,1713.5784" id="Stroke-70" stroke="#00FF00" stroke-width="0.5" sketch:type="MSShapeGroup"></path>
                <path d="M226.4418,1713.5784 L1665,1713.5784" id="Stroke-71" stroke="#00FF00" stroke-width="0.5" sketch:type="MSShapeGroup"></path>
                <path d="M714.6846,291.2418 L714.6846,2809.8" id="Stroke-72" stroke="#00FF00" stroke-width="0.5" sketch:type="MSShapeGroup"></path>
                <path d="M1175.3154,291.2418 L1175.3154,2809.8" id="Stroke-73" stroke="#00FF00" stroke-width="0.5" sketch:type="MSShapeGroup"></path>
                <path d="M760.7466,291.2418 L760.7466,2809.8" id="Stroke-74" stroke="#00FF00" stroke-width="0.5" sketch:type="MSShapeGroup"></path>
                <path d="M1129.2534,291.2418 L1129.2534,2809.8" id="Stroke-75" stroke="#00FF00" stroke-width="0.5" sketch:type="MSShapeGroup"></path>
                <path d="M893.8188,291.2418 L893.8188,2809.8" id="Stroke-76" stroke="#00FF00" stroke-width="0.5" sketch:type="MSShapeGroup"></path>
                <path d="M996.1812,291.2418 L996.1812,2809.8" id="Stroke-77" stroke="#00FF00" stroke-width="0.5" sketch:type="MSShapeGroup"></path>
                <path d="M826.6428,291.2418 L826.6428,2809.8" id="Stroke-78" stroke="#00FF00" stroke-width="0.5" sketch:type="MSShapeGroup"></path>
                <path d="M1063.3572,291.2418 L1063.3572,2809.8" id="Stroke-79" stroke="#00FF00" stroke-width="0.5" sketch:type="MSShapeGroup"></path>
                <path d="M226.4418,2844.639 L1665,0.1962" id="Stroke-80" stroke="#00FF00" stroke-width="0.5" sketch:type="MSShapeGroup"></path>
                <path d="M226.4418,0.1962 L1665,2844.639" id="Stroke-81" stroke="#00FF00" stroke-width="0.5" sketch:type="MSShapeGroup"></path>
                <path d="M1477.287,1345.0788 C1477.287,1051.101 1238.9688,812.7918 945,812.7918 C651.0312,812.7918 412.713,1051.101 412.713,1345.0788 C412.713,1639.0476 651.0312,1877.3586 945,1877.3586 C1238.9688,1877.3586 1477.287,1639.0476 1477.287,1345.0788" id="Stroke-82" stroke="#FF0000" stroke-width="0.5" sketch:type="MSShapeGroup"></path>
                <path d="M1042.2414,1707.525 C1042.2414,1617.0678 968.9202,1543.7466 878.463,1543.7466 C788.013,1543.7466 714.6846,1617.0678 714.6846,1707.525 C714.6846,1797.975 788.013,1871.3034 878.463,1871.3034 C968.9202,1871.3034 1042.2414,1797.975 1042.2414,1707.525" id="Stroke-83" stroke="#FF0000" stroke-width="0.5" sketch:type="MSShapeGroup"></path>
                <path d="M1124.136,1707.525 C1124.136,1594.4562 1032.4764,1502.7966 919.4058,1502.7966 C806.3442,1502.7966 714.6846,1594.4562 714.6846,1707.525 C714.6846,1820.5884 806.3442,1912.2462 919.4058,1912.2462 C1032.4764,1912.2462 1124.136,1820.5884 1124.136,1707.525" id="Stroke-84" stroke="#FF0000" stroke-width="0.5" sketch:type="MSShapeGroup"></path>
                <path d="M748.962,1576.8702 C748.962,1542.951 721.4616,1515.4524 687.5442,1515.4524 C653.625,1515.4524 626.1264,1542.951 626.1264,1576.8702 C626.1264,1610.7894 653.625,1638.288 687.5442,1638.288 C721.4616,1638.288 748.962,1610.7894 748.962,1576.8702" id="Stroke-85" stroke="#FF0000" stroke-width="0.5" sketch:type="MSShapeGroup"></path>
                <path d="M1313.5014,1426.9644 C1313.5014,1223.4438 1148.5188,1058.463 945,1058.463 C741.4812,1058.463 576.4986,1223.4438 576.4986,1426.9644 C576.4986,1630.4832 741.4812,1795.4712 945,1795.4712 C1148.5188,1795.4712 1313.5014,1630.4832 1313.5014,1426.9644" id="Stroke-86" stroke="#FF0000" stroke-width="0.5" sketch:type="MSShapeGroup"></path>
                <path d="M1067.8356,1214.2116 C1067.8356,1129.4082 999.0918,1060.6644 914.2938,1060.6644 C829.4904,1060.6644 760.7466,1129.4082 760.7466,1214.2116 C760.7466,1299.0096 829.4904,1367.7534 914.2938,1367.7534 C999.0918,1367.7534 1067.8356,1299.0096 1067.8356,1214.2116" id="Stroke-87" stroke="#FF0000" stroke-width="0.5" sketch:type="MSShapeGroup"></path>
                <path d="M782.613,1308.6702 C782.613,1274.751 755.1216,1247.2524 721.1952,1247.2524 C687.276,1247.2524 659.7846,1274.751 659.7846,1308.6702 C659.7846,1342.5894 687.276,1370.088 721.1952,1370.088 C755.1216,1370.088 782.613,1342.5894 782.613,1308.6702" id="Stroke-88" stroke="#FF0000" stroke-width="0.5" sketch:type="MSShapeGroup"></path>
                <path d="M826.6428,1426.9644 C826.6428,1313.901 734.9832,1222.2414 621.9216,1222.2414 C508.851,1222.2414 417.1914,1313.901 417.1914,1426.9644 C417.1914,1540.0332 508.851,1631.6928 621.9216,1631.6928 C734.9832,1631.6928 826.6428,1540.0332 826.6428,1426.9644" id="Stroke-89" stroke="#FF0000" stroke-width="0.5" sketch:type="MSShapeGroup"></path>
                <path d="M820.0836,1381.0716 C820.0836,1358.4582 801.7524,1340.1216 779.139,1340.1216 C756.5202,1340.1216 738.189,1358.4582 738.189,1381.0716 C738.189,1403.6832 756.5202,1422.0144 779.139,1422.0144 C801.7524,1422.0144 820.0836,1403.6832 820.0836,1381.0716" id="Stroke-90" stroke="#FF0000" stroke-width="0.5" sketch:type="MSShapeGroup"></path>
                <path d="M810.9774,1492.1226 C810.9774,1458.2034 783.4788,1430.7048 749.5596,1430.7048 C715.6332,1430.7048 688.1418,1458.2034 688.1418,1492.1226 C688.1418,1526.0418 715.6332,1553.5404 749.5596,1553.5404 C783.4788,1553.5404 810.9774,1526.0418 810.9774,1492.1226" id="Stroke-91" stroke="#FF0000" stroke-width="0.5" sketch:type="MSShapeGroup"></path>
                <path d="M945,1345.0788 L945,1877.3586" id="Stroke-92" stroke="#FFA500" stroke-width="0.5" sketch:type="MSShapeGroup"></path>
                <path d="M945,1345.0788 L848.889,1868.6106" id="Stroke-93" stroke="#FFA500" stroke-width="0.5" sketch:type="MSShapeGroup"></path>
                <path d="M848.889,1868.6106 C880.6014,1874.4336 912.7692,1877.3586 945,1877.3586" id="Stroke-94" stroke="#0000FF" stroke-width="1.44" sketch:type="MSShapeGroup"></path>
                <path d="M945,1345.0788 L945,1877.3586" id="Stroke-95" stroke="#FFA500" stroke-width="0.5" sketch:type="MSShapeGroup"></path>
                <path d="M945,1345.0788 L1041.111,1868.6106" id="Stroke-96" stroke="#FFA500" stroke-width="0.5" sketch:type="MSShapeGroup"></path>
                <path d="M945,1877.3586 C977.2308,1877.3586 1009.3986,1874.4336 1041.111,1868.6106" id="Stroke-97" stroke="#0000FF" stroke-width="1.44" sketch:type="MSShapeGroup"></path>
                <path d="M878.463,1707.525 L848.889,1868.6106" id="Stroke-98" stroke="#FFA500" stroke-width="0.5" sketch:type="MSShapeGroup"></path>
                <path d="M878.463,1707.525 L714.6846,1707.525" id="Stroke-99" stroke="#FFA500" stroke-width="0.5" sketch:type="MSShapeGroup"></path>
                <path d="M714.6846,1707.525 C714.6846,1786.5702 771.1452,1854.3384 848.889,1868.6106" id="Stroke-100" stroke="#0000FF" stroke-width="1.44" sketch:type="MSShapeGroup"></path>
                <path d="M1011.537,1707.525 L1041.111,1868.6106" id="Stroke-101" stroke="#FFA500" stroke-width="0.5" sketch:type="MSShapeGroup"></path>
                <path d="M1011.537,1707.525 L1175.3154,1707.525" id="Stroke-102" stroke="#FFA500" stroke-width="0.5" sketch:type="MSShapeGroup"></path>
                <path d="M1041.111,1868.6106 C1118.8548,1854.3384 1175.3154,1786.5702 1175.3154,1707.525" id="Stroke-103" stroke="#0000FF" stroke-width="1.44" sketch:type="MSShapeGroup"></path>
                <path d="M919.4058,1707.525 L714.6846,1707.525" id="Stroke-104" stroke="#FFA500" stroke-width="0.5" sketch:type="MSShapeGroup"></path>
                <path d="M919.4058,1707.525 L741.051,1607.0202" id="Stroke-105" stroke="#FFA500" stroke-width="0.5" sketch:type="MSShapeGroup"></path>
                <path d="M741.051,1607.0202 C723.7692,1637.6976 714.6846,1672.3116 714.6846,1707.525" id="Stroke-106" stroke="#0000FF" stroke-width="1.44" sketch:type="MSShapeGroup"></path>
                <path d="M970.5942,1707.525 L1175.3154,1707.525" id="Stroke-107" stroke="#FFA500" stroke-width="0.5" sketch:type="MSShapeGroup"></path>
                <path d="M970.5942,1707.525 L1148.949,1607.0202" id="Stroke-108" stroke="#FFA500" stroke-width="0.5" sketch:type="MSShapeGroup"></path>
                <path d="M1175.3154,1707.525 C1175.3154,1672.3116 1166.2308,1637.6976 1148.949,1607.0202" id="Stroke-109" stroke="#0000FF" stroke-width="1.44" sketch:type="MSShapeGroup"></path>
                <path d="M687.5442,1576.8702 L741.051,1607.0202" id="Stroke-110" stroke="#FFA500" stroke-width="0.5" sketch:type="MSShapeGroup"></path>
                <path d="M687.5442,1576.8702 L742.6764,1549.8" id="Stroke-111" stroke="#FFA500" stroke-width="0.5" sketch:type="MSShapeGroup"></path>
                <path d="M741.051,1607.0202 C750.9942,1589.3784 751.599,1567.9764 742.6764,1549.8" id="Stroke-112" stroke="#0000FF" stroke-width="1.44" sketch:type="MSShapeGroup"></path>
                <path d="M1202.4558,1576.8702 L1148.949,1607.0202" id="Stroke-113" stroke="#FFA500" stroke-width="0.5" sketch:type="MSShapeGroup"></path>
                <path d="M1202.4558,1576.8702 L1147.3236,1549.8" id="Stroke-114" stroke="#FFA500" stroke-width="0.5" sketch:type="MSShapeGroup"></path>
                <path d="M1147.3236,1549.8 C1138.401,1567.9764 1139.0058,1589.3784 1148.949,1607.0202" id="Stroke-115" stroke="#0000FF" stroke-width="1.44" sketch:type="MSShapeGroup"></path>
                <path d="M779.139,1381.0716 L769.7538,1341.2106" id="Stroke-116" stroke="#FFA500" stroke-width="0.5" sketch:type="MSShapeGroup"></path>
                <path d="M779.139,1381.0716 L818.4384,1369.5966" id="Stroke-117" stroke="#FFA500" stroke-width="0.5" sketch:type="MSShapeGroup"></path>
                <path d="M818.4384,1369.5966 C812.3418,1348.6914 790.9452,1336.2264 769.7538,1341.2106" id="Stroke-118" stroke="#0000FF" stroke-width="1.44" sketch:type="MSShapeGroup"></path>
                <path d="M1110.861,1381.0716 L1120.2462,1341.2106" id="Stroke-119" stroke="#FFA500" stroke-width="0.5" sketch:type="MSShapeGroup"></path>
                <path d="M1110.861,1381.0716 L1071.5616,1369.5966" id="Stroke-120" stroke="#FFA500" stroke-width="0.5" sketch:type="MSShapeGroup"></path>
                <path d="M1120.2462,1341.2106 C1099.0548,1336.2264 1077.6582,1348.6914 1071.5616,1369.5966" id="Stroke-121" stroke="#0000FF" stroke-width="1.44" sketch:type="MSShapeGroup"></path>
                <path d="M621.9216,1426.9644 L818.4384,1369.5966" id="Stroke-122" stroke="#FFA500" stroke-width="0.5" sketch:type="MSShapeGroup"></path>
                <path d="M621.9216,1426.9644 L804.2562,1520.0514" id="Stroke-123" stroke="#FFA500" stroke-width="0.5" sketch:type="MSShapeGroup"></path>
                <path d="M804.2562,1520.0514 C828,1473.5394 833.076,1419.7212 818.4384,1369.5966" id="Stroke-124" stroke="#0000FF" stroke-width="1.44" sketch:type="MSShapeGroup"></path>
                <path d="M1268.0784,1426.9644 L1071.5616,1369.5966" id="Stroke-125" stroke="#FFA500" stroke-width="0.5" sketch:type="MSShapeGroup"></path>
                <path d="M1268.0784,1426.9644 L1085.7438,1520.0514" id="Stroke-126" stroke="#FFA500" stroke-width="0.5" sketch:type="MSShapeGroup"></path>
                <path d="M1071.5616,1369.5966 C1056.924,1419.7212 1062,1473.5394 1085.7438,1520.0514" id="Stroke-127" stroke="#0000FF" stroke-width="1.44" sketch:type="MSShapeGroup"></path>
                <path d="M749.5596,1492.1226 L804.2562,1520.0514" id="Stroke-128" stroke="#FFA500" stroke-width="0.5" sketch:type="MSShapeGroup"></path>
                <path d="M749.5596,1492.1226 L742.2822,1553.112" id="Stroke-129" stroke="#FFA500" stroke-width="0.5" sketch:type="MSShapeGroup"></path>
                <path d="M742.2822,1553.112 C767.826,1556.1558 792.5616,1542.9582 804.2562,1520.0514" id="Stroke-130" stroke="#0000FF" stroke-width="1.44" sketch:type="MSShapeGroup"></path>
                <path d="M1140.4404,1492.1226 L1085.7438,1520.0514" id="Stroke-131" stroke="#FFA500" stroke-width="0.5" sketch:type="MSShapeGroup"></path>
                <path d="M1140.4404,1492.1226 L1147.7178,1553.112" id="Stroke-132" stroke="#FFA500" stroke-width="0.5" sketch:type="MSShapeGroup"></path>
                <path d="M1085.7438,1520.0514 C1097.4384,1542.9582 1122.174,1556.1558 1147.7178,1553.112" id="Stroke-133" stroke="#0000FF" stroke-width="1.44" sketch:type="MSShapeGroup"></path>
                <path d="M945,1426.9644 L945,1058.463" id="Stroke-134" stroke="#FFA500" stroke-width="0.5" sketch:type="MSShapeGroup"></path>
                <path d="M945,1426.9644 L892.3572,1062.2394" id="Stroke-135" stroke="#FFA500" stroke-width="0.5" sketch:type="MSShapeGroup"></path>
                <path d="M945,1058.463 C927.387,1058.463 909.7938,1059.7212 892.3572,1062.2394" id="Stroke-136" stroke="#0000FF" stroke-width="1.44" sketch:type="MSShapeGroup"></path>
                <path d="M945,1426.9644 L945,1058.463" id="Stroke-137" stroke="#FFA500" stroke-width="0.5" sketch:type="MSShapeGroup"></path>
                <path d="M945,1426.9644 L997.6428,1062.2394" id="Stroke-138" stroke="#FFA500" stroke-width="0.5" sketch:type="MSShapeGroup"></path>
                <path d="M997.6428,1062.2394 C980.2062,1059.7212 962.613,1058.463 945,1058.463" id="Stroke-139" stroke="#0000FF" stroke-width="1.44" sketch:type="MSShapeGroup"></path>
                <path d="M914.2938,1214.2116 L892.3572,1062.2394" id="Stroke-140" stroke="#FFA500" stroke-width="0.5" sketch:type="MSShapeGroup"></path>
                <path d="M914.2938,1214.2116 L776.3688,1281.6846" id="Stroke-141" stroke="#FFA500" stroke-width="0.5" sketch:type="MSShapeGroup"></path>
                <path d="M892.3572,1062.2394 C843.7788,1069.2486 801.4788,1099.0692 778.5414,1142.4582 C755.6058,1185.849 754.7976,1237.5918 776.3688,1281.6846" id="Stroke-142" stroke="#0000FF" stroke-width="1.44" sketch:type="MSShapeGroup"></path>
                <path d="M975.7062,1214.2116 L997.6428,1062.2394" id="Stroke-143" stroke="#FFA500" stroke-width="0.5" sketch:type="MSShapeGroup"></path>
                <path d="M975.7062,1214.2116 L1113.6312,1281.6846" id="Stroke-144" stroke="#FFA500" stroke-width="0.5" sketch:type="MSShapeGroup"></path>
                <path d="M1113.6312,1281.6846 C1135.2024,1237.5918 1134.3942,1185.849 1111.4586,1142.4582 C1088.5212,1099.0692 1046.2212,1069.2486 997.6428,1062.2394" id="Stroke-145" stroke="#0000FF" stroke-width="1.44" sketch:type="MSShapeGroup"></path>
                <path d="M721.1952,1308.6702 L776.3688,1281.6846" id="Stroke-146" stroke="#FFA500" stroke-width="0.5" sketch:type="MSShapeGroup"></path>
                <path d="M721.1952,1308.6702 L770.6664,1345.0788" id="Stroke-147" stroke="#FFA500" stroke-width="0.5" sketch:type="MSShapeGroup"></path>
                <path d="M770.6664,1345.0788 C784.224,1326.6558 786.4164,1302.2298 776.3688,1281.6846" id="Stroke-148" stroke="#0000FF" stroke-width="1.44" sketch:type="MSShapeGroup"></path>
                <path d="M1168.8048,1308.6702 L1113.6312,1281.6846" id="Stroke-149" stroke="#FFA500" stroke-width="0.5" sketch:type="MSShapeGroup"></path>
                <path d="M1168.8048,1308.6702 L1119.3336,1345.0788" id="Stroke-150" stroke="#FFA500" stroke-width="0.5" sketch:type="MSShapeGroup"></path>
                <path d="M1113.6312,1281.6846 C1103.5836,1302.2298 1105.776,1326.6558 1119.3336,1345.0788" id="Stroke-151" stroke="#0000FF" stroke-width="1.44" sketch:type="MSShapeGroup"></path>
            </g>
        </g>
    </g>
</svg>