<?xml version="1.0" encoding="UTF-8" standalone="no"?>
<svg width="1024px" height="671px" viewBox="0 0 1024 671" version="1.1" xmlns="http://www.w3.org/2000/svg" xmlns:xlink="http://www.w3.org/1999/xlink" xmlns:sketch="http://www.bohemiancoding.com/sketch/ns">
    <!-- Generator: Sketch 3.4.4 (17249) - http://www.bohemiancoding.com/sketch -->
    <title>footer-mobile</title>
    <desc>Created with Sketch.</desc>
    <defs></defs>
    <g id="Page-1" stroke="none" stroke-width="1" fill="none" fill-rule="evenodd" sketch:type="MSPage">
        <g id="footer-mobile" sketch:type="MSArtboardGroup" stroke-linecap="round" stroke-linejoin="round">
            <g id="Amati" sketch:type="MSLayerGroup" transform="translate(-19.562500, -428.573957)">
                <path d="M127.373512,802.667475 L936.5625,802.667475" id="Stroke-58" stroke="#00FF00" stroke-width="0.5" sketch:type="MSShapeGroup"></path>
                <path d="M127.373512,802.667475 L936.5625,802.667475" id="Stroke-59" stroke="#00FF00" stroke-width="0.5" sketch:type="MSShapeGroup"></path>
                <path d="M127.373512,681.7527 L936.5625,681.7527" id="Stroke-60" stroke="#00FF00" stroke-width="0.5" sketch:type="MSShapeGroup"></path>
                <path d="M127.373512,681.7527 L936.5625,681.7527" id="Stroke-61" stroke="#00FF00" stroke-width="0.5" sketch:type="MSShapeGroup"></path>
                <path d="M127.373512,756.606825 L936.5625,756.606825" id="Stroke-62" stroke="#00FF00" stroke-width="0.5" sketch:type="MSShapeGroup"></path>
                <path d="M127.373512,756.606825 L936.5625,756.606825" id="Stroke-63" stroke="#00FF00" stroke-width="0.5" sketch:type="MSShapeGroup"></path>
                <path d="M127.373512,1056.01421 L936.5625,1056.01421" id="Stroke-64" stroke="#00FF00" stroke-width="0.5" sketch:type="MSShapeGroup"></path>
                <path d="M127.373512,1056.01421 L936.5625,1056.01421" id="Stroke-65" stroke="#00FF00" stroke-width="0.5" sketch:type="MSShapeGroup"></path>
                <path d="M127.373512,595.385438 L936.5625,595.385438" id="Stroke-66" stroke="#00FF00" stroke-width="0.5" sketch:type="MSShapeGroup"></path>
                <path d="M127.373512,595.385438 L936.5625,595.385438" id="Stroke-67" stroke="#00FF00" stroke-width="0.5" sketch:type="MSShapeGroup"></path>
                <path d="M127.373512,871.7625 L936.5625,871.7625" id="Stroke-68" stroke="#00FF00" stroke-width="0.5" sketch:type="MSShapeGroup"></path>
                <path d="M127.373512,871.7625 L936.5625,871.7625" id="Stroke-69" stroke="#00FF00" stroke-width="0.5" sketch:type="MSShapeGroup"></path>
                <path d="M127.373512,963.88785 L936.5625,963.88785" id="Stroke-70" stroke="#00FF00" stroke-width="0.5" sketch:type="MSShapeGroup"></path>
                <path d="M127.373512,963.88785 L936.5625,963.88785" id="Stroke-71" stroke="#00FF00" stroke-width="0.5" sketch:type="MSShapeGroup"></path>
                <path d="M402.010088,163.823512 L402.010088,1580.5125" id="Stroke-72" stroke="#00FF00" stroke-width="0.5" sketch:type="MSShapeGroup"></path>
                <path d="M661.114912,163.823512 L661.114912,1580.5125" id="Stroke-73" stroke="#00FF00" stroke-width="0.5" sketch:type="MSShapeGroup"></path>
                <path d="M427.919963,163.823512 L427.919963,1580.5125" id="Stroke-74" stroke="#00FF00" stroke-width="0.5" sketch:type="MSShapeGroup"></path>
                <path d="M635.205038,163.823512 L635.205038,1580.5125" id="Stroke-75" stroke="#00FF00" stroke-width="0.5" sketch:type="MSShapeGroup"></path>
                <path d="M502.773075,163.823512 L502.773075,1580.5125" id="Stroke-76" stroke="#00FF00" stroke-width="0.5" sketch:type="MSShapeGroup"></path>
                <path d="M560.351925,163.823512 L560.351925,1580.5125" id="Stroke-77" stroke="#00FF00" stroke-width="0.5" sketch:type="MSShapeGroup"></path>
                <path d="M464.986575,163.823512 L464.986575,1580.5125" id="Stroke-78" stroke="#00FF00" stroke-width="0.5" sketch:type="MSShapeGroup"></path>
                <path d="M598.138425,163.823512 L598.138425,1580.5125" id="Stroke-79" stroke="#00FF00" stroke-width="0.5" sketch:type="MSShapeGroup"></path>
                <path d="M127.373512,1600.10944 L936.5625,0.1103625" id="Stroke-80" stroke="#00FF00" stroke-width="0.5" sketch:type="MSShapeGroup"></path>
                <path d="M127.373512,0.1103625 L936.5625,1600.10944" id="Stroke-81" stroke="#00FF00" stroke-width="0.5" sketch:type="MSShapeGroup"></path>
                <path d="M830.973937,756.606825 C830.973937,591.244312 696.91995,457.195387 531.5625,457.195387 C366.20505,457.195387 232.151062,591.244312 232.151062,756.606825 C232.151062,921.964275 366.20505,1056.01421 531.5625,1056.01421 C696.91995,1056.01421 830.973937,921.964275 830.973937,756.606825" id="Stroke-82" stroke="#FF0000" stroke-width="0.5" sketch:type="MSShapeGroup"></path>
                <path d="M586.260788,960.482813 C586.260788,909.600638 545.017613,868.357463 494.135438,868.357463 C443.257313,868.357463 402.010088,909.600638 402.010088,960.482813 C402.010088,1011.36094 443.257313,1052.60816 494.135438,1052.60816 C545.017613,1052.60816 586.260788,1011.36094 586.260788,960.482813" id="Stroke-83" stroke="#FF0000" stroke-width="0.5" sketch:type="MSShapeGroup"></path>
                <path d="M632.3265,960.482813 C632.3265,896.881613 580.767975,845.323088 517.165763,845.323088 C453.568613,845.323088 402.010088,896.881613 402.010088,960.482813 C402.010088,1024.08098 453.568613,1075.63849 517.165763,1075.63849 C580.767975,1075.63849 632.3265,1024.08098 632.3265,960.482813" id="Stroke-84" stroke="#FF0000" stroke-width="0.5" sketch:type="MSShapeGroup"></path>
                <path d="M421.291125,886.989487 C421.291125,867.909937 405.82215,852.441975 386.743612,852.441975 C367.664062,852.441975 352.1961,867.909937 352.1961,886.989487 C352.1961,906.069038 367.664062,921.537 386.743612,921.537 C405.82215,921.537 421.291125,906.069038 421.291125,886.989487" id="Stroke-85" stroke="#FF0000" stroke-width="0.5" sketch:type="MSShapeGroup"></path>
                <path d="M738.844537,802.667475 C738.844537,688.187138 646.041825,595.385438 531.5625,595.385438 C417.083175,595.385438 324.280462,688.187138 324.280462,802.667475 C324.280462,917.1468 417.083175,1009.95255 531.5625,1009.95255 C646.041825,1009.95255 738.844537,917.1468 738.844537,802.667475" id="Stroke-86" stroke="#FF0000" stroke-width="0.5" sketch:type="MSShapeGroup"></path>
                <path d="M600.657525,682.994025 C600.657525,635.292113 561.989138,596.623725 514.290263,596.623725 C466.58835,596.623725 427.919963,635.292113 427.919963,682.994025 C427.919963,730.6929 466.58835,769.361288 514.290263,769.361288 C561.989138,769.361288 600.657525,730.6929 600.657525,682.994025" id="Stroke-87" stroke="#FF0000" stroke-width="0.5" sketch:type="MSShapeGroup"></path>
                <path d="M440.219813,736.126988 C440.219813,717.047438 424.7559,701.579475 405.6723,701.579475 C386.59275,701.579475 371.128838,717.047438 371.128838,736.126988 C371.128838,755.206538 386.59275,770.6745 405.6723,770.6745 C424.7559,770.6745 440.219813,755.206538 440.219813,736.126988" id="Stroke-88" stroke="#FF0000" stroke-width="0.5" sketch:type="MSShapeGroup"></path>
                <path d="M464.986575,802.667475 C464.986575,739.069313 413.42805,687.510788 349.8309,687.510788 C286.228688,687.510788 234.670163,739.069313 234.670163,802.667475 C234.670163,866.268675 286.228688,917.8272 349.8309,917.8272 C413.42805,917.8272 464.986575,866.268675 464.986575,802.667475" id="Stroke-89" stroke="#FF0000" stroke-width="0.5" sketch:type="MSShapeGroup"></path>
                <path d="M461.297025,776.852775 C461.297025,764.132738 450.985725,753.8184 438.265688,753.8184 C425.542612,753.8184 415.231313,764.132738 415.231313,776.852775 C415.231313,789.5718 425.542612,799.8831 438.265688,799.8831 C450.985725,799.8831 461.297025,789.5718 461.297025,776.852775" id="Stroke-90" stroke="#FF0000" stroke-width="0.5" sketch:type="MSShapeGroup"></path>
                <path d="M456.174787,839.318962 C456.174787,820.239412 440.706825,804.77145 421.627275,804.77145 C402.543675,804.77145 387.079762,820.239412 387.079762,839.318962 C387.079762,858.398513 402.543675,873.866475 421.627275,873.866475 C440.706825,873.866475 456.174787,858.398513 456.174787,839.318962" id="Stroke-91" stroke="#FF0000" stroke-width="0.5" sketch:type="MSShapeGroup"></path>
                <path d="M531.5625,756.606825 L531.5625,1056.01421" id="Stroke-92" stroke="#FFA500" stroke-width="0.5" sketch:type="MSShapeGroup"></path>
                <path d="M531.5625,756.606825 L477.500063,1051.09346" id="Stroke-93" stroke="#FFA500" stroke-width="0.5" sketch:type="MSShapeGroup"></path>
                <path d="M477.500063,1051.09346 C495.338287,1054.3689 513.432675,1056.01421 531.5625,1056.01421" id="Stroke-94" stroke="#0000FF" stroke-width="0.81" sketch:type="MSShapeGroup"></path>
                <path d="M531.5625,756.606825 L531.5625,1056.01421" id="Stroke-95" stroke="#FFA500" stroke-width="0.5" sketch:type="MSShapeGroup"></path>
                <path d="M531.5625,756.606825 L585.624937,1051.09346" id="Stroke-96" stroke="#FFA500" stroke-width="0.5" sketch:type="MSShapeGroup"></path>
                <path d="M531.5625,1056.01421 C549.692325,1056.01421 567.786713,1054.3689 585.624937,1051.09346" id="Stroke-97" stroke="#0000FF" stroke-width="0.81" sketch:type="MSShapeGroup"></path>
                <path d="M494.135438,960.482813 L477.500063,1051.09346" id="Stroke-98" stroke="#FFA500" stroke-width="0.5" sketch:type="MSShapeGroup"></path>
                <path d="M494.135438,960.482813 L402.010088,960.482813" id="Stroke-99" stroke="#FFA500" stroke-width="0.5" sketch:type="MSShapeGroup"></path>
                <path d="M402.010088,960.482813 C402.010088,1004.94574 433.769175,1043.06535 477.500063,1051.09346" id="Stroke-100" stroke="#0000FF" stroke-width="0.81" sketch:type="MSShapeGroup"></path>
                <path d="M568.989563,960.482813 L585.624938,1051.09346" id="Stroke-101" stroke="#FFA500" stroke-width="0.5" sketch:type="MSShapeGroup"></path>
                <path d="M568.989563,960.482813 L661.114913,960.482813" id="Stroke-102" stroke="#FFA500" stroke-width="0.5" sketch:type="MSShapeGroup"></path>
                <path d="M585.624938,1051.09346 C629.355825,1043.06535 661.114913,1004.94574 661.114913,960.482813" id="Stroke-103" stroke="#0000FF" stroke-width="0.81" sketch:type="MSShapeGroup"></path>
                <path d="M517.165763,960.482813 L402.010088,960.482813" id="Stroke-104" stroke="#FFA500" stroke-width="0.5" sketch:type="MSShapeGroup"></path>
                <path d="M517.165763,960.482813 L416.841188,903.948863" id="Stroke-105" stroke="#FFA500" stroke-width="0.5" sketch:type="MSShapeGroup"></path>
                <path d="M416.841188,903.948863 C407.120175,921.2049 402.010088,940.675275 402.010088,960.482813" id="Stroke-106" stroke="#0000FF" stroke-width="0.81" sketch:type="MSShapeGroup"></path>
                <path d="M545.959238,960.482813 L661.114913,960.482813" id="Stroke-107" stroke="#FFA500" stroke-width="0.5" sketch:type="MSShapeGroup"></path>
                <path d="M545.959238,960.482813 L646.283813,903.948863" id="Stroke-108" stroke="#FFA500" stroke-width="0.5" sketch:type="MSShapeGroup"></path>
                <path d="M661.114913,960.482813 C661.114913,940.675275 656.004825,921.2049 646.283813,903.948863" id="Stroke-109" stroke="#0000FF" stroke-width="0.81" sketch:type="MSShapeGroup"></path>
                <path d="M386.743613,886.989488 L416.841188,903.948863" id="Stroke-110" stroke="#FFA500" stroke-width="0.5" sketch:type="MSShapeGroup"></path>
                <path d="M386.743613,886.989487 L417.755475,871.7625" id="Stroke-111" stroke="#FFA500" stroke-width="0.5" sketch:type="MSShapeGroup"></path>
                <path d="M416.841188,903.948862 C422.434238,894.02535 422.774438,881.986725 417.755475,871.7625" id="Stroke-112" stroke="#0000FF" stroke-width="0.81" sketch:type="MSShapeGroup"></path>
                <path d="M676.381388,886.989488 L646.283813,903.948863" id="Stroke-113" stroke="#FFA500" stroke-width="0.5" sketch:type="MSShapeGroup"></path>
                <path d="M676.381388,886.989487 L645.369525,871.7625" id="Stroke-114" stroke="#FFA500" stroke-width="0.5" sketch:type="MSShapeGroup"></path>
                <path d="M645.369525,871.7625 C640.350563,881.986725 640.690763,894.02535 646.283813,903.948862" id="Stroke-115" stroke="#0000FF" stroke-width="0.81" sketch:type="MSShapeGroup"></path>
                <path d="M438.265688,776.852775 L432.986513,754.430963" id="Stroke-116" stroke="#FFA500" stroke-width="0.5" sketch:type="MSShapeGroup"></path>
                <path d="M438.265688,776.852775 L460.3716,770.398088" id="Stroke-117" stroke="#FFA500" stroke-width="0.5" sketch:type="MSShapeGroup"></path>
                <path d="M460.3716,770.398088 C456.942263,758.638913 444.906675,751.62735 432.986513,754.430963" id="Stroke-118" stroke="#0000FF" stroke-width="0.81" sketch:type="MSShapeGroup"></path>
                <path d="M624.859313,776.852775 L630.138488,754.430963" id="Stroke-119" stroke="#FFA500" stroke-width="0.5" sketch:type="MSShapeGroup"></path>
                <path d="M624.859312,776.852775 L602.7534,770.398088" id="Stroke-120" stroke="#FFA500" stroke-width="0.5" sketch:type="MSShapeGroup"></path>
                <path d="M630.138487,754.430963 C618.218325,751.62735 606.182737,758.638913 602.7534,770.398088" id="Stroke-121" stroke="#0000FF" stroke-width="0.81" sketch:type="MSShapeGroup"></path>
                <path d="M349.8309,802.667475 L460.3716,770.398088" id="Stroke-122" stroke="#FFA500" stroke-width="0.5" sketch:type="MSShapeGroup"></path>
                <path d="M349.8309,802.667475 L452.394113,855.028913" id="Stroke-123" stroke="#FFA500" stroke-width="0.5" sketch:type="MSShapeGroup"></path>
                <path d="M452.394113,855.028913 C465.75,828.865913 468.60525,798.593175 460.3716,770.398088" id="Stroke-124" stroke="#0000FF" stroke-width="0.81" sketch:type="MSShapeGroup"></path>
                <path d="M713.2941,802.667475 L602.7534,770.398088" id="Stroke-125" stroke="#FFA500" stroke-width="0.5" sketch:type="MSShapeGroup"></path>
                <path d="M713.2941,802.667475 L610.730887,855.028913" id="Stroke-126" stroke="#FFA500" stroke-width="0.5" sketch:type="MSShapeGroup"></path>
                <path d="M602.7534,770.398088 C594.51975,798.593175 597.375,828.865913 610.730887,855.028913" id="Stroke-127" stroke="#0000FF" stroke-width="0.81" sketch:type="MSShapeGroup"></path>
                <path d="M421.627275,839.318963 L452.394113,855.028913" id="Stroke-128" stroke="#FFA500" stroke-width="0.5" sketch:type="MSShapeGroup"></path>
                <path d="M421.627275,839.318963 L417.533737,873.6255" id="Stroke-129" stroke="#FFA500" stroke-width="0.5" sketch:type="MSShapeGroup"></path>
                <path d="M417.533737,873.6255 C431.902125,875.337638 445.8159,867.913988 452.394113,855.028913" id="Stroke-130" stroke="#0000FF" stroke-width="0.81" sketch:type="MSShapeGroup"></path>
                <path d="M641.497725,839.318963 L610.730887,855.028913" id="Stroke-131" stroke="#FFA500" stroke-width="0.5" sketch:type="MSShapeGroup"></path>
                <path d="M641.497725,839.318963 L645.591262,873.6255" id="Stroke-132" stroke="#FFA500" stroke-width="0.5" sketch:type="MSShapeGroup"></path>
                <path d="M610.730887,855.028913 C617.3091,867.913988 631.222875,875.337638 645.591262,873.6255" id="Stroke-133" stroke="#0000FF" stroke-width="0.81" sketch:type="MSShapeGroup"></path>
                <path d="M531.5625,802.667475 L531.5625,595.385438" id="Stroke-134" stroke="#FFA500" stroke-width="0.5" sketch:type="MSShapeGroup"></path>
                <path d="M531.5625,802.667475 L501.950925,597.509663" id="Stroke-135" stroke="#FFA500" stroke-width="0.5" sketch:type="MSShapeGroup"></path>
                <path d="M531.5625,595.385438 C521.655187,595.385438 511.759012,596.093175 501.950925,597.509662" id="Stroke-136" stroke="#0000FF" stroke-width="0.81" sketch:type="MSShapeGroup"></path>
                <path d="M531.5625,802.667475 L531.5625,595.385438" id="Stroke-137" stroke="#FFA500" stroke-width="0.5" sketch:type="MSShapeGroup"></path>
                <path d="M531.5625,802.667475 L561.174075,597.509663" id="Stroke-138" stroke="#FFA500" stroke-width="0.5" sketch:type="MSShapeGroup"></path>
                <path d="M561.174075,597.509662 C551.365988,596.093175 541.469812,595.385438 531.5625,595.385438" id="Stroke-139" stroke="#0000FF" stroke-width="0.81" sketch:type="MSShapeGroup"></path>
                <path d="M514.290262,682.994025 L501.950925,597.509663" id="Stroke-140" stroke="#FFA500" stroke-width="0.5" sketch:type="MSShapeGroup"></path>
                <path d="M514.290262,682.994025 L436.70745,720.947588" id="Stroke-141" stroke="#FFA500" stroke-width="0.5" sketch:type="MSShapeGroup"></path>
                <path d="M501.950925,597.509663 C474.625575,601.452338 450.831825,618.226425 437.929537,642.632738 C425.028262,667.040063 424.57365,696.145388 436.70745,720.947588" id="Stroke-142" stroke="#0000FF" stroke-width="0.81" sketch:type="MSShapeGroup"></path>
                <path d="M548.834738,682.994025 L561.174075,597.509663" id="Stroke-143" stroke="#FFA500" stroke-width="0.5" sketch:type="MSShapeGroup"></path>
                <path d="M548.834738,682.994025 L626.41755,720.947588" id="Stroke-144" stroke="#FFA500" stroke-width="0.5" sketch:type="MSShapeGroup"></path>
                <path d="M626.41755,720.947588 C638.55135,696.145388 638.096738,667.040063 625.195463,642.632738 C612.293175,618.226425 588.499425,601.452338 561.174075,597.509663" id="Stroke-145" stroke="#0000FF" stroke-width="0.81" sketch:type="MSShapeGroup"></path>
                <path d="M405.6723,736.126987 L436.70745,720.947587" id="Stroke-146" stroke="#FFA500" stroke-width="0.5" sketch:type="MSShapeGroup"></path>
                <path d="M405.6723,736.126988 L433.49985,756.606825" id="Stroke-147" stroke="#FFA500" stroke-width="0.5" sketch:type="MSShapeGroup"></path>
                <path d="M433.49985,756.606825 C441.126,746.243888 442.359225,732.504262 436.70745,720.947587" id="Stroke-148" stroke="#0000FF" stroke-width="0.81" sketch:type="MSShapeGroup"></path>
                <path d="M657.4527,736.126987 L626.41755,720.947587" id="Stroke-149" stroke="#FFA500" stroke-width="0.5" sketch:type="MSShapeGroup"></path>
                <path d="M657.4527,736.126988 L629.62515,756.606825" id="Stroke-150" stroke="#FFA500" stroke-width="0.5" sketch:type="MSShapeGroup"></path>
                <path d="M626.41755,720.947587 C620.765775,732.504262 621.999,746.243888 629.62515,756.606825" id="Stroke-151" stroke="#0000FF" stroke-width="0.81" sketch:type="MSShapeGroup"></path>
            </g>
        </g>
    </g>
</svg>